<?xml version="1.0" encoding="UTF-8"?><svg id="uuid-d709e9ef-78c3-4744-8584-c42a0e19f45c" xmlns="http://www.w3.org/2000/svg" viewBox="0 0 23.7 23.69"><defs><style>.uuid-13a6ed0a-1e3e-47ed-83fe-4c5e87a3f502{fill:#fff;}</style></defs><path class="uuid-13a6ed0a-1e3e-47ed-83fe-4c5e87a3f502" d="m7.16,9.26c.9.6,2.12.35,2.72-.55.6-.9.35-2.12-.55-2.72-.9-.6-2.12-.35-2.72.55-.6.9-.35,2.12.55,2.72Z"/><path class="uuid-13a6ed0a-1e3e-47ed-83fe-4c5e87a3f502" d="m8.34,14.3c.43-.64.25-1.51-.39-1.94s-1.51-.25-1.94.39c-.43.64-.25,1.51.39,1.94s1.51.25,1.94-.39Z"/><path class="uuid-13a6ed0a-1e3e-47ed-83fe-4c5e87a3f502" d="m9.77,17.78c-.71,1.07-.42,2.52.65,3.24,1.07.71,2.52.42,3.24-.65s.42-2.52-.65-3.24c-1.07-.71-2.52-.42-3.24.65Z"/><path class="uuid-13a6ed0a-1e3e-47ed-83fe-4c5e87a3f502" d="m4.87,9.35c-.51-.34-1.19-.2-1.52.31-.34.51-.2,1.19.31,1.52s1.19.2,1.52-.31.2-1.19-.31-1.52Z"/><path class="uuid-13a6ed0a-1e3e-47ed-83fe-4c5e87a3f502" d="m19.9,15.57c.36-.53.21-1.26-.32-1.61-.53-.36-1.26-.21-1.61.32s-.21,1.26.32,1.61c.53.36,1.26.21,1.61-.32Z"/><path class="uuid-13a6ed0a-1e3e-47ed-83fe-4c5e87a3f502" d="m16.77,11.61c.36-.53.21-1.26-.32-1.61-.53-.36-1.26-.21-1.61.32-.36.53-.21,1.26.32,1.61.53.36,1.26.21,1.61-.32Z"/><path class="uuid-13a6ed0a-1e3e-47ed-83fe-4c5e87a3f502" d="m11.85,23.69c6.53,0,11.85-5.31,11.85-11.85,0-1.12-.16-2.23-.48-3.32-.05-.18-.21-.32-.4-.35-1.62-.27-2.75-1.45-3.03-3.15-.02-.15-.12-.28-.25-.35-.13-.07-.29-.09-.43-.03-.46.18-.96.27-1.49.27-1.13,0-2.08-.38-2.76-1.11-.75-.8-1.14-1.95-1.06-3.18.02-.26-.17-.49-.44-.53-.57-.07-1.05-.11-1.52-.11C5.31,0,0,5.31,0,11.85s5.31,11.85,11.85,11.85Zm0-22.69c.3,0,.6.02.94.05.03,1.32.5,2.56,1.34,3.45.87.93,2.08,1.42,3.49,1.42.45,0,.88-.05,1.3-.16.47,1.71,1.73,2.95,3.42,3.34.24.9.36,1.83.36,2.75,0,5.98-4.87,10.85-10.85,10.85S1,17.83,1,11.85,5.87,1,11.85,1Z"/></svg>