<?xml version="1.0" encoding="UTF-8"?><svg id="uuid-70e66158-19bf-48f7-a7c2-5f10dec59ce7" xmlns="http://www.w3.org/2000/svg" 
viewBox="0 0 21.75 30.75"><defs><style>.uuid-a9ec264e-c4d7-4950-8e23-73bcd33e2c28{fill:#00a383;}.uuid-1b1dd1de-7906-43f2-8e89-d90acae2d31c{fill:#fb9f2c;}.uuid-9f537603-82ca-4297-9d0e-097781d50f38{fill:#f63a76;}</style></defs><path class="uuid-a9ec264e-c4d7-4950-8e23-73bcd33e2c28" d="m9.84,4.93l-3.91-3.71c-.56-.53.06-1.23,1.09-1.23h7.34c.99,0,1.62.66,1.13,1.19l-3.43,3.71c-.48.52-1.69.54-2.22.04Z"/><path class="uuid-9f537603-82ca-4297-9d0e-097781d50f38" d="m18,2.45l-6.11,4.17c-.55.37-1.51.37-2.05,0L3.73,2.45c-.73-.5-2.06-.31-2.35.33l-.82,1.77c-.15.33.03.68.47.89l8.98,4.36c.5.24,1.21.24,1.71,0l8.98-4.36c.44-.21.62-.56.47-.89l-.82-1.77c-.29-.64-1.63-.83-2.35-.33Z"/><path class="uuid-1b1dd1de-7906-43f2-8e89-d90acae2d31c" d="m0,6.98c0-.08,3.23,1.26,5.15,2.07.85.36,1.3.98,1.16,1.61l-.58,2.62c-.03.16-.31.25-.54.17C3.81,13.01-.14,11.38,0,6.98Z"/><path class="uuid-9f537603-82ca-4297-9d0e-097781d50f38" d="m10.89,11.33h0c.28,0,.53.09.57.22.49,1.55,3.23,10.44,2.35,11.3-.96.94-3.92,1.19-5.58.09-1.52-1.01,1.58-9.89,2.12-11.39.05-.13.27-.22.54-.22Z"/><path class="uuid-1b1dd1de-7906-43f2-8e89-d90acae2d31c" d="m21.53,6.98c0-.08-3.23,1.26-5.15,2.07-.85.36-1.3.98-1.16,1.61l.58,2.62c.03.16.31.25.54.17,1.39-.44,5.34-2.07,5.19-6.47Z"/><path class="uuid-a9ec264e-c4d7-4950-8e23-73bcd33e2c28" d="m20.97,14.14s-4.66.08-5.45,2.2-1.22,4.58,2.54,5.84,4.49-8.15,2.91-8.03Z"/><path class="uuid-1b1dd1de-7906-43f2-8e89-d90acae2d31c" d="m15.97,23.6c-1.26.59-2.97,1.5-4.08,2.5-.46.42-1.45.42-1.92,0-1.11-1-2.82-1.91-4.08-2.5-.73-.34-1.78-.04-1.84.52-.62,5.62,5.32,6.48,6.73,6.61v.02s.05,0,.15,0c.1,0,.15,0,.15,0v-.02c1.41-.12,7.35-.
98,6.73-6.61-.06-.56-1.11-.86-1.84-.52Z"/><path class="uuid-a9ec264e-c4d7-4950-8e23-73bcd33e2c28" d="m.78,14.14s4.66.08,5.45,2.
2,1.22,4.58-2.54,5.84S-.8,14.03.78,14.14Z"/></svg>