<?xml version="1.0" encoding="UTF-8"?><svg id="uuid-90d88805-9a59-4286-99fe-4b3ee2c3a926" xmlns="http://www.w3.org/2000/svg" viewBox="0 0 18.17 23.5"><defs><style>.uuid-fc46ff4c-5d52-4665-bba4-c60e27d4a26b{fill:#fff;}</style></defs><path class="uuid-fc46ff4c-5d52-4665-bba4-c60e27d4a26b" d="m15.67,0H5.54l-.15.15C3.54,2,.5,5,.2,5.24l-.2.14v15.52c0,1.43,1.12,2.59,2.5,2.59h13.17c1.38,0,2.5-1.16,2.5-2.59V2.59c0-1.43-1.12-2.59-2.5-2.59ZM5.25,1.7v3.71H1.48c.92-.89,2.55-2.5,3.77-3.71Zm11.92,19.21c0,.88-.67,1.59-1.5,1.59H2.5c-.83,0-1.5-.71-1.5-1.59V6.41h5.25V1h9.42c.83,0,1.5.71,1.5,1.59v18.31Z"/><rect class="uuid-fc46ff4c-5d52-4665-bba4-c60e27d4a26b" x="8.17" y="4.62" width="7.49" height="1"/><rect class="uuid-fc46ff4c-5d52-4665-bba4-c60e27d4a26b" x="3.93" y="10.18" width="11.4" height="1"/><rect class="uuid-fc46ff4c-5d52-4665-bba4-c60e27d4a26b" x="3.93" y="12.49" width="11.4" height="1"/><rect class="uuid-fc46ff4c-5d52-4665-bba4-c60e27d4a26b" x="3.93" y="14.8" width="11.4" height="1"/><rect class="uuid-fc46ff4c-5d52-4665-bba4-c60e27d4a26b" x="3.93" y="17.12" width="11.4" height="1"/></svg>