<?xml version="1.0" encoding="UTF-8"?><svg id="uuid-60cac238-616a-45bf-a206-39e719da9382" xmlns="http://www.w3.org/2000/svg" viewBox="0 0 23.61 17.11"><defs><style>.uuid-8e4d3e4e-aa66-463a-9999-2bef2582ba57{fill:#fff;}</style></defs><path class="uuid-8e4d3e4e-aa66-463a-9999-2bef2582ba57" d="m19.9,0H3.71C1.66,0,0,1.66,0,3.71v9.7c0,2.04,1.66,3.71,3.71,3.71h16.19c2.04,0,3.71-1.66,3.71-3.71V3.71c0-2.04-1.66-3.71-3.71-3.71Zm0,1c.63,0,1.21.23,1.67.59l-9.54,8.1L2.25,1.43c.42-.27.92-.43,1.46-.43h16.19ZM1,13.4V3.71c0-.59.2-1.14.52-1.58l7.69,6.5L1.72,15.23c-.44-.48-.72-1.12-.72-1.82Zm2.71,2.71c-.42,0-.81-.1-1.17-.27l7.44-6.56,1.72,1.45c.09.08.21.12.32.12s.23-.04.32-.12l1.61-1.37,7.19,6.43c-.38.2-.79.32-1.25.32H3.71Zm18.9-2.71c0,.67-.26,1.28-.67,1.76l-7.22-6.45,7.5-6.37c.24.4.38.87.38,1.37v9.7Z"/></svg>