<?xml version="1.0" encoding="UTF-8"?><svg id="uuid-644c7f89-b4e1-4fb3-be62-9334f57da3e8" xmlns="http://www.w3.org/2000/svg" viewBox="0 0 1920 93.97"><defs><style>.uuid-02c7a0dc-3844-44dd-be41-9d4f816d35ec{fill:#00a383;}.uuid-04296e80-4c50-40e4-8f85-f305ad99027d{fill:#151515;}.uuid-7a194147-8945-4acd-90a3-83fc7f9b4d29{fill:#fb9f2c;}.uuid-b8734237-6d6a-455b-a8d1-aa5f612ea4a4{fill:#f63a76;}</style></defs><path class="uuid-04296e80-4c50-40e4-8f85-f305ad99027d" d="m1589.88,33.56h4.85c1.9,0,3.72,1.7,3.63,3.7-.09,2-1.6,3.7-3.63,3.7h-4.85c-1.9,0-3.72-1.7-3.63-3.7.09-2,1.6-3.7,3.63-3.7Z"/><path class="uuid-04296e80-4c50-40e4-8f85-f305ad99027d" d="m1581.81,46.31c7.9-.4,15.79-.79,23.69-1.19,4.68-.24,4.66,7.16,0,7.39-7.9.4-15.79.79-23.69,1.19-4.68.24-4.66-7.16,0-7.39Z"/><path class="uuid-04296e80-4c50-40e4-8f85-f305ad99027d" d="m1575.92,59.2c11.83-.24,23.65-.47,35.48-.71,5.61-.11,5.6,7.02,0,7.13-11.83.24-23.65.47-35.48.71-5.61.11-5.6-7.02,0-7.13Z"/><path class="uuid-04296e80-4c50-40e4-8f85-f305ad99027d" d="m1568.63,68.54c16.69-.53,33.37-1.06,50.06-1.59,4.68-.15,4.67,7.24,0,7.39-16.69.53-33.37,1.06-50.06,1.59-4.68.15-4.67-7.24,0-7.39Z"/><path class="uuid-04296e80-4c50-40e4-8f85-f305ad99027d" d="m1557.57,80.62c23.51.51,47.03.61,70.54.28,4.68-.06,4.68,7.33,0,7.39-23.51.33-47.03.23-70.54-.28-4.67-.1-4.69-7.5,0-7.39Z"/><path class="uuid-04296e80-4c50-40e4-8f85-f305ad99027d" d="m1508.71,33.55l2.47-4.24c.97-1.66,3.33-2.4,4.98-1.3,1.65,1.1,2.32,3.28,1.28,5.06l-2.47,4.24c-.97,1.66-3.33,2.4-4.98,1.3-1.65-1.1-2.32-3.28-1.28-5.06Z"/><path class="uuid-04296e80-4c50-40e4-8f85-f305ad99027d" d="m1515.39,47.09c3.68-7.12,7.36-14.23,11.04-21.35,2.18-4.21,8.43-.44,6.26,3.76-3.68,7.12-7.36,14.23-11.04,21.35-2.18,4.21-8.43.44-6.26-3.76Z"/><path class="uuid-04296e80-4c50-40e4-8f85-f305ad99027d" d="m1523.31,58.82c5.82-10.48,11.63-20.96,17.45-31.43,2.76-4.97,8.79-1.34,6.03,3.63-5.82,10.48-11.63,20.96-17.45,31.43-2.76,4.97-8.79,1.34-6.03-3.63Z"/><path class="uuid-04296e80-4c50-40e4-8f85-f305ad99027d" d="m1530.95,72.02c8.04-14.88,16.08-29.77,24.11-44.65,2.25-4.17,8.51-.41,6.26,3.76-8.04,14.88-16.08,29.77-24.11,44.65-2.25,4.17-8.51.41-6.26-3.76Z"/><path class="uuid-04296e80-4c50-40e4-8f85-f305ad99027d" d="m1535.55,87.85c12.39-20.33,24.44-40.87,36.12-61.63,2.33-4.13,8.59-.37,6.26,3.76-11.69,20.76-23.73,41.3-36.12,61.63-2.46,4.04-8.73.29-6.26-3.76Z"/><path class="uuid-04296e80-4c50-40e4-8f85-f305ad99027d" d="m1485.43,29.49h4.85c1.9,0,3.72,1.7,3.63,3.7-.09,2-1.6,3.7-3.63,3.7h-4.85c-1.9,0-3.72-1.7-3.63-3.7.09-2,1.6-3.7,3.63-3.7Z"/><path class="uuid-04296e80-4c50-40e4-8f85-f305ad99027d" d="m1477.36,42.23c7.9-.4,15.79-.79,23.69-1.19,4.68-.24,4.66,7.16,0,7.39-7.9.4-15.79.79-23.69,1.19-4.68.24-4.66-7.16,0-7.39Z"/><path class="uuid-04296e80-4c50-40e4-8f85-f305ad99027d" d="m1471.46,55.13c11.83-.24,23.65-.47,35.48-.71,5.61-.11,5.6,7.02,0,7.13-11.83.24-23.65.47-35.48.71-5.61.11-5.6-7.02,0-7.13Z"/><path class="uuid-04296e80-4c50-40e4-8f85-f305ad99027d" d="m1464.17,68.54c16.69-.53,33.37-1.06,50.06-1.59,4.68-.15,4.67,7.24,0,7.39-16.69.53-33.37,1.06-50.06,1.59-4.68.15-4.67-7.24,0-7.39Z"/><path class="uuid-04296e80-4c50-40e4-8f85-f305ad99027d" d="m1453.12,80.62c23.51.51,47.03.61,70.54.28,4.68-.06,4.68,7.33,0,7.39-23.51.33-47.03.23-70.54-.28-4.67-.1-4.69-7.5,0-7.39Z"/><path class="uuid-04296e80-4c50-40e4-8f85-f305ad99027d" d="m1405.22,33.42l2.47-4.24c.97-1.66,3.33-2.4,4.98-1.3,1.65,1.1,2.32,3.28,1.28,5.06l-2.47,4.24c-.97,1.66-3.33,2.4-4.98,1.3-1.65-1.1-2.32-3.28-1.28-5.06Z"/><path class="uuid-04296e80-4c50-40e4-8f85-f305ad99027d" d="m1411.9,46.96c3.68-7.12,7.36-14.23,11.04-21.35,2.18-4.21,8.43-.44,6.26,3.76-3.68,7.12-7.36,14.23-11.04,21.35-2.18,4.21-8.43.44-6.26-3.76Z"/><path class="uuid-04296e80-4c50-40e4-8f85-f305ad99027d" d="m1419.82,58.69c5.82-10.48,11.63-20.96,17.45-31.43,2.76-4.97,8.79-1.34,6.03,3.63-5.82,10.48-11.63,20.96-17.45,31.43-2.76,4.97-8.79,1.34-6.03-3.63Z"/><path class="uuid-04296e80-4c50-40e4-8f85-f305ad99027d" d="m1427.45,71.89c8.04-14.88,16.08-29.77,24.11-44.65,2.25-4.17,8.51-.41,6.26,3.76-8.04,14.88-16.08,29.77-24.11,44.65-2.25,4.17-8.51.41-6.26-3.76Z"/><path class="uuid-04296e80-4c50-40e4-8f85-f305ad99027d" d="m1432.05,87.72c12.39-20.33,24.44-40.87,36.12-61.63,2.33-4.13,8.59-.37,6.26,3.76-11.69,20.76-23.73,41.3-36.12,61.63-2.46,4.04-8.73.29-6.26-3.76Z"/><path class="uuid-7a194147-8945-4acd-90a3-83fc7f9b4d29" d="m1380.96,29.87h4.85c1.9,0,3.72,1.7,3.63,3.7-.09,2-1.6,3.7-3.63,3.7h-4.85c-1.9,0-3.72-1.7-3.63-3.7.09-2,1.6-3.7,3.63-3.7Z"/><path class="uuid-7a194147-8945-4acd-90a3-83fc7f9b4d29" d="m1372.89,42.61c7.9-.4,15.79-.79,23.69-1.19,4.68-.24,4.66,7.16,0,7.39-7.9.4-15.79.79-23.69,1.19-4.68.24-4.66-7.16,0-7.39Z"/><path class="uuid-7a194147-8945-4acd-90a3-83fc7f9b4d29" d="m1367,55.51c11.83-.24,23.65-.47,35.48-.71,5.61-.11,5.6,7.02,0,7.13-11.83.24-23.65.47-35.48.71-5.61.11-5.6-7.02,0-7.13Z"/><path class="uuid-7a194147-8945-4acd-90a3-83fc7f9b4d29" d="m1359.71,68.91c16.69-.53,33.37-1.06,50.06-1.59,4.68-.15,4.67,7.24,0,7.39-16.69.53-33.37,1.06-50.06,1.59-4.68.15-4.67-7.24,0-7.39Z"/><path class="uuid-7a194147-8945-4acd-90a3-83fc7f9b4d29" d="m1348.65,80.99c23.51.51,47.03.61,70.54.28,4.68-.06,4.68,7.33,0,7.39-23.51.33-47.03.23-70.54-.28-4.67-.1-4.69-7.5,0-7.39Z"/><path class="uuid-04296e80-4c50-40e4-8f85-f305ad99027d" d="m1299.15,32.77l2.47-4.24c.97-1.66,3.33-2.4,4.98-1.3,1.65,1.1,2.32,3.28,1.28,5.06l-2.47,4.24c-.97,1.66-3.33,2.4-4.98,1.3-1.65-1.1-2.32-3.28-1.28-5.06Z"/><path class="uuid-04296e80-4c50-40e4-8f85-f305ad99027d" d="m1305.83,46.32c3.68-7.12,7.36-14.23,11.04-21.35,2.18-4.21,8.43-.44,6.26,3.76-3.68,7.12-7.36,14.23-11.04,21.35-2.18,4.21-8.43.44-6.26-3.76Z"/><path class="uuid-04296e80-4c50-40e4-8f85-f305ad99027d" d="m1313.75,58.04c5.82-10.48,11.63-20.96,17.45-31.43,2.76-4.97,8.79-1.34,6.03,3.63-5.82,10.48-11.63,20.96-17.45,31.43-2.76,4.97-8.79,1.34-6.03-3.63Z"/><path class="uuid-04296e80-4c50-40e4-8f85-f305ad99027d" d="m1321.39,71.25c8.04-14.88,16.08-29.77,24.11-44.65,2.25-4.17,8.51-.41,6.26,3.76-8.04,14.88-16.08,29.77-24.11,44.65-2.25,4.17-8.51.41-6.26-3.76Z"/><path class="uuid-04296e80-4c50-40e4-8f85-f305ad99027d" d="m1325.99,87.07c12.39-20.33,24.44-40.87,36.12-61.63,2.33-4.13,8.59-.37,6.26,3.76-11.69,20.76-23.73,41.3-36.12,61.63-2.46,4.04-8.73.29-6.26-3.76Z"/><path class="uuid-04296e80-4c50-40e4-8f85-f305ad99027d" d="m1273.87,30.12h4.85c1.9,0,3.72,1.7,3.63,3.7-.09,2-1.6,3.7-3.63,3.7h-4.85c-1.9,0-3.72-1.7-3.63-3.7.09-2,1.6-3.7,3.63-3.7Z"/><path class="uuid-04296e80-4c50-40e4-8f85-f305ad99027d" d="m1265.8,42.86c7.9-.4,15.79-.79,23.69-1.19,4.68-.24,4.66,7.16,0,7.39-7.9.4-15.79.79-23.69,1.19-4.68.24-4.66-7.16,0-7.39Z"/><path class="uuid-04296e80-4c50-40e4-8f85-f305ad99027d" d="m1259.9,55.76c11.83-.24,23.65-.47,35.48-.71,5.61-.11,5.6,7.02,0,7.13-11.83.24-23.65.47-35.48.71-5.61.11-5.6-7.02,0-7.13Z"/><path class="uuid-04296e80-4c50-40e4-8f85-f305ad99027d" d="m1252.61,69.17c16.69-.53,33.37-1.06,50.06-1.59,4.68-.15,4.67,7.24,0,7.39-16.69.53-33.37,1.06-50.06,1.59-4.68.15-4.67-7.24,0-7.39Z"/><path class="uuid-04296e80-4c50-40e4-8f85-f305ad99027d" d="m1241.56,81.25c23.51.51,47.03.61,70.54.28,4.68-.06,4.68,7.33,0,7.39-23.51.33-47.03.23-70.54-.28-4.67-.1-4.69-7.5,0-7.39Z"/><path class="uuid-04296e80-4c50-40e4-8f85-f305ad99027d" d="m1192.69,34.18l2.47-4.24c.97-1.66,3.33-2.4,4.98-1.3,1.65,1.1,2.32,3.28,1.28,5.06l-2.47,4.24c-.97,1.66-3.33,2.4-4.98,1.3-1.65-1.1-2.32-3.28-1.28-5.06Z"/><path class="uuid-04296e80-4c50-40e4-8f85-f305ad99027d" d="m1199.37,47.72c3.68-7.12,7.36-14.23,11.04-21.35,2.18-4.21,8.43-.44,6.26,3.76-3.68,7.12-7.36,14.23-11.04,21.35-2.18,4.21-8.43.44-6.26-3.76Z"/><path class="uuid-04296e80-4c50-40e4-8f85-f305ad99027d" d="m1207.29,59.45c5.82-10.48,11.63-20.96,17.45-31.43,2.76-4.97,8.79-1.34,6.03,3.63-5.82,10.48-11.63,20.96-17.45,31.43-2.76,4.97-8.79,1.34-6.03-3.63Z"/><path class="uuid-04296e80-4c50-40e4-8f85-f305ad99027d" d="m1214.93,72.65c8.04-14.88,16.08-29.77,24.11-44.65,2.25-4.17,8.51-.41,6.26,3.76-8.04,14.88-16.08,29.77-24.11,44.65-2.25,4.17-8.51.41-6.26-3.76Z"/><path class="uuid-04296e80-4c50-40e4-8f85-f305ad99027d" d="m1219.53,88.48c12.39-20.33,24.44-40.87,36.12-61.63,2.33-4.13,8.59-.37,6.26,3.76-11.69,20.76-23.73,41.3-36.12,61.63-2.46,4.04-8.73.29-6.26-3.76Z"/><path class="uuid-04296e80-4c50-40e4-8f85-f305ad99027d" d="m1169.41,30.12h4.85c1.9,0,3.72,1.7,3.63,3.7-.09,2-1.6,3.7-3.63,3.7h-4.85c-1.9,0-3.72-1.7-3.63-3.7.09-2,1.6-3.7,3.63-3.7Z"/><path class="uuid-04296e80-4c50-40e4-8f85-f305ad99027d" d="m1161.34,42.86c7.9-.4,15.79-.79,23.69-1.19,4.68-.24,4.66,7.16,0,7.39-7.9.4-15.79.79-23.69,1.19-4.68.24-4.66-7.16,0-7.39Z"/><path class="uuid-04296e80-4c50-40e4-8f85-f305ad99027d" d="m1155.45,55.76c11.83-.24,23.65-.47,35.48-.71,5.61-.11,5.6,7.02,0,7.13-11.83.24-23.65.47-35.48.71-5.61.11-5.6-7.02,0-7.13Z"/><path class="uuid-04296e80-4c50-40e4-8f85-f305ad99027d" d="m1148.16,69.17c16.69-.53,33.37-1.06,50.06-1.59,4.68-.15,4.67,7.24,0,7.39-16.69.53-33.37,1.06-50.06,1.59-4.68.15-4.67-7.24,0-7.39Z"/><path class="uuid-04296e80-4c50-40e4-8f85-f305ad99027d" d="m1137.1,81.25c23.51.51,47.03.61,70.54.28,4.68-.06,4.68,7.33,0,7.39-23.51.33-47.03.23-70.54-.28-4.67-.1-4.69-7.5,0-7.39Z"/><path class="uuid-04296e80-4c50-40e4-8f85-f305ad99027d" d="m1089.2,32.01l2.47-4.24c.97-1.66,3.33-2.4,4.98-1.3,1.65,1.1,2.32,3.28,1.28,5.06l-2.47,4.24c-.97,1.66-3.33,2.4-4.98,1.3-1.65-1.1-2.32-3.28-1.28-5.06Z"/><path class="uuid-04296e80-4c50-40e4-8f85-f305ad99027d" d="m1095.88,45.56c3.68-7.12,7.36-14.23,11.04-21.35,2.18-4.21,8.43-.44,6.26,3.76-3.68,7.12-7.36,14.23-11.04,21.35-2.18,4.21-8.43.44-6.26-3.76Z"/><path class="uuid-04296e80-4c50-40e4-8f85-f305ad99027d" d="m1103.8,57.28c5.82-10.48,11.63-20.96,17.45-31.43,2.76-4.97,8.79-1.34,6.03,3.63-5.82,10.48-11.63,20.96-17.45,31.43-2.76,4.97-8.79,1.34-6.03-3.63Z"/><path class="uuid-04296e80-4c50-40e4-8f85-f305ad99027d" d="m1111.44,70.49c8.04-14.88,16.08-29.77,24.11-44.65,2.25-4.17,8.51-.41,6.26,3.76-8.04,14.88-16.08,29.77-24.11,44.65-2.25,4.17-8.51.41-6.26-3.76Z"/><path class="uuid-04296e80-4c50-40e4-8f85-f305ad99027d" d="m1116.04,86.31c12.39-20.33,24.44-40.87,36.12-61.63,2.33-4.13,8.59-.37,6.26,3.76-11.69,20.76-23.73,41.3-36.12,61.63-2.46,4.04-8.73.29-6.26-3.76Z"/><path class="uuid-04296e80-4c50-40e4-8f85-f305ad99027d" d="m1064.95,30.5h4.85c1.9,0,3.72,1.7,3.63,3.7-.09,2-1.6,3.7-3.63,3.7h-4.85c-1.9,0-3.72-1.7-3.63-3.7.09-2,1.6-3.7,3.63-3.7Z"/><path class="uuid-04296e80-4c50-40e4-8f85-f305ad99027d" d="m1056.88,43.24c7.9-.4,15.79-.79,23.69-1.19,4.68-.24,4.66,7.16,0,7.39-7.9.4-15.79.79-23.69,1.19-4.68.24-4.66-7.16,0-7.39Z"/><path class="uuid-04296e80-4c50-40e4-8f85-f305ad99027d" d="m1050.98,56.14c11.83-.24,23.65-.47,35.48-.71,5.61-.11,5.6,7.02,0,7.13-11.83.24-23.65.47-35.48.71-5.61.11-5.6-7.02,0-7.13Z"/><path class="uuid-04296e80-4c50-40e4-8f85-f305ad99027d" d="m1043.69,69.54c16.69-.53,33.37-1.06,50.06-1.59,4.68-.15,4.67,7.24,0,7.39-16.69.53-33.37,1.06-50.06,1.59-4.68.15-4.67-7.24,0-7.39Z"/><path class="uuid-04296e80-4c50-40e4-8f85-f305ad99027d" d="m1032.64,81.62c23.51.51,47.03.61,70.54.28,4.68-.06,4.68,7.33,0,7.39-23.51.33-47.03.23-70.54-.28-4.67-.1-4.69-7.5,0-7.39Z"/><path class="uuid-04296e80-4c50-40e4-8f85-f305ad99027d" d="m983.13,32.38l2.47-4.24c.97-1.66,3.33-2.4,4.98-1.3,1.65,1.1,2.32,3.28,1.28,5.06l-2.47,4.24c-.97,1.66-3.33,2.4-4.98,1.3-1.65-1.1-2.32-3.28-1.28-5.06Z"/><path class="uuid-04296e80-4c50-40e4-8f85-f305ad99027d" d="m989.81,45.93c3.68-7.12,7.36-14.23,11.04-21.35,2.18-4.21,8.43-.44,6.26,3.76-3.68,7.12-7.36,14.23-11.04,21.35-2.18,4.21-8.43.44-6.26-3.76Z"/><path class="uuid-04296e80-4c50-40e4-8f85-f305ad99027d" d="m997.73,57.66c5.82-10.48,11.63-20.96,17.45-31.43,2.76-4.97,8.79-1.34,6.03,3.63-5.82,10.48-11.63,20.96-17.45,31.43-2.76,4.97-8.79,1.34-6.03-3.63Z"/><path class="uuid-04296e80-4c50-40e4-8f85-f305ad99027d" d="m1005.37,70.86c8.04-14.88,16.08-29.77,24.11-44.65,2.25-4.17,8.51-.41,6.26,3.76-8.04,14.88-16.08,29.77-24.11,44.65-2.25,4.17-8.51.41-6.26-3.76Z"/><path class="uuid-04296e80-4c50-40e4-8f85-f305ad99027d" d="m1009.97,86.68c12.39-20.33,24.44-40.87,36.12-61.63,2.33-4.13,8.59-.37,6.26,3.76-11.69,20.76-23.73,41.3-36.12,61.63-2.46,4.04-8.73.29-6.26-3.76Z"/><path class="uuid-b8734237-6d6a-455b-a8d1-aa5f612ea4a4" d="m954.78,30.38h4.85c1.9,0,3.72,1.7,3.63,3.7-.09,2-1.6,3.7-3.63,3.7h-4.85c-1.9,0-3.72-1.7-3.63-3.7.09-2,1.6-3.7,3.63-3.7Z"/><path class="uuid-b8734237-6d6a-455b-a8d1-aa5f612ea4a4" d="m946.71,43.12c7.9-.4,15.79-.79,23.69-1.19,4.68-.24,4.66,7.16,0,7.39-7.9.4-15.79.79-23.69,1.19-4.68.24-4.66-7.16,0-7.39Z"/><path class="uuid-b8734237-6d6a-455b-a8d1-aa5f612ea4a4" d="m940.81,56.02c11.83-.24,23.65-.47,35.48-.71,5.61-.11,5.6,7.02,0,7.13-11.83.24-23.65.47-35.48.71-5.61.11-5.6-7.02,0-7.13Z"/><path class="uuid-b8734237-6d6a-455b-a8d1-aa5f612ea4a4" d="m933.52,69.43c16.69-.53,33.37-1.06,50.06-1.59,4.68-.15,4.67,7.24,0,7.39-16.69.53-33.37,1.06-50.06,1.59-4.68.15-4.67-7.24,0-7.39Z"/><path class="uuid-b8734237-6d6a-455b-a8d1-aa5f612ea4a4" d="m922.46,81.5c23.51.51,47.03.61,70.54.28,4.68-.06,4.68,7.33,0,7.39-23.51.33-47.03.23-70.54-.28-4.67-.1-4.69-7.5,0-7.39Z"/><path class="uuid-04296e80-4c50-40e4-8f85-f305ad99027d" d="m873.6,33.42l2.47-4.24c.97-1.66,3.33-2.4,4.98-1.3,1.65,1.1,2.32,3.28,1.28,5.06l-2.47,4.24c-.97,1.66-3.33,2.4-4.98,1.3-1.65-1.1-2.32-3.28-1.28-5.06Z"/><path class="uuid-04296e80-4c50-40e4-8f85-f305ad99027d" d="m880.28,46.96c3.68-7.12,7.36-14.23,11.04-21.35,2.18-4.21,8.43-.44,6.26,3.76-3.68,7.12-7.36,14.23-11.04,21.35-2.18,4.21-8.43.44-6.26-3.76Z"/><path class="uuid-04296e80-4c50-40e4-8f85-f305ad99027d" d="m888.2,58.69c5.82-10.48,11.63-20.96,17.45-31.43,2.76-4.97,8.79-1.34,6.03,3.63-5.82,10.48-11.63,20.96-17.45,31.43-2.76,4.97-8.79,1.34-6.03-3.63Z"/><path class="uuid-04296e80-4c50-40e4-8f85-f305ad99027d" d="m895.84,71.89c8.04-14.88,16.08-29.77,24.11-44.65,2.25-4.17,8.51-.41,6.26,3.76-8.04,14.88-16.08,29.77-24.11,44.65-2.25,4.17-8.51.41-6.26-3.76Z"/><path class="uuid-04296e80-4c50-40e4-8f85-f305ad99027d" d="m900.44,87.72c12.39-20.33,24.44-40.87,36.12-61.63,2.33-4.13,8.59-.37,6.26,3.76-11.69,20.76-23.73,41.3-36.12,61.63-2.46,4.04-8.73.29-6.26-3.76Z"/><path class="uuid-04296e80-4c50-40e4-8f85-f305ad99027d" d="m851.13,30.5h4.85c1.9,0,3.72,1.7,3.63,3.7-.09,2-1.6,3.7-3.63,3.7h-4.85c-1.9,0-3.72-1.7-3.63-3.7.09-2,1.6-3.7,3.63-3.7Z"/><path class="uuid-04296e80-4c50-40e4-8f85-f305ad99027d" d="m843.06,43.24c7.9-.4,15.79-.79,23.69-1.19,4.68-.24,4.66,7.16,0,7.39-7.9.4-15.79.79-23.69,1.19-4.68.24-4.66-7.16,0-7.39Z"/><path class="uuid-04296e80-4c50-40e4-8f85-f305ad99027d" d="m837.17,56.14c11.83-.24,23.65-.47,35.48-.71,5.61-.11,5.6,7.02,0,7.13-11.83.24-23.65.47-35.48.71-5.61.11-5.6-7.02,0-7.13Z"/><path class="uuid-04296e80-4c50-40e4-8f85-f305ad99027d" d="m829.88,69.54c16.69-.53,33.37-1.06,50.06-1.59,4.68-.15,4.67,7.24,0,7.39-16.69.53-33.37,1.06-50.06,1.59-4.68.15-4.67-7.24,0-7.39Z"/><path class="uuid-04296e80-4c50-40e4-8f85-f305ad99027d" d="m818.82,81.62c23.51.51,47.03.61,70.54.28,4.68-.06,4.68,7.33,0,7.39-23.51.33-47.03.23-70.54-.28-4.67-.1-4.69-7.5,0-7.39Z"/><path class="uuid-04296e80-4c50-40e4-8f85-f305ad99027d" d="m769.83,33.51l2.47-4.24c.97-1.66,3.33-2.4,4.98-1.3,1.65,1.1,2.32,3.28,1.28,5.06l-2.47,4.24c-.97,1.66-3.33,2.4-4.98,1.3-1.65-1.1-2.32-3.28-1.28-5.06Z"/><path class="uuid-04296e80-4c50-40e4-8f85-f305ad99027d" d="m776.51,47.06c3.68-7.12,7.36-14.23,11.04-21.35,2.18-4.21,8.43-.44,6.26,3.76-3.68,7.12-7.36,14.23-11.04,21.35-2.18,4.21-8.43.44-6.26-3.76Z"/><path class="uuid-04296e80-4c50-40e4-8f85-f305ad99027d" d="m784.43,58.78c5.82-10.48,11.63-20.96,17.45-31.43,2.76-4.97,8.79-1.34,6.03,3.63-5.82,10.48-11.63,20.96-17.45,31.43-2.76,4.97-8.79,1.34-6.03-3.63Z"/><path class="uuid-04296e80-4c50-40e4-8f85-f305ad99027d" d="m792.07,71.98c8.04-14.88,16.08-29.77,24.11-44.65,2.25-4.17,8.51-.41,6.26,3.76-8.04,14.88-16.08,29.77-24.11,44.65-2.25,4.17-8.51.41-6.26-3.76Z"/><path class="uuid-04296e80-4c50-40e4-8f85-f305ad99027d" d="m796.67,87.81c12.39-20.33,24.44-40.87,36.12-61.63,2.33-4.13,8.59-.37,6.26,3.76-11.69,20.76-23.73,41.3-36.12,61.63-2.46,4.04-8.73.29-6.26-3.76Z"/><path class="uuid-04296e80-4c50-40e4-8f85-f305ad99027d" d="m745.86,29.74h4.85c1.9,0,3.72,1.7,3.63,3.7-.09,2-1.6,3.7-3.63,3.7h-4.85c-1.9,0-3.72-1.7-3.63-3.7.09-2,1.6-3.7,3.63-3.7Z"/><path class="uuid-04296e80-4c50-40e4-8f85-f305ad99027d" d="m737.79,42.48c7.9-.4,15.79-.79,23.69-1.19,4.68-.24,4.66,7.16,0,7.39-7.9.4-15.79.79-23.69,1.19-4.68.24-4.66-7.16,0-7.39Z"/><path class="uuid-04296e80-4c50-40e4-8f85-f305ad99027d" d="m731.89,55.38c11.83-.24,23.65-.47,35.48-.71,5.61-.11,5.6,7.02,0,7.13-11.83.24-23.65.47-35.48.71-5.61.11-5.6-7.02,0-7.13Z"/><path class="uuid-04296e80-4c50-40e4-8f85-f305ad99027d" d="m724.6,68.78c16.69-.53,33.37-1.06,50.06-1.59,4.68-.15,4.67,7.24,0,7.39-16.69.53-33.37,1.06-50.06,1.59-4.68.15-4.67-7.24,0-7.39Z"/><path class="uuid-04296e80-4c50-40e4-8f85-f305ad99027d" d="m713.54,80.86c23.51.51,47.03.61,70.54.28,4.68-.06,4.68,7.33,0,7.39-23.51.33-47.03.23-70.54-.28-4.67-.1-4.69-7.5,0-7.39Z"/><path class="uuid-04296e80-4c50-40e4-8f85-f305ad99027d" d="m662.04,32.64l2.47-4.24c.97-1.66,3.33-2.4,4.98-1.3,1.65,1.1,2.32,3.28,1.28,5.06l-2.47,4.24c-.97,1.66-3.33,2.4-4.98,1.3-1.65-1.1-2.32-3.28-1.28-5.06Z"/><path class="uuid-04296e80-4c50-40e4-8f85-f305ad99027d" d="m668.72,46.19c3.68-7.12,7.36-14.23,11.04-21.35,2.18-4.21,8.43-.44,6.26,3.76-3.68,7.12-7.36,14.23-11.04,21.35-2.18,4.21-8.43.44-6.26-3.76Z"/><path class="uuid-04296e80-4c50-40e4-8f85-f305ad99027d" d="m676.64,57.91c5.82-10.48,11.63-20.96,17.45-31.43,2.76-4.97,8.79-1.34,6.03,3.63-5.82,10.48-11.63,20.96-17.45,31.43-2.76,4.97-8.79,1.34-6.03-3.63Z"/><path class="uuid-04296e80-4c50-40e4-8f85-f305ad99027d" d="m684.28,71.12c8.04-14.88,16.08-29.77,24.11-44.65,2.25-4.17,8.51-.41,6.26,3.76-8.04,14.88-16.08,29.77-24.11,44.65-2.25,4.17-8.51.41-6.26-3.76Z"/><path class="uuid-04296e80-4c50-40e4-8f85-f305ad99027d" d="m688.88,86.94c12.39-20.33,24.44-40.87,36.12-61.63,2.33-4.13,8.59-.37,6.26,3.76-11.69,20.76-23.73,41.3-36.12,61.63-2.46,4.04-8.73.29-6.26-3.76Z"/><path class="uuid-04296e80-4c50-40e4-8f85-f305ad99027d" d="m1615.03,33.29l2.47-4.24c.97-1.66,3.33-2.4,4.98-1.3,1.65,1.1,2.32,3.28,1.28,5.06l-2.47,4.24c-.97,1.66-3.33,2.4-4.98,1.3-1.65-1.1-2.32-3.28-1.28-5.06Z"/><path class="uuid-04296e80-4c50-40e4-8f85-f305ad99027d" d="m1621.71,46.84c3.68-7.12,7.36-14.23,11.04-21.35,2.18-4.21,8.43-.44,6.26,3.76-3.68,7.12-7.36,14.23-11.04,21.35-2.18,4.21-8.43.44-6.26-3.76Z"/><path class="uuid-04296e80-4c50-40e4-8f85-f305ad99027d" d="m1629.63,58.56c5.82-10.48,11.63-20.96,17.45-31.43,2.76-4.97,8.79-1.34,6.03,3.63-5.82,10.48-11.63,20.96-17.45,31.43-2.76,4.97-8.79,1.34-6.03-3.63Z"/><path class="uuid-04296e80-4c50-40e4-8f85-f305ad99027d" d="m1637.27,71.77c8.04-14.88,16.08-29.77,24.11-44.65,2.25-4.17,8.51-.41,6.26,3.76-8.04,14.88-16.08,29.77-24.11,44.65-2.25,4.17-8.51.41-6.26-3.76Z"/><path class="uuid-04296e80-4c50-40e4-8f85-f305ad99027d" d="m1641.87,87.59c12.39-20.33,24.44-40.87,36.12-61.63,2.33-4.13,8.59-.37,6.26,3.76-11.69,20.76-23.73,41.3-36.12,61.63-2.46,4.04-8.73.29-6.26-3.76Z"/><path class="uuid-04296e80-4c50-40e4-8f85-f305ad99027d" d="m1832.18,33.3l2.47-4.24c.97-1.66,3.33-2.4,4.98-1.3,1.65,1.1,2.32,3.28,1.28,5.06l-2.47,4.24c-.97,1.66-3.33,2.4-4.98,1.3-1.65-1.1-2.32-3.28-1.28-5.06Z"/><path class="uuid-04296e80-4c50-40e4-8f85-f305ad99027d" d="m1838.86,46.85c3.68-7.12,7.36-14.23,11.04-21.35,2.18-4.21,8.43-.44,6.26,3.76-3.68,7.12-7.36,14.23-11.04,21.35-2.18,4.21-8.43.44-6.26-3.76Z"/><path class="uuid-04296e80-4c50-40e4-8f85-f305ad99027d" d="m1846.78,58.57c5.82-10.48,11.63-20.96,17.45-31.43,2.76-4.97,8.79-1.34,6.03,3.63-5.82,10.48-11.63,20.96-17.45,31.43-2.76,4.97-8.79,1.34-6.03-3.63Z"/><path class="uuid-04296e80-4c50-40e4-8f85-f305ad99027d" d="m1854.41,71.78c8.04-14.88,16.08-29.77,24.11-44.65,2.25-4.17,8.51-.41,6.26,3.76-8.04,14.88-16.08,29.77-24.11,44.65-2.25,4.17-8.51.41-6.26-3.76Z"/><path class="uuid-04296e80-4c50-40e4-8f85-f305ad99027d" d="m1859.01,87.6c12.39-20.33,24.44-40.87,36.12-61.63,2.33-4.13,8.59-.37,6.26,3.76-11.69,20.76-23.73,41.3-36.12,61.63-2.46,4.04-8.73.29-6.26-3.76Z"/><path class="uuid-02c7a0dc-3844-44dd-be41-9d4f816d35ec" d="m1809.33,30.51h4.85c1.9,0,3.72,1.7,3.63,3.7-.09,2-1.6,3.7-3.63,3.7h-4.85c-1.9,0-3.72-1.7-3.63-3.7.09-2,1.6-3.7,3.63-3.7Z"/><path class="uuid-02c7a0dc-3844-44dd-be41-9d4f816d35ec" d="m1801.26,43.25c7.9-.4,15.79-.79,23.69-1.19,4.68-.24,4.66,7.16,0,7.39-7.9.4-15.79.79-23.69,1.19-4.68.24-4.66-7.16,0-7.39Z"/><path class="uuid-02c7a0dc-3844-44dd-be41-9d4f816d35ec" d="m1795.37,56.15c11.83-.24,23.65-.47,35.48-.71,5.61-.11,5.6,7.02,0,7.13-11.83.24-23.65.47-35.48.71-5.61.11-5.6-7.02,0-7.13Z"/><path class="uuid-02c7a0dc-3844-44dd-be41-9d4f816d35ec" d="m1788.08,69.55c16.69-.53,33.37-1.06,50.06-1.59,4.68-.15,4.67,7.24,0,7.39-16.69.53-33.37,1.06-50.06,1.59-4.68.15-4.67-7.24,0-7.39Z"/><path class="uuid-02c7a0dc-3844-44dd-be41-9d4f816d35ec" d="m1777.02,81.63c23.51.51,47.03.61,70.54.28,4.68-.06,4.68,7.33,0,7.39-23.51.33-47.03.23-70.54-.28-4.67-.1-4.69-7.5,0-7.39Z"/><path class="uuid-04296e80-4c50-40e4-8f85-f305ad99027d" d="m1724.31,33.04l2.47-4.24c.97-1.66,3.33-2.4,4.98-1.3,1.65,1.1,2.32,3.28,1.28,5.06l-2.47,4.24c-.97,1.66-3.33,2.4-4.98,1.3-1.65-1.1-2.32-3.28-1.28-5.06Z"/><path class="uuid-04296e80-4c50-40e4-8f85-f305ad99027d" d="m1730.99,46.59c3.68-7.12,7.36-14.23,11.04-21.35,2.18-4.21,8.43-.44,6.26,3.76-3.68,7.12-7.36,14.23-11.04,21.35-2.18,4.21-8.43.44-6.26-3.76Z"/><path class="uuid-04296e80-4c50-40e4-8f85-f305ad99027d" d="m1738.91,58.31c5.82-10.48,11.63-20.96,17.45-31.43,2.76-4.97,8.79-1.34,6.03,3.63-5.82,10.48-11.63,20.96-17.45,31.43-2.76,4.97-8.79,1.34-6.03-3.63Z"/><path class="uuid-04296e80-4c50-40e4-8f85-f305ad99027d" d="m1746.55,71.52c8.04-14.88,16.08-29.77,24.11-44.65,2.25-4.17,8.51-.41,6.26,3.76-8.04,14.88-16.08,29.77-24.11,44.65-2.25,4.17-8.51.41-6.26-3.76Z"/><path class="uuid-04296e80-4c50-40e4-8f85-f305ad99027d" d="m1751.15,87.34c12.39-20.33,24.44-40.87,36.12-61.63,2.33-4.13,8.59-.37,6.26,3.76-11.69,20.76-23.73,41.3-36.12,61.63-2.46,4.04-8.73.29-6.26-3.76Z"/><path class="uuid-04296e80-4c50-40e4-8f85-f305ad99027d" d="m1699.67,30.03h4.85c1.9,0,3.72,1.7,3.63,3.7-.09,2-1.6,3.7-3.63,3.7h-4.85c-1.9,0-3.72-1.7-3.63-3.7.09-2,1.6-3.7,3.63-3.7Z"/><path class="uuid-04296e80-4c50-40e4-8f85-f305ad99027d" d="m1691.6,42.77c7.9-.4,15.79-.79,23.69-1.19,4.68-.24,4.66,7.16,0,7.39-7.9.4-15.79.79-23.69,1.19-4.68.24-4.66-7.16,0-7.39Z"/><path class="uuid-04296e80-4c50-40e4-8f85-f305ad99027d" d="m1685.7,55.67c11.83-.24,23.65-.47,35.48-.71,5.61-.11,5.6,7.02,0,7.13-11.83.24-23.65.47-35.48.71-5.61.11-5.6-7.02,0-7.13Z"/><path class="uuid-04296e80-4c50-40e4-8f85-f305ad99027d" d="m1678.41,69.08c16.69-.53,33.37-1.06,50.06-1.59,4.68-.15,4.67,7.24,0,7.39-16.69.53-33.37,1.06-50.06,1.59-4.68.15-4.67-7.24,0-7.39Z"/><path class="uuid-04296e80-4c50-40e4-8f85-f305ad99027d" d="m1667.36,81.15c23.51.51,47.03.61,70.54.28,4.68-.06,4.68,7.33,0,7.39-23.51.33-47.03.23-70.54-.28-4.67-.1-4.69-7.5,0-7.39Z"/><path class="uuid-02c7a0dc-3844-44dd-be41-9d4f816d35ec" d="m525.93,29.69h4.85c1.9,0,3.72,1.7,3.63,3.7-.09,2-1.6,3.7-3.63,3.7h-4.85c-1.9,0-3.72-1.7-3.63-3.7.09-2,1.6-3.7,3.63-3.7Z"/><path class="uuid-02c7a0dc-3844-44dd-be41-9d4f816d35ec" d="m517.86,42.43c7.9-.4,15.79-.79,23.69-1.19,4.68-.24,4.66,7.16,0,7.39-7.9.4-15.79.79-23.69,1.19-4.68.24-4.66-7.16,0-7.39Z"/><path class="uuid-02c7a0dc-3844-44dd-be41-9d4f816d35ec" d="m511.96,55.33c11.83-.24,23.65-.47,35.48-.71,5.61-.11,5.6,7.02,0,7.13-11.83.24-23.65.47-35.48.71-5.61.11-5.6-7.02,0-7.13Z"/><path class="uuid-02c7a0dc-3844-44dd-be41-9d4f816d35ec" d="m504.67,68.74c16.69-.53,33.37-1.06,50.06-1.59,4.68-.15,4.67,7.24,0,7.39-16.69.53-33.37,1.06-50.06,1.59-4.68.15-4.67-7.24,0-7.39Z"/><path class="uuid-02c7a0dc-3844-44dd-be41-9d4f816d35ec" d="m493.62,80.82c23.51.51,47.03.61,70.54.28,4.68-.06,4.68,7.33,0,7.39-23.51.33-47.03.23-70.54-.28-4.67-.1-4.69-7.5,0-7.39Z"/><path class="uuid-04296e80-4c50-40e4-8f85-f305ad99027d" d="m444.75,32.73l2.47-4.24c.97-1.66,3.33-2.4,4.98-1.3,1.65,1.1,2.32,3.28,1.28,5.06l-2.47,4.24c-.97,1.66-3.33,2.4-4.98,1.3-1.65-1.1-2.32-3.28-1.28-5.06Z"/><path class="uuid-04296e80-4c50-40e4-8f85-f305ad99027d" d="m451.43,46.28c3.68-7.12,7.36-14.23,11.04-21.35,2.18-4.21,8.43-.44,6.26,3.76-3.68,7.12-7.36,14.23-11.04,21.35-2.18,4.21-8.43.44-6.26-3.76Z"/><path class="uuid-04296e80-4c50-40e4-8f85-f305ad99027d" d="m459.35,58c5.82-10.48,11.63-20.96,17.45-31.43,2.76-4.97,8.79-1.34,6.03,3.63-5.82,10.48-11.63,20.96-17.45,31.43-2.76,4.97-8.79,1.34-6.03-3.63Z"/><path class="uuid-04296e80-4c50-40e4-8f85-f305ad99027d" d="m466.99,71.21c8.04-14.88,16.08-29.77,24.11-44.65,2.25-4.17,8.51-.41,6.26,3.76-8.04,14.88-16.08,29.77-24.11,44.65-2.25,4.17-8.51.41-6.26-3.76Z"/><path class="uuid-04296e80-4c50-40e4-8f85-f305ad99027d" d="m471.59,87.03c12.39-20.33,24.44-40.87,36.12-61.63,2.33-4.13,8.59-.37,6.26,3.76-11.69,20.76-23.73,41.3-36.12,61.63-2.46,4.04-8.73.29-6.26-3.76Z"/><path class="uuid-04296e80-4c50-40e4-8f85-f305ad99027d" d="m421.47,29.69h4.85c1.9,0,3.72,1.7,3.63,3.7-.09,2-1.6,3.7-3.63,3.7h-4.85c-1.9,0-3.72-1.7-3.63-3.7.09-2,1.6-3.7,3.63-3.7Z"/><path class="uuid-04296e80-4c50-40e4-8f85-f305ad99027d" d="m413.4,42.43c7.9-.4,15.79-.79,23.69-1.19,4.68-.24,4.66,7.16,0,7.39-7.9.4-15.79.79-23.69,1.19-4.68.24-4.66-7.16,0-7.39Z"/><path class="uuid-04296e80-4c50-40e4-8f85-f305ad99027d" d="m407.5,55.33c11.83-.24,23.65-.47,35.48-.71,5.61-.11,5.6,7.02,0,7.13-11.83.24-23.65.47-35.48.71-5.61.11-5.6-7.02,0-7.13Z"/><path class="uuid-04296e80-4c50-40e4-8f85-f305ad99027d" d="m400.21,68.74c16.69-.53,33.37-1.06,50.06-1.59,4.68-.15,4.67,7.24,0,7.39-16.69.53-33.37,1.06-50.06,1.59-4.68.15-4.67-7.24,0-7.39Z"/><path class="uuid-04296e80-4c50-40e4-8f85-f305ad99027d" d="m389.16,80.82c23.51.51,47.03.61,70.54.28,4.68-.06,4.68,7.33,0,7.39-23.51.33-47.03.23-70.54-.28-4.67-.1-4.69-7.5,0-7.39Z"/><path class="uuid-04296e80-4c50-40e4-8f85-f305ad99027d" d="m339.97,32.99l2.47-4.24c.97-1.66,3.33-2.4,4.98-1.3,1.65,1.1,2.32,3.28,1.28,5.06l-2.47,4.24c-.97,1.66-3.33,2.4-4.98,1.3-1.65-1.1-2.32-3.28-1.28-5.06Z"/><path class="uuid-04296e80-4c50-40e4-8f85-f305ad99027d" d="m346.65,46.54c3.68-7.12,7.36-14.23,11.04-21.35,2.18-4.21,8.43-.44,6.26,3.76-3.68,7.12-7.36,14.23-11.04,21.35-2.18,4.21-8.43.44-6.26-3.76Z"/><path class="uuid-04296e80-4c50-40e4-8f85-f305ad99027d" d="m354.57,58.26c5.82-10.48,11.63-20.96,17.45-31.43,2.76-4.97,8.79-1.34,6.03,3.63-5.82,10.48-11.63,20.96-17.45,31.43-2.76,4.97-8.79,1.34-6.03-3.63Z"/><path class="uuid-04296e80-4c50-40e4-8f85-f305ad99027d" d="m362.21,71.47c8.04-14.88,16.08-29.77,24.11-44.65,2.25-4.17,8.51-.41,6.26,3.76-8.04,14.88-16.08,29.77-24.11,44.65-2.25,4.17-8.51.41-6.26-3.76Z"/><path class="uuid-04296e80-4c50-40e4-8f85-f305ad99027d" d="m366.81,87.29c12.39-20.33,24.44-40.87,36.12-61.63,2.33-4.13,8.59-.37,6.26,3.76-11.69,20.76-23.73,41.3-36.12,61.63-2.46,4.04-8.73.29-6.26-3.76Z"/><path class="uuid-04296e80-4c50-40e4-8f85-f305ad99027d" d="m317.01,30.07h4.85c1.9,0,3.72,1.7,3.63,3.7-.09,2-1.6,3.7-3.63,3.7h-4.85c-1.9,0-3.72-1.7-3.63-3.7.09-2,1.6-3.7,3.63-3.7Z"/><path class="uuid-04296e80-4c50-40e4-8f85-f305ad99027d" d="m308.94,42.81c7.9-.4,15.79-.79,23.69-1.19,4.68-.24,4.66,7.16,0,7.39-7.9.4-15.79.79-23.69,1.19-4.68.24-4.66-7.16,0-7.39Z"/><path class="uuid-04296e80-4c50-40e4-8f85-f305ad99027d" d="m303.04,55.71c11.83-.24,23.65-.47,35.48-.71,5.61-.11,5.6,7.02,0,7.13-11.83.24-23.65.47-35.48.71-5.61.11-5.6-7.02,0-7.13Z"/><path class="uuid-04296e80-4c50-40e4-8f85-f305ad99027d" d="m295.75,69.11c16.69-.53,33.37-1.06,50.06-1.59,4.68-.15,4.67,7.24,0,7.39-16.69.53-33.37,1.06-50.06,1.59-4.68.15-4.67-7.24,0-7.39Z"/><path class="uuid-04296e80-4c50-40e4-8f85-f305ad99027d" d="m284.7,81.19c23.51.51,47.03.61,70.54.28,4.68-.06,4.68,7.33,0,7.39-23.51.33-47.03.23-70.54-.28-4.67-.1-4.69-7.5,0-7.39Z"/><path class="uuid-04296e80-4c50-40e4-8f85-f305ad99027d" d="m233.86,33.39l2.47-4.24c.97-1.66,3.33-2.4,4.98-1.3,1.65,1.1,2.32,3.28,1.28,5.06l-2.47,4.24c-.97,1.66-3.33,2.4-4.98,1.3-1.65-1.1-2.32-3.28-1.28-5.06Z"/><path class="uuid-04296e80-4c50-40e4-8f85-f305ad99027d" d="m240.54,46.94c3.68-7.12,7.36-14.23,11.04-21.35,2.18-4.21,8.43-.44,6.26,3.76-3.68,7.12-7.36,14.23-11.04,21.35-2.18,4.21-8.43.44-6.26-3.76Z"/><path class="uuid-04296e80-4c50-40e4-8f85-f305ad99027d" d="m248.46,58.67c5.82-10.48,11.63-20.96,17.45-31.43,2.76-4.97,8.79-1.34,6.03,3.63-5.82,10.48-11.63,20.96-17.45,31.43-2.76,4.97-8.79,1.34-6.03-3.63Z"/><path class="uuid-04296e80-4c50-40e4-8f85-f305ad99027d" d="m256.1,71.87c8.04-14.88,16.08-29.77,24.11-44.65,2.25-4.17,8.51-.41,6.26,3.76-8.04,14.88-16.08,29.77-24.11,44.65-2.25,4.17-8.51.41-6.26-3.76Z"/><path class="uuid-04296e80-4c50-40e4-8f85-f305ad99027d" d="m260.7,87.69c12.39-20.33,24.44-40.87,36.12-61.63,2.33-4.13,8.59-.37,6.26,3.76-11.69,20.76-23.73,41.3-36.12,61.63-2.46,4.04-8.73.29-6.26-3.76Z"/><path class="uuid-04296e80-4c50-40e4-8f85-f305ad99027d" d="m209.91,29.31h4.85c1.9,0,3.72,1.7,3.63,3.7-.09,2-1.6,3.7-3.63,3.7h-4.85c-1.9,0-3.72-1.7-3.63-3.7.09-2,1.6-3.7,3.63-3.7Z"/><path class="uuid-04296e80-4c50-40e4-8f85-f305ad99027d" d="m201.84,42.05c7.9-.4,15.79-.79,23.69-1.19,4.68-.24,4.66,7.16,0,7.39-7.9.4-15.79.79-23.69,1.19-4.68.24-4.66-7.16,0-7.39Z"/><path class="uuid-04296e80-4c50-40e4-8f85-f305ad99027d" d="m195.95,54.95c11.83-.24,23.65-.47,35.48-.71,5.61-.11,5.6,7.02,0,7.13-11.83.24-23.65.47-35.48.71-5.61.11-5.6-7.02,0-7.13Z"/><path class="uuid-04296e80-4c50-40e4-8f85-f305ad99027d" d="m188.66,68.35c16.69-.53,33.37-1.06,50.06-1.59,4.68-.15,4.67,7.24,0,7.39-16.69.53-33.37,1.06-50.06,1.59-4.68.15-4.67-7.24,0-7.39Z"/><path class="uuid-04296e80-4c50-40e4-8f85-f305ad99027d" d="m177.6,80.43c23.51.51,47.03.61,70.54.28,4.68-.06,4.68,7.33,0,7.39-23.51.33-47.03.23-70.54-.28-4.67-.1-4.69-7.5,0-7.39Z"/><path class="uuid-04296e80-4c50-40e4-8f85-f305ad99027d" d="m127.51,33.08l2.47-4.24c.97-1.66,3.33-2.4,4.98-1.3,1.65,1.1,2.32,3.28,1.28,5.06l-2.47,4.24c-.97,1.66-3.33,2.4-4.98,1.3-1.65-1.1-2.32-3.28-1.28-5.06Z"/><path class="uuid-04296e80-4c50-40e4-8f85-f305ad99027d" d="m134.19,46.63c3.68-7.12,7.36-14.23,11.04-21.35,2.18-4.21,8.43-.44,6.26,3.76-3.68,7.12-7.36,14.23-11.04,21.35-2.18,4.21-8.43.44-6.26-3.76Z"/><path class="uuid-04296e80-4c50-40e4-8f85-f305ad99027d" d="m142.11,58.35c5.82-10.48,11.63-20.96,17.45-31.43,2.76-4.97,8.79-1.34,6.03,3.63-5.82,10.48-11.63,20.96-17.45,31.43-2.76,4.97-8.79,1.34-6.03-3.63Z"/><path class="uuid-04296e80-4c50-40e4-8f85-f305ad99027d" d="m149.75,71.55c8.04-14.88,16.08-29.77,24.11-44.65,2.25-4.17,8.51-.41,6.26,3.76-8.04,14.88-16.08,29.77-24.11,44.65-2.25,4.17-8.51.41-6.26-3.76Z"/><path class="uuid-04296e80-4c50-40e4-8f85-f305ad99027d" d="m154.35,87.38c12.39-20.33,24.44-40.87,36.12-61.63,2.33-4.13,8.59-.37,6.26,3.76-11.69,20.76-23.73,41.3-36.12,61.63-2.46,4.04-8.73.29-6.26-3.76Z"/><path class="uuid-7a194147-8945-4acd-90a3-83fc7f9b4d29" d="m105.46,29.68h4.85c1.9,0,3.72,1.7,3.63,3.7-.09,2-1.6,3.7-3.63,3.7h-4.85c-1.9,0-3.72-1.7-3.63-3.7.09-2,1.6-3.7,3.63-3.7Z"/><path class="uuid-7a194147-8945-4acd-90a3-83fc7f9b4d29" d="m97.39,42.42c7.9-.4,15.79-.79,23.69-1.19,4.68-.24,4.66,7.16,0,7.39-7.9.4-15.79.79-23.69,1.19-4.68.24-4.66-7.16,0-7.39Z"/><path class="uuid-7a194147-8945-4acd-90a3-83fc7f9b4d29" d="m91.49,55.32c11.83-.24,23.65-.47,35.48-.71,5.61-.11,5.6,7.02,0,7.13-11.83.24-23.65.47-35.48.71-5.61.11-5.6-7.02,0-7.13Z"/><path class="uuid-7a194147-8945-4acd-90a3-83fc7f9b4d29" d="m84.2,68.72c16.69-.53,33.37-1.06,50.06-1.59,4.68-.15,4.67,7.24,0,7.39-16.69.53-33.37,1.06-50.06,1.59-4.68.15-4.67-7.24,0-7.39Z"/><path class="uuid-7a194147-8945-4acd-90a3-83fc7f9b4d29" d="m73.14,80.8c23.51.51,47.03.61,70.54.28,4.68-.06,4.68,7.33,0,7.39-23.51.33-47.03.23-70.54-.28-4.67-.1-4.69-7.5,0-7.39Z"/><path class="uuid-04296e80-4c50-40e4-8f85-f305ad99027d" d="m22.58,33.34l2.47-4.24c.97-1.66,3.33-2.4,4.98-1.3,1.65,1.1,2.32,3.28,1.28,5.06l-2.47,4.24c-.97,1.66-3.33,2.4-4.98,1.3-1.65-1.1-2.32-3.28-1.28-5.06Z"/><path class="uuid-04296e80-4c50-40e4-8f85-f305ad99027d" d="m29.26,46.89c3.68-7.12,7.36-14.23,11.04-21.35,2.18-4.21,8.43-.44,6.26,3.76-3.68,7.12-7.36,14.23-11.04,21.35-2.18,4.21-8.43.44-6.26-3.76Z"/><path class="uuid-04296e80-4c50-40e4-8f85-f305ad99027d" d="m37.18,58.61c5.82-10.48,11.63-20.96,17.45-31.43,2.76-4.97,8.79-1.34,6.03,3.63-5.82,10.48-11.63,20.96-17.45,31.43-2.76,4.97-8.79,1.34-6.03-3.63Z"/><path class="uuid-04296e80-4c50-40e4-8f85-f305ad99027d" d="m44.82,71.82c8.04-14.88,16.08-29.77,24.11-44.65,2.25-4.17,8.51-.41,6.26,3.76-8.04,14.88-16.08,29.77-24.11,44.65-2.25,4.17-8.51.41-6.26-3.76Z"/><path class="uuid-04296e80-4c50-40e4-8f85-f305ad99027d" d="m49.42,87.64c12.39-20.33,24.44-40.87,36.12-61.63,2.33-4.13,8.59-.37,6.26,3.76-11.69,20.76-23.73,41.3-36.12,61.63-2.46,4.04-8.73.29-6.26-3.76Z"/><path class="uuid-04296e80-4c50-40e4-8f85-f305ad99027d" d="m551.35,32.73l2.47-4.24c.97-1.66,3.33-2.4,4.98-1.3,1.65,1.1,2.32,3.28,1.28,5.06l-2.47,4.24c-.97,1.66-3.33,2.4-4.98,1.3-1.65-1.1-2.32-3.28-1.28-5.06Z"/><path class="uuid-04296e80-4c50-40e4-8f85-f305ad99027d" d="m558.03,46.28c3.68-7.12,7.36-14.23,11.04-21.35,2.18-4.21,8.43-.44,6.26,3.76-3.68,7.12-7.36,14.23-11.04,21.35-2.18,4.21-8.43.44-6.26-3.76Z"/><path class="uuid-04296e80-4c50-40e4-8f85-f305ad99027d" d="m565.95,58c5.82-10.48,11.63-20.96,17.45-31.43,2.76-4.97,8.79-1.34,6.03,3.63-5.82,10.48-11.63,20.96-17.45,31.43-2.76,4.97-8.79,1.34-6.03-3.63Z"/><path class="uuid-04296e80-4c50-40e4-8f85-f305ad99027d" d="m573.59,71.21c8.04-14.88,16.08-29.77,24.11-44.65,2.25-4.17,8.51-.41,6.26,3.76-8.04,14.88-16.08,29.77-24.11,44.65-2.25,4.17-8.51.41-6.26-3.76Z"/><path class="uuid-04296e80-4c50-40e4-8f85-f305ad99027d" d="m578.19,87.03c12.39-20.33,24.44-40.87,36.12-61.63,2.33-4.13,8.59-.37,6.26,3.76-11.69,20.76-23.73,41.3-36.12,61.63-2.46,4.04-8.73.29-6.26-3.76Z"/><path class="uuid-04296e80-4c50-40e4-8f85-f305ad99027d" d="m635.71,30.23h4.85c1.9,0,3.72,1.7,3.63,3.7-.09,2-1.6,3.7-3.63,3.7h-4.85c-1.9,0-3.72-1.7-3.63-3.7.09-2,1.6-3.7,3.63-3.7Z"/><path class="uuid-04296e80-4c50-40e4-8f85-f305ad99027d" d="m627.64,42.97c7.9-.4,15.79-.79,23.69-1.19,4.68-.24,4.66,7.16,0,7.39-7.9.4-15.79.79-23.69,1.19-4.68.24-4.66-7.16,0-7.39Z"/><path class="uuid-04296e80-4c50-40e4-8f85-f305ad99027d" d="m621.75,55.87c11.83-.24,23.65-.47,35.48-.71,5.61-.11,5.6,7.02,0,7.13-11.83.24-23.65.47-35.48.71-5.61.11-5.6-7.02,0-7.13Z"/><path class="uuid-04296e80-4c50-40e4-8f85-f305ad99027d" d="m614.46,69.28c16.69-.53,33.37-1.06,50.06-1.59,4.68-.15,4.67,7.24,0,7.39-16.69.53-33.37,1.06-50.06,1.59-4.68.15-4.67-7.24,0-7.39Z"/><path class="uuid-04296e80-4c50-40e4-8f85-f305ad99027d" d="m603.4,81.35c23.51.51,47.03.61,70.54.28,4.68-.06,4.68,7.33,0,7.39-23.51.33-47.03.23-70.54-.28-4.67-.1-4.69-7.5,0-7.39Z"/><path class="uuid-04296e80-4c50-40e4-8f85-f305ad99027d" d="m1882.24,88.65c12.58.47,25.17.57,37.76.34v-7.39c-12.59.23-25.17.12-37.76-.34-2.76-.1-2.75,7.29,0,7.39Z"/><path class="uuid-04296e80-4c50-40e4-8f85-f305ad99027d" d="m1894.54,76.57c8.49-.47,16.98-.95,25.46-1.42v-7.39c-8.49.47-16.98.95-25.46,1.42-2.66.15-2.67,7.54,0,7.39Z"/><path class="uuid-04296e80-4c50-40e4-8f85-f305ad99027d" d="m1902.32,62.9c5.89-.21,11.79-.41,17.68-.62v-7.13c-5.89.21-11.79.41-17.68.62-3.21.11-3.22,7.24,0,7.13Z"/><path class="uuid-04296e80-4c50-40e4-8f85-f305ad99027d" d="m1909.32,50.27c3.56-.31,7.12-.62,10.68-.93v-7.39c-3.56.31-7.12.62-10.68.93-2.7.23-2.71,7.63,0,7.39Z"/><path class="uuid-04296e80-4c50-40e4-8f85-f305ad99027d" d="m1918.84,37.53h1.16v-7.39h-1.16c-1.5,0-2.61,1.69-2.67,3.7-.06,2,1.28,3.7,2.67,3.7Z"/><path class="uuid-04296e80-4c50-40e4-8f85-f305ad99027d" d="m0,88.64c12.47.35,24.95.4,37.42.12,2.87-.06,2.87-7.46,0-7.39C24.95,81.65,12.47,81.59,0,81.25v7.39Z"/><path class="uuid-04296e80-4c50-40e4-8f85-f305ad99027d" d="m.03,76.11c8.8-.44,17.6-.87,26.41-1.31,3-.15,3.01-7.54,0-7.39-8.8.44-17.6.87-26.41,1.31v7.39Z"/><path class="uuid-04296e80-4c50-40e4-8f85-f305ad99027d" d="m0,62.57c6.1-.18,12.19-.37,18.29-.55,3.71-.11,3.71-7.24,0-7.13C12.19,55.07,6.1,55.26,0,55.44v7.13Z"/><path class="uuid-04296e80-4c50-40e4-8f85-f305ad99027d" d="m0,49.7c3.67-.26,7.34-.53,11.01-.79,3.26-.23,3.27-7.63,0-7.39L0,42.3v7.39Z"/><path class="uuid-04296e80-4c50-40e4-8f85-f305ad99027d" d="m0,37.35h2.42c1.54,0,2.68-1.69,2.75-3.7.07-2-1.31-3.7-2.75-3.7H0v7.39Z"/><path class="uuid-04296e80-4c50-40e4-8f85-f305ad99027d" d="m.03,7.39c250.58.02,501.17.04,751.75.06,249.42.02,498.84.04,748.26.06,139.99.01,279.98.02,419.96.03V.15c-249.96-.02-499.9-.04-749.85-.06L421.58.03C281.06.02,140.54.01.02,0v7.39Z"/></svg>