<?xml version="1.0" encoding="UTF-8"?><svg id="uuid-57f86992-6c64-4b40-96d4-abb7ebbf1a27" xmlns="http://www.w3.org/2000/svg" viewBox="0 0 23.19 23.19"><defs><style>.uuid-a400d8a2-637b-4d4b-9d3b-3aba3b7d5201{fill:#fff;}</style></defs><path class="uuid-a400d8a2-637b-4d4b-9d3b-3aba3b7d5201" d="m11.85.01s-.07,0-.1,0c-.05,0-.11,0-.16,0C5.2,0,0,5.2,0,11.59c0,.08,0,.15.01.22,0,.02-.01.04-.01.06,0,.03.01.06.02.09.2,6.22,5.31,11.22,11.58,11.22.05,0,.1,0,.15,0,0,0,.01,0,.02,0,.02,0,.03,0,.05-.01,6.16-.12,11.15-5.07,11.35-11.21,0-.03.02-.06.02-.09,0-.02,0-.04-.01-.06,0-.08.01-.15.01-.22C23.19,5.29,18.13.15,11.85.01Zm10.32,11.36h-4.05c-.13-1.96-.74-3.75-1.54-5.31.88-.43,1.78-1.01,2.67-1.76,1.76,1.85,2.86,4.33,2.92,7.07ZM12.09,1.66c.79.79,2.02,2.17,3.07,3.93-1.06.39-2.09.56-3.07.59V1.66Zm.87-.56c2.12.27,4.04,1.18,5.58,2.51-.82.67-1.63,1.19-2.43,1.57-1.06-1.8-2.29-3.21-3.15-4.09Zm-1.87.74v4.32c-1.04-.08-2-.31-2.86-.62.97-1.61,2.08-2.89,2.86-3.7Zm-3.82,3.31c-1.2-.54-2.11-1.16-2.62-1.54,1.59-1.38,3.58-2.3,5.78-2.54-.86.86-2.1,2.28-3.16,4.08Zm3.82,1.97v4.26h-4.86c.14-1.83.74-3.52,1.52-5,.99.36,2.12.65,3.34.74Zm0,5.26v3.74c-1.4.04-2.64.35-3.7.76-.74-1.45-1.15-2.95-1.19-4.49h4.89Zm0,4.7v4.38c-1.36-1.2-2.44-2.45-3.24-3.74.93-.35,2.02-.6,3.24-.64Zm-.78,5.03c-2.16-.26-4.11-1.17-5.67-2.53.44-.37,1.22-.95,2.28-1.46.83,1.38,1.97,2.72,3.39,3.99Zm1.78-.5v-4.51c1.03.07,2.13.31,3.3.78-.82,1.29-1.92,2.53-3.3,3.72Zm4.22-3.31c.71.35,1.43.78,2.18,1.32-1.5,1.29-3.36,2.16-5.41,2.45,1.34-1.21,2.42-2.47,3.23-3.77Zm-4.22-2.17v-3.75h5.07c-.04,1.6-.47,3.14-1.26,4.64-1.35-.55-2.62-.82-3.8-.89Zm0-4.75v-4.23c1.14-.02,2.33-.21,3.56-.68.76,1.45,1.34,3.12,1.47,4.91h-5.04ZM3.93,4.3c.51.39,1.53,1.08,2.88,1.69-.82,1.58-1.45,3.4-1.58,5.39H1.01c.06-2.74,1.16-5.22,2.92-7.08ZM1.04,12.38h4.16c.04,1.69.47,3.32,1.27,4.89-1.2.58-2.07,1.23-2.54,1.62-1.64-1.72-2.7-3.99-2.89-6.51Zm18.19,6.54c-.83-.61-1.63-1.1-2.42-1.49.85-1.62,1.31-3.31,1.35-5.06h3.99c-.19,2.53-1.26,4.82-2.92,6.54Z"/></svg>