<?xml version="1.0" encoding="UTF-8"?><svg id="uuid-5fc2abb7-c707-4ac1-8e20-9ecab0e1d801" xmlns="http://www.w3.org/2000/svg" viewBox="0 0 18.57 23.66"><defs><style>.uuid-12ddc46c-fa03-406e-8d48-470ee21fd9ee{fill:#fff;}</style></defs><path class="uuid-12ddc46c-fa03-406e-8d48-470ee21fd9ee" d="m12.72,5.52c1.51,0,2.74-1.24,2.74-2.76s-1.23-2.76-2.74-2.76-2.74,1.24-2.74,2.76,1.23,2.76,2.74,2.76Zm0-4.52c.96,0,1.74.79,1.74,1.76s-.78,1.76-1.74,1.76-1.74-.79-1.74-1.76.78-1.76,1.74-1.76Z"/><path class="uuid-12ddc46c-fa03-406e-8d48-470ee21fd9ee" d="m8.21,15.04h.56c.12,0,.23-.04.34-.06v7.4c0,.71.61,1.28,1.36,1.28h1.38c.33,0,.63-.11.86-.3.24.18.53.3.86.3h1.38c.75,0,1.36-.58,1.36-1.28v-7.4c.11.03.22.06.34.06h.56c.74,0,1.34-.55,1.34-1.22v-6.36c0-.67-.6-1.22-1.34-1.22h-9.01c-.74,0-1.34.55-1.34,1.22v6.36c0,.67.6,1.22,1.34,1.22Zm-.34-7.58c0-.1.15-.22.34-.22h9.01c.2,0,.34.11.34.22v6.36c0,.1-.15.22-.34.22h-.56c-.2,0-.34-.11-.34-.22v-3.37c0-.28-.22-.5-.5-.5s-.5.22-.5.5v3.37s.01.04.01.06c0,.02-.01.04-.01.06v8.44c0,.15-.17.28-.36.28h-1.38c-.2,0-.36-.13-.36-.28v-7.84c0-.28-.22-.5-.5-.5s-.5.22-.5.5v7.84c0,.15-.17.28-.36.28h-1.38c-.2,0-.36-.13-.36-.28v-8.44s0-.04-.01-.06c0-.02.01-.04.01-.06v-3.37c0-.28-.22-.5-.5-.5s-.5.22-.5.5v3.37c0,.1-.15.22-.34.22h-.56c-.2,0-.34-.11-.34-.22v-6.36Z"/><path class="uuid-12ddc46c-fa03-406e-8d48-470ee21fd9ee" d="m1.2,15.88h.47c.07,0,.13-.03.2-.04v6.62c0,.67.55,1.21,1.22,1.21h1.15c.27,0,.51-.1.71-.25.2.15.45.25.72.25h1.15c.67,0,1.22-.52,1.22-1.16v-6.28c0-.28-.22-.5-.5-.5s-.5.22-.5.5v6.28c0,.09-.1.16-.22.16h-1.15c-.12,0-.22-.07-.22-.16v-6.28c0-.28-.22-.5-.5-.5s-.5.22-.5.5v6.24c0,.11-.1.21-.22.21h-1.15c-.12,0-.22-.09-.22-.21v-7.62s0-.04-.01-.05c0-.02.01-.03.01-.05v-2.96c0-.28-.22-.5-.5-.5s-.5.22-.5.5v2.96c0,.07-.08.15-.2.15h-.47c-.12,0-.2-.08-.2-.15v-5.75c0-.07.08-.15.2-.15h3.97c.28,0,.5-.22.5-.5s-.22-.5-.5-.5H1.2c-.66,0-1.2.51-1.2,1.15v5.75c0,.63.54,1.15,1.2,1.15Z"/><path class="uuid-12ddc46c-fa03-406e-8d48-470ee21fd9ee" d="m4.51,7.02c1.2,0,2.17-.98,2.17-2.19s-.98-2.19-2.17-2.19-2.17.98-2.17,2.19.98,2.19,2.17,2.19Zm0-3.39c.65,0,1.17.54,1.17,1.19s-.53,1.19-1.17,1.19-1.17-.54-1.17-1.19.53-1.19,1.17-1.19Z"/></svg>