<?xml version="1.0" encoding="UTF-8"?><svg id="uuid-0940505c-62ee-4f9d-bb1f-9beaf103799b" xmlns="http://www.w3.org/2000/svg" viewBox="0 0 939.57 185.96"><defs><style>.uuid-b394ac37-7c92-4257-83bc-dec95192aaa5{fill:#fff;}.uuid-d50a192f-b4a8-4dee-9bfb-7ad4674d731b{fill:#00a383;}.uuid-954e89c1-7598-4d63-a45a-80e04f845bfc{fill:#fb9f2c;}.uuid-a34b9ec0-b3f6-45a2-8751-f554fdff28fb{fill:#f7f7f7;}.uuid-2ee48f79-fc17-43d1-a604-6d7604e0374d{fill:#f63a76;}</style></defs><path class="uuid-b394ac37-7c92-4257-83bc-dec95192aaa5" d="m566.99,185.26v-32.49h.94v32.49h-.94Z"/><path class="uuid-a34b9ec0-b3f6-45a2-8751-f554fdff28fb" d="m568.18,185.51h-1.44v-32.99h1.44v32.99Zm-.94-.5h.44v-31.99h-.44v31.99Z"/><path class="uuid-b394ac37-7c92-4257-83bc-dec95192aaa5" d="m578.03,185.26h-.94v-32.49h.76l12.38,28.47c.18.42.31.75.38.98.07.24.14.43.2.58v-30.04h.94v32.49h-.81l-12.24-28.25c-.06-.15-.19-.45-.38-.92-.19-.46-.32-.83-.38-1.09l.09,30.26Zm-.31-32.49h-.31.31Zm13.72,32.49h-.31.31Z"/><path class="uuid-a34b9ec0-b3f6-45a2-8751-f554fdff28fb" d="m592,185.51h-1.22l-.07-.15-12.24-28.25c-.05-.12-.14-.35-.28-.67l.09,29.07h-1.44v-32.99h1.17l12.44,28.62c.04.09.07.17.1.25v-28.87h1.44v32.99Zm-.56-.5h.06v-31.99h-.44v31.08l-.48-1.2c-.06-.15-.13-.35-.21-.6-.07-.22-.2-.55-.37-.96l-12.17-28,.36,1.61c.06.25.18.61.37,1.05s.32.77.38.92l12.19,28.09h.31Zm-14.1,0h.44l-.09-31.99h-.34v31.99Z"/><path class="uuid-b394ac37-7c92-4257-83bc-dec95192aaa5" d="m635.15,184.41v.85h-12.6v-32.49h12.42v.85h-11.49v16.89h8.98v.85h-8.98v13.05h11.67Z"/><path class="uuid-a34b9ec0-b3f6-45a2-8751-f554fdff28fb" d="m635.4,185.51h-13.1v-32.99h12.92v1.35h-11.49v16.39h8.98v1.35h-8.98v12.55h11.67v1.35Zm-12.6-.5h12.1v-.35h-11.67v-13.55h8.98v-.35h-8.98v-17.39h11.49v-.35h-11.92v31.99Z"/><path class="uuid-b394ac37-7c92-4257-83bc-dec95192aaa5" d="m657.18,178.02v.67c0,.39-.06.86-.18,1.41-.12.55-.3,1.14-.56,1.76s-.63,1.21-1.14,1.74c-1.13,1.22-2.72,1.83-4.77,1.83s-3.55-.61-4.68-1.83c-.5-.54-.88-1.13-1.13-1.79-.25-.66-.42-1.27-.51-1.86-.09-.58-.13-1.08-.13-1.5v-25.88h.94v26.17c0,.31.03.62.09.92.06.54.2,1.1.43,1.68.22.58.56,1.13,1.01,1.63.93,1.01,2.26,1.52,4,1.52s3.14-.52,4.13-1.56c.42-.48.74-.99.96-1.54.22-.55.38-1.08.47-1.59.06-.3.1-.59.11-.87.01-.28.02-.57.02-.87v-25.48h.94v25.43Z"/><path class="uuid-a34b9ec0-b3f6-45a2-8751-f554fdff28fb" d="m650.54,185.69c-2.05,0-3.69-.64-4.86-1.91-.52-.56-.92-1.18-1.18-1.87-.26-.67-.44-1.31-.53-1.91-.09-.59-.14-1.1-.14-1.54v-26.13h1.44v26.42c0,.3.03.59.08.87.06.54.2,1.08.41,1.64.21.55.54,1.08.96,1.56.87.95,2.15,1.44,3.81,1.44s3.01-.5,3.95-1.49c.39-.45.7-.94.92-1.46.22-.53.37-1.05.46-1.54.06-.29.09-.57.11-.84.01-.28.02-.57.02-.86v-25.73h1.44v26.35c0,.4-.06.89-.18,1.46-.12.56-.31,1.17-.57,1.81-.26.65-.66,1.26-1.18,1.82-1.17,1.27-2.83,1.91-4.95,1.91Zm-6.21-32.85v25.63c0,.41.04.9.13,1.46.09.56.25,1.17.5,1.8.24.62.6,1.2,1.08,1.71,1.08,1.17,2.59,1.75,4.5,1.75s3.51-.59,4.58-1.75c.48-.51.85-1.07,1.09-1.67.25-.61.43-1.19.54-1.72.11-.53.17-.99.17-1.36v-25.85h-.44v25.18c0,.35,0,.64-.02.93-.02.29-.06.6-.12.91-.09.52-.26,1.07-.49,1.63-.23.58-.57,1.12-1.01,1.61-1.04,1.1-2.49,1.65-4.32,1.65s-3.21-.54-4.18-1.6c-.47-.53-.82-1.1-1.06-1.71-.23-.6-.38-1.18-.44-1.74-.06-.29-.09-.61-.09-.94v-25.92h-.44Z"/><path class="uuid-b394ac37-7c92-4257-83bc-dec95192aaa5" d="m673.67,171.22c-.33.06-.66.1-1.01.11-.34.01-.71.02-1.09.02h-4.2v13.9h-.94v-32.49h5.14c1.61,0,2.96.25,4.04.76,1.09.51,1.93,1.22,2.52,2.15.57.89,1.01,1.9,1.32,3.02.31,1.12.47,2.24.47,3.38s-.16,2.3-.47,3.42c-.31,1.12-.75,2.11-1.32,2.97-.42.66-.91,1.21-1.47,1.65-.57.45-1.28.76-2.15.94l-.85.18Zm3.67-3.27c.51-.81.91-1.73,1.21-2.76.3-1.03.45-2.08.45-3.16s-.15-2.08-.45-3.11-.7-1.95-1.21-2.76c-.51-.78-1.24-1.38-2.19-1.81-.95-.43-2.15-.65-3.58-.65h-4.2v16.71h4.2c1.73,0,2.99-.22,3.8-.65.8-.43,1.46-1.04,1.97-1.82Zm-2.82,3.09l6.21,14.17h-.98l-6.12-13.99.89-.18Z"/><path class="uuid-a34b9ec0-b3f6-45a2-8751-f554fdff28fb" d="m667.62,185.51h-1.44v-32.99h5.39c1.64,0,3.03.26,4.15.78,1.13.53,2.01,1.28,2.63,2.24.58.91,1.03,1.95,1.35,3.08.32,1.13.48,2.29.48,3.44s-.16,2.35-.48,3.49c-.32,1.14-.77,2.16-1.35,3.04-.43.67-.94,1.25-1.53,1.71-.53.42-1.18.72-1.95.92l6.25,14.24h-1.53l-.07-.15-6.04-13.81c-.26.04-.53.07-.8.08-.35.01-.71.02-1.11.02h-3.95v13.9Zm-.94-.5h.44v-13.9h4.45c.38,0,.74,0,1.08-.02.24,0,.48-.03.71-.07l1.1-.22c.82-.17,1.51-.47,2.04-.89.54-.43,1.02-.96,1.42-1.59.55-.84.98-1.82,1.29-2.91.3-1.09.46-2.22.46-3.35s-.15-2.22-.46-3.31-.74-2.08-1.29-2.95c-.57-.88-1.38-1.57-2.42-2.05-1.05-.49-2.38-.74-3.94-.74h-4.89v31.99Zm13.23-.04h.44l-5.98-13.63-.39.08,5.93,13.55Zm-8.34-14.29h-4.45v-17.21h4.45c1.46,0,2.7.23,3.68.67.99.45,1.76,1.09,2.3,1.9.52.83.94,1.78,1.24,2.82.3,1.05.46,2.12.46,3.18s-.15,2.18-.46,3.23c-.3,1.05-.72,2-1.23,2.82h0c-.53.81-1.22,1.45-2.06,1.9-.85.46-2.13.68-3.92.68Zm-3.95-.5h3.95c1.68,0,2.92-.21,3.68-.62.76-.41,1.39-.99,1.88-1.73.49-.78.89-1.69,1.18-2.69.29-1,.44-2.04.44-3.09s-.15-2.04-.44-3.04c-.29-1-.69-1.91-1.18-2.69-.48-.73-1.18-1.31-2.08-1.72-.92-.42-2.08-.63-3.47-.63h-3.95v16.21Z"/><path class="uuid-b394ac37-7c92-4257-83bc-dec95192aaa5" d="m701.03,178.24v.71c0,.39-.06.86-.18,1.41-.12.55-.31,1.14-.56,1.77-.25.62-.63,1.21-1.14,1.74-.6.6-1.44,1.05-2.53,1.36-1.09.31-2.14.47-3.15.47s-2.06-.16-3.13-.47c-1.07-.31-1.89-.77-2.46-1.36-.51-.54-.89-1.13-1.14-1.79-.25-.66-.42-1.27-.51-1.86-.09-.58-.13-1.08-.13-1.5v-19.09c0-1.19.17-2.26.51-3.2.34-.94.89-1.74,1.63-2.39.3-.27.66-.51,1.09-.71s.89-.38,1.36-.51.95-.24,1.43-.31c.48-.07.92-.11,1.34-.11.39,0,.83.03,1.32.09.49.06.98.16,1.47.29.49.13.95.3,1.39.49.43.19.8.42,1.09.69,1.52,1.34,2.28,3.23,2.28,5.68v18.59Zm-.94-18.59c0-1.04-.13-1.94-.4-2.68-.27-.74-.64-1.37-1.12-1.88-.27-.3-.62-.56-1.05-.78-.43-.22-.89-.41-1.36-.56-.48-.15-.95-.25-1.43-.31s-.89-.09-1.25-.09c-.69,0-1.41.08-2.17.25-.76.16-1.45.48-2.08.94-.63.46-1.14,1.1-1.54,1.92-.4.82-.6,1.88-.6,3.2v18.37c-.03.75,0,1.39.09,1.92.09.54.24,1.1.45,1.7.21.6.54,1.13.98,1.61.48.51,1.19.89,2.15,1.14.95.25,1.86.38,2.73.38.45,0,.91-.03,1.39-.09.48-.06.95-.16,1.41-.29s.89-.3,1.27-.49c.39-.19.7-.43.94-.69.45-.48.77-1,.98-1.56.21-.57.36-1.09.45-1.59.09-.49.13-1.08.13-1.77l.04-18.64Z"/><path class="uuid-a34b9ec0-b3f6-45a2-8751-f554fdff28fb" d="m693.47,185.96c-1.03,0-2.11-.16-3.2-.48-1.11-.33-1.98-.81-2.57-1.43-.53-.56-.93-1.19-1.19-1.87-.26-.67-.44-1.31-.53-1.91-.09-.59-.14-1.11-.14-1.53v-19.09c0-1.22.18-2.32.53-3.28.35-.97.93-1.81,1.7-2.49.31-.28.7-.53,1.15-.75.44-.21.92-.39,1.41-.53.48-.13.97-.24,1.46-.32.95-.15,1.69-.15,2.73-.02.51.06,1.02.16,1.51.3.5.13.98.3,1.42.5.46.21.84.45,1.16.74,1.57,1.38,2.36,3.36,2.36,5.86v19.31c0,.4-.06.89-.19,1.46-.12.56-.31,1.17-.57,1.81-.26.65-.66,1.27-1.19,1.82-.63.63-1.51,1.11-2.64,1.43-1.1.32-2.19.48-3.22.48Zm0-33.3c-.4,0-.84.04-1.3.11-.47.07-.94.18-1.4.31-.46.13-.9.3-1.32.5-.41.2-.76.43-1.04.68-.71.63-1.24,1.4-1.56,2.29-.33.91-.5,1.95-.5,3.11v19.09c0,.4.04.89.13,1.46.09.56.25,1.17.5,1.8.24.62.61,1.2,1.09,1.71.53.56,1.32,1,2.35,1.29,2.09.61,4.02.61,6.14,0,1.04-.3,1.86-.74,2.42-1.3.48-.5.84-1.06,1.08-1.66.25-.61.43-1.19.55-1.72.12-.53.17-.99.17-1.36v-19.31c0-2.36-.74-4.2-2.2-5.49-.28-.25-.62-.47-1.03-.65-.42-.19-.88-.35-1.35-.48-.47-.13-.95-.22-1.44-.28-.48-.06-.92-.09-1.29-.09Zm0,32.36c-.88,0-1.82-.13-2.79-.39-1-.26-1.76-.67-2.26-1.21-.47-.5-.82-1.07-1.04-1.7-.21-.6-.37-1.19-.46-1.74-.09-.55-.12-1.22-.09-1.97v-18.36c0-1.34.21-2.45.63-3.31.42-.85.96-1.53,1.62-2.01.65-.48,1.38-.81,2.17-.98.78-.17,1.52-.25,2.22-.25.37,0,.8.03,1.28.09.49.06.98.17,1.47.32.49.15.96.35,1.4.58.46.23.83.52,1.12.84.5.53.89,1.19,1.17,1.96.28.77.42,1.7.42,2.77h0s-.04,18.64-.04,18.64c0,.7-.05,1.3-.14,1.81-.09.5-.25,1.05-.46,1.63-.22.6-.57,1.15-1.04,1.65-.26.29-.6.54-1.01.75-.4.2-.84.37-1.32.51-.48.14-.96.24-1.45.3-.48.06-.96.09-1.42.09Zm0-31.42c-.66,0-1.38.08-2.12.24-.72.16-1.39.46-1.98.9-.59.44-1.08,1.05-1.47,1.83-.38.78-.58,1.82-.58,3.08v18.37c-.03.73,0,1.36.09,1.88.09.52.23,1.08.44,1.66.19.56.51,1.07.93,1.52.44.47,1.12.83,2.03,1.07.93.25,1.82.37,2.66.37.44,0,.89-.03,1.35-.09.46-.06.92-.15,1.37-.28.44-.13.86-.29,1.23-.47.35-.18.64-.39.86-.64.43-.45.74-.95.94-1.48.2-.55.35-1.07.43-1.54.09-.47.13-1.05.13-1.72l.04-18.64c0-1.01-.13-1.88-.39-2.6-.25-.71-.61-1.31-1.07-1.79-.25-.28-.58-.52-.98-.73-.42-.22-.86-.4-1.32-.54-.46-.14-.93-.25-1.39-.3-.46-.06-.87-.09-1.22-.09Z"/><path class="uuid-b394ac37-7c92-4257-83bc-dec95192aaa5" d="m719.44,155.67c.57.89,1.01,1.9,1.32,3.02.31,1.12.47,2.24.47,3.38s-.16,2.3-.47,3.42c-.31,1.12-.75,2.11-1.32,2.97-.63.95-1.43,1.68-2.41,2.17-.98.49-2.37.74-4.16.74h-4.2v13.9h-.94v-32.49h5.14c1.61,0,2.96.25,4.04.76,1.09.51,1.93,1.22,2.53,2.15Zm-.8,12.28c.51-.81.91-1.73,1.21-2.76.3-1.03.45-2.08.45-3.16s-.15-2.08-.45-3.11-.7-1.95-1.21-2.76c-.51-.78-1.24-1.38-2.19-1.81-.95-.43-2.15-.65-3.58-.65h-4.2v16.71h4.2c1.73,0,3-.22,3.8-.65.8-.43,1.46-1.04,1.97-1.82Z"/><path class="uuid-a34b9ec0-b3f6-45a2-8751-f554fdff28fb" d="m708.92,185.51h-1.44v-32.99h5.39c1.64,0,3.03.26,4.15.78,1.13.53,2.01,1.28,2.63,2.24h0c.58.91,1.03,1.95,1.35,3.08s.48,2.29.48,3.44-.16,2.35-.48,3.49-.77,2.16-1.35,3.04c-.65.99-1.49,1.75-2.51,2.25-1.01.51-2.45.76-4.27.76h-3.95v13.9Zm-.94-.5h.44v-13.9h4.45c1.74,0,3.1-.24,4.04-.71.94-.47,1.72-1.17,2.32-2.08.55-.84.98-1.82,1.29-2.9.31-1.09.46-2.22.46-3.35s-.16-2.22-.46-3.31c-.3-1.09-.74-2.08-1.29-2.95-.57-.88-1.38-1.57-2.42-2.06-1.05-.49-2.38-.74-3.94-.74h-4.89v31.99Zm4.89-14.34h-4.45v-17.21h4.45c1.46,0,2.7.23,3.68.67.99.45,1.76,1.09,2.29,1.9.52.83.94,1.78,1.24,2.82.3,1.05.46,2.12.46,3.18s-.15,2.18-.46,3.23c-.3,1.05-.72,2-1.24,2.82h0c-.53.81-1.22,1.45-2.06,1.9-.85.46-2.13.68-3.92.68Zm-3.95-.5h3.95c1.68,0,2.92-.21,3.68-.62.76-.41,1.39-.99,1.87-1.73.49-.78.89-1.69,1.18-2.69.29-1,.44-2.04.44-3.09s-.15-2.04-.44-3.04c-.29-1-.69-1.91-1.18-2.69-.48-.73-1.18-1.31-2.08-1.72-.92-.42-2.08-.63-3.47-.63h-3.95v16.21Z"/><path class="uuid-b394ac37-7c92-4257-83bc-dec95192aaa5" d="m741.3,185.26h-.98l-2.01-9.79h-7.78l-2.1,9.79h-.98l6.57-32.49h.76l6.53,32.49Zm-3.26-10.73l-3.62-19.31-3.75,19.31h7.38Zm-3.8-21.77h.31-.31Z"/><path class="uuid-a34b9ec0-b3f6-45a2-8751-f554fdff28fb" d="m741.6,185.51h-1.49l-2.01-9.79h-7.37l-2.1,9.79h-1.49l6.67-32.99h1.17l.04.2,6.59,32.79Zm-1.08-.5h.47l-6.42-31.99h-.35l-6.47,31.99h.48l2.1-9.79h8.18l2.01,9.79Zm-2.18-10.23h-7.98l.06-.3,4-20.59,3.92,20.89Zm-7.37-.5h6.77l-3.33-17.72-3.45,17.72Z"/><path class="uuid-b394ac37-7c92-4257-83bc-dec95192aaa5" d="m783.44,184.41v.85h-12.6v-32.49h12.42v.85h-11.49v16.89h8.98v.85h-8.98v13.05h11.67Z"/><path class="uuid-a34b9ec0-b3f6-45a2-8751-f554fdff28fb" d="m783.69,185.51h-13.1v-32.99h12.92v1.35h-11.49v16.39h8.98v1.35h-8.98v12.55h11.67v1.35Zm-12.6-.5h12.1v-.35h-11.67v-13.55h8.98v-.35h-8.98v-17.39h11.49v-.35h-11.92v31.99Z"/><path class="uuid-b394ac37-7c92-4257-83bc-dec95192aaa5" d="m790.41,184.27v1.3h-1.3v-1.3h1.3Z"/><path class="uuid-a34b9ec0-b3f6-45a2-8751-f554fdff28fb" d="m790.66,185.82h-1.8v-1.8h1.8v1.8Zm-1.3-.5h.8v-.8h-.8v.8Z"/><path class="uuid-b394ac37-7c92-4257-83bc-dec95192aaa5" d="m808.65,152.94h.98l-6.57,32.13h-.94l-6.57-32.13h.98l6.08,29.95,6.03-29.95Z"/><path class="uuid-a34b9ec0-b3f6-45a2-8751-f554fdff28fb" d="m803.27,185.33h-1.35l-6.67-32.63h1.49l.04.2,5.83,28.73,5.83-28.93h1.5l-6.67,32.63Zm-.94-.5h.53l6.47-31.63h-.47l-6.24,30.96-6.28-30.96h-.47l6.47,31.63Z"/><path class="uuid-b394ac37-7c92-4257-83bc-dec95192aaa5" d="m816.02,184.27v1.3h-1.3v-1.3h1.3Z"/><path class="uuid-a34b9ec0-b3f6-45a2-8751-f554fdff28fb" d="m816.27,185.82h-1.8v-1.8h1.8v1.8Zm-1.3-.5h.8v-.8h-.8v.8Z"/><path class="uuid-954e89c1-7598-4d63-a45a-80e04f845bfc" d="m41.63,52.25c2.81.99,5.17,2.32,7.07,3.99,1.9,1.67,3.4,3.5,4.5,5.47,1.1,1.98,1.82,3.95,2.17,5.93.34,1.98.4,3.73.17,5.25-.53,2.89-1.73,5.76-3.59,8.61-1.86,2.85-4.35,5.49-7.47,7.93-.84.46-1.75,1.07-2.74,1.82-.53.38-1.1.8-1.71,1.25.3.23.91.53,1.82.91s1.84.91,2.79,1.6c.95.68,1.86,1.58,2.74,2.68.87,1.1,1.44,2.51,1.71,4.22.27,1.71.11,3.78-.46,6.21-.57,2.43-1.73,5.29-3.48,8.55-1.98,4.26-4.39,7.45-7.24,9.58s-5.63,3.63-8.33,4.5c-2.7.88-5.08,1.33-7.13,1.37-2.05.04-3.19.06-3.42.06-.61,0-1.37-.02-2.28-.06-.91-.04-1.86-.09-2.85-.17-.99-.07-1.94-.11-2.85-.11s-1.64.08-2.17.23c-.99.15-1.81.17-2.45.06-.65-.11-1.16-.25-1.54-.4-.46-.23-.84-.49-1.14-.8-.15-.15-.34-.25-.57-.29-.23-.04-.68.02-1.37.17-.68.15-1.05.13-1.08-.06-.04-.19-.17-.47-.4-.86l-.23-.68c-.08-.08-.11-.15-.11-.23.07-.15.11-.36.11-.63s.04-.66.11-1.2c.15-.99.4-2.43.74-4.33.34-1.9.8-4.11,1.37-6.62.57-2.51,1.2-5.25,1.88-8.21.68-2.96,1.44-6.04,2.28-9.24,1.14-4.94,2.34-9.92,3.59-14.94,1.25-5.02,2.4-9.62,3.42-13.8,1.03-4.18,1.88-7.66,2.57-10.44.68-2.77,1.03-4.35,1.03-4.73.07-.76.23-1.2.46-1.31.23-.11.42-.17.57-.17.08-.07.51-.11,1.31-.11s1.27-.04,1.43-.11c.68-.23,1.73-.42,3.14-.57,1.41-.15,2.38-.23,2.91-.23.61,0,1.03-.04,1.25-.11.23,0,.38-.04.46-.11,2.58-.38,4.96-.55,7.13-.51,2.17.04,4.12.25,5.87.63Zm-9.12,52.12c0-.91-.08-1.79-.23-2.62-.15-.83-.5-1.63-1.03-2.39-.53-.76-1.29-1.46-2.28-2.11-.99-.65-2.28-1.24-3.88-1.77h-.34c-.23.08-.38.3-.46.68,0,.08-.1.48-.29,1.2-.19.72-.44,1.69-.74,2.91-.3,1.22-.65,2.59-1.03,4.11-.38,1.52-.76,3.08-1.14,4.68-.46,1.9-.91,3.8-1.37,5.7-.46,1.9-.85,3.63-1.2,5.19-.34,1.56-.63,2.87-.86,3.93-.23,1.07-.34,1.64-.34,1.71-.08.15-.08.27,0,.34,0,.23.23.15.68-.23,1.14-.46,2.53-1.41,4.16-2.85,1.63-1.44,3.19-3.19,4.68-5.25,1.48-2.05,2.77-4.24,3.88-6.56,1.1-2.32,1.69-4.54,1.77-6.67Zm-1.37-20.19c.91-.76,1.84-1.67,2.79-2.74.95-1.06,1.82-2.2,2.62-3.42.8-1.22,1.43-2.51,1.88-3.88s.65-2.81.57-4.33c-.15-1.6-.61-3.25-1.37-4.96-.76-1.71-1.94-3.25-3.54-4.62-.08-.07-.15-.11-.23-.11-.15,0-.27.11-.34.34.08.38-.27,1.73-1.03,4.05-.76,2.32-1.56,5.04-2.4,8.15-.46,1.75-.89,3.48-1.31,5.19-.42,1.71-.8,3.25-1.14,4.62-.34,1.37-.65,2.49-.91,3.36-.27.88-.4,1.35-.4,1.43-.08.08-.08.15,0,.23,0,.23.15.19.46-.11.15-.07.65-.38,1.48-.91.84-.53,1.79-1.29,2.85-2.28Z"/><path class="uuid-954e89c1-7598-4d63-a45a-80e04f845bfc" d="m103.44,52.82c.61.53.89,1.6.86,3.19-.04,1.6-.23,3.4-.57,5.42-.34,2.02-.72,4.09-1.14,6.22-.42,2.13-.7,3.92-.86,5.36-.68,5.78-1.46,11.75-2.34,17.91-.88,6.16-2.04,11.92-3.48,17.28-1.45,5.36-3.27,9.98-5.47,13.86-2.21,3.88-4.94,6.39-8.21,7.53-1.22,1.14-3.65,1.71-7.3,1.71h-1.37c-.38.23-1.07.36-2.05.4-.99.04-1.82.06-2.51.06h1.03c-1.37,0-2.66-.3-3.88-.91-1.22-.61-2.34-1.39-3.36-2.34-1.03-.95-1.92-2.03-2.68-3.25-.76-1.21-1.37-2.47-1.82-3.76-1.45-3.34-2.4-7.17-2.85-11.46-.46-4.29-.61-8.71-.46-13.23.15-4.52.53-8.99,1.14-13.4.61-4.41,1.27-8.42,2-12.03.72-3.61,1.41-6.63,2.05-9.07.65-2.43,1.08-3.95,1.31-4.56.46-1.52,1.01-2.58,1.65-3.19.65-.61,1.41-1.01,2.28-1.2.87-.19,1.84-.3,2.91-.34,1.06-.04,2.24-.25,3.54-.63h.91c.23-.23.46-.36.68-.4.23-.04.57-.06,1.03-.06s.87.1,1.25.29c.38.19.57.4.57.63.46.61.68,1.31.68,2.11s-.23,1.88-.68,3.25c-3.04,11.25-4.98,20.76-5.82,28.51-.84,7.75-1.1,14.14-.8,19.16.3,5.02.93,8.84,1.88,11.46.95,2.62,1.77,4.43,2.45,5.42,1.52-1.37,2.87-3.27,4.05-5.7,1.18-2.43,2.22-5.21,3.14-8.33.91-3.12,1.71-6.46,2.4-10.04s1.27-7.13,1.77-10.66c.49-3.54.93-6.97,1.31-10.32.38-3.34.72-6.39,1.03-9.12.15-3.19.34-5.91.57-8.15.23-2.24.46-4.05.68-5.42.23-1.29.99-2.05,2.28-2.28,1.29-.23,2.55-.34,3.76-.34.38,0,.89-.02,1.54-.06.65-.04,1.31-.17,2-.4.38,0,.78-.08,1.2-.23.42-.15.78-.23,1.08-.23,1.29,0,2.17.46,2.62,1.37Zm-35.47-14.83c0-.53.04-1.06.11-1.6.08-.53.38-.8.91-.8.68,0,1.43-.09,2.22-.29.8-.19,1.46-.21,2-.06.61.08,1.39.1,2.34.06.95-.04,1.94-.09,2.97-.17,1.03-.07,2.05-.17,3.08-.29,1.03-.11,1.96-.21,2.79-.29.76,0,1.31.19,1.65.57.34.38.55.89.63,1.54.08.65.08,1.37,0,2.17-.08.8-.15,1.58-.23,2.34-.15,1.52-.29,2.59-.4,3.19-.11.61-.32,1.52-.63,2.74-.38,1.22-1.25,1.84-2.62,1.88-1.37.04-2.93-.02-4.68-.17h-8.44c-1.22-.15-1.9-.74-2.05-1.77-.15-1.03-.15-1.96,0-2.79.07-.38.15-.91.23-1.6.07-.68.11-1.37.11-2.05v-2.62Zm22.81,0c0-.53.04-1.06.11-1.6.07-.53.38-.8.91-.8.68,0,1.43-.09,2.22-.29.8-.19,1.46-.21,2-.06.61.08,1.39.1,2.34.06.95-.04,1.94-.09,2.97-.17,1.03-.07,2.05-.17,3.08-.29,1.03-.11,1.96-.21,2.79-.29.76,0,1.31.19,1.65.57.34.38.55.89.63,1.54.07.65.07,1.37,0,2.17-.08.8-.15,1.58-.23,2.34-.15,1.52-.29,2.59-.4,3.19-.11.61-.32,1.52-.63,2.74-.38,1.22-1.25,1.84-2.62,1.88-1.37.04-2.93-.02-4.68-.17h-8.44c-1.22-.15-1.9-.74-2.05-1.77-.15-1.03-.15-1.96,0-2.79.07-.38.15-.91.23-1.6.08-.68.11-1.37.11-2.05v-2.62Z"/><path class="uuid-954e89c1-7598-4d63-a45a-80e04f845bfc" d="m146.67,51.56c3.12.61,5.61,1.65,7.47,3.14,1.86,1.48,3.23,3.27,4.11,5.36.87,2.09,1.31,4.39,1.31,6.9s-.3,5.11-.91,7.81c-.61,2.7-1.45,5.38-2.51,8.04-1.07,2.66-2.24,5.17-3.54,7.53-1.29,2.43-2.66,4.54-4.11,6.33-1.45,1.79-2.78,3.29-3.99,4.5-1.37,1.37-2.78,2.59-4.22,3.65.91,4.33,1.79,8.21,2.62,11.63.3,1.45.61,2.87.91,4.28.3,1.41.59,2.66.86,3.76.27,1.1.47,2,.63,2.68.15.68.23,1.07.23,1.14.23.23.36.46.4.68.04.23.06.46.06.68.07.3.04.55-.11.74-.15.19-.23.55-.23,1.08-.3.46-1.01.57-2.11.34-1.1-.23-2.15-.34-3.14-.34h-8.9c-.84.23-1.41-.15-1.71-1.14-.15-.38-.27-.91-.34-1.6-.61-2.89-1.14-5.51-1.6-7.87-.38-1.98-.74-3.84-1.08-5.59-.34-1.75-.59-2.77-.74-3.08-.08.08-.23.57-.46,1.48-.23.91-.48,2.02-.74,3.31-.27,1.29-.57,2.72-.91,4.28-.34,1.56-.67,3.02-.97,4.39-.3,1.37-.55,2.55-.74,3.54-.19.99-.29,1.6-.29,1.82,0,.46-.38.59-1.14.4-.76-.19-2.36-.17-4.79.06h-4.11c-.53.23-1.2.36-2,.4-.8.04-1.54.06-2.22.06-.38,0-.72-.15-1.03-.46-.15-.15-.27-.3-.34-.46,0-.23.15-1.03.46-2.39.3-1.37.7-3.21,1.2-5.53.49-2.32,1.08-5,1.77-8.04.68-3.04,1.37-6.31,2.05-9.81.91-4.49,1.65-9.08,2.22-13.8.57-4.71,1.27-9.2,2.11-13.46,1.37-6.31,2.4-11.58,3.08-15.8s.99-6.6.91-7.13c.23-.91.65-1.46,1.25-1.65.61-.19,1.14-.36,1.6-.51.07-.15.34-.27.8-.34.46-.07.99-.13,1.6-.17.61-.04,1.23-.06,1.88-.06h1.65c.91.15,1.69.19,2.34.11.65-.08,1.31-.17,2-.29.68-.11,1.48-.21,2.4-.29.91-.08,2.13-.08,3.65,0,.68-.23,1.46-.36,2.34-.4.87-.04,1.69-.06,2.45-.06.84,0,1.71.04,2.62.11Zm-9.58,36.95c1.37-2.58,2.62-5.42,3.76-8.5,1.14-3.08,1.88-6.1,2.22-9.07s.19-5.78-.46-8.44c-.65-2.66-2.07-4.94-4.28-6.84.07.3-.19.46-.8.46-.3-.23-.53-.27-.68-.11s-.23.3-.23.46c-.61,2.43-1.18,4.94-1.71,7.53-.53,2.21-1.07,4.73-1.6,7.58-.53,2.85-1.1,5.68-1.71,8.5-.53,2.43-1.01,4.79-1.43,7.07-.42,2.28-.78,4.32-1.08,6.1-.3,1.79-.53,3.29-.68,4.5-.15,1.22-.23,1.98-.23,2.28.99-.91,1.98-1.98,2.97-3.19.84-1.06,1.79-2.28,2.85-3.65,1.06-1.37,2.09-2.93,3.08-4.68Z"/><path class="uuid-954e89c1-7598-4d63-a45a-80e04f845bfc" d="m154.76,116.91c-.23-4.79.17-9.5,1.2-14.14,1.03-4.64,2.38-9.05,4.05-13.23,1.67-4.18,3.52-8.02,5.53-11.52,2.01-3.5,3.9-6.54,5.65-9.12,1.75-2.58,3.21-4.64,4.39-6.16,1.18-1.52,1.81-2.32,1.88-2.4.23-.3.57-.7,1.03-1.2.46-.49.91-1.01,1.37-1.54.46-.53.87-1.04,1.25-1.54.38-.49.65-.86.8-1.08-.15-.61.06-1.1.63-1.48.57-.38,1.27-.65,2.11-.8.91-.23,1.98-.34,3.19-.34,0-.07.04-.15.11-.23.15-.15.42-.23.8-.23h3.65c.99-.23,1.88-.34,2.68-.34s1.48.04,2.05.11c.57.08,1.04.17,1.43.29.38.11.65.1.8-.06.15-.23,1.08-.34,2.79-.34s3.93.11,6.67.34c1.29,0,2.36.02,3.19.06.84.04,1.56.1,2.17.17.68.08,1.25.15,1.71.23,2.58.76,4.45,2.13,5.59,4.11,1.14,1.98,1.79,4.26,1.94,6.84.15,2.59-.06,5.32-.63,8.21-.57,2.89-1.27,5.68-2.11,8.38-.84,2.7-1.64,5.15-2.4,7.36-.76,2.21-1.25,3.88-1.48,5.02-1.14-.15-1.96-.19-2.45-.11-.5.08-.89.11-1.2.11-.84-.15-2.24-.17-4.22-.06-1.98.11-3.88.32-5.7.63-.84.15-1.54.13-2.11-.06-.57-.19-1.05-.44-1.43-.74-.38-.3-.68-.72-.91-1.25.15-.46.59-1.81,1.31-4.05.72-2.24,1.44-4.88,2.17-7.93.72-3.04,1.27-6.22,1.65-9.52.38-3.31.34-6.29-.11-8.95-.15-.91-.4-1.63-.74-2.17-.34-.53-.7-.91-1.08-1.14-.38-.3-.84-.46-1.37-.46-4.79,5.17-8.84,10.02-12.15,14.54-3.31,4.52-6.03,8.76-8.15,12.72-2.13,3.95-3.76,7.58-4.9,10.89-1.14,3.31-1.94,6.33-2.4,9.07-1.07,6.39-.68,11.9,1.14,16.54.53,1.37,1.2,2.47,2,3.31.8.84,1.71,1.46,2.74,1.88,1.03.42,2.17.68,3.42.8,1.25.11,2.6.17,4.05.17,1.52,0,2.98-.06,4.39-.17,1.41-.11,2.68-.25,3.82-.4,1.37-.15,2.66-.34,3.88-.57.3-1.14.78-2.77,1.43-4.9.65-2.13,1.27-4.29,1.88-6.5.76-2.51,1.56-5.17,2.4-7.98-1.14-.08-2.87-.06-5.19.06-2.32.11-4.68.23-7.07.34-2.4.11-4.56.17-6.5.17s-3.06-.19-3.36-.57c-.31-.23-.51-.47-.63-.74-.11-.27-.32-.55-.63-.86-.3,0-.63-.09-.97-.29-.34-.19-.21-.29.4-.29.46-.15.8-.34,1.03-.57l.34-.34c0,.08.04.15.11.23.07.08.23,0,.46-.23.23,0,.68-.19,1.37-.57.68-.38,1.29-.57,1.82-.57h1.08c.57,0,1.23-.02,2-.06.76-.04,1.5-.07,2.22-.11.72-.04,1.27-.1,1.65-.17,1.06-.23,1.9-.3,2.51-.23.38.08.72.15,1.03.23.68.08,1.94.1,3.76.06,1.83-.04,3.82-.11,5.99-.23s4.39-.21,6.67-.29c2.28-.08,4.22-.11,5.82-.11,2.28,0,3.86.32,4.73.97.87.65,1.01,1.5.4,2.57-.15.53-.5,1.81-1.03,3.82-.53,2.02-1.1,4.16-1.71,6.44-.61,2.28-1.16,4.35-1.65,6.21-.5,1.86-.74,2.87-.74,3.02-.38.76-.63,1.5-.74,2.22-.11.72-.23,1.35-.34,1.88-.11.53-.32.97-.63,1.31-.3.34-.8.51-1.48.51-.76-.15-2.45-.19-5.08-.11-2.62.08-5.82.23-9.58.46s-7.95.5-12.55.8c-4.6.3-9.22.61-13.86.91-4.79.38-8.48-.19-11.06-1.71-2.59-1.52-4.49-3.27-5.7-5.25-1.37-2.28-2.13-4.94-2.28-7.98Z"/><path class="uuid-954e89c1-7598-4d63-a45a-80e04f845bfc" d="m240.07,53.84c.53-.07,1.06-.15,1.6-.23.76-.07,1.63-.27,2.62-.57.68-.38,2.01-.68,3.99-.91,1.98-.23,4.29-.4,6.96-.51,2.66-.11,5.49-.19,8.5-.23,3-.04,5.89-.02,8.67.06,2.77.08,5.28.19,7.53.34,2.24.15,3.9.34,4.96.57.07.15.11.42.11.8s-.06.86-.17,1.43c-.11.57-.25,1.35-.4,2.34-.23,1.07-.4,1.86-.51,2.4-.11.53-.21.95-.29,1.25-.08.3-.15.55-.23.74-.08.19-.23.44-.46.74-.15,0-.21.13-.17.4.04.27.06.55.06.86,0,.38.04.8.11,1.25v.46c0,.15-.04.3-.11.46-.08.15-.15.3-.23.46-.38,0-.59.02-.63.06s-.06.17-.06.4c-.15.23-.29.42-.4.57-.11.15-.7.25-1.77.29-1.07.04-2.81.04-5.25,0-2.43-.04-6.01-.17-10.72-.4h-2.97c-1.14,0-2.28.02-3.42.06-1.14.04-2.13.08-2.97.11-.84.04-1.29.1-1.37.17,0,.15-.11.99-.34,2.51-.23,1.52-.5,3.16-.8,4.9l-1.14,7.07,5.25-.23c.61.15,1.56.21,2.85.17,1.29-.04,2.62-.06,3.99-.06s2.68.02,3.94.06c1.25.04,2.15.17,2.68.4,1.52.38,2.4.74,2.62,1.08.23.34.34.63.34.86-.15.15-.25.48-.29.97-.04.5-.1,1.07-.17,1.71-.08.65-.11,1.25-.11,1.82v1.2c0,.38-.13.72-.4,1.03-.27.3-.51.61-.74.91-.23,0-.36.19-.4.57-.04.38-.06.8-.06,1.26s-.17,1.14-.51,2.05c-.34.91-1.08,1.45-2.22,1.6-.46.15-1.27.27-2.45.34-1.18.08-2.53.12-4.05.12s-3.08-.02-4.68-.06c-1.6-.04-3.08-.04-4.45,0-1.37.04-2.51.1-3.42.17-.91.08-1.41.23-1.48.46-.15.38-.44,1.5-.86,3.36-.42,1.87-.89,3.86-1.43,5.99-.61,2.51-1.25,5.29-1.94,8.33.07,0,.53.02,1.37.06.84.04,1.82.1,2.97.17,1.14.08,2.34.13,3.59.17,1.25.04,2.34.06,3.25.06.84.15,2.07.27,3.71.34,1.63.08,3.27.17,4.9.29,1.63.12,3.12.19,4.45.23,1.33.04,2.11.06,2.34.06s.13.29-.29.86c-.42.57-.63,1.08-.63,1.54,0,.38-.08,1.14-.23,2.28-.15,1.14-.38,2.09-.68,2.85-.23.68-.38,1.22-.46,1.6-.08.38-.23.95-.46,1.71-.38.68-.57,1.29-.57,1.83s-.13.99-.4,1.37c-.27.38-.8.67-1.6.86s-2.15.21-4.05.06c-2.05,0-4.18-.04-6.39-.12-1.9-.07-4.01-.13-6.33-.17-2.32-.04-4.58-.06-6.79-.06-3.5-.3-6.44-.38-8.84-.23s-3.78.23-4.16.23c-.3,0-.61-.08-.91-.23-.23-.15-.44-.3-.63-.46-.19-.15-.29-.42-.29-.8.15-.23.08-.46-.23-.68-.3-.23-.61-.34-.91-.34-.15,0-.31-.27-.46-.8-.15-.53-.11-1.18.11-1.94.23-.3.34-.61.34-.91v-.91c0-.23.09-.4.28-.51.19-.11.29-.44.29-.97.68-2.58,1.39-5.64,2.11-9.18.72-3.54,1.46-7.28,2.22-11.23.61-2.58,1.23-5.25,1.88-7.98.65-2.74,1.23-5.51,1.77-8.32.46-2.58.89-5.21,1.31-7.87.42-2.66.93-5.17,1.54-7.53.3-2.58.61-4.96.91-7.13.3-2.17.61-4.01.91-5.53.3-1.52.65-2.68,1.03-3.48.38-.8.8-1.16,1.25-1.08Z"/><path class="uuid-954e89c1-7598-4d63-a45a-80e04f845bfc" d="m318.76,51.56c3.12.61,5.61,1.65,7.47,3.14,1.86,1.48,3.23,3.27,4.11,5.36.87,2.09,1.31,4.39,1.31,6.9s-.3,5.11-.91,7.81c-.61,2.7-1.45,5.38-2.51,8.04-1.07,2.66-2.24,5.17-3.54,7.53-1.29,2.43-2.66,4.54-4.11,6.33-1.45,1.79-2.78,3.29-3.99,4.5-1.37,1.37-2.78,2.59-4.22,3.65.91,4.33,1.79,8.21,2.62,11.63.3,1.45.61,2.87.91,4.28.3,1.41.59,2.66.86,3.76.27,1.1.47,2,.63,2.68.15.68.23,1.07.23,1.14.23.23.36.46.4.68.04.23.06.46.06.68.07.3.04.55-.11.74-.15.19-.23.55-.23,1.08-.3.46-1.01.57-2.11.34-1.1-.23-2.15-.34-3.14-.34h-8.9c-.84.23-1.41-.15-1.71-1.14-.15-.38-.27-.91-.34-1.6-.61-2.89-1.14-5.51-1.6-7.87-.38-1.98-.74-3.84-1.08-5.59-.34-1.75-.59-2.77-.74-3.08-.08.08-.23.57-.46,1.48-.23.91-.48,2.02-.74,3.31-.27,1.29-.57,2.72-.91,4.28-.34,1.56-.67,3.02-.97,4.39-.3,1.37-.55,2.55-.74,3.54-.19.99-.29,1.6-.29,1.82,0,.46-.38.59-1.14.4-.76-.19-2.36-.17-4.79.06h-4.11c-.53.23-1.2.36-2,.4-.8.04-1.54.06-2.22.06-.38,0-.72-.15-1.03-.46-.15-.15-.27-.3-.34-.46,0-.23.15-1.03.46-2.39.3-1.37.7-3.21,1.2-5.53.49-2.32,1.08-5,1.77-8.04.68-3.04,1.37-6.31,2.05-9.81.91-4.49,1.65-9.08,2.22-13.8.57-4.71,1.27-9.2,2.11-13.46,1.37-6.31,2.4-11.58,3.08-15.8s.99-6.6.91-7.13c.23-.91.65-1.46,1.25-1.65.61-.19,1.14-.36,1.6-.51.07-.15.34-.27.8-.34.46-.07.99-.13,1.6-.17.61-.04,1.23-.06,1.88-.06h1.65c.91.15,1.69.19,2.34.11.65-.08,1.31-.17,2-.29.68-.11,1.48-.21,2.4-.29.91-.08,2.13-.08,3.65,0,.68-.23,1.46-.36,2.34-.4.87-.04,1.69-.06,2.45-.06.84,0,1.71.04,2.62.11Zm-9.58,36.95c1.37-2.58,2.62-5.42,3.76-8.5,1.14-3.08,1.88-6.1,2.22-9.07s.19-5.78-.46-8.44c-.65-2.66-2.07-4.94-4.28-6.84.07.3-.19.46-.8.46-.3-.23-.53-.27-.68-.11s-.23.3-.23.46c-.61,2.43-1.18,4.94-1.71,7.53-.53,2.21-1.07,4.73-1.6,7.58-.53,2.85-1.1,5.68-1.71,8.5-.53,2.43-1.01,4.79-1.43,7.07-.42,2.28-.78,4.32-1.08,6.1-.3,1.79-.53,3.29-.68,4.5-.15,1.22-.23,1.98-.23,2.28.99-.91,1.98-1.98,2.97-3.19.84-1.06,1.79-2.28,2.85-3.65,1.06-1.37,2.09-2.93,3.08-4.68Z"/><path class="uuid-2ee48f79-fc17-43d1-a604-6d7604e0374d" d="m437.94,127.63c-.38.99-.68,1.77-.91,2.34-.23.57-.44,1.01-.63,1.31-.19.3-.4.5-.63.57-.23.08-.53.11-.91.11-.68-.15-1.56-.21-2.62-.17-1.07.04-2.09.06-3.08.06-1.14.08-2.32.11-3.54.11-.68,0-1.67-.02-2.96-.06-1.29-.04-2.68-.07-4.16-.11-1.48-.04-2.91-.04-4.28,0-1.37.04-2.43.1-3.19.17-.3,0-.72-.04-1.25-.11-.53-.07-1.03-.29-1.48-.63-.46-.34-.82-.84-1.08-1.48-.27-.65-.25-1.54.06-2.68.08-.53.19-1.48.34-2.85.15-1.37.32-2.98.51-4.85.19-1.86.4-3.9.63-6.1.23-2.21.46-4.41.68-6.62.46-5.17.99-10.87,1.6-17.11-.15.08-.42.59-.8,1.54-.38.95-.88,2.19-1.48,3.71-.61,1.52-1.31,3.23-2.11,5.13-.8,1.9-1.65,3.84-2.57,5.82-1.07,2.74-2.13,5.49-3.19,8.27-1.07,2.78-2.05,5.3-2.97,7.58-.91,2.28-1.69,4.2-2.34,5.76-.65,1.56-1.05,2.53-1.2,2.91-.38,1.75-3.42,2.32-9.12,1.71h-5.93c-.68-.15-1.6-.21-2.74-.17-1.14.04-2.28.06-3.42.06-1.37.08-2.78.11-4.22.11-1.22,0-1.75-1.01-1.6-3.02.15-2.01.65-5.28,1.48-9.81.84-4.52,1.84-10.38,3.02-17.56,1.18-7.19,2.22-15.95,3.14-26.29.07-.53.25-1.81.51-3.82.27-2.01.55-4.24.86-6.67.3-2.43.61-4.77.91-7.01.3-2.24.57-3.82.8-4.73l.57-.57c-.08-.38.09-.67.51-.86.42-.19.78-.13,1.08.17h4.9c.46-.3,1.12-.38,2-.23.87.15,1.46.23,1.77.23.38.38.8.61,1.25.68.46.08.95.27,1.48.57.3.23.47.38.51.46.04.08.13.27.29.57v.46c0,.46.04.84.11,1.14-.15.68-.36,1.71-.63,3.08-.27,1.37-.53,2.98-.8,4.85-.27,1.86-.53,3.93-.8,6.22-.27,2.28-.44,4.64-.51,7.07-.38,4.11-.78,8.23-1.2,12.37-.42,4.15-.82,7.85-1.2,11.12-.38,3.27-.68,5.87-.91,7.81-.23,1.94-.27,2.76-.11,2.45.15-.23.61-1.2,1.37-2.91.76-1.71,1.67-3.88,2.74-6.5,1.06-2.62,2.24-5.55,3.54-8.78,1.29-3.23,2.62-6.52,3.99-9.87,1.37-3.34,2.68-6.63,3.93-9.87,1.25-3.23,2.4-6.1,3.42-8.61,1.03-2.51,1.84-4.52,2.45-6.04.61-1.52.95-2.32,1.03-2.4.23-.46.82-.65,1.77-.57.95.08,1.58.11,1.88.11.61-.23,1.37-.36,2.28-.4.91-.04,1.79-.06,2.62-.06.53,0,1.23.02,2.11.06.87.04,1.75.08,2.62.11.87.04,1.67.06,2.4.06s1.24-.07,1.54-.23c.3,0,.66.29,1.08.86.42.57.51,1.16.29,1.77.07.15.11.95.11,2.4s-.08,3.21-.23,5.3c-.15,2.09-.32,4.35-.51,6.79-.19,2.43-.38,4.73-.57,6.9-.19,2.17-.36,4.03-.51,5.59-.15,1.56-.27,2.53-.34,2.91v1.82c0,.91-.04,2.04-.11,3.36-.08,1.33-.13,2.78-.17,4.33-.04,1.56-.1,3.14-.17,4.73-.23,3.73-.42,7.91-.57,12.55.07-.15.27-.72.57-1.71.3-.99.68-2.26,1.14-3.82.46-1.56,1.01-3.38,1.65-5.47.65-2.09,1.35-4.28,2.11-6.56,1.06-4.18,2.26-8.61,3.59-13.29,1.33-4.68,2.62-9.03,3.88-13.06,1.25-4.03,2.32-7.43,3.19-10.21.87-2.77,1.39-4.35,1.54-4.73.15-1.06.4-1.63.74-1.71.34-.08.93-.23,1.77-.46h7.64c1.06-.15,1.9-.11,2.51.11.61.23,1.06.5,1.37.8.3.3.49.72.57,1.25-.23,2.05-.78,4.77-1.65,8.15-.88,3.38-1.88,7.13-3.02,11.23-1.14,4.11-2.34,8.42-3.59,12.94-1.25,4.52-2.38,8.95-3.36,13.29-.84,3.35-1.69,6.48-2.57,9.41-.88,2.93-1.65,5.57-2.34,7.93-.68,2.36-1.24,4.35-1.65,5.99-.42,1.64-.59,2.79-.51,3.48Z"/><path class="uuid-2ee48f79-fc17-43d1-a604-6d7604e0374d" d="m499.07,56.35c.61.3.84.53.68.68-.08.08-.23.15-.46.23-.08.08-.15.11-.23.11-.15.15-.23.27-.23.34.61.46.82.97.63,1.54-.19.57-.36,1.05-.51,1.43-.38,1.14-.51,1.88-.4,2.22.11.34-.06.89-.51,1.65,0,.46-.23.76-.68.91-.23.08-.42.11-.57.11.08.23.23,1.48.46,3.76.23,2.28.49,5.13.8,8.55.3,3.42.61,7.2.91,11.35.3,4.15.57,8.23.8,12.26.15,3.58.25,7.03.29,10.38.04,3.35.02,6.29-.06,8.84-.08,2.55-.17,4.62-.29,6.21-.11,1.6-.21,2.43-.29,2.51-.08,1.52-.23,2.41-.46,2.68-.23.27-.42.4-.57.4-.23,0-.7-.06-1.42-.17-.72-.12-1.2-.06-1.43.17-.15,0-.4-.02-.74-.06-.34-.04-1.12-.17-2.34-.4-.76-.08-1.58-.09-2.45-.06-.88.04-1.69.09-2.45.17-.91.08-1.83.19-2.74.34-.68,0-1.08-.06-1.2-.17-.11-.12-.25-.47-.4-1.08-.38-.46-.59-.82-.63-1.08-.04-.27-.1-.51-.17-.74v-.57c0-.23.08-.65.23-1.25-.08-.08-.11-.27-.11-.57v-2.4c-1.29,0-2.62-.04-3.99-.11-1.14-.08-2.43-.13-3.88-.17-1.45-.04-2.81-.06-4.11-.06-1.07-.15-1.96-.21-2.68-.17-.72.04-1.35.06-1.88.06-.61.08-1.14.11-1.6.11s-.74.17-.86.51c-.11.34-.36,1.16-.74,2.45-.23.68-.42,1.29-.57,1.83-.15.53-.3.99-.46,1.37-.15.46-.27.88-.34,1.25-.38.38-.8.46-1.25.23-.46-.23-1.33-.46-2.62-.68-1.29,0-2.36-.07-3.19-.23-.84-.15-2.02-.23-3.54-.23-.61-.15-1.24-.23-1.88-.23s-1.2-.04-1.65-.12c-.61,0-1.14-.04-1.6-.11-.38,0-.53-.09-.46-.29.07-.19.07-.4,0-.63-.23-.23-.34-.61-.34-1.14,0-.23.04-.46.11-.68,0-.08.32-1.27.97-3.59.65-2.32,1.52-5.3,2.62-8.95,1.1-3.65,2.32-7.75,3.65-12.32,1.33-4.56,2.68-9.2,4.05-13.91,1.22-4.18,2.38-8.27,3.48-12.26,1.1-3.99,2.07-7.58,2.91-10.78.84-3.19,1.5-5.83,2-7.93.49-2.09.74-3.36.74-3.82.3-1.06.61-1.6.91-1.6h4.45c-.08-.08-.04-.19.11-.34.08,0,.15-.04.23-.11,1.29-.23,2.75-.36,4.39-.4,1.63-.04,3.21-.06,4.73-.06,1.06-.15,2.13-.15,3.19,0,1.06.15,2.36.38,3.88.68.38.08.72.11,1.03.11s1.18.15,2.62.46c.84.23,1.63.4,2.4.51.76.11,1.44.21,2.05.29.68.08,1.33.11,1.94.11.38,0,.57.15.57.46,0,.15-.04.27-.11.34l-.23.57c.38.15.61.27.68.34.07.08.15.11.23.11,0,.08.04.15.11.23.08.08.13.15.17.23.04.08.13.19.29.34Zm-18.13,52.58c-.15-5.25-.32-9.83-.51-13.74-.19-3.92-.42-7.37-.68-10.38-.27-3-.59-5.65-.97-7.93-.38-2.28-.8-4.45-1.25-6.5-.08-.15-.11,0-.11.46,0,.23-.04.5-.11.8-.46,1.98-.99,3.99-1.6,6.04-.53,1.75-1.12,3.76-1.77,6.04-.65,2.28-1.31,4.56-2,6.84-.61,2.36-1.24,4.6-1.88,6.73-.65,2.13-1.24,4.03-1.77,5.7-.61,1.98-1.22,3.8-1.82,5.47h.46c1.6.15,3.19.27,4.79.34,1.37.15,2.87.25,4.5.28,1.63.04,3.14.13,4.5.29.3.23.38.08.23-.46Z"/><path class="uuid-2ee48f79-fc17-43d1-a604-6d7604e0374d" d="m551.31,52.36c1.83.99,3.21,2.38,4.16,4.16.95,1.79,1.6,3.84,1.94,6.16.34,2.32.44,4.83.29,7.53-.15,2.7-.38,5.46-.68,8.27-.38,4.56-1.08,9.45-2.11,14.66-1.03,5.21-2.51,10.21-4.45,15-1.94,4.79-4.39,9.18-7.36,13.17-2.96,3.99-6.5,7.05-10.61,9.18-.91.46-2.04.82-3.36,1.08-1.33.27-2.66.46-3.99.57-1.33.11-2.55.17-3.65.17h-2.22c-.23.15-.53.25-.91.29-.38.04-.65.06-.8.06-.99,0-1.88-.21-2.68-.63-.8-.42-1.46-.93-2-1.54-2.66-2.05-4.52-4.85-5.59-8.38-1.07-3.54-1.56-7.43-1.48-11.69.07-4.26.63-8.71,1.65-13.34,1.03-4.64,2.34-9.08,3.93-13.34.99-3.5,2.26-6.9,3.82-10.21,1.56-3.31,3.25-6.33,5.08-9.07,1.83-2.74,3.71-5.09,5.65-7.07,1.94-1.98,3.78-3.34,5.53-4.11h.8c.46,0,1.14-.09,2.05-.29.91-.19,1.79-.4,2.62-.63.91,0,1.77-.02,2.57-.06.8-.04,1.5-.13,2.11-.29h2.17c.68,0,1.27-.07,1.77-.23.49-.15.93-.23,1.31-.23,1.37,0,2.4.1,3.08.29.68.19,1.14.36,1.37.51Zm-27.71,71.96c1.6-1.6,3.15-3.5,4.68-5.7,1.29-1.9,2.68-4.26,4.16-7.07,1.48-2.81,2.83-6.12,4.05-9.92,1.75-5.25,3.19-10.42,4.33-15.51.46-2.13.87-4.37,1.25-6.73.38-2.36.67-4.68.86-6.96.19-2.28.23-4.48.11-6.61-.11-2.13-.44-4.11-.97-5.93-.23.08-.46.19-.68.34-.15.15-.32.27-.51.34-.19.08-.32.15-.4.23-1.07.84-2.53,2.47-4.39,4.9-1.86,2.43-3.78,5.42-5.76,8.95-1.98,3.54-3.84,7.45-5.59,11.75-1.75,4.3-3.06,8.67-3.93,13.12-.88,4.45-1.16,8.82-.86,13.12.3,4.3,1.52,8.19,3.65,11.69Z"/><path class="uuid-2ee48f79-fc17-43d1-a604-6d7604e0374d" d="m609.12,52.82c.61.53.89,1.6.86,3.19-.04,1.6-.23,3.4-.57,5.42-.34,2.02-.72,4.09-1.14,6.22-.42,2.13-.7,3.92-.86,5.36-.68,5.78-1.46,11.75-2.34,17.91-.88,6.16-2.04,11.92-3.48,17.28-1.45,5.36-3.27,9.98-5.47,13.86-2.21,3.88-4.94,6.39-8.21,7.53-1.22,1.14-3.65,1.71-7.3,1.71h-1.37c-.38.23-1.07.36-2.05.4-.99.04-1.82.06-2.51.06h1.03c-1.37,0-2.66-.3-3.88-.91-1.22-.61-2.34-1.39-3.36-2.34-1.03-.95-1.92-2.03-2.68-3.25-.76-1.21-1.37-2.47-1.83-3.76-1.45-3.34-2.39-7.17-2.85-11.46-.46-4.29-.61-8.71-.46-13.23.15-4.52.53-8.99,1.14-13.4.61-4.41,1.27-8.42,2-12.03.72-3.61,1.41-6.63,2.05-9.07.65-2.43,1.08-3.95,1.31-4.56.46-1.52,1.01-2.58,1.65-3.19.64-.61,1.41-1.01,2.28-1.2.87-.19,1.84-.3,2.91-.34,1.06-.04,2.24-.25,3.54-.63h.91c.23-.23.46-.36.68-.4.23-.04.57-.06,1.03-.06s.87.1,1.25.29c.38.19.57.4.57.63.46.61.68,1.31.68,2.11s-.23,1.88-.68,3.25c-3.04,11.25-4.98,20.76-5.82,28.51-.84,7.75-1.1,14.14-.8,19.16.3,5.02.93,8.84,1.88,11.46.95,2.62,1.77,4.43,2.45,5.42,1.52-1.37,2.87-3.27,4.05-5.7,1.18-2.43,2.22-5.21,3.14-8.33.91-3.12,1.71-6.46,2.39-10.04.68-3.57,1.27-7.13,1.77-10.66.49-3.54.93-6.97,1.31-10.32.38-3.34.72-6.39,1.03-9.12.15-3.19.34-5.91.57-8.15.23-2.24.46-4.05.68-5.42.23-1.29.99-2.05,2.28-2.28,1.29-.23,2.55-.34,3.76-.34.38,0,.89-.02,1.54-.06.64-.04,1.31-.17,2-.4.38,0,.78-.08,1.2-.23.42-.15.78-.23,1.08-.23,1.29,0,2.17.46,2.62,1.37Z"/><path class="uuid-2ee48f79-fc17-43d1-a604-6d7604e0374d" d="m608.21,130.03c0-.3.09-1.54.29-3.71.19-2.17.47-4.92.86-8.27.38-3.34.82-7.11,1.31-11.29.49-4.18,1.04-8.51,1.65-13,.76-4.64,1.54-9.22,2.34-13.74.8-4.52,1.54-8.57,2.22-12.15.68-3.57,1.25-6.5,1.71-8.78.46-2.28.76-3.5.91-3.65-.08-.46.02-.78.29-.97.26-.19.61-.3,1.03-.34.42-.04.91-.09,1.48-.17.57-.07,1.12-.23,1.65-.46.15-.23.68-.38,1.6-.46.91-.07,1.9-.19,2.97-.34.68-.15,1.48-.44,2.39-.86.91-.42,1.71-.44,2.4-.06.3.23.59,1.25.85,3.08.27,1.82.49,3.86.68,6.1.19,2.24.36,4.41.51,6.5.15,2.09.27,3.48.34,4.16,0,.38.09,1.14.29,2.28.19,1.14.4,2.53.63,4.16.23,1.64.49,3.44.8,5.42.3,1.98.61,3.95.91,5.93.76,4.71,1.6,9.92,2.51,15.62,0-.15.09-1.04.29-2.68.19-1.63.51-3.78.97-6.44.38-4.56.95-9.31,1.71-14.26.76-4.94,1.56-9.47,2.39-13.57.91-4.79,1.94-9.5,3.08-14.14.15-.61.49-.86,1.03-.74.53.11,1.14.06,1.82-.17.15,0,.51-.04,1.08-.11.57-.07,1.2-.04,1.88.11.68,0,1.46-.07,2.34-.23.87-.15,1.77-.3,2.68-.46.38,0,.7.1.97.29.27.19.47.36.63.51.15.3.23.57.23.8-.23,1.29-.59,2.68-1.08,4.16-.5,1.48-.97,3.33-1.43,5.53-.68,3.5-1.41,7.51-2.17,12.03-.76,4.52-1.5,9.16-2.22,13.91-.72,4.75-1.43,9.47-2.11,14.14-.68,4.68-1.27,8.94-1.77,12.77-.5,3.84-.89,7.05-1.2,9.64-.3,2.59-.46,4.22-.46,4.9-.15.68-.55,1.12-1.2,1.31-.65.19-1.16.29-1.54.29-.38-.08-1.03-.1-1.94-.06-.91.04-1.84.06-2.79.06s-1.84-.06-2.68-.17c-.84-.11-1.29-.32-1.37-.63-.08-.38-.46-.55-1.14-.51-.68.04-1.22.06-1.6.06-.46,0-.78-.09-.97-.29-.19-.19-.48-.55-.86-1.08-.15-.38-.38-1.31-.68-2.79-.3-1.48-.65-3.31-1.03-5.47-.38-2.17-.78-4.56-1.2-7.18-.42-2.62-.86-5.26-1.31-7.93-.99-6.31-2.09-13.34-3.31-21.1-.15.53-.42,1.73-.8,3.59-.38,1.86-.8,4.07-1.25,6.62-.46,2.55-.91,5.34-1.37,8.38-.46,3.04-.88,5.97-1.25,8.78-.23,2.13-.4,4.14-.51,6.04-.11,1.9-.23,3.59-.34,5.08-.11,1.48-.19,2.7-.23,3.65-.04.95-.06,1.5-.06,1.65-.08.15-.15.38-.23.69-.08.3-.17.57-.29.8s-.3.42-.57.57c-.27.15-.63.15-1.08,0-.3.15-.82.27-1.54.34-.72.08-1.46.11-2.22.11-.91.08-1.9.08-2.97,0-.84.15-1.46.15-1.88,0-.42-.15-.7-.38-.86-.68-.23-.3-.3-.68-.23-1.14Z"/><path class="uuid-2ee48f79-fc17-43d1-a604-6d7604e0374d" d="m708.92,73.57c.84,4.33,1.21,9.03,1.14,14.08-.08,5.06-.88,10.17-2.4,15.34-1.29,4.11-2.89,8-4.79,11.69-1.9,3.69-4.56,7.36-7.98,11.01-2.05,1.52-4.41,2.89-7.07,4.11-2.66,1.22-5.13,1.98-7.41,2.28-1.82,0-3.54.04-5.13.11-1.37.08-2.74.17-4.11.29-1.37.11-2.4.25-3.08.4-1.37.23-2.62.32-3.76.29-1.14-.04-1.9-.29-2.28-.74-.15-.46-.48-.63-.97-.51-.5.11-.89.17-1.2.17-.15,0-.32-.12-.51-.34-.19-.23-.29-.42-.29-.57v-.57c-.23-.15-.29-.34-.17-.57.11-.23.17-.65.17-1.26.07-.07.15-.19.23-.34.15-.3.23-.64.23-1.03,0-.15.44-1.98,1.31-5.47.87-3.5,2.15-8.02,3.82-13.57,1.37-4.49,2.62-9.01,3.76-13.57,1.14-4.56,2.15-8.99,3.02-13.29.87-4.29,1.56-8.38,2.05-12.26.49-3.88.78-7.41.86-10.61.07-.76.19-1.44.34-2.05.15-.53.32-1.03.51-1.48.19-.46.4-.68.63-.68.15-.07.76-.13,1.83-.17,1.06-.04,2.2-.13,3.42-.29,1.37-.07,2.93-.19,4.68-.34,1.29-.07,2.51-.19,3.65-.34.99-.15,1.9-.27,2.74-.34.84-.07,1.44-.11,1.83-.11.46-.07.95-.11,1.48-.11.99,0,1.86.3,2.62.91.46.46,1.14,1.24,2.05,2.34.91,1.1,1.9,2.49,2.97,4.16,1.06,1.67,2.13,3.63,3.19,5.87,1.06,2.24,1.94,4.77,2.62,7.58Zm-15.51,21.33c.46-1.83.76-3.92.91-6.27.15-2.36.13-4.75-.06-7.19-.19-2.43-.61-4.75-1.25-6.96-.65-2.2-1.54-3.99-2.68-5.36-.15.46-.44,1.56-.86,3.31-.42,1.75-.93,3.94-1.54,6.56-.61,2.62-1.29,5.57-2.05,8.84-.76,3.27-1.52,6.65-2.28,10.15-.84,3.42-1.64,6.75-2.39,9.98-.76,3.23-1.45,6.1-2.05,8.61l-2.05,8.21c2.28-1.22,4.45-3.12,6.5-5.7,1.75-2.21,3.55-5.25,5.42-9.12,1.86-3.88,3.33-8.9,4.39-15.05Z"/><path class="uuid-2ee48f79-fc17-43d1-a604-6d7604e0374d" d="m727.5,54.87c.46-.08.95-.15,1.48-.23.38-.07.82-.15,1.31-.23.49-.07.93-.19,1.31-.34.68-.3,2-.57,3.93-.8,1.94-.23,4.22-.4,6.84-.51,2.62-.11,5.4-.19,8.33-.23,2.93-.04,5.76-.02,8.5.06,2.74.08,5.19.17,7.36.29,2.17.11,3.78.29,4.85.51.08.15.11.42.11.8s-.06.86-.17,1.43-.25,1.35-.4,2.34c-.23,1.07-.4,1.84-.51,2.34-.11.5-.21.89-.29,1.2-.08.3-.15.55-.23.74-.08.19-.23.44-.46.74-.15,0-.21.13-.17.4.04.27.06.55.06.85s.04.68.11,1.14v.46c0,.15-.04.3-.11.46-.08.15-.15.3-.23.46-.38,0-.57.15-.57.46-.15.23-.29.42-.4.57-.11.15-.7.25-1.77.29-1.07.04-2.79.04-5.19,0-2.4-.04-5.87-.17-10.44-.4h-2.96c-1.14,0-2.24.02-3.31.06-1.07.04-2.02.08-2.85.11-.84.04-1.29.1-1.37.17,0,.15-.11.97-.34,2.45-.23,1.48-.5,3.1-.8,4.85l-1.14,6.84h11.41c1.44.3,2.89.48,4.33.51,1.44.04,2.28.06,2.51.06s.17.08-.17.23c-.34.15-.7.23-1.08.23h-1.2c-.57,0-1.16-.02-1.77-.06-.61-.04-1.18-.07-1.71-.11-.53-.04-.84-.13-.91-.29-.23,0-.33.08-.29.23.04.15.29.23.74.23.3,0,.78.02,1.43.06.64.04,1.29.11,1.94.23.64.11,1.25.23,1.82.34.57.11.97.21,1.2.29.46.15.76.27.91.34.15.08.46.23.91.46.53,0,.84.11.91.34.07.23.11.46.11.68-.23.23-.36.86-.4,1.88-.04,1.03-.06,1.77-.06,2.22,0,.38-.11.7-.34.97-.23.27-.46.55-.68.86-.23,0-.36.19-.4.57-.04.38-.06.8-.06,1.25s-.17,1.12-.51,2c-.34.88-1.08,1.39-2.22,1.54-.46.15-1.25.27-2.39.34-1.14.08-2.45.11-3.93.11s-3-.02-4.56-.06c-1.56-.04-3-.04-4.33,0-1.33.04-2.45.1-3.36.17-.91.08-1.41.23-1.48.46-.15.38-.46,1.5-.91,3.37s-.91,3.82-1.37,5.87c-.61,2.51-1.22,5.21-1.82,8.1.07,0,.53.02,1.37.06.84.04,1.81.1,2.91.17,1.1.08,2.26.13,3.48.17,1.22.04,2.28.06,3.19.06.76.15,1.94.27,3.54.34,1.6.08,3.21.17,4.85.29,1.63.11,3.1.19,4.39.23,1.29.04,2.05.06,2.28.06s.13.27-.29.8c-.42.53-.63,1.03-.63,1.48,0,.38-.08,1.14-.23,2.28-.15,1.14-.38,2.05-.68,2.74-.23.68-.38,1.22-.46,1.6-.08.38-.23.95-.46,1.71-.3.61-.48,1.18-.51,1.71-.04.53-.19.99-.46,1.37-.27.38-.78.67-1.54.85-.76.19-2.05.21-3.88.06-2.13,0-4.26-.04-6.39-.11-1.9-.08-3.95-.13-6.16-.17-2.21-.04-4.41-.06-6.62-.06-3.42-.3-6.31-.38-8.67-.23-2.36.15-3.73.23-4.11.23-.3,0-.61-.08-.91-.23-.53-.23-.8-.65-.8-1.25.15-.23.08-.44-.23-.63-.3-.19-.61-.29-.91-.29-.15,0-.3-.26-.46-.8-.15-.53-.11-1.18.11-1.94.23-.3.34-.61.34-.91v-.91c0-.23.09-.4.29-.51.19-.11.29-.4.29-.86.68-2.51,1.37-5.51,2.05-9.01.68-3.5,1.41-7.19,2.17-11.06.61-2.51,1.24-5.11,1.88-7.81.65-2.7,1.2-5.42,1.65-8.15.46-2.51.89-5.07,1.31-7.7.42-2.62.93-5.08,1.54-7.36.61-5.09,1.2-9.24,1.77-12.43.57-3.19,1.31-4.68,2.22-4.45Zm19.84-19.5c.15-.38.55-.86,1.2-1.43.64-.57,1.35-1.18,2.11-1.82.76-.65,1.5-1.25,2.22-1.82.72-.57,1.27-1.04,1.65-1.43.23-.46.53-.47.91-.06.38.42.78,1.01,1.2,1.77.42.76.8,1.54,1.14,2.34.34.8.59,1.39.74,1.77.15.53.57,1.1,1.25,1.71.68.61,1.22,1.22,1.6,1.82.53.61.59,1.14.17,1.6-.42.46-.82.8-1.2,1.03-.3.08-.84.48-1.6,1.2-.76.72-1.56,1.52-2.39,2.4-.84.88-1.64,1.75-2.4,2.62-.76.88-1.29,1.54-1.6,2-.61.91-1.07,1.39-1.37,1.43-.3.04-.53.06-.68.06-.38,0-.76-.46-1.14-1.37-.38-.91-.76-1.52-1.14-1.82-.53-.15-.99-.82-1.37-2-.38-1.18-1.03-2.18-1.94-3.02-.53-.46-.82-.93-.85-1.43-.04-.49.04-.95.23-1.37.19-.42.44-.76.74-1.03.3-.27.57-.44.8-.51.23-.07.44-.27.63-.57.19-.3.36-.61.51-.91.23-.3.42-.68.57-1.14Z"/><path class="uuid-2ee48f79-fc17-43d1-a604-6d7604e0374d" d="m768.79,107.56c0-.23.04-.46.11-.68.15-.46.49-.8,1.03-1.03h3.08c2.13,0,3.94.02,5.42.06,1.48.04,3.02.13,4.62.28.99,0,1.44.17,1.37.51-.08.34,0,.63.23.85,0,.15.21,1.05.63,2.68.42,1.64.97,3.52,1.65,5.65.68,2.13,1.46,4.24,2.34,6.33.87,2.09,1.77,3.63,2.68,4.62.23.15,1.06-.17,2.51-.97,1.44-.8,3.14-2,5.08-3.59s3.9-3.59,5.87-5.99c1.98-2.39,3.63-5.11,4.96-8.15,1.33-3.04,2.11-6.35,2.34-9.92.23-3.57-.46-7.34-2.05-11.29-.08.08-.15.11-.23.11-.08.08-.17.11-.29.11s-.21.08-.29.23c-.23.15-1.05.68-2.45,1.6-1.41.91-2.98,1.9-4.73,2.97-1.75,1.07-3.48,2.04-5.19,2.91-1.71.88-2.99,1.31-3.82,1.31-.61,0-1.48.08-2.62.23-1.14.15-2.36.23-3.65.23-.99-.23-1.94-.36-2.85-.4-.91-.04-1.83-.06-2.74-.06h-6.5c-.53,0-.99-.11-1.37-.34-.76-.23-1.52-.72-2.28-1.48-.91-1.44-1.45-2.87-1.6-4.28-.15-1.41.19-3,1.03-4.79.84-1.79,2.22-3.92,4.16-6.39,1.94-2.47,4.54-5.49,7.81-9.07,1.14-1.22,2.77-2.77,4.9-4.68,2.13-1.9,4.22-3.76,6.27-5.59,2.43-2.13,5.02-4.33,7.76-6.61.23-.23.53-.46.91-.68.38-.15.86-.3,1.43-.46.57-.15,1.35-.23,2.34-.23h12.43c1.37,0,2.77.51,4.22,1.54,1.44,1.03,2.62,2.22,3.54,3.59.15.84.25,1.71.29,2.62.04.91.06,1.71.06,2.4,0,1.6-.21,3.19-.63,4.79-.42,1.6-.91,3.02-1.48,4.28-.57,1.25-1.1,2.32-1.6,3.19-.5.88-.78,1.35-.86,1.43-.08,0-.15.04-.23.11-.08.08-.11.34-.11.8,0,.23-.08.34-.23.34s-.23-.11-.23-.34c-.3-.46-.63-.55-.97-.29-.34.27-.51.51-.51.74h-.91c-.15,0-.34.1-.57.29-.23.19-.5.29-.8.29-.23,0-.53.06-.91.17-.38.11-.68.06-.91-.17-.46-.3-1.22-.59-2.28-.86-1.07-.27-2.17-.17-3.31.29-.61.3-1.18.34-1.71.11-.53-.23-1.03-.57-1.48-1.03-.38-.23-.59-.82-.63-1.77-.04-.95.02-1.73.17-2.34.68-1.14,1.27-2.17,1.77-3.08.49-.91.86-2.17,1.08-3.76,0-.23-.48-.02-1.43.63-.95.65-2.17,1.58-3.65,2.79-1.48,1.22-3.14,2.68-4.96,4.39-1.83,1.71-3.55,3.48-5.19,5.3-1.64,1.83-3.12,3.69-4.45,5.59-1.33,1.9-2.26,3.65-2.79,5.25l.8-.46c.08-.15.68-.65,1.82-1.48,1.14-.84,2.53-1.73,4.16-2.68,1.63-.95,3.46-1.81,5.47-2.57,2.01-.76,4.01-1.14,5.99-1.14,4.18.23,7.53.42,10.04.57,2.51.15,4.56.57,6.16,1.25,2.51.91,4.49,2.72,5.93,5.42,1.44,2.7,2.05,6.71,1.83,12.03-.23,2.97-.97,6.12-2.22,9.47-1.25,3.35-3.04,6.54-5.36,9.58-2.32,3.04-5.15,5.78-8.5,8.21-3.35,2.43-7.18,4.22-11.52,5.36-.68.3-1.52.49-2.51.57-.91.15-2.07.19-3.48.11-1.41-.08-3.21-.3-5.42-.68-.61-.15-1.33-.25-2.17-.29-.84-.04-1.67-.09-2.51-.17-.91-.07-1.86-.11-2.85-.11-1.83-.07-3.61-.95-5.36-2.62-1.52-1.44-3.08-3.82-4.68-7.13s-3-8.16-4.22-14.54Z"/><path class="uuid-b394ac37-7c92-4257-83bc-dec95192aaa5" d="m126.8,32.03c-.75-.66-1.3-1.53-1.68-2.64-.37-1.1-.56-2.28-.56-3.53h.94c0,1.43.2,2.59.6,3.49.4.89.91,1.59,1.52,2.08.61.49,1.27.82,1.99.98.71.16,1.39.25,2.01.25.77,0,1.54-.11,2.3-.33s1.44-.58,2.06-1.07c.61-.49,1.1-1.14,1.48-1.94.37-.8.56-1.79.56-2.95,0-1.34-.19-2.51-.58-3.51-.39-1-.9-1.88-1.54-2.66-.64-.77-1.36-1.47-2.17-2.08-.8-.61-1.62-1.21-2.46-1.81-.8-.57-1.57-1.12-2.3-1.68-.73-.55-1.39-1.17-1.99-1.85-1.31-1.58-1.97-3.34-1.97-5.27v-.69c0-.37.05-.81.15-1.32.1-.51.26-1.06.49-1.65.23-.6.59-1.15,1.1-1.65,1.16-1.25,2.79-1.88,4.87-1.88s3.71.63,4.78,1.88c.45.54.77,1.12.96,1.77.19.64.32,1.25.38,1.83.06.58.08,1.07.07,1.48-.02.4-.02.62-.02.65h-.94c.03-.71.01-1.34-.04-1.88-.06-.54-.17-1.1-.34-1.68-.16-.58-.44-1.1-.83-1.54-.45-.51-1-.89-1.65-1.16-.66-.27-1.45-.4-2.37-.4-1.82,0-3.2.52-4.16,1.56-.42.45-.73.94-.94,1.48-.21.54-.36,1.04-.45,1.5-.09.46-.13,1.02-.13,1.68,0,.98.16,1.85.49,2.61.33.76.76,1.46,1.3,2.1.54.64,1.16,1.23,1.86,1.77.7.54,1.43,1.07,2.18,1.61.87.6,1.72,1.22,2.56,1.88.84.66,1.6,1.4,2.29,2.23,1.55,1.91,2.33,4.14,2.33,6.7,0,2.41-.8,4.29-2.41,5.63-1.31,1.07-2.95,1.61-4.92,1.61-.69,0-1.47-.1-2.35-.29-.88-.19-1.71-.62-2.48-1.27Z"/><path class="uuid-a34b9ec0-b3f6-45a2-8751-f554fdff28fb" d="m131.63,33.84c-.7,0-1.51-.1-2.4-.3-.92-.2-1.79-.65-2.59-1.33h0c-.77-.68-1.36-1.61-1.75-2.75-.38-1.12-.57-2.34-.57-3.61v-.25h1.44v.25c0,1.39.2,2.53.58,3.38.38.85.87,1.52,1.45,1.99.58.47,1.21.78,1.89.93,1.55.36,2.86.3,4.19-.09.73-.21,1.39-.56,1.97-1.03.58-.46,1.05-1.09,1.4-1.85.36-.77.54-1.73.54-2.84,0-1.3-.19-2.45-.56-3.42-.38-.97-.88-1.84-1.5-2.59-.63-.76-1.34-1.44-2.13-2.04-.8-.6-1.62-1.21-2.45-1.81-.81-.57-1.59-1.14-2.31-1.68-.74-.56-1.42-1.19-2.03-1.89-1.35-1.62-2.03-3.45-2.03-5.44v-.69c0-.39.05-.85.15-1.37.1-.52.27-1.09.5-1.69.24-.63.63-1.21,1.16-1.74,1.2-1.29,2.9-1.95,5.05-1.95s3.85.66,4.97,1.96c.47.56.81,1.18,1.01,1.85.2.65.33,1.29.39,1.88.06.59.08,1.1.07,1.51-.02.39-.02.61-.02.64v.25s-1.45,0-1.45,0v-.26c.04-.7.02-1.32-.03-1.84-.06-.52-.17-1.07-.33-1.64-.15-.54-.41-1.03-.77-1.45-.42-.47-.94-.84-1.56-1.09-.62-.25-1.39-.38-2.27-.38-1.74,0-3.07.5-3.97,1.48-.4.42-.69.89-.89,1.4-.2.52-.35,1.01-.43,1.45-.09.44-.13.99-.13,1.63,0,.94.16,1.79.47,2.52.32.73.74,1.42,1.26,2.04.52.62,1.13,1.2,1.82,1.73.7.54,1.42,1.07,2.17,1.6.87.6,1.73,1.23,2.56,1.88.85.66,1.63,1.43,2.33,2.27,1.59,1.94,2.39,4.25,2.39,6.86s-.84,4.44-2.5,5.82c-1.35,1.11-3.06,1.67-5.08,1.67Zm-4.66-2c.74.62,1.54,1.03,2.37,1.22.86.19,1.63.28,2.29.28,1.9,0,3.5-.52,4.76-1.55,1.54-1.28,2.32-3.11,2.32-5.44,0-2.49-.77-4.69-2.28-6.55-.67-.82-1.43-1.55-2.25-2.2-.83-.65-1.68-1.28-2.54-1.87-.75-.54-1.48-1.08-2.19-1.62-.72-.55-1.36-1.15-1.9-1.8-.55-.66-1-1.38-1.34-2.16-.34-.79-.51-1.7-.51-2.71,0-.67.05-1.25.14-1.72.09-.48.25-1,.46-1.54.22-.56.55-1.09.99-1.56,1-1.09,2.46-1.64,4.34-1.64.95,0,1.78.14,2.46.42.69.28,1.28.69,1.75,1.23.41.48.71,1.03.88,1.64.17.59.28,1.17.34,1.72.05.48.07,1.04.05,1.65h.44c0-.1,0-.24.01-.41.01-.39,0-.88-.07-1.44-.06-.56-.18-1.16-.37-1.79-.18-.61-.49-1.17-.91-1.68-1.02-1.19-2.56-1.79-4.59-1.79s-3.58.6-4.69,1.8c-.49.49-.84,1.01-1.05,1.57-.22.58-.38,1.12-.48,1.61-.1.49-.14.91-.14,1.27v.69c0,1.87.64,3.59,1.91,5.11.58.67,1.23,1.28,1.95,1.81.72.54,1.49,1.1,2.3,1.67.84.6,1.66,1.21,2.47,1.82.81.62,1.56,1.33,2.21,2.12.66.79,1.19,1.71,1.58,2.73.4,1.02.6,2.23.6,3.6,0,1.19-.2,2.22-.58,3.05-.39.84-.91,1.52-1.55,2.03-.63.51-1.35.89-2.14,1.12-1.41.41-2.81.47-4.44.09-.75-.17-1.45-.52-2.09-1.03-.64-.51-1.17-1.24-1.59-2.17-.39-.87-.6-1.99-.62-3.34h-.44c.02,1.13.21,2.2.54,3.2.36,1.06.9,1.91,1.6,2.53Z"/><path class="uuid-b394ac37-7c92-4257-83bc-dec95192aaa5" d="m159.07,32.34v.85h-12.6V.69h12.43v.85h-11.49v16.89h8.98v.85h-8.98v13.05h11.67Z"/><path class="uuid-a34b9ec0-b3f6-45a2-8751-f554fdff28fb" d="m159.32,33.44h-13.1V.44h12.93v1.35h-11.49v16.39h8.98v1.35h-8.98v12.55h11.67v1.35Zm-12.6-.5h12.1v-.35h-11.67v-13.55h8.98v-.35h-8.98V1.29h11.49v-.35h-11.93v31.99Z"/><path class="uuid-b394ac37-7c92-4257-83bc-dec95192aaa5" d="m168.41,33.19V.69h.94v31.64h11.98v.85h-12.92Z"/><path class="uuid-a34b9ec0-b3f6-45a2-8751-f554fdff28fb" d="m181.58,33.44h-13.42V.44h1.44v31.64h11.98v1.35Zm-12.92-.5h12.42v-.35h-11.98V.94h-.44v31.99Z"/><path class="uuid-b394ac37-7c92-4257-83bc-dec95192aaa5" d="m200.73,3.02c1.1,1.64,1.64,3.47,1.61,5.5,0,.95-.11,1.84-.34,2.66-.22.82-.52,1.55-.89,2.19-.37.64-.8,1.17-1.27,1.59-.48.42-.98.71-1.52.89.63.09,1.3.34,2.03.76.73.42,1.3.92,1.72,1.52.6.86,1.04,1.83,1.34,2.88.3,1.06.45,2.17.45,3.33,0,1.94-.28,3.49-.83,4.65-.55,1.16-1.24,2.06-2.06,2.68-.82.63-1.71,1.04-2.68,1.25-.97.21-1.9.31-2.79.31h-5.14V.65h5.63c1.28,0,2.26.21,2.95.63.69.42,1.28,1,1.79,1.74Zm-9.43,12.42h5.05c.74,0,1.43-.19,2.06-.56.63-.37,1.16-.88,1.61-1.52.45-.64.79-1.38,1.03-2.22.24-.84.36-1.72.36-2.65s-.13-1.81-.38-2.65c-.25-.84-.6-1.57-1.05-2.2-.45-.63-.97-1.13-1.56-1.5-.6-.37-1.25-.56-1.97-.56h-5.14v13.85Zm4.2,16.85c1.46,0,2.67-.22,3.64-.65.97-.43,1.74-1.01,2.3-1.74.57-.73.96-1.58,1.18-2.55.22-.97.32-1.97.29-3.02-.06-2.74-.68-4.75-1.85-6.03-1.18-1.28-3.03-1.92-5.56-1.92h-4.2v15.91h4.2Z"/><path class="uuid-a34b9ec0-b3f6-45a2-8751-f554fdff28fb" d="m195.5,33.48h-5.39V.4h5.88c1.32,0,2.36.22,3.08.66.71.43,1.34,1.04,1.86,1.82h0c1.13,1.68,1.68,3.57,1.65,5.64,0,.97-.12,1.88-.34,2.72-.23.83-.54,1.59-.92,2.25-.38.66-.83,1.22-1.33,1.65-.29.25-.59.46-.9.63.44.14.9.34,1.37.62.76.44,1.37.97,1.8,1.59.61.88,1.07,1.88,1.38,2.96.3,1.08.46,2.22.46,3.4,0,1.96-.29,3.56-.85,4.76-.57,1.19-1.28,2.13-2.13,2.77-.85.65-1.78,1.08-2.78,1.3-.98.21-1.94.32-2.85.32Zm-4.89-.5h4.89c.87,0,1.79-.1,2.74-.31.93-.2,1.8-.6,2.58-1.21.78-.6,1.45-1.47,1.98-2.59.53-1.12.8-2.65.8-4.54,0-1.13-.15-2.23-.44-3.26-.29-1.03-.73-1.97-1.31-2.81-.39-.56-.94-1.05-1.64-1.45-.7-.4-1.35-.65-1.94-.73l-1.05-.15,1-.33c.5-.17.98-.45,1.43-.84.45-.4.87-.91,1.22-1.52.36-.62.65-1.34.87-2.13.22-.79.33-1.67.33-2.59.03-1.97-.5-3.77-1.57-5.36h0c-.48-.71-1.06-1.27-1.71-1.67-.64-.39-1.59-.59-2.82-.59h-5.38v32.08Zm4.89-.44h-4.45v-16.41h4.45c2.59,0,4.53.67,5.75,2,1.21,1.32,1.86,3.41,1.92,6.2.03,1.06-.07,2.1-.3,3.08-.23,1-.64,1.89-1.23,2.65-.59.76-1.4,1.37-2.4,1.82-1,.44-2.26.67-3.74.67Zm-3.95-.5h3.95c1.42,0,2.61-.21,3.54-.63.93-.41,1.67-.97,2.21-1.67.54-.7.92-1.52,1.14-2.45.22-.94.31-1.93.28-2.95-.06-2.67-.66-4.64-1.79-5.87-1.12-1.22-2.93-1.84-5.38-1.84h-3.95v15.41Zm4.8-16.35h-5.3V1.34h5.39c.76,0,1.47.2,2.1.6.62.39,1.17.92,1.64,1.57.46.65.83,1.41,1.09,2.27.26.86.39,1.77.39,2.72s-.12,1.86-.37,2.71c-.25.86-.6,1.63-1.06,2.29-.46.67-1.03,1.21-1.69,1.6-.66.4-1.4.6-2.18.6Zm-4.8-.5h4.8c.7,0,1.35-.18,1.93-.52.59-.35,1.11-.84,1.53-1.45.43-.61.76-1.34.99-2.15.23-.81.35-1.68.35-2.58s-.12-1.76-.37-2.57c-.24-.81-.59-1.52-1.01-2.12-.43-.6-.93-1.08-1.49-1.44-.55-.35-1.17-.52-1.83-.52h-4.89v13.35Z"/><path class="uuid-b394ac37-7c92-4257-83bc-dec95192aaa5" d="m213.69,32.03c-.75-.66-1.3-1.53-1.68-2.64-.37-1.1-.56-2.28-.56-3.53h.94c0,1.43.2,2.59.6,3.49.4.89.91,1.59,1.52,2.08.61.49,1.27.82,1.99.98.71.16,1.39.25,2.01.25.77,0,1.54-.11,2.3-.33s1.44-.58,2.06-1.07c.61-.49,1.1-1.14,1.48-1.94.37-.8.56-1.79.56-2.95,0-1.34-.19-2.51-.58-3.51-.39-1-.9-1.88-1.54-2.66-.64-.77-1.36-1.47-2.17-2.08-.8-.61-1.62-1.21-2.46-1.81-.8-.57-1.57-1.12-2.3-1.68-.73-.55-1.39-1.17-1.99-1.85-1.31-1.58-1.97-3.34-1.97-5.27v-.69c0-.37.05-.81.15-1.32.1-.51.26-1.06.49-1.65.23-.6.59-1.15,1.1-1.65,1.16-1.25,2.79-1.88,4.87-1.88s3.71.63,4.78,1.88c.45.54.77,1.12.96,1.77.19.64.32,1.25.38,1.83.06.58.08,1.07.07,1.48-.02.4-.02.62-.02.65h-.94c.03-.71.01-1.34-.04-1.88-.06-.54-.17-1.1-.34-1.68-.16-.58-.44-1.1-.83-1.54-.45-.51-1-.89-1.65-1.16-.66-.27-1.45-.4-2.37-.4-1.82,0-3.2.52-4.16,1.56-.42.45-.73.94-.94,1.48-.21.54-.36,1.04-.45,1.5-.09.46-.13,1.02-.13,1.68,0,.98.16,1.85.49,2.61.33.76.76,1.46,1.3,2.1.54.64,1.16,1.23,1.86,1.77.7.54,1.43,1.07,2.18,1.61.87.6,1.72,1.22,2.56,1.88.84.66,1.6,1.4,2.29,2.23,1.55,1.91,2.33,4.14,2.33,6.7,0,2.41-.8,4.29-2.41,5.63-1.31,1.07-2.95,1.61-4.92,1.61-.69,0-1.47-.1-2.35-.29-.88-.19-1.71-.62-2.48-1.27Z"/><path class="uuid-a34b9ec0-b3f6-45a2-8751-f554fdff28fb" d="m218.52,33.84c-.7,0-1.51-.1-2.4-.3-.92-.2-1.79-.65-2.59-1.33h0c-.77-.68-1.36-1.61-1.75-2.75-.38-1.12-.57-2.34-.57-3.61v-.25h1.44v.25c0,1.39.2,2.53.58,3.38.38.85.87,1.52,1.45,1.99.58.47,1.21.78,1.89.93,1.55.36,2.86.3,4.19-.09.73-.21,1.39-.56,1.97-1.03.58-.46,1.05-1.09,1.4-1.85.36-.77.54-1.73.54-2.84,0-1.3-.19-2.45-.56-3.42-.38-.97-.88-1.84-1.5-2.59-.63-.76-1.34-1.44-2.13-2.04-.8-.6-1.62-1.21-2.45-1.81-.81-.57-1.59-1.14-2.31-1.68-.74-.56-1.42-1.19-2.03-1.89-1.35-1.62-2.03-3.45-2.03-5.44v-.69c0-.39.05-.85.15-1.37.1-.52.27-1.09.5-1.69.24-.63.63-1.21,1.16-1.74,1.2-1.29,2.9-1.95,5.05-1.95s3.85.66,4.97,1.96c.47.56.81,1.18,1.01,1.85.2.65.33,1.29.39,1.88.06.59.08,1.1.07,1.51-.02.39-.02.61-.02.64v.25s-1.45,0-1.45,0v-.26c.04-.7.02-1.32-.03-1.84-.06-.52-.17-1.07-.33-1.64-.15-.54-.41-1.03-.77-1.45-.42-.47-.94-.84-1.56-1.09-.62-.25-1.39-.38-2.27-.38-1.74,0-3.07.5-3.97,1.48-.4.42-.69.89-.89,1.4-.2.52-.35,1.01-.43,1.45-.09.44-.13.99-.13,1.63,0,.94.16,1.79.47,2.52.32.73.74,1.42,1.26,2.04.52.62,1.13,1.2,1.82,1.73.7.54,1.42,1.07,2.17,1.6.87.6,1.73,1.23,2.56,1.88.85.66,1.63,1.43,2.33,2.27,1.59,1.94,2.39,4.25,2.39,6.86s-.84,4.44-2.5,5.82c-1.35,1.11-3.06,1.67-5.08,1.67Zm-4.66-2c.74.62,1.54,1.03,2.37,1.22.86.19,1.63.28,2.29.28,1.9,0,3.5-.52,4.76-1.55,1.54-1.28,2.32-3.11,2.32-5.44,0-2.49-.77-4.69-2.28-6.55-.67-.82-1.43-1.55-2.25-2.2-.83-.65-1.68-1.28-2.54-1.87-.75-.54-1.48-1.08-2.19-1.62-.72-.55-1.36-1.15-1.9-1.8-.55-.66-1-1.38-1.34-2.16-.34-.79-.51-1.7-.51-2.71,0-.67.05-1.25.14-1.72.09-.48.25-1,.46-1.54.22-.56.55-1.09.99-1.56,1-1.09,2.46-1.64,4.34-1.64.95,0,1.78.14,2.46.42.69.28,1.28.69,1.75,1.23.41.48.71,1.03.88,1.64.17.59.28,1.17.34,1.72.05.48.07,1.04.05,1.65h.44c0-.1,0-.24.01-.41.01-.39,0-.88-.07-1.44-.06-.56-.18-1.16-.37-1.79-.18-.61-.49-1.17-.91-1.68-1.02-1.19-2.56-1.79-4.59-1.79s-3.58.6-4.69,1.8c-.49.49-.84,1.01-1.05,1.57-.22.58-.38,1.12-.48,1.61-.1.49-.14.91-.14,1.27v.69c0,1.87.64,3.59,1.91,5.11.58.67,1.23,1.28,1.95,1.81.72.54,1.49,1.1,2.3,1.67.84.6,1.66,1.21,2.47,1.82.81.62,1.56,1.33,2.21,2.12.66.79,1.19,1.71,1.58,2.73.4,1.02.6,2.23.6,3.6,0,1.19-.2,2.22-.58,3.05-.39.84-.91,1.52-1.55,2.03-.63.51-1.35.89-2.14,1.12-1.41.41-2.81.47-4.44.09-.75-.17-1.45-.52-2.09-1.03-.64-.51-1.17-1.24-1.59-2.17-.39-.87-.6-1.99-.62-3.34h-.44c.02,1.13.21,2.2.54,3.2.36,1.06.9,1.91,1.6,2.53Z"/><path class="uuid-b394ac37-7c92-4257-83bc-dec95192aaa5" d="m238.18,1.59h-7.42v-.85h15.64v.89l.04-.04h-7.33v31.6h-.94V1.59Z"/><path class="uuid-a34b9ec0-b3f6-45a2-8751-f554fdff28fb" d="m239.37,33.44h-1.44V1.84h-7.42V.49h16.14v.85h.4l-.9.89v-.39h-6.79v31.6Zm-.94-.5h.44V1.34h7.29v-.35h-15.14v.35h7.42v31.6Z"/><path class="uuid-b394ac37-7c92-4257-83bc-dec95192aaa5" d="m267.19.69v32.49h-.94v-13.9h-12.25v13.9h-.94V.69h.94v17.74h12.25V.69h.94Z"/><path class="uuid-a34b9ec0-b3f6-45a2-8751-f554fdff28fb" d="m267.44,33.44h-1.44v-13.9h-11.75v13.9h-1.44V.44h1.44v17.74h11.75V.44h1.44v32.99Zm-.94-.5h.44V.94h-.44v17.74h-12.75V.94h-.44v31.99h.44v-13.9h12.75v13.9Z"/><path class="uuid-b394ac37-7c92-4257-83bc-dec95192aaa5" d="m276.8,33.19V.69h.94v32.49h-.94Z"/><path class="uuid-a34b9ec0-b3f6-45a2-8751-f554fdff28fb" d="m277.99,33.44h-1.44V.44h1.44v32.99Zm-.94-.5h.44V.94h-.44v31.99Z"/><path class="uuid-b394ac37-7c92-4257-83bc-dec95192aaa5" d="m288.01,33.19V.69h.94v31.64h11.98v.85h-12.92Z"/><path class="uuid-a34b9ec0-b3f6-45a2-8751-f554fdff28fb" d="m301.18,33.44h-13.42V.44h1.44v31.64h11.98v1.35Zm-12.92-.5h12.42v-.35h-11.98V.94h-.44v31.99Z"/><path class="uuid-b394ac37-7c92-4257-83bc-dec95192aaa5" d="m322.96.69v.85h-11.8v16.85h9.25v.94l-9.21-.04-.04,13.9h-.94V.69h12.74Z"/><path class="uuid-a34b9ec0-b3f6-45a2-8751-f554fdff28fb" d="m311.41,33.44h-1.44V.44h13.24v1.35h-11.8v16.35h9.25v1.44l-9.21-.05-.04,13.9Zm-.94-.5h.44l.04-13.9,9.21.05v-.44h-9.25V1.29h11.8v-.35h-12.24v31.99Z"/><path class="uuid-b394ac37-7c92-4257-83bc-dec95192aaa5" d="m343.97,32.34v.85h-12.6V.69h12.43v.85h-11.49v16.89h8.98v.85h-8.98v13.05h11.67Z"/><path class="uuid-a34b9ec0-b3f6-45a2-8751-f554fdff28fb" d="m344.22,33.44h-13.1V.44h12.93v1.35h-11.49v16.39h8.98v1.35h-8.98v12.55h11.67v1.35Zm-12.6-.5h12.1v-.35h-11.67v-13.55h8.98v-.35h-8.98V1.29h11.49v-.35h-11.93v31.99Z"/><path class="uuid-b394ac37-7c92-4257-83bc-dec95192aaa5" d="m359.48,18.97v-.94l5.85.04v8.07c0,.09,0,.33-.02.72-.02.39-.07.85-.18,1.39-.1.54-.29,1.12-.56,1.75-.27.63-.64,1.21-1.12,1.75-1.16,1.26-2.76,1.88-4.78,1.88s-3.62-.61-4.69-1.83c-.54-.57-.93-1.18-1.18-1.83-.25-.65-.42-1.27-.51-1.85s-.13-1.08-.11-1.5c.01-.42.02-.67.02-.76V7.49c0-2.38.71-4.25,2.15-5.59.57-.51,1.23-.91,1.99-1.21.76-.3,1.54-.45,2.35-.45.74,0,1.5.14,2.26.43.76.29,1.45.75,2.08,1.39.63.64,1.13,1.44,1.52,2.41s.58,2.12.58,3.46h-.94c0-1.16-.16-2.17-.49-3.02-.33-.85-.75-1.55-1.27-2.1-.52-.55-1.11-.96-1.77-1.23-.66-.27-1.31-.4-1.97-.4s-1.36.12-2.03.36c-.67.24-1.27.62-1.79,1.14-.52.52-.94,1.18-1.25,1.97s-.47,1.72-.47,2.8v18.48c0,.75.04,1.38.11,1.9.07.52.22,1.08.45,1.68.22.6.56,1.13,1.01,1.61.95,1.04,2.28,1.57,3.98,1.57s3.13-.52,4.11-1.56c.45-.48.78-1,1.01-1.56.22-.57.38-1.09.47-1.59s.13-1.08.13-1.77v-.04l-.04-7.15-4.87-.05Z"/><path class="uuid-a34b9ec0-b3f6-45a2-8751-f554fdff28fb" d="m358.68,33.88c-2.12,0-3.76-.65-4.88-1.92-.55-.58-.97-1.22-1.23-1.91-.26-.67-.44-1.31-.53-1.91-.09-.61-.13-1.11-.11-1.54.01-.41.02-.66.02-.75V7.49c0-2.44.75-4.39,2.22-5.77.59-.53,1.28-.95,2.07-1.26,1.52-.59,3.15-.63,4.78-.02.79.3,1.52.78,2.17,1.45.65.66,1.18,1.5,1.57,2.49.4.99.6,2.19.6,3.56v.25h-1.44v-.25c0-1.13-.16-2.11-.48-2.93-.31-.81-.73-1.49-1.22-2.02-.49-.52-1.06-.92-1.68-1.17-1.28-.52-2.58-.48-3.82-.04-.63.23-1.2.59-1.69,1.08-.49.49-.9,1.13-1.2,1.88-.3.76-.45,1.67-.45,2.71v18.44c0,.78.04,1.41.11,1.91.07.5.22,1.05.43,1.62.21.56.53,1.08.95,1.53.9.99,2.18,1.49,3.79,1.49s3-.5,3.93-1.49c.42-.45.74-.95.96-1.48.22-.55.37-1.06.46-1.54.09-.48.13-1.05.13-1.72l-.04-6.95-4.87-.05v-1.44l6.35.05v8.32c0,.09,0,.33-.02.73-.02.4-.08.88-.18,1.43-.11.56-.3,1.16-.57,1.8-.28.65-.67,1.26-1.16,1.82-1.21,1.31-2.88,1.97-4.97,1.97Zm0-33.39c-.77,0-1.53.14-2.25.43-.73.29-1.37.68-1.91,1.16-1.37,1.28-2.06,3.1-2.06,5.4v18.37c0,.09,0,.35-.02.77-.02.4.02.88.11,1.45.09.56.25,1.17.5,1.8.24.62.62,1.21,1.13,1.75,1.02,1.17,2.54,1.75,4.51,1.75s3.49-.61,4.6-1.8c.45-.51.82-1.08,1.07-1.68.26-.6.44-1.18.54-1.7.1-.52.16-.98.17-1.35.01-.38.02-.62.02-.71v-7.82l-5.35-.04v.44l4.87.05.05,7.4c0,.74-.05,1.35-.14,1.86-.09.51-.25,1.06-.48,1.63-.23.59-.59,1.15-1.06,1.64-1.03,1.09-2.47,1.64-4.29,1.64s-3.17-.55-4.16-1.65c-.47-.5-.82-1.07-1.06-1.69-.23-.61-.38-1.19-.46-1.73-.08-.53-.11-1.18-.11-1.94V7.45c0-1.1.16-2.07.49-2.89.32-.82.76-1.51,1.31-2.05.54-.55,1.18-.95,1.88-1.2,1.36-.49,2.79-.52,4.18.05.69.28,1.31.71,1.85,1.29.54.57.99,1.31,1.33,2.18.31.81.48,1.77.51,2.86h.44c-.02-1.2-.21-2.25-.56-3.12-.37-.93-.87-1.72-1.47-2.33-.6-.61-1.26-1.06-1.99-1.33-.73-.27-1.46-.41-2.17-.41Z"/><path class="uuid-b394ac37-7c92-4257-83bc-dec95192aaa5" d="m381.42,19.15c-.33.06-.66.1-1.01.11-.34.02-.71.02-1.1.02h-4.2v13.9h-.94V.69h5.14c1.61,0,2.96.25,4.04.76,1.09.51,1.93,1.22,2.53,2.15.57.89,1.01,1.9,1.32,3.02.31,1.12.47,2.24.47,3.37s-.16,2.3-.47,3.42c-.31,1.12-.75,2.11-1.32,2.97-.42.66-.91,1.21-1.48,1.65-.57.45-1.28.76-2.15.94l-.85.18Zm3.67-3.27c.51-.81.91-1.73,1.21-2.76.3-1.03.45-2.08.45-3.16s-.15-2.08-.45-3.11c-.3-1.03-.7-1.95-1.21-2.76-.51-.78-1.24-1.38-2.19-1.81-.95-.43-2.15-.65-3.58-.65h-4.2v16.72h4.2c1.73,0,2.99-.22,3.8-.65.8-.43,1.46-1.04,1.97-1.81Zm-2.82,3.09l6.21,14.17h-.98l-6.12-13.99.89-.18Z"/><path class="uuid-a34b9ec0-b3f6-45a2-8751-f554fdff28fb" d="m375.37,33.44h-1.44V.44h5.39c1.64,0,3.03.26,4.15.78,1.12.52,2.01,1.28,2.63,2.24.58.91,1.03,1.95,1.35,3.08.32,1.13.48,2.29.48,3.44s-.16,2.35-.48,3.49c-.32,1.14-.77,2.16-1.35,3.04-.43.67-.94,1.25-1.53,1.71-.53.42-1.18.72-1.95.92l6.25,14.24h-1.53l-6.11-13.95c-.26.04-.53.06-.8.08-.35.02-.71.02-1.11.02h-3.95v13.9Zm-.94-.5h.44v-13.9h4.45c.38,0,.74,0,1.08-.02.25-.01.49-.03.72-.07l1.09-.22c.82-.17,1.51-.47,2.04-.89.54-.43,1.02-.96,1.42-1.59.55-.84.98-1.82,1.29-2.91.31-1.09.46-2.22.46-3.35s-.15-2.22-.46-3.31c-.3-1.09-.74-2.08-1.29-2.95-.57-.88-1.38-1.57-2.42-2.05-1.05-.49-2.38-.74-3.94-.74h-4.89v31.99Zm13.23-.04h.44l-5.98-13.63-.39.08,5.93,13.55Zm-8.34-14.29h-4.45V1.38h4.45c1.46,0,2.7.23,3.68.67.99.45,1.76,1.09,2.3,1.9.52.83.93,1.78,1.24,2.82.3,1.05.46,2.12.46,3.18s-.15,2.18-.46,3.23c-.3,1.05-.72,2-1.24,2.82h0c-.53.81-1.22,1.45-2.06,1.9-.85.46-2.13.68-3.92.68Zm-3.95-.5h3.95c1.68,0,2.92-.21,3.68-.62.76-.41,1.39-.99,1.87-1.73.49-.78.89-1.69,1.18-2.69.29-1,.44-2.04.44-3.09s-.15-2.04-.44-3.04c-.29-1-.69-1.91-1.18-2.69-.48-.73-1.18-1.31-2.08-1.72-.92-.42-2.09-.63-3.47-.63h-3.95v16.22Z"/><path class="uuid-b394ac37-7c92-4257-83bc-dec95192aaa5" d="m409.27,25.95v.67c0,.39-.06.86-.18,1.41s-.3,1.14-.56,1.77c-.25.63-.63,1.21-1.14,1.74-1.13,1.22-2.72,1.83-4.77,1.83s-3.55-.61-4.68-1.83c-.5-.54-.88-1.13-1.14-1.79-.25-.66-.42-1.27-.51-1.85s-.13-1.08-.13-1.5V.52h.94v26.17c0,.31.03.62.09.92.06.54.2,1.1.43,1.68.22.58.56,1.13,1.01,1.63.93,1.01,2.26,1.52,3.99,1.52s3.14-.52,4.13-1.56c.42-.48.74-.99.96-1.54.22-.55.38-1.08.47-1.59.06-.3.1-.59.11-.87.01-.28.02-.57.02-.87V.52h.94v25.43Z"/><path class="uuid-a34b9ec0-b3f6-45a2-8751-f554fdff28fb" d="m402.63,33.62c-2.05,0-3.69-.64-4.86-1.91-.52-.56-.92-1.18-1.19-1.87-.26-.67-.43-1.31-.53-1.91-.09-.59-.14-1.1-.14-1.54V.27h1.44v26.42c0,.3.03.59.08.87.06.54.2,1.08.41,1.64.21.55.54,1.07.96,1.56.87.95,2.15,1.44,3.81,1.44s3.01-.5,3.95-1.49c.39-.45.7-.94.91-1.46.22-.53.37-1.05.46-1.54.06-.29.09-.57.11-.84.01-.28.02-.56.02-.86V.27h1.44v26.35c0,.4-.06.89-.18,1.46-.12.56-.31,1.17-.57,1.81-.26.65-.66,1.26-1.19,1.82-1.17,1.27-2.84,1.91-4.95,1.91Zm-6.21-32.85v25.63c0,.41.04.9.13,1.46.09.56.25,1.17.5,1.8.24.62.6,1.2,1.08,1.71,1.08,1.16,2.59,1.75,4.49,1.75s3.51-.59,4.58-1.75c.48-.51.85-1.07,1.09-1.67.25-.61.43-1.19.54-1.72.11-.53.17-.99.17-1.36V.77h-.44v25.18c0,.35,0,.64-.02.93-.02.3-.06.6-.12.91-.09.52-.25,1.07-.48,1.63-.23.58-.57,1.12-1.01,1.61-1.04,1.1-2.49,1.65-4.32,1.65s-3.21-.54-4.18-1.6c-.47-.53-.82-1.1-1.06-1.71-.23-.6-.38-1.18-.44-1.74-.06-.29-.09-.61-.09-.94V.77h-.44Z"/><path class="uuid-b394ac37-7c92-4257-83bc-dec95192aaa5" d="m429.34,3.6c.57.89,1.01,1.9,1.32,3.02.31,1.12.47,2.24.47,3.37s-.16,2.3-.47,3.42c-.31,1.12-.75,2.11-1.32,2.97-.63.95-1.43,1.68-2.41,2.17s-2.37.74-4.16.74h-4.2v13.9h-.94V.69h5.14c1.61,0,2.96.25,4.04.76,1.09.51,1.93,1.22,2.53,2.15Zm-.8,12.28c.51-.81.91-1.73,1.21-2.76.3-1.03.45-2.08.45-3.16s-.15-2.08-.45-3.11c-.3-1.03-.7-1.95-1.21-2.76-.51-.78-1.24-1.38-2.19-1.81-.95-.43-2.15-.65-3.58-.65h-4.2v16.72h4.2c1.73,0,2.99-.22,3.8-.65s1.46-1.04,1.97-1.81Z"/><path class="uuid-a34b9ec0-b3f6-45a2-8751-f554fdff28fb" d="m418.82,33.44h-1.44V.44h5.39c1.64,0,3.03.26,4.15.78,1.13.52,2.01,1.28,2.63,2.24h0c.58.91,1.03,1.95,1.35,3.08.32,1.13.48,2.29.48,3.44s-.16,2.35-.48,3.49c-.32,1.14-.77,2.16-1.35,3.04-.65.99-1.49,1.74-2.51,2.25s-2.45.76-4.27.76h-3.95v13.9Zm-.94-.5h.44v-13.9h4.45c1.74,0,3.1-.24,4.04-.71s1.72-1.17,2.32-2.08c.55-.84.98-1.82,1.29-2.9.31-1.09.46-2.22.46-3.35s-.15-2.22-.46-3.31c-.3-1.09-.74-2.08-1.29-2.95-.57-.88-1.38-1.57-2.42-2.05-1.05-.49-2.38-.74-3.94-.74h-4.89v31.99Zm4.89-14.34h-4.45V1.38h4.45c1.46,0,2.7.23,3.68.67.99.45,1.76,1.09,2.3,1.9.52.83.93,1.78,1.24,2.82.3,1.05.46,2.12.46,3.18s-.15,2.18-.46,3.23c-.3,1.05-.72,2-1.24,2.82h0c-.53.81-1.22,1.45-2.06,1.9-.85.46-2.13.68-3.92.68Zm-3.95-.5h3.95c1.68,0,2.92-.21,3.68-.62.76-.41,1.39-.99,1.87-1.73.49-.78.89-1.69,1.18-2.69.29-1,.44-2.04.44-3.09s-.15-2.04-.44-3.04c-.29-1-.69-1.91-1.18-2.69-.48-.73-1.18-1.31-2.08-1.72-.92-.42-2.09-.63-3.47-.63h-3.95v16.22Z"/><path class="uuid-b394ac37-7c92-4257-83bc-dec95192aaa5" d="m450.52,3.6c.57.89,1.01,1.9,1.32,3.02.31,1.12.47,2.24.47,3.37s-.16,2.3-.47,3.42c-.31,1.12-.75,2.11-1.32,2.97-.63.95-1.43,1.68-2.41,2.17s-2.37.74-4.16.74h-4.2v13.9h-.94V.69h5.14c1.61,0,2.96.25,4.04.76,1.09.51,1.93,1.22,2.53,2.15Zm-.8,12.28c.51-.81.91-1.73,1.21-2.76.3-1.03.45-2.08.45-3.16s-.15-2.08-.45-3.11c-.3-1.03-.7-1.95-1.21-2.76-.51-.78-1.24-1.38-2.19-1.81-.95-.43-2.15-.65-3.58-.65h-4.2v16.72h4.2c1.73,0,2.99-.22,3.8-.65s1.46-1.04,1.97-1.81Z"/><path class="uuid-a34b9ec0-b3f6-45a2-8751-f554fdff28fb" d="m440,33.44h-1.44V.44h5.39c1.64,0,3.03.26,4.15.78,1.13.52,2.01,1.28,2.63,2.24h0c.58.91,1.03,1.95,1.35,3.08.32,1.13.48,2.29.48,3.44s-.16,2.35-.48,3.49c-.32,1.14-.77,2.16-1.35,3.04-.65.99-1.49,1.74-2.51,2.25s-2.45.76-4.27.76h-3.95v13.9Zm-.94-.5h.44v-13.9h4.45c1.74,0,3.1-.24,4.04-.71s1.72-1.17,2.32-2.08c.55-.84.98-1.82,1.29-2.9.31-1.09.46-2.22.46-3.35s-.15-2.22-.46-3.31c-.3-1.09-.74-2.08-1.29-2.95-.57-.88-1.38-1.57-2.42-2.05-1.05-.49-2.38-.74-3.94-.74h-4.89v31.99Zm4.89-14.34h-4.45V1.38h4.45c1.46,0,2.7.23,3.68.67.99.45,1.76,1.09,2.3,1.9.52.83.93,1.78,1.24,2.82.3,1.05.46,2.12.46,3.18s-.15,2.18-.46,3.23c-.3,1.05-.72,2-1.24,2.82h0c-.53.81-1.22,1.45-2.06,1.9-.85.46-2.13.68-3.92.68Zm-3.95-.5h3.95c1.68,0,2.92-.21,3.68-.62.76-.41,1.39-.99,1.87-1.73.49-.78.89-1.69,1.18-2.69.29-1,.44-2.04.44-3.09s-.15-2.04-.44-3.04c-.29-1-.69-1.91-1.18-2.69-.48-.73-1.18-1.31-2.08-1.72-.92-.42-2.09-.63-3.47-.63h-3.95v16.22Z"/><path class="uuid-b394ac37-7c92-4257-83bc-dec95192aaa5" d="m473.27,32.34v.85h-12.6V.69h12.43v.85h-11.49v16.89h8.98v.85h-8.98v13.05h11.67Z"/><path class="uuid-a34b9ec0-b3f6-45a2-8751-f554fdff28fb" d="m473.52,33.44h-13.1V.44h12.93v1.35h-11.49v16.39h8.98v1.35h-8.98v12.55h11.67v1.35Zm-12.6-.5h12.1v-.35h-11.67v-13.55h8.98v-.35h-8.98V1.29h11.49v-.35h-11.93v31.99Z"/><path class="uuid-b394ac37-7c92-4257-83bc-dec95192aaa5" d="m503.89.69h6.7c.8,0,1.58.14,2.32.42.74.28,1.4.69,1.97,1.23,1.43,1.34,2.15,3.2,2.15,5.59v18.01c0,2.44-.71,4.31-2.15,5.59-.57.54-1.22.95-1.97,1.23-.75.28-1.52.42-2.32.42h-6.7V.69Zm12.2,7.24c0-1.07-.16-2.01-.47-2.82-.31-.8-.73-1.46-1.25-1.97-.52-.51-1.11-.89-1.77-1.14-.66-.25-1.33-.38-2.01-.38h-5.77v30.62h5.77c.68,0,1.36-.12,2.01-.36.66-.24,1.24-.62,1.77-1.14.52-.52.94-1.18,1.25-1.97.31-.79.47-1.74.47-2.84V7.94Z"/><path class="uuid-a34b9ec0-b3f6-45a2-8751-f554fdff28fb" d="m510.59,33.44h-6.95V.44h6.95c.83,0,1.64.15,2.41.44.77.29,1.46.73,2.05,1.28,1.48,1.38,2.22,3.32,2.22,5.77v18.01c0,2.51-.75,4.45-2.23,5.77-.58.55-1.27.98-2.04,1.28-.77.29-1.58.44-2.41.44Zm-6.45-.5h6.45c.77,0,1.52-.14,2.24-.41.71-.27,1.34-.67,1.88-1.18,1.37-1.23,2.07-3.05,2.07-5.41V7.94c0-2.3-.7-4.12-2.07-5.4-.54-.51-1.17-.91-1.88-1.18-.71-.27-1.46-.41-2.24-.41h-6.45v31.99Zm6.45-.44h-6.02V1.38h6.02c.71,0,1.42.13,2.1.4.68.26,1.31.67,1.85,1.19.54.53.99,1.22,1.31,2.06.32.83.49,1.81.49,2.91v18.01c0,1.13-.16,2.12-.49,2.93-.33.82-.76,1.51-1.31,2.05-.54.55-1.17.95-1.86,1.2-.68.25-1.38.37-2.1.37Zm-5.52-.5h5.52c.65,0,1.3-.12,1.92-.34.62-.22,1.18-.59,1.67-1.08.49-.49.9-1.13,1.2-1.88.3-.76.45-1.68.45-2.75V7.94c0-1.04-.15-1.95-.45-2.73-.3-.77-.7-1.4-1.19-1.88s-1.06-.85-1.68-1.09c-.63-.24-1.27-.36-1.92-.36h-5.52v30.12Z"/><path class="uuid-b394ac37-7c92-4257-83bc-dec95192aaa5" d="m538.21,32.34v.85h-12.6V.69h12.42v.85h-11.49v16.89h8.98v.85h-8.98v13.05h11.67Z"/><path class="uuid-a34b9ec0-b3f6-45a2-8751-f554fdff28fb" d="m538.46,33.44h-13.1V.44h12.92v1.35h-11.49v16.39h8.98v1.35h-8.98v12.55h11.67v1.35Zm-12.6-.5h12.1v-.35h-11.67v-13.55h8.98v-.35h-8.98V1.29h11.49v-.35h-11.92v31.99Z"/><path class="uuid-b394ac37-7c92-4257-83bc-dec95192aaa5" d="m554.35,19.15c-.33.06-.66.1-1.01.11-.34.02-.71.02-1.09.02h-4.2v13.9h-.94V.69h5.14c1.61,0,2.96.25,4.04.76,1.09.51,1.93,1.22,2.52,2.15.57.89,1.01,1.9,1.32,3.02.31,1.12.47,2.24.47,3.37s-.16,2.3-.47,3.42c-.31,1.12-.75,2.11-1.32,2.97-.42.66-.91,1.21-1.47,1.65-.57.45-1.28.76-2.15.94l-.85.18Zm3.67-3.27c.51-.81.91-1.73,1.21-2.76s.45-2.08.45-3.16-.15-2.08-.45-3.11-.7-1.95-1.21-2.76c-.51-.78-1.24-1.38-2.19-1.81-.95-.43-2.15-.65-3.58-.65h-4.2v16.72h4.2c1.73,0,2.99-.22,3.8-.65s1.46-1.04,1.97-1.81Zm-2.82,3.09l6.21,14.17h-.98l-6.12-13.99.89-.18Z"/><path class="uuid-a34b9ec0-b3f6-45a2-8751-f554fdff28fb" d="m548.3,33.44h-1.44V.44h5.39c1.64,0,3.03.26,4.15.78,1.13.52,2.01,1.28,2.63,2.24.58.91,1.03,1.95,1.35,3.08.32,1.13.48,2.29.48,3.44s-.16,2.35-.48,3.49c-.32,1.14-.77,2.16-1.35,3.04-.43.67-.94,1.25-1.53,1.71-.53.42-1.18.72-1.95.92l6.25,14.24h-1.53l-.07-.15-6.04-13.8c-.26.04-.53.06-.8.08-.35.02-.71.02-1.11.02h-3.95v13.9Zm-.94-.5h.44v-13.9h4.45c.38,0,.74,0,1.08-.02.24-.01.49-.03.72-.07l1.09-.22c.82-.17,1.51-.47,2.04-.89.54-.43,1.02-.96,1.42-1.59.55-.84.98-1.82,1.29-2.91.3-1.09.46-2.22.46-3.35s-.15-2.22-.46-3.31c-.31-1.09-.74-2.08-1.29-2.95-.57-.88-1.38-1.57-2.42-2.05-1.05-.49-2.38-.74-3.94-.74h-4.89v31.99Zm13.23-.04h.44l-5.98-13.63-.39.08,5.93,13.55Zm-8.34-14.29h-4.45V1.38h4.45c1.46,0,2.7.23,3.68.67.99.45,1.76,1.09,2.3,1.9.52.83.93,1.78,1.24,2.82.3,1.05.46,2.12.46,3.18s-.15,2.18-.46,3.23c-.3,1.05-.72,2-1.23,2.82h0c-.53.81-1.22,1.45-2.06,1.9-.85.46-2.13.68-3.92.68Zm-3.95-.5h3.95c1.68,0,2.92-.21,3.68-.62.76-.41,1.39-.99,1.88-1.73.49-.78.89-1.69,1.18-2.69.29-1,.44-2.04.44-3.09s-.15-2.04-.44-3.04c-.29-1-.69-1.91-1.18-2.69-.48-.73-1.18-1.31-2.08-1.72-.92-.42-2.09-.63-3.47-.63h-3.95v16.22Z"/><path class="uuid-d50a192f-b4a8-4dee-9bfb-7ad4674d731b" d="m898.44,37.72l-13.51-19.69c-1.93-2.81.21-6.51,3.76-6.51h25.35c3.43,0,5.59,3.49,3.9,6.3l-11.84,19.69c-1.66,2.76-5.84,2.87-7.66.21Z"/><path class="uuid-2ee48f79-fc17-43d1-a604-6d7604e0374d" d="m926.61,24.54l-21.1,22.18c-1.89,1.99-5.2,1.99-7.09,0l-21.1-22.18c-2.51-2.63-7.11-1.63-8.13,1.78l-2.82,9.42c-.52,1.74.12,3.6,1.62,4.73l31,23.17c1.73,1.3,4.19,1.3,5.92,0l31-23.17c1.5-1.12,2.14-2.99,1.62-4.73l-2.82-9.42c-1.02-3.4-5.62-4.41-8.13-1.78Z"/><path class="uuid-954e89c1-7598-4d63-a45a-80e04f845bfc" d="m865.74,48.23c.04-.44,13.21,8.95,21.02,14.57,3.47,2.49,5.14,6.09,4.32,9.3l-3.43,13.43c-.21.8-1.41,1.08-2.35.53-5.71-3.29-21.81-14.71-19.56-37.83Z"/><path class="uuid-2ee48f79-fc17-43d1-a604-6d7604e0374d" d="m902.05,71.69h0c.98-.02,1.82.47,1.96,1.17,1.68,8.22,11.16,55.46,8.13,60.02-3.32,5-13.53,6.35-19.27.49-5.25-5.36,5.46-52.53,7.31-60.5.16-.67.94-1.16,1.87-1.18Z"/><path class="uuid-d50a192f-b4a8-4dee-9bfb-7ad4674d731b" d="m936.86,86.65s-16.09.42-18.83,11.68c-2.74,11.26-4.22,24.35,8.78,31.01,13,6.65,15.51-43.3,10.05-42.68Z"/><path class="uuid-954e89c1-7598-4d63-a45a-80e04f845bfc" d="m919.64,137.07c-.56.27-1.04.57-1.39.83-3.02,2.29-5.87,5.07-8.64,7.99-2.27,2.39-4.86,6.13-7.8,5.86-1.99-.18-3.58-2.26-5.12-3.99-3.1-3.48-6.06-7.46-9.6-9.86-1.98-1.35-8.23-3.9-8.64,1.77-2.16,29.87,23.42,35.19,23.76,35.15.33.04.51.04.51.04,0,0,25.4-5.32,23.24-35.2-.32-4.38-3.96-3.75-6.32-2.61Z"/><path class="uuid-d50a192f-b4a8-4dee-9bfb-7ad4674d731b" d="m867.14,86.65s16.09.42,18.83,11.68c2.74,11.26,4.22,24.35-8.78,31.01-13,6.65-15.51-43.3-10.05-42.68Z"/><path class="uuid-954e89c1-7598-4d63-a45a-80e04f845bfc" d="m937.51,48.23c-.04-.44-13.21,8.95-21.02,14.57-3.47,2.49-5.14,6.09-4.32,9.3l3.43,13.43c.21.8,1.41,1.08,2.35.53,5.71-3.29,21.81-14.71,19.56-37.83Z"/></svg>