<?xml version="1.0" encoding="UTF-8"?><svg id="uuid-9b3029fa-bef9-4038-a8c5-c40f1c7cb475" xmlns="http://www.w3.org/2000/svg" viewBox="0 0 22.95 22.72"><defs><style>.uuid-08f3818d-3314-4548-9e06-e37a013aa37e{fill:#fff;}</style></defs><path class="uuid-08f3818d-3314-4548-9e06-e37a013aa37e" d="m22.22,14.91c-.46-.61-1.33-.76-1.99-.34l-3.67,2.51c-.27-.26-.64-.43-1.04-.43h-1.32c-.07,0-.13-.01-.19-.04l-4.46-1.95c-.19-.08-.39-.12-.59-.12h-3.09c-.36,0-.71.13-.98.37l-1.96,1.73c-.05.04-.11.08-.17.1l-1.73.55c-.77.25-1.2,1.05-.97,1.82l.58,2c.23.78,1.02,1.22,1.79,1.02l1.73-.45s.08-.02.12-.02h4.41c.08,0,.16.02.22.06l1.57.83c.21.11.45.17.69.17h3.11c.31,0,.61-.09.86-.27l7.07-5.01c.33-.23.54-.58.61-.98s-.04-.8-.28-1.12l-.32-.42Zm-.58,1.71l-7.07,5.01c-.08.06-.18.09-.28.09h-3.11c-.08,0-.16-.02-.22-.06l-1.57-.83c-.21-.11-.45-.17-.69-.17h-4.41c-.12,0-.25.02-.37.05l-1.73.45c-.25.06-.51-.08-.58-.33l-.58-2c-.07-.25.07-.51.32-.59l1.73-.55c.2-.06.37-.16.53-.3l1.96-1.73c.09-.08.2-.12.32-.12h3.09c.06,0,.13.01.19.04l4.46,1.95c.19.08.39.12.59.12h1.32c.2,0,.37.12.44.29,0,.01,0,.02.01.03.02.05.03.1.03.16,0,.26-.22.48-.48.48h-3.96c-.07,0-.14-.02-.21-.05l-2.24-1.07c-.25-.12-.55-.01-.67.24-.12.25-.01.55.24.67l2.25,1.07c.2.09.42.14.64.14h3.96c.82,0,1.48-.66,1.48-1.48,0-.05,0-.09,0-.14l3.79-2.59c.21-.14.49-.09.64.11l.32.42c.08.1.11.23.09.36-.02.13-.09.24-.2.32Z"/><path class="uuid-08f3818d-3314-4548-9e06-e37a013aa37e" d="m1.88.87c.16,6.4,3.41,9.99,9.13,10.17,1.13,2.17,1.49,3.73,1.5,3.76,0,.02.01.03.02.04,0,.02.02.05.03.07.02.03.04.06.06.09.02.02.03.04.05.05.03.03.06.05.09.07.02.01.04.02.06.03.05.02.1.03.19.04.04,0,.07,0,.11-.01.02,0,.03-.01.04-.02.03-.01.06-.02.09-.04.03-.02.05-.03.08-.05.02-.02.04-.04.06-.07.02-.03.04-.05.05-.08.01-.03.02-.06.03-.09.01-.03.02-.06.02-.1,0-.01,0-.03,0-.04,0-.04.09-2.83,1.78-5.93,5-.32,7.79-3.14,7.66-7.79,0-.27-.23-.49-.54-.48-.14.01-.29-.02-.43-.02-.14,0-.29,0-.43,0-.27,0-.55.02-.82.05-.51.06-1.02.16-1.51.31-.46.15-.91.34-1.33.59-.41.24-.79.53-1.14.85-.35.33-.67.71-.94,1.11-.29.43-.53.89-.72,1.36-.21.52-.38,1.06-.5,1.6-.08.34-.15.69-.2,1.04-.03.17-.05.34-.06.52,0,.09-.01.18-.02.27,0,.03,0,.07,0,.1,0,.02.02.09.02.11-.82,1.53-1.27,2.97-1.52,4.09-.21-.52-.48-1.13-.81-1.78.03-.19.03-.17.03-.19C12.45,6.38,11.22,1.21,2.88.09c-.14-.02-.25-.03-.32-.05-.18-.08-.38-.05-.53.08-.12.11-.17.26-.16.42,0,.05,0,.1.01.14,0,.04,0,.1,0,.18Zm20.06.63c-.09,4.44-3.11,5.87-6.01,6.22.96-1.43,2.28-2.87,4.14-4.08.23-.15.3-.46.15-.69-.15-.23-.46-.3-.69-.15-1.68,1.09-2.95,2.34-3.92,3.62.62-2.6,2.3-5.02,6.33-4.91Zm-10.85,7.61c-1.25-2.04-3.1-4.36-5.82-6.47-.22-.17-.53-.13-.7.09-.17.22-.13.53.09.7,2.76,2.13,4.59,4.53,5.8,6.58-5.9-.47-7.39-4.98-7.55-8.91,5.45.78,8.19,3.47,8.19,8Z"/></svg>