<?xml version="1.0" encoding="UTF-8"?><svg id="uuid-29ad4cea-24d5-4656-a317-ec691b387146" xmlns="http://www.w3.org/2000/svg" viewBox="0 0 23.9 21.87"><defs><style>.uuid-d6da80a0-28b3-4d2b-b9e3-5defe1e53fd9{fill:#fff;}</style></defs><path class="uuid-d6da80a0-28b3-4d2b-b9e3-5defe1e53fd9" d="m11,11.58l-.42-.42c-.59-.59-1.61-.61-2.24-.07-.08-.21-.2-.4-.37-.56l-.42-.42c-.62-.62-1.71-.62-2.33,0l-2.35,2.35c-.31.31-.48.72-.48,1.16s.17.85.48,1.16l.42.42c.3.3.71.47,1.14.48,0,.41.16.83.48,1.14l.42.42c.32.32.74.48,1.16.48.02,0,.04,0,.06,0-.02.44.14.89.48,1.22l.42.42c.32.32.73.47,1.14.48,0,.43.17.84.48,1.14l.42.42c.31.31.72.48,1.16.48s.85-.17,1.16-.48l2.35-2.35c.31-.31.48-.72.48-1.16s-.17-.85-.48-1.16l-.42-.42c-.19-.19-.42-.31-.67-.39.29-.61.19-1.36-.32-1.87l-.42-.42c-.26-.26-.59-.41-.93-.46.04-.14.06-.28.06-.42,0-.44-.17-.85-.48-1.16Zm-7.41,2.49c-.25-.25-.25-.66,0-.91l2.35-2.35c.13-.13.29-.19.46-.19s.33.06.46.19l.42.42c.12.12.19.28.19.46s-.07.34-.19.46l-2.35,2.35c-.24.24-.67.24-.91,0l-.42-.42Zm2.46,2.46l-.42-.42c-.25-.25-.25-.66,0-.91l2.35-2.35s0,0,0,0l.98-.98c.24-.24.67-.24.91,0l.42.42c.12.12.19.28.19.46s-.07.34-.19.46l-3.33,3.33c-.25.25-.66.25-.91,0Zm7.42,1.81l-2.35,2.35c-.24.24-.67.24-.91,0l-.42-.42c-.25-.25-.25-.66,0-.91l2.35-2.35c.13-.13.29-.19.46-.19s.33.06.46.19l.42.42c.25.25.25.66,0,.91Zm-1.41-3.59c.25.25.25.66,0,.91l-.63.63-2.35,2.35c-.25.25-.66.25-.91,0l-.42-.42c-.25-.25-.25-.66,0-.91l2.98-2.98c.25-.25.66-.25.91,0l.42.42Z"/><path class="uuid-d6da80a0-28b3-4d2b-b9e3-5defe1e53fd9" d="m19.49,1.06c-.39-.39-.91-.6-1.46-.6h-3.25c-.55,0-1.07.21-1.46.6l-4.35,4.35c-.8.8-.8,2.11,0,2.91.78.78,2.14.78,2.91,0l1.81-1.8c.33-.33.85-.41,1.26-.18.97.55,1.9.7,2.77.45,1.32-.38,1.98-1.57,2.01-1.62.13-.24.04-.55-.2-.68-.24-.13-.55-.04-.68.2,0,0-.49.87-1.4,1.13-.6.17-1.27.05-2-.36-.8-.45-1.81-.31-2.46.34l-1.81,1.8c-.4.4-1.1.4-1.5,0s-.41-1.09,0-1.5L14.03,1.76c.2-.2.47-.31.75-.31h3.25c.28,0,.55.11.75.31l3.81,3.81c.2.2.31.47.31.75v2.42c0,.24-.08.47-.23.66l-1.15,1.46c-.17.22-.13.53.08.7.09.07.2.11.31.11.15,0,.29-.07.39-.19l1.15-1.46c.29-.36.44-.82.44-1.28v-2.42c0-.55-.21-1.07-.6-1.46l-3.81-3.81Z"/><path class="uuid-d6da80a0-28b3-4d2b-b9e3-5defe1e53fd9" d="m1.64,11.61c.1.1.23.15.35.15s.26-.05.35-.15c.2-.2.2-.51,0-.71l-1.03-1.03c-.2-.2-.31-.47-.31-.75v-3.25c0-.28.11-.55.31-.75l3.81-3.81c.2-.2.47-.31.75-.31h2.42c.24,0,.47.08.66.23l1.46,1.15c.22.17.53.13.7-.08.17-.22.13-.53-.08-.7l-1.46-1.15c-.36-.29-.82-.44-1.28-.44h-2.42c-.55,0-1.07.21-1.46.6L.6,4.41c-.39.39-.6.91-.6,1.46v3.25c0,.55.21,1.07.6,1.46l1.03,1.03Z"/><path class="uuid-d6da80a0-28b3-4d2b-b9e3-5defe1e53fd9" d="m17.91,16.47c-.11.12-.3.12-.42,0l-3.39-3.25h0s0,0,0,0h0s-.05-.04-.07-.05c-.03-.02-.06-.04-.09-.06-.03-.01-.07-.01-.11-.02-.03,0-.05-.01-.08-.01-.04,0-.08.01-.12.02-.02,0-.05,0-.07.01-.03.01-.06.04-.09.06-.02.02-.05.03-.07.05,0,0,0,0,0,0,0,0,0,0,0,0-.02.02-.03.05-.05.07-.02.03-.05.06-.06.09-.01.03-.01.06-.02.09,0,.03-.02.07-.02.1,0,.03.01.06.02.08,0,.03,0,.07.02.1.01.03.03.05.05.07.02.03.03.06.06.09l3.38,3.35c.06.06.09.13.09.21s-.03.15-.09.21l-.74.74c-.11.11-.3.12-.42,0-.2-.19-.52-.18-.71.01-.19.2-.19.52.01.71.25.24.58.36.9.36s.67-.13.92-.38l.74-.74c.24-.24.36-.56.37-.89.28-.03.55-.14.77-.35l.74-.74c.21-.21.32-.49.35-.77.32-.01.64-.13.88-.37l.74-.74c.25-.25.38-.57.38-.92s-.14-.67-.38-.92l-5.13-5.13c-.2-.2-.51-.2-.71,0s-.2.51,0,.71l5.13,5.13c.06.06.09.13.09.21s-.03.15-.09.21l-.74.74c-.11.11-.3.12-.42,0l-3.4-3.26s-.05-.03-.07-.05c-.03-.02-.06-.04-.09-.06-.02,0-.04,0-.06-.01-.04-.01-.09-.02-.13-.02-.02,0-.04,0-.06.01-.04,0-.09.01-.13.03-.03.01-.05.03-.07.05-.03.02-.06.03-.09.06,0,0,0,0,0,0,0,0,0,0,0,0-.02.03-.04.06-.05.09-.02.03-.04.05-.05.08-.01.03-.01.06-.02.09,0,.03-.02.06-.02.1,0,.03.01.06.02.09,0,.03,0,.07.02.1.01.03.04.05.05.08.02.03.03.06.05.08h0s0,0,0,0h0s3.28,3.25,3.28,3.25c.12.12.12.31,0,.42l-.74.74Z"/></svg>