<?xml version="1.0" encoding="UTF-8"?><svg id="uuid-37880a35-d412-4941-ab38-6dd79f7fffff" xmlns="http://www.w3.org/2000/svg" viewBox="0 0 886.88 164.47"><path d="m573.66,160.32v-28.11h.81v28.11h-.81Z" style="fill:#fff;"/><path d="m574.73,160.57h-1.31v-28.61h1.31v28.61Zm-.81-.5h.31v-27.61h-.31v27.61Z" style="fill:#f7f7f7;"/><path d="m583.22,160.32h-.81v-28.11h.66l10.71,24.63c.15.36.26.64.33.85.06.21.12.37.17.5v-25.99h.81v28.11h-.7l-10.59-24.44c-.05-.13-.16-.39-.33-.79-.17-.4-.28-.71-.33-.95l.08,26.18Zm-.27-28.11h-.27.27Zm11.87,28.11h-.27.27Z" style="fill:#fff;"/><path d="m595.34,160.57h-1.11l-.07-.15-10.59-24.44c-.04-.09-.09-.23-.18-.42l.07,25.01h-1.31v-28.61h.73v-.16l.06.16h.28l10.78,24.78s.02.04.03.06v-24.84h1.31v28.61Zm-.52-.5h.02v-27.61h-.31v27.01l-.48-1.18c-.05-.13-.12-.31-.18-.52-.06-.19-.17-.47-.32-.83l-10.38-23.88.22,1.03c.05.21.15.52.32.9.17.4.28.67.33.79l10.52,24.28h.26Zm-12.16,0h.31l-.08-27.61h-.23v27.61Z" style="fill:#f7f7f7;"/><path d="m632.63,159.58v.74h-10.91v-28.11h10.75v.73h-9.94v14.62h7.77v.73h-7.77v11.29h10.09Z" style="fill:#fff;"/><path d="m632.88,160.57h-11.41v-28.61h11.25v1.23h-9.94v14.12h7.77v1.23h-7.77v10.79h10.09v1.24Zm-10.91-.5h10.41v-.24h-10.09v-11.79h7.77v-.23h-7.77v-15.12h9.94v-.23h-10.25v27.61Z" style="fill:#f7f7f7;"/><path d="m651.7,154.05v.58c0,.34-.05.74-.15,1.22s-.26.99-.48,1.53-.55,1.04-.98,1.51c-.98,1.06-2.35,1.59-4.12,1.59s-3.07-.53-4.05-1.59c-.44-.46-.76-.98-.98-1.55-.22-.57-.37-1.1-.44-1.6s-.12-.93-.12-1.3v-22.39h.81v22.64c0,.27.03.54.08.79.05.46.17.95.37,1.45.19.5.49.97.87,1.41.8.88,1.95,1.31,3.46,1.31s2.72-.45,3.57-1.35c.36-.41.64-.86.83-1.33.19-.48.33-.93.41-1.37.05-.26.08-.51.1-.75.01-.24.02-.5.02-.75v-22.04h.81v22Z" style="fill:#fff;"/><path d="m645.96,160.72c-1.79,0-3.21-.56-4.23-1.67-.46-.48-.8-1.03-1.03-1.63-.22-.58-.38-1.14-.46-1.66-.08-.51-.12-.96-.12-1.33v-22.64h1.31v22.89c0,.26.02.51.07.74.05.46.17.93.36,1.41.18.47.46.92.83,1.34.75.82,1.85,1.23,3.27,1.23s2.59-.43,3.39-1.28c.34-.38.6-.81.79-1.26.19-.46.32-.9.39-1.32.05-.25.08-.49.09-.72.01-.24.02-.49.02-.74v-22.29h1.31v22.83c0,.35-.05.78-.16,1.27-.1.49-.27,1.02-.5,1.57-.23.57-.58,1.1-1.03,1.58-1.02,1.1-2.47,1.67-4.3,1.67Zm-5.34-28.42v22.14c0,.35.04.77.11,1.26s.22,1.01.43,1.55c.21.53.52,1.03.93,1.47.92,1,2.22,1.51,3.87,1.51s3.02-.51,3.94-1.51c.41-.44.73-.92.93-1.43.21-.53.37-1.03.47-1.49.1-.46.15-.85.15-1.17v-22.33h-.31v21.75c0,.3,0,.56-.02.81-.01.26-.05.52-.1.79-.08.45-.22.93-.42,1.42-.2.5-.5.97-.88,1.4-.9.96-2.17,1.44-3.76,1.44s-2.79-.47-3.64-1.4c-.41-.46-.72-.96-.92-1.49-.2-.52-.33-1.03-.38-1.51-.05-.25-.08-.53-.08-.82v-22.39h-.31Z" style="fill:#f7f7f7;"/><path d="m665.97,148.17c-.28.05-.57.08-.87.1-.3.01-.61.02-.95.02h-3.63v12.03h-.81v-28.11h4.45c1.39,0,2.56.22,3.5.66.94.44,1.67,1.06,2.18,1.86.49.77.87,1.64,1.14,2.61s.41,1.94.41,2.92-.14,1.99-.41,2.96-.65,1.82-1.14,2.57c-.36.57-.79,1.04-1.28,1.43-.49.39-1.11.66-1.86.81l-.73.15Zm3.17-2.83c.44-.7.79-1.49,1.04-2.38.26-.89.39-1.8.39-2.73s-.13-1.8-.39-2.69-.61-1.69-1.04-2.38c-.44-.67-1.07-1.19-1.89-1.57-.83-.38-1.86-.56-3.09-.56h-3.63v14.46h3.63c1.5,0,2.59-.19,3.29-.56.7-.38,1.26-.9,1.7-1.57Zm-2.44,2.67l5.38,12.26h-.85l-5.3-12.1.77-.15Z" style="fill:#fff;"/><path d="m660.76,160.57h-1.31v-28.61h4.7c1.42,0,2.63.23,3.61.68.98.46,1.75,1.11,2.29,1.95.5.79.9,1.7,1.17,2.68.28.99.42,1.99.42,2.99s-.14,2.04-.42,3.03c-.28.99-.67,1.87-1.17,2.64-.37.58-.82,1.09-1.33,1.49-.45.36-1.01.62-1.66.79l5.41,12.33h-1.4l-.07-.15-5.22-11.92c-.22.03-.45.05-.67.06-.3.01-.62.02-.96.02h-3.38v12.03Zm-.81-.5h.31v-12.03h3.88c.33,0,.64,0,.94-.02.21,0,.42-.03.62-.06l.94-.19c.71-.15,1.29-.4,1.75-.76.47-.37.88-.83,1.22-1.37.48-.73.85-1.57,1.11-2.5.26-.94.4-1.91.4-2.89s-.13-1.91-.4-2.85c-.26-.94-.64-1.79-1.11-2.54-.49-.75-1.19-1.35-2.08-1.76-.9-.42-2.05-.63-3.39-.63h-4.2v27.61Zm11.44-.04h.3l-5.14-11.72-.27.06,5.11,11.67Zm-7.24-12.3h-3.88v-14.96h3.88c1.27,0,2.34.2,3.2.58.87.39,1.54.95,2,1.66.45.72.81,1.54,1.08,2.45.26.91.4,1.84.4,2.76s-.13,1.89-.4,2.8c-.26.91-.62,1.73-1.07,2.45h0c-.46.71-1.06,1.26-1.79,1.66-.74.4-1.85.59-3.41.59Zm-3.38-.5h3.38c1.45,0,2.51-.18,3.17-.53.65-.35,1.2-.85,1.61-1.49.42-.67.76-1.45,1.01-2.32.25-.87.38-1.76.38-2.67s-.13-1.76-.38-2.62c-.25-.87-.59-1.65-1.02-2.32-.41-.62-1.01-1.12-1.79-1.47-.79-.36-1.79-.54-2.99-.54h-3.38v13.96Z" style="fill:#f7f7f7;"/><path d="m689.63,154.25v.62c0,.34-.05.74-.15,1.22-.1.48-.26.99-.48,1.53-.22.54-.55,1.04-.99,1.51-.52.52-1.24.91-2.18,1.18-.94.27-1.85.41-2.73.41s-1.78-.14-2.71-.41c-.93-.27-1.64-.66-2.13-1.18-.44-.46-.77-.98-.99-1.55-.22-.57-.37-1.1-.44-1.61-.08-.5-.12-.93-.12-1.29v-16.51c0-1.03.15-1.95.44-2.76.3-.81.77-1.5,1.41-2.07.26-.23.57-.44.95-.62.37-.18.77-.33,1.18-.44.41-.12.83-.21,1.24-.27.41-.06.8-.1,1.16-.1.33,0,.72.03,1.14.08.43.05.85.14,1.28.25.43.12.83.26,1.2.43.37.17.69.37.95.6,1.31,1.16,1.97,2.8,1.97,4.91v16.09Zm-.81-16.09c0-.9-.12-1.68-.35-2.32-.23-.64-.55-1.19-.97-1.62-.23-.26-.54-.48-.91-.68-.37-.19-.77-.35-1.18-.48s-.83-.22-1.24-.27c-.41-.05-.77-.08-1.08-.08-.59,0-1.22.07-1.88.21s-1.26.41-1.8.81c-.54.4-.99.96-1.33,1.66-.35.71-.52,1.63-.52,2.76v15.89c-.03.65,0,1.2.08,1.66.08.46.21.95.39,1.47s.46.98.85,1.39c.41.44,1.03.77,1.86.99.82.22,1.61.33,2.36.33.39,0,.79-.03,1.2-.08.41-.05.82-.13,1.22-.25.4-.12.77-.26,1.1-.43.33-.17.61-.37.81-.6.39-.41.67-.86.85-1.35.18-.49.31-.95.39-1.37.08-.42.12-.93.12-1.53l.04-16.12Z" style="fill:#fff;"/><path d="m683.1,160.95c-.89,0-1.83-.14-2.78-.42-.97-.28-1.72-.7-2.24-1.25-.46-.49-.81-1.04-1.04-1.63-.22-.58-.38-1.13-.46-1.66-.08-.51-.12-.96-.12-1.33v-16.51c0-1.06.15-2.02.46-2.85.31-.85.81-1.58,1.48-2.17.27-.24.61-.46,1-.66.38-.19.79-.34,1.22-.46.42-.12.85-.21,1.27-.28.82-.13,1.47-.13,2.37-.02.44.05.88.14,1.31.26.44.12.85.27,1.24.44.4.18.74.4,1.01.64,1.36,1.2,2.05,2.92,2.05,5.1v16.71c0,.35-.05.78-.16,1.27-.11.49-.27,1.02-.5,1.57-.23.57-.58,1.1-1.04,1.59-.55.55-1.32.97-2.3,1.25-.96.28-1.9.42-2.8.42Zm0-28.81c-.34,0-.72.03-1.12.09-.4.06-.8.15-1.21.26-.4.11-.78.26-1.14.43-.35.17-.65.37-.89.58-.61.54-1.06,1.2-1.34,1.97-.29.78-.43,1.68-.43,2.68v16.51c0,.35.04.77.11,1.26.07.49.22,1.01.43,1.55.21.53.52,1.03.93,1.47.46.48,1.13.85,2.02,1.11,1.8.53,3.46.53,5.29,0,.9-.26,1.59-.63,2.08-1.12.41-.43.72-.92.93-1.42.21-.52.37-1.02.47-1.49.1-.46.15-.85.15-1.17v-16.71c0-2.03-.63-3.62-1.89-4.72-.24-.21-.53-.4-.88-.56-.36-.16-.75-.3-1.16-.41-.41-.11-.83-.19-1.24-.25-.41-.05-.79-.07-1.11-.07Zm0,28c-.77,0-1.58-.11-2.42-.34-.87-.23-1.53-.58-1.97-1.06-.41-.44-.71-.93-.91-1.48-.18-.53-.32-1.03-.4-1.51-.08-.48-.11-1.06-.08-1.71v-15.88c0-1.17.18-2.13.55-2.88.36-.74.84-1.33,1.41-1.75.57-.42,1.21-.71,1.89-.85.67-.15,1.32-.22,1.93-.22.32,0,.68.03,1.11.08.43.05.86.15,1.28.28.43.13.84.3,1.22.5.4.21.73.45.98.73.43.46.77,1.03,1.02,1.71.24.67.36,1.48.36,2.41h0s-.04,16.13-.04,16.13c0,.61-.04,1.14-.12,1.57-.08.44-.21.91-.4,1.42s-.5,1-.9,1.44c-.22.25-.52.47-.88.65-.34.17-.73.32-1.14.44-.42.12-.84.21-1.26.26-.42.05-.83.08-1.23.08Zm0-27.18c-.57,0-1.18.07-1.82.21-.62.13-1.19.39-1.7.77-.51.37-.93.9-1.26,1.57-.33.67-.5,1.56-.5,2.65v15.89c-.03.63,0,1.17.07,1.62.07.45.2.93.38,1.43.17.48.44.92.8,1.3.38.4.96.71,1.74.92,1.22.32,2.31.39,3.46.24.39-.05.79-.13,1.18-.24.39-.11.75-.25,1.06-.41.31-.15.55-.34.74-.54.37-.39.63-.82.8-1.27.17-.47.3-.92.38-1.33.07-.4.11-.9.11-1.48l.04-16.12c0-.87-.11-1.62-.33-2.24-.22-.61-.53-1.12-.91-1.54-.21-.24-.5-.45-.84-.63-.36-.18-.74-.34-1.14-.47-.39-.12-.79-.21-1.19-.26-.4-.05-.76-.08-1.05-.08Z" style="fill:#f7f7f7;"/><path d="m705.56,134.72c.49.77.87,1.64,1.14,2.61s.41,1.94.41,2.92-.14,1.99-.41,2.96-.65,1.82-1.14,2.57c-.54.83-1.24,1.45-2.09,1.88-.85.42-2.05.64-3.6.64h-3.63v12.03h-.81v-28.11h4.45c1.39,0,2.56.22,3.5.66.94.44,1.67,1.06,2.18,1.86Zm-.7,10.63c.44-.7.79-1.49,1.04-2.38.26-.89.39-1.8.39-2.73s-.13-1.8-.39-2.69-.61-1.69-1.04-2.38c-.44-.67-1.07-1.19-1.89-1.57-.83-.38-1.86-.56-3.09-.56h-3.63v14.46h3.63c1.5,0,2.59-.19,3.29-.56s1.26-.9,1.7-1.57Z" style="fill:#fff;"/><path d="m696.49,160.57h-1.31v-28.61h4.7c1.42,0,2.63.23,3.61.68.98.46,1.75,1.11,2.29,1.95h0c.5.79.9,1.7,1.17,2.68.28.99.42,1.99.42,2.99s-.14,2.04-.42,3.03c-.28.99-.67,1.87-1.17,2.64-.56.86-1.3,1.52-2.18,1.96-.88.44-2.13.66-3.71.66h-3.38v12.03Zm-.81-.5h.31v-12.03h3.88c1.5,0,2.67-.21,3.49-.61.81-.4,1.48-1.01,1.99-1.79.47-.72.85-1.56,1.11-2.5.26-.94.4-1.91.4-2.89s-.13-1.91-.4-2.85c-.26-.94-.63-1.79-1.11-2.54-.49-.76-1.19-1.35-2.08-1.76-.9-.42-2.05-.63-3.39-.63h-4.2v27.61Zm4.2-12.34h-3.88v-14.96h3.88c1.27,0,2.34.2,3.2.58.87.39,1.54.95,2,1.66.45.72.81,1.54,1.08,2.45.26.91.4,1.84.4,2.76s-.13,1.89-.4,2.8c-.26.91-.62,1.73-1.07,2.45h0c-.46.71-1.06,1.26-1.79,1.66-.74.4-1.85.59-3.41.59Zm-3.38-.5h3.38c1.45,0,2.51-.18,3.17-.53.65-.35,1.2-.85,1.61-1.49.42-.67.76-1.45,1.01-2.32.25-.87.38-1.76.38-2.67s-.13-1.76-.38-2.62c-.25-.87-.59-1.65-1.02-2.32-.41-.62-1.01-1.12-1.79-1.47-.79-.36-1.79-.54-2.99-.54h-3.38v13.96Z" style="fill:#f7f7f7;"/><path d="m724.47,160.32h-.85l-1.74-8.47h-6.73l-1.82,8.47h-.85l5.68-28.11h.66l5.65,28.11Zm-2.82-9.28l-3.13-16.71-3.25,16.71h6.38Zm-3.29-18.83h.27-.27Z" style="fill:#fff;"/><path d="m724.78,160.57h-1.36l-1.74-8.47h-6.32l-1.82,8.47h-1.36l5.79-28.61h1.07l.04.2,5.71,28.41Zm-.95-.5h.34l-5.54-27.61h-.25l-5.58,27.61h.34l1.82-8.47h7.13l1.74,8.47Zm-1.88-8.78h-6.98l.06-.3,3.5-17.99,3.43,18.29Zm-6.38-.5h5.78l-2.84-15.12-2.94,15.12Z" style="fill:#f7f7f7;"/><path d="m760.94,159.58v.74h-10.91v-28.11h10.75v.73h-9.94v14.62h7.77v.73h-7.77v11.29h10.09Z" style="fill:#fff;"/><path d="m761.19,160.57h-11.41v-28.61h11.25v1.23h-9.94v14.12h7.77v1.23h-7.77v10.79h10.09v1.24Zm-10.91-.5h10.41v-.24h-10.09v-11.79h7.77v-.23h-7.77v-15.12h9.94v-.23h-10.25v27.61Z" style="fill:#f7f7f7;"/><path d="m766.97,159.47v1.12h-1.12v-1.12h1.12Z" style="fill:#fff;"/><path d="m767.22,160.84h-1.62v-1.62h1.62v1.62Zm-1.12-.5h.62v-.62h-.62v.62Z" style="fill:#f7f7f7;"/><path d="m782.75,132.36h.85l-5.68,27.8h-.81l-5.68-27.8h.85l5.26,25.91,5.22-25.91Z" style="fill:#fff;"/><path d="m778.12,160.41h-1.22l-5.79-28.3h1.36l.04.2,5.01,24.7,5.02-24.9h1.36l-5.79,28.3Zm-.81-.5h.4l5.58-27.3h-.34l-5.42,26.92-5.46-26.92h-.34l5.58,27.3Z" style="fill:#f7f7f7;"/><path d="m789.13,159.47v1.12h-1.12v-1.12h1.12Z" style="fill:#fff;"/><path d="m789.38,160.84h-1.62v-1.62h1.62v1.62Zm-1.12-.5h.62v-.62h-.62v.62Z" style="fill:#f7f7f7;"/><path d="m119.13,45.24c2.43.86,4.47,2.01,6.12,3.45,1.64,1.45,2.94,3.03,3.9,4.74.95,1.71,1.58,3.42,1.88,5.13.3,1.71.35,3.22.15,4.54-.46,2.5-1.5,4.98-3.11,7.45-1.61,2.47-3.77,4.75-6.46,6.86-.72.39-1.51.92-2.37,1.58-.46.33-.95.69-1.48,1.09.26.2.79.46,1.58.79.79.33,1.59.79,2.42,1.38.82.59,1.61,1.37,2.37,2.32.76.95,1.25,2.17,1.48,3.65.23,1.48.1,3.27-.39,5.38-.49,2.11-1.5,4.57-3.01,7.4-1.71,3.69-3.8,6.45-6.27,8.29-2.47,1.84-4.87,3.14-7.2,3.9-2.34.76-4.39,1.15-6.17,1.18-1.78.03-2.76.05-2.96.05-.53,0-1.18-.02-1.97-.05-.79-.03-1.61-.08-2.47-.15-.86-.06-1.68-.1-2.47-.1s-1.42.07-1.88.2c-.86.13-1.56.15-2.12.05-.56-.1-1-.21-1.33-.35-.4-.2-.72-.43-.99-.69-.13-.13-.3-.21-.49-.25-.2-.03-.59.02-1.18.15-.59.13-.9.12-.94-.05-.03-.16-.15-.41-.35-.74l-.2-.59c-.07-.07-.1-.13-.1-.2.06-.13.1-.31.1-.54s.03-.58.1-1.04c.13-.85.35-2.1.64-3.75.3-1.64.69-3.55,1.18-5.72.49-2.17,1.04-4.54,1.63-7.1.59-2.57,1.25-5.23,1.97-7.99.99-4.28,2.02-8.58,3.11-12.93,1.09-4.34,2.07-8.32,2.96-11.94.89-3.62,1.63-6.63,2.22-9.03.59-2.4.89-3.76.89-4.09.06-.66.2-1.04.4-1.13.2-.1.36-.15.49-.15.06-.06.44-.1,1.13-.1s1.1-.03,1.23-.1c.59-.2,1.5-.36,2.71-.49,1.22-.13,2.06-.2,2.52-.2.53,0,.89-.03,1.09-.1.2,0,.33-.03.4-.1,2.24-.33,4.29-.48,6.17-.44,1.87.03,3.57.21,5.08.54Zm-7.89,45.09c0-.79-.07-1.54-.2-2.27-.13-.72-.43-1.41-.89-2.07-.46-.66-1.12-1.27-1.97-1.83-.86-.56-1.97-1.07-3.35-1.53h-.3c-.2.07-.33.26-.4.59,0,.07-.08.41-.25,1.04-.17.63-.38,1.46-.64,2.52-.26,1.05-.56,2.24-.89,3.55-.33,1.32-.66,2.66-.99,4.05-.39,1.65-.79,3.29-1.18,4.93-.39,1.65-.74,3.14-1.04,4.49-.3,1.35-.54,2.48-.74,3.4-.2.92-.3,1.42-.3,1.48-.07.13-.07.23,0,.3,0,.2.2.13.59-.2.99-.39,2.19-1.22,3.6-2.47,1.41-1.25,2.76-2.76,4.05-4.54s2.4-3.67,3.35-5.67c.95-2.01,1.46-3.93,1.53-5.77Zm-1.18-17.46c.79-.66,1.59-1.45,2.42-2.37.82-.92,1.58-1.91,2.27-2.96.69-1.05,1.23-2.17,1.63-3.35.39-1.18.56-2.43.49-3.75-.13-1.38-.53-2.81-1.18-4.29-.66-1.48-1.68-2.81-3.06-4-.07-.06-.13-.1-.2-.1-.13,0-.23.1-.3.3.06.33-.23,1.5-.89,3.5-.66,2.01-1.35,4.36-2.07,7.06-.4,1.51-.77,3.01-1.13,4.49-.36,1.48-.69,2.81-.99,4s-.56,2.16-.79,2.91c-.23.76-.35,1.17-.35,1.23-.07.07-.07.13,0,.2,0,.2.13.17.39-.1.13-.06.56-.33,1.28-.79.72-.46,1.54-1.12,2.47-1.97Z" style="fill:#fb9f2c;"/><path d="m172.61,45.73c.53.46.77,1.38.74,2.76-.03,1.38-.2,2.94-.49,4.69-.3,1.74-.63,3.54-.99,5.38-.36,1.84-.61,3.39-.74,4.64-.59,5-1.27,10.16-2.02,15.49-.76,5.33-1.76,10.31-3.01,14.95-1.25,4.64-2.83,8.63-4.74,11.99-1.91,3.35-4.28,5.53-7.1,6.51-1.05.99-3.16,1.48-6.32,1.48h-1.18c-.33.2-.92.31-1.78.35-.86.03-1.58.05-2.17.05h.89c-1.18,0-2.3-.26-3.35-.79-1.05-.53-2.02-1.2-2.91-2.02-.89-.82-1.66-1.76-2.32-2.81-.66-1.05-1.18-2.14-1.58-3.26-1.25-2.89-2.07-6.2-2.47-9.92-.4-3.72-.53-7.53-.4-11.45.13-3.91.46-7.78.99-11.59.53-3.81,1.1-7.28,1.73-10.41.62-3.12,1.22-5.74,1.78-7.84.56-2.1.94-3.42,1.13-3.95.39-1.31.87-2.24,1.43-2.76.56-.53,1.22-.87,1.97-1.04.76-.16,1.59-.26,2.52-.3.92-.03,1.94-.21,3.06-.54h.79c.2-.2.39-.31.59-.35.2-.03.49-.05.89-.05s.76.08,1.09.25c.33.17.49.35.49.54.4.53.59,1.13.59,1.83s-.2,1.63-.59,2.81c-2.63,9.74-4.31,17.96-5.03,24.67-.72,6.71-.95,12.24-.69,16.58.26,4.34.8,7.65,1.63,9.92.82,2.27,1.53,3.83,2.12,4.69,1.31-1.18,2.48-2.83,3.5-4.93,1.02-2.11,1.92-4.51,2.71-7.2s1.48-5.59,2.07-8.68c.59-3.09,1.1-6.17,1.53-9.23.43-3.06.8-6.03,1.13-8.93.33-2.89.62-5.53.89-7.89.13-2.76.3-5.11.49-7.06.2-1.94.39-3.5.59-4.69.2-1.12.85-1.78,1.97-1.97,1.12-.2,2.2-.3,3.26-.3.33,0,.77-.02,1.33-.05.56-.03,1.13-.15,1.73-.35.33,0,.67-.06,1.04-.2.36-.13.67-.2.94-.2,1.12,0,1.88.4,2.27,1.18Zm-30.69-12.83c0-.46.03-.92.1-1.38.06-.46.33-.69.79-.69.59,0,1.23-.08,1.92-.25.69-.16,1.27-.18,1.73-.05.53.07,1.2.08,2.02.05.82-.03,1.68-.08,2.57-.15.89-.06,1.78-.15,2.66-.25.89-.1,1.69-.18,2.42-.25.66,0,1.13.17,1.43.49.3.33.48.77.54,1.33.06.56.06,1.18,0,1.87-.07.69-.13,1.37-.2,2.02-.13,1.32-.25,2.24-.35,2.76-.1.53-.28,1.32-.54,2.37-.33,1.05-1.09,1.6-2.27,1.63-1.18.03-2.53-.02-4.05-.15h-7.3c-1.05-.13-1.65-.64-1.78-1.53-.13-.89-.13-1.69,0-2.42.06-.33.13-.79.2-1.38.06-.59.1-1.18.1-1.78v-2.27Zm19.73,0c0-.46.03-.92.1-1.38.06-.46.33-.69.79-.69.59,0,1.23-.08,1.92-.25.69-.16,1.27-.18,1.73-.05.53.07,1.2.08,2.02.05.82-.03,1.68-.08,2.57-.15.89-.06,1.78-.15,2.66-.25.89-.1,1.69-.18,2.42-.25.66,0,1.13.17,1.43.49.3.33.48.77.54,1.33.06.56.06,1.18,0,1.87-.07.69-.13,1.37-.2,2.02-.13,1.32-.25,2.24-.35,2.76-.1.53-.28,1.32-.54,2.37-.33,1.05-1.09,1.6-2.27,1.63-1.18.03-2.53-.02-4.05-.15h-7.3c-1.05-.13-1.65-.64-1.78-1.53-.13-.89-.13-1.69,0-2.42.06-.33.13-.79.2-1.38.06-.59.1-1.18.1-1.78v-2.27Z" style="fill:#fb9f2c;"/><path d="m210.01,44.65c2.7.53,4.85,1.43,6.46,2.71,1.61,1.28,2.8,2.83,3.55,4.64.76,1.81,1.13,3.8,1.13,5.97s-.26,4.42-.79,6.76c-.53,2.34-1.25,4.65-2.17,6.96-.92,2.3-1.94,4.47-3.06,6.51-1.12,2.11-2.3,3.93-3.55,5.48-1.25,1.55-2.4,2.85-3.45,3.9-1.18,1.18-2.4,2.24-3.65,3.16.79,3.75,1.54,7.1,2.27,10.06.26,1.25.53,2.48.79,3.7.26,1.22.51,2.3.74,3.26.23.95.41,1.73.54,2.32.13.59.2.92.2.99.2.2.31.4.35.59.03.2.05.39.05.59.06.26.03.48-.1.64-.13.17-.2.48-.2.94-.26.39-.87.49-1.83.3-.95-.2-1.86-.3-2.71-.3h-7.7c-.72.2-1.22-.13-1.48-.99-.13-.33-.23-.79-.3-1.38-.53-2.5-.99-4.77-1.38-6.81-.33-1.71-.64-3.32-.94-4.83-.3-1.51-.51-2.4-.64-2.66-.07.07-.2.49-.39,1.28-.2.79-.41,1.74-.64,2.86-.23,1.12-.49,2.35-.79,3.7-.3,1.35-.58,2.62-.84,3.8-.26,1.18-.48,2.21-.64,3.06-.16.86-.25,1.38-.25,1.58,0,.39-.33.51-.99.35-.66-.16-2.04-.15-4.14.05h-3.55c-.46.2-1.04.31-1.73.35-.69.03-1.33.05-1.92.05-.33,0-.63-.13-.89-.39-.13-.13-.23-.26-.3-.39,0-.2.13-.89.39-2.07.26-1.18.61-2.78,1.04-4.79.43-2.01.94-4.33,1.53-6.96.59-2.63,1.18-5.46,1.78-8.49.79-3.88,1.43-7.86,1.92-11.94.49-4.08,1.1-7.96,1.83-11.64,1.18-5.46,2.07-10.02,2.66-13.67.59-3.65.85-5.71.79-6.17.2-.79.56-1.27,1.09-1.43.53-.16.99-.31,1.38-.44.06-.13.3-.23.69-.3.39-.06.85-.11,1.38-.15.53-.03,1.07-.05,1.63-.05h1.43c.79.13,1.46.17,2.02.1.56-.06,1.13-.15,1.73-.25.59-.1,1.28-.18,2.07-.25.79-.06,1.84-.06,3.16,0,.59-.2,1.27-.31,2.02-.35.76-.03,1.46-.05,2.12-.05.72,0,1.48.03,2.27.1Zm-8.29,31.97c1.18-2.24,2.27-4.69,3.26-7.35s1.63-5.28,1.92-7.84c.3-2.57.16-5-.39-7.3-.56-2.3-1.79-4.27-3.7-5.92.06.26-.17.4-.69.4-.26-.2-.46-.23-.59-.1-.13.13-.2.26-.2.39-.53,2.11-1.02,4.28-1.48,6.51-.46,1.91-.92,4.1-1.38,6.56-.46,2.47-.95,4.92-1.48,7.35-.46,2.11-.87,4.14-1.23,6.12-.36,1.97-.68,3.73-.94,5.28-.26,1.55-.46,2.85-.59,3.9-.13,1.05-.2,1.71-.2,1.97.85-.79,1.71-1.71,2.57-2.76.72-.92,1.54-1.97,2.47-3.16.92-1.18,1.81-2.53,2.66-4.05Z" style="fill:#fb9f2c;"/><path d="m217.01,101.18c-.2-4.14.15-8.22,1.04-12.23.89-4.01,2.06-7.83,3.5-11.45,1.45-3.62,3.04-6.94,4.79-9.97,1.74-3.02,3.37-5.66,4.88-7.89,1.51-2.24,2.78-4.01,3.8-5.33,1.02-1.31,1.56-2.01,1.63-2.07.2-.26.49-.61.89-1.04.39-.43.79-.87,1.18-1.33.39-.46.76-.9,1.09-1.33.33-.43.56-.74.69-.94-.13-.53.05-.95.54-1.28.49-.33,1.1-.56,1.83-.69.79-.2,1.71-.3,2.76-.3,0-.06.03-.13.1-.2.13-.13.36-.2.69-.2h3.16c.85-.2,1.63-.3,2.32-.3s1.28.03,1.78.1c.49.07.9.15,1.23.25.33.1.56.08.69-.05.13-.2.94-.3,2.42-.3s3.4.1,5.77.3c1.12,0,2.04.02,2.76.05.72.03,1.35.08,1.88.15.59.07,1.08.13,1.48.2,2.24.66,3.85,1.84,4.83,3.55.99,1.71,1.54,3.68,1.68,5.92.13,2.24-.05,4.6-.54,7.1-.49,2.5-1.1,4.92-1.83,7.25-.72,2.34-1.42,4.46-2.07,6.36-.66,1.91-1.09,3.35-1.28,4.34-.99-.13-1.69-.16-2.12-.1-.43.07-.77.1-1.04.1-.72-.13-1.94-.15-3.65-.05-1.71.1-3.35.28-4.93.54-.72.13-1.33.12-1.83-.05-.49-.16-.9-.38-1.23-.64-.33-.26-.59-.62-.79-1.08.13-.4.51-1.56,1.13-3.5.62-1.94,1.25-4.23,1.87-6.86.62-2.63,1.1-5.38,1.43-8.24.33-2.86.3-5.44-.1-7.75-.13-.79-.35-1.41-.64-1.88-.3-.46-.61-.79-.94-.99-.33-.26-.72-.39-1.18-.39-4.14,4.47-7.65,8.67-10.51,12.58-2.86,3.91-5.21,7.58-7.06,11-1.84,3.42-3.26,6.56-4.24,9.42s-1.68,5.48-2.07,7.84c-.92,5.53-.59,10.3.99,14.31.46,1.18,1.04,2.14,1.73,2.86.69.72,1.48,1.27,2.37,1.63.89.36,1.88.59,2.96.69,1.09.1,2.25.15,3.5.15,1.31,0,2.58-.05,3.8-.15,1.22-.1,2.32-.21,3.31-.34,1.18-.13,2.3-.3,3.35-.49.26-.99.67-2.4,1.23-4.24.56-1.84,1.1-3.72,1.63-5.62.66-2.17,1.35-4.47,2.07-6.91-.99-.06-2.48-.05-4.49.05-2.01.1-4.05.2-6.12.3-2.07.1-3.95.15-5.62.15s-2.65-.16-2.91-.49c-.26-.2-.44-.41-.54-.64s-.28-.48-.54-.74c-.26,0-.54-.08-.84-.25s-.18-.25.35-.25c.4-.13.69-.3.89-.49l.3-.3c0,.07.03.13.1.2.06.07.2,0,.4-.2.2,0,.59-.16,1.18-.49.59-.33,1.12-.49,1.58-.49h.94c.49,0,1.07-.02,1.73-.05.66-.03,1.3-.06,1.92-.1.62-.03,1.1-.08,1.43-.15.92-.2,1.64-.26,2.17-.2.33.07.62.13.89.2.59.07,1.68.08,3.26.05s3.31-.1,5.18-.2c1.88-.1,3.8-.18,5.77-.25,1.97-.07,3.65-.1,5.03-.1,1.97,0,3.34.28,4.1.84.76.56.87,1.3.35,2.22-.13.46-.43,1.56-.89,3.31-.46,1.74-.95,3.6-1.48,5.58-.53,1.97-1,3.77-1.43,5.38-.43,1.61-.64,2.48-.64,2.62-.33.66-.54,1.3-.64,1.92-.1.63-.2,1.17-.3,1.63-.1.46-.28.84-.54,1.13-.26.29-.69.44-1.28.44-.66-.13-2.12-.16-4.39-.1-2.27.07-5.03.2-8.29.4-3.26.2-6.88.43-10.85.69-3.98.26-7.98.53-11.99.79-4.14.33-7.34-.16-9.57-1.48-2.24-1.32-3.88-2.83-4.93-4.54-1.18-1.97-1.84-4.28-1.97-6.91Z" style="fill:#fb9f2c;"/><path d="m290.82,46.62c.46-.06.92-.13,1.38-.2.66-.06,1.41-.23,2.27-.49.59-.33,1.74-.59,3.45-.79,1.71-.2,3.72-.35,6.02-.44,2.3-.1,4.75-.16,7.35-.2,2.6-.03,5.1-.02,7.5.05,2.4.07,4.57.17,6.51.3,1.94.13,3.37.3,4.29.49.06.13.1.36.1.69s-.05.74-.15,1.23c-.1.49-.21,1.17-.35,2.02-.2.92-.35,1.61-.44,2.07-.1.46-.18.82-.25,1.09-.07.26-.13.48-.2.64-.07.17-.2.38-.4.64-.13,0-.18.12-.15.35.03.23.05.48.05.74,0,.33.03.69.1,1.09v.39c0,.13-.03.26-.1.39-.07.13-.13.26-.2.4-.33,0-.51.02-.54.05-.03.03-.05.15-.05.35-.13.2-.25.36-.35.49-.1.13-.61.21-1.53.25-.92.03-2.43.03-4.54,0-2.11-.03-5.2-.15-9.27-.35h-2.57c-.99,0-1.97.02-2.96.05-.99.03-1.84.07-2.57.1-.72.03-1.12.08-1.18.15,0,.13-.1.86-.3,2.17-.2,1.32-.43,2.73-.69,4.24l-.99,6.12,4.54-.2c.53.13,1.35.18,2.47.15,1.12-.03,2.27-.05,3.45-.05s2.32.02,3.4.05c1.09.03,1.86.15,2.32.35,1.31.33,2.07.64,2.27.94.2.3.3.54.3.74-.13.13-.21.41-.25.84-.03.43-.08.92-.15,1.48-.07.56-.1,1.08-.1,1.58v1.04c0,.33-.12.63-.35.89-.23.26-.44.53-.64.79-.2,0-.31.17-.35.49-.03.33-.05.69-.05,1.08s-.15.99-.44,1.78-.94,1.25-1.92,1.38c-.39.13-1.1.23-2.12.29-1.02.07-2.19.1-3.5.1s-2.66-.02-4.05-.05c-1.38-.03-2.66-.03-3.85,0-1.18.03-2.17.08-2.96.15-.79.07-1.22.2-1.28.4-.13.33-.38,1.3-.74,2.91-.36,1.61-.77,3.34-1.23,5.18-.53,2.17-1.09,4.57-1.68,7.2.06,0,.46.02,1.18.05.72.04,1.58.08,2.57.15.99.07,2.02.12,3.11.15s2.02.05,2.81.05c.72.13,1.79.23,3.21.3,1.41.07,2.83.15,4.24.25,1.41.1,2.7.17,3.85.2,1.15.03,1.83.05,2.02.05s.11.25-.25.74c-.36.49-.54.94-.54,1.33,0,.33-.07.99-.2,1.97-.13.99-.33,1.81-.59,2.47-.2.59-.33,1.05-.39,1.38-.07.33-.2.82-.39,1.48-.33.59-.49,1.12-.49,1.58s-.12.86-.35,1.18c-.23.33-.69.58-1.38.74-.69.16-1.86.18-3.5.05-1.78,0-3.62-.03-5.53-.1-1.65-.06-3.47-.11-5.48-.15-2.01-.03-3.96-.05-5.87-.05-3.03-.26-5.58-.33-7.65-.2-2.07.13-3.27.2-3.6.2-.26,0-.53-.06-.79-.2-.2-.13-.38-.26-.54-.39-.17-.13-.25-.36-.25-.69.13-.2.06-.39-.2-.59-.26-.2-.53-.3-.79-.3-.13,0-.26-.23-.4-.69-.13-.46-.1-1.02.1-1.68.2-.26.3-.53.3-.79v-.79c0-.2.08-.35.25-.45.16-.1.25-.38.25-.84.59-2.24,1.2-4.88,1.83-7.94.62-3.06,1.27-6.3,1.92-9.72.53-2.24,1.07-4.54,1.63-6.91.56-2.37,1.07-4.77,1.53-7.2.39-2.24.77-4.5,1.13-6.81.36-2.3.8-4.47,1.33-6.51.26-2.24.53-4.29.79-6.17.26-1.87.53-3.47.79-4.79.26-1.31.56-2.32.89-3.01.33-.69.69-1,1.09-.94Z" style="fill:#fb9f2c;"/><path d="m358.91,44.65c2.7.53,4.85,1.43,6.46,2.71,1.61,1.28,2.8,2.83,3.55,4.64.76,1.81,1.13,3.8,1.13,5.97s-.26,4.42-.79,6.76c-.53,2.34-1.25,4.65-2.17,6.96-.92,2.3-1.94,4.47-3.06,6.51-1.12,2.11-2.3,3.93-3.55,5.48-1.25,1.55-2.4,2.85-3.45,3.9-1.18,1.18-2.4,2.24-3.65,3.16.79,3.75,1.54,7.1,2.27,10.06.26,1.25.53,2.48.79,3.7.26,1.22.51,2.3.74,3.26.23.95.41,1.73.54,2.32.13.59.2.92.2.99.2.2.31.4.35.59.03.2.05.39.05.59.06.26.03.48-.1.64-.13.17-.2.48-.2.94-.26.39-.87.49-1.83.3-.95-.2-1.86-.3-2.71-.3h-7.7c-.72.2-1.22-.13-1.48-.99-.13-.33-.23-.79-.3-1.38-.53-2.5-.99-4.77-1.38-6.81-.33-1.71-.64-3.32-.94-4.83-.3-1.51-.51-2.4-.64-2.66-.07.07-.2.49-.39,1.28-.2.79-.41,1.74-.64,2.86-.23,1.12-.49,2.35-.79,3.7-.3,1.35-.58,2.62-.84,3.8-.26,1.18-.48,2.21-.64,3.06-.16.86-.25,1.38-.25,1.58,0,.39-.33.51-.99.35-.66-.16-2.04-.15-4.14.05h-3.55c-.46.2-1.04.31-1.73.35-.69.03-1.33.05-1.92.05-.33,0-.63-.13-.89-.39-.13-.13-.23-.26-.3-.39,0-.2.13-.89.39-2.07.26-1.18.61-2.78,1.04-4.79.43-2.01.94-4.33,1.53-6.96.59-2.63,1.18-5.46,1.78-8.49.79-3.88,1.43-7.86,1.92-11.94.49-4.08,1.1-7.96,1.83-11.64,1.18-5.46,2.07-10.02,2.66-13.67.59-3.65.85-5.71.79-6.17.2-.79.56-1.27,1.09-1.43.53-.16.99-.31,1.38-.44.06-.13.3-.23.69-.3.39-.06.85-.11,1.38-.15.53-.03,1.07-.05,1.63-.05h1.43c.79.13,1.46.17,2.02.1.56-.06,1.13-.15,1.73-.25.59-.1,1.28-.18,2.07-.25.79-.06,1.84-.06,3.16,0,.59-.2,1.27-.31,2.02-.35.76-.03,1.46-.05,2.12-.05.72,0,1.48.03,2.27.1Zm-8.29,31.97c1.18-2.24,2.27-4.69,3.26-7.35s1.63-5.28,1.92-7.84c.3-2.57.16-5-.39-7.3-.56-2.3-1.79-4.27-3.7-5.92.06.26-.17.4-.69.4-.26-.2-.46-.23-.59-.1-.13.13-.2.26-.2.39-.53,2.11-1.02,4.28-1.48,6.51-.46,1.91-.92,4.1-1.38,6.56-.46,2.47-.95,4.92-1.48,7.35-.46,2.11-.87,4.14-1.23,6.12-.36,1.97-.68,3.73-.94,5.28-.26,1.55-.46,2.85-.59,3.9-.13,1.05-.2,1.71-.2,1.97.85-.79,1.71-1.71,2.57-2.76.72-.92,1.54-1.97,2.47-3.16.92-1.18,1.81-2.53,2.66-4.05Z" style="fill:#fb9f2c;"/><path d="m462.02,110.46c-.33.86-.59,1.53-.79,2.02-.2.49-.38.87-.54,1.13-.17.26-.34.43-.54.49-.2.07-.46.1-.79.1-.59-.13-1.35-.18-2.27-.15-.92.03-1.81.05-2.66.05-.99.07-2.01.1-3.06.1-.59,0-1.45-.02-2.57-.05-1.12-.03-2.32-.07-3.6-.1-1.28-.03-2.52-.03-3.7,0-1.18.03-2.11.08-2.76.15-.26,0-.63-.03-1.08-.1-.46-.07-.89-.25-1.28-.54-.39-.3-.71-.72-.94-1.28-.23-.56-.21-1.33.05-2.32.06-.46.16-1.28.3-2.47.13-1.18.28-2.58.44-4.19.16-1.61.35-3.37.54-5.28s.39-3.81.59-5.72c.4-4.47.85-9.41,1.38-14.8-.13.07-.36.51-.69,1.33-.33.82-.76,1.89-1.28,3.21-.53,1.32-1.13,2.8-1.83,4.44-.69,1.64-1.43,3.32-2.22,5.03-.92,2.37-1.84,4.75-2.76,7.15-.92,2.4-1.78,4.59-2.57,6.56-.79,1.97-1.46,3.63-2.02,4.98-.56,1.35-.9,2.19-1.04,2.52-.33,1.51-2.96,2.01-7.89,1.48h-5.13c-.59-.13-1.38-.18-2.37-.15-.99.03-1.97.05-2.96.05-1.18.07-2.4.1-3.65.1-1.05,0-1.51-.87-1.38-2.62.13-1.74.56-4.57,1.28-8.49.72-3.91,1.59-8.98,2.61-15.2,1.02-6.22,1.92-13.8,2.71-22.74.06-.46.21-1.56.44-3.31.23-1.74.48-3.67.74-5.77.26-2.1.53-4.13.79-6.07.26-1.94.49-3.31.69-4.09l.49-.49c-.07-.33.08-.58.44-.74.36-.16.67-.11.94.15h4.24c.39-.26.97-.33,1.73-.2.76.13,1.27.2,1.53.2.33.33.69.53,1.09.59.39.07.82.23,1.28.49.26.2.41.33.44.39.03.07.11.23.25.49v.4c0,.39.03.72.1.99-.13.59-.31,1.48-.54,2.66-.23,1.18-.46,2.58-.69,4.19-.23,1.61-.46,3.4-.69,5.38-.23,1.97-.38,4.01-.44,6.12-.33,3.55-.68,7.12-1.04,10.71-.36,3.59-.71,6.79-1.04,9.62-.33,2.83-.59,5.08-.79,6.76s-.23,2.39-.1,2.12c.13-.2.53-1.04,1.18-2.52.66-1.48,1.45-3.35,2.37-5.62.92-2.27,1.94-4.8,3.06-7.6,1.12-2.8,2.27-5.64,3.45-8.54,1.18-2.89,2.32-5.74,3.4-8.54,1.09-2.8,2.07-5.28,2.96-7.45.89-2.17,1.59-3.91,2.12-5.23.53-1.31.82-2.01.89-2.07.2-.39.71-.56,1.53-.49.82.07,1.36.1,1.63.1.53-.2,1.18-.31,1.97-.35.79-.03,1.54-.05,2.27-.05.46,0,1.07.02,1.83.05.76.03,1.51.07,2.27.1.76.03,1.45.05,2.07.05s1.07-.06,1.33-.2c.26,0,.58.25.94.74.36.49.44,1,.25,1.53.06.13.1.82.1,2.07s-.07,2.78-.2,4.59c-.13,1.81-.28,3.77-.44,5.87-.17,2.11-.33,4.09-.49,5.97-.17,1.87-.31,3.49-.44,4.83-.13,1.35-.23,2.19-.3,2.52v1.58c0,.79-.03,1.76-.1,2.91-.07,1.15-.12,2.4-.15,3.75-.03,1.35-.08,2.71-.15,4.09-.2,3.22-.36,6.84-.49,10.85.06-.13.23-.62.49-1.48.26-.85.59-1.96.99-3.31.39-1.35.87-2.93,1.43-4.74.56-1.81,1.17-3.7,1.83-5.67.92-3.62,1.96-7.45,3.11-11.5,1.15-4.05,2.27-7.81,3.36-11.3,1.08-3.49,2.01-6.43,2.76-8.83.75-2.4,1.2-3.77,1.33-4.1.13-.92.34-1.41.64-1.48.3-.06.8-.2,1.53-.39h6.61c.92-.13,1.64-.1,2.17.1.53.2.92.43,1.18.69.26.26.43.63.49,1.09-.2,1.78-.68,4.13-1.43,7.06-.76,2.93-1.63,6.17-2.62,9.72-.99,3.55-2.02,7.29-3.11,11.2-1.09,3.91-2.06,7.75-2.91,11.5-.72,2.9-1.46,5.61-2.22,8.14-.76,2.53-1.43,4.82-2.02,6.86-.59,2.04-1.07,3.77-1.43,5.18-.36,1.42-.51,2.42-.44,3.01Z" style="fill:#f63a76;"/><path d="m514.91,48.79c.53.26.72.46.59.59-.07.07-.2.13-.4.2-.07.07-.13.1-.2.1-.13.13-.2.23-.2.3.53.39.71.84.54,1.33-.17.49-.31.9-.44,1.23-.33.99-.44,1.63-.34,1.92.1.3-.05.77-.44,1.43,0,.39-.2.66-.59.79-.2.07-.36.1-.49.1.06.2.2,1.28.39,3.26.2,1.97.43,4.44.69,7.4.26,2.96.53,6.23.79,9.82.26,3.59.49,7.12.69,10.61.13,3.09.21,6.09.25,8.98.03,2.9.02,5.44-.05,7.65-.07,2.2-.15,4-.25,5.38s-.18,2.11-.25,2.17c-.07,1.32-.2,2.09-.39,2.32-.2.23-.36.34-.49.34-.2,0-.61-.05-1.23-.15-.63-.1-1.04-.05-1.23.15-.13,0-.35-.02-.64-.05s-.97-.15-2.02-.34c-.66-.07-1.37-.08-2.12-.05-.76.03-1.46.08-2.12.15-.79.06-1.58.16-2.37.3-.59,0-.94-.05-1.04-.15-.1-.1-.21-.41-.34-.94-.33-.39-.51-.71-.54-.94-.03-.23-.08-.44-.15-.64v-.49c0-.2.07-.56.2-1.09-.07-.06-.1-.23-.1-.49v-2.07c-1.12,0-2.27-.03-3.45-.1-.99-.06-2.11-.11-3.35-.15-1.25-.03-2.43-.05-3.55-.05-.92-.13-1.69-.18-2.32-.15-.63.04-1.17.05-1.63.05-.53.07-.99.1-1.38.1s-.64.15-.74.44-.31,1-.64,2.12c-.2.59-.36,1.12-.49,1.58-.13.46-.26.86-.39,1.18-.13.39-.23.76-.3,1.09-.33.33-.69.39-1.09.2-.39-.2-1.15-.39-2.27-.59-1.12,0-2.04-.06-2.76-.2-.72-.13-1.74-.2-3.06-.2-.53-.13-1.07-.2-1.63-.2s-1.04-.03-1.43-.1c-.53,0-.99-.03-1.38-.1-.33,0-.46-.08-.39-.25.06-.16.06-.35,0-.54-.2-.2-.3-.53-.3-.99,0-.2.03-.39.1-.59,0-.06.28-1.1.84-3.11.56-2.01,1.32-4.59,2.27-7.75.95-3.16,2.01-6.71,3.16-10.66,1.15-3.95,2.32-7.96,3.5-12.04,1.05-3.62,2.06-7.15,3.01-10.61.95-3.45,1.79-6.56,2.52-9.32.72-2.76,1.3-5.05,1.73-6.86.43-1.81.64-2.91.64-3.31.26-.92.53-1.38.79-1.38h3.85c-.07-.06-.03-.16.1-.3.07,0,.13-.03.2-.1,1.12-.2,2.38-.31,3.8-.35,1.41-.03,2.78-.05,4.1-.05.92-.13,1.84-.13,2.76,0,.92.13,2.04.33,3.35.59.33.07.62.1.89.1s1.02.13,2.27.39c.72.2,1.41.35,2.07.44.66.1,1.25.18,1.78.25.59.07,1.15.1,1.68.1.33,0,.49.13.49.39,0,.13-.03.23-.1.3l-.2.49c.33.13.53.23.59.3.06.07.13.1.2.1,0,.07.03.13.1.2.06.07.11.13.15.2.03.07.11.17.25.3Zm-15.69,45.49c-.13-4.54-.28-8.5-.44-11.89-.17-3.39-.36-6.38-.59-8.98-.23-2.6-.51-4.88-.84-6.86-.33-1.97-.69-3.85-1.08-5.62-.07-.13-.1,0-.1.39,0,.2-.03.43-.1.69-.4,1.71-.86,3.45-1.38,5.23-.46,1.51-.97,3.26-1.53,5.23-.56,1.97-1.13,3.95-1.73,5.92-.53,2.04-1.07,3.98-1.63,5.82-.56,1.84-1.07,3.49-1.53,4.93-.53,1.71-1.05,3.29-1.58,4.74h.39c1.38.13,2.76.23,4.14.29,1.18.13,2.48.21,3.9.25,1.41.03,2.71.12,3.9.25.26.2.33.07.2-.39Z" style="fill:#f63a76;"/><path d="m560.1,45.34c1.58.86,2.78,2.06,3.6,3.6.82,1.55,1.38,3.32,1.68,5.33.3,2.01.38,4.18.25,6.51-.13,2.34-.33,4.72-.59,7.15-.33,3.95-.94,8.17-1.83,12.68-.89,4.51-2.17,8.83-3.85,12.98-1.68,4.14-3.8,7.94-6.37,11.4-2.57,3.45-5.62,6.1-9.18,7.94-.79.39-1.76.71-2.91.94-1.15.23-2.3.39-3.45.49-1.15.1-2.2.15-3.16.15h-1.92c-.2.13-.46.21-.79.25-.33.03-.56.05-.69.05-.86,0-1.63-.18-2.32-.54-.69-.36-1.27-.8-1.73-1.33-2.3-1.78-3.92-4.19-4.83-7.25-.92-3.06-1.35-6.43-1.28-10.11.06-3.68.54-7.53,1.43-11.54.89-4.01,2.02-7.86,3.4-11.55.85-3.02,1.96-5.97,3.31-8.83,1.35-2.86,2.81-5.48,4.39-7.84,1.58-2.37,3.21-4.41,4.88-6.12,1.68-1.71,3.27-2.89,4.79-3.55h.69c.39,0,.99-.08,1.78-.25.79-.16,1.54-.35,2.27-.54.79,0,1.53-.02,2.22-.05.69-.03,1.3-.11,1.83-.25h1.88c.59,0,1.1-.06,1.53-.2.43-.13.8-.2,1.13-.2,1.18,0,2.07.08,2.66.25.59.17.99.31,1.18.44Zm-23.98,62.26c1.38-1.38,2.73-3.03,4.05-4.93,1.12-1.64,2.32-3.68,3.6-6.12,1.28-2.43,2.45-5.29,3.5-8.58,1.51-4.54,2.76-9.01,3.75-13.42.39-1.84.75-3.78,1.08-5.82.33-2.04.58-4.05.74-6.02.16-1.97.2-3.88.1-5.72-.1-1.84-.38-3.55-.84-5.13-.2.07-.39.17-.59.3-.13.13-.28.23-.44.3-.17.07-.28.13-.35.2-.92.72-2.19,2.14-3.8,4.24-1.61,2.11-3.27,4.69-4.98,7.75-1.71,3.06-3.32,6.45-4.83,10.16-1.51,3.72-2.65,7.5-3.4,11.35-.76,3.85-1,7.63-.74,11.35.26,3.72,1.32,7.09,3.16,10.11Z" style="fill:#f63a76;"/><path d="m610.12,45.73c.53.46.77,1.38.74,2.76-.03,1.38-.2,2.94-.49,4.69-.3,1.74-.63,3.54-.99,5.38-.36,1.84-.61,3.39-.74,4.64-.59,5-1.27,10.16-2.02,15.49-.76,5.33-1.76,10.31-3.01,14.95-1.25,4.64-2.83,8.63-4.74,11.99-1.91,3.35-4.28,5.53-7.1,6.51-1.05.99-3.16,1.48-6.32,1.48h-1.18c-.33.2-.92.31-1.78.35-.86.03-1.58.05-2.17.05h.89c-1.18,0-2.3-.26-3.35-.79-1.05-.53-2.02-1.2-2.91-2.02-.89-.82-1.66-1.76-2.32-2.81-.66-1.05-1.18-2.14-1.58-3.26-1.25-2.89-2.07-6.2-2.47-9.92-.39-3.72-.53-7.53-.39-11.45.13-3.91.46-7.78.99-11.59.53-3.81,1.1-7.28,1.73-10.41.62-3.12,1.22-5.74,1.78-7.84.56-2.1.94-3.42,1.13-3.95.4-1.31.87-2.24,1.43-2.76.56-.53,1.22-.87,1.97-1.04.76-.16,1.59-.26,2.52-.3.92-.03,1.94-.21,3.06-.54h.79c.2-.2.4-.31.59-.35.2-.03.49-.05.89-.05s.76.08,1.09.25c.33.17.49.35.49.54.39.53.59,1.13.59,1.83s-.2,1.63-.59,2.81c-2.63,9.74-4.31,17.96-5.03,24.67-.72,6.71-.96,12.24-.69,16.58.26,4.34.8,7.65,1.63,9.92.82,2.27,1.53,3.83,2.12,4.69,1.32-1.18,2.48-2.83,3.5-4.93,1.02-2.11,1.92-4.51,2.71-7.2.79-2.7,1.48-5.59,2.07-8.68.59-3.09,1.1-6.17,1.53-9.23.43-3.06.81-6.03,1.13-8.93.33-2.89.62-5.53.89-7.89.13-2.76.3-5.11.49-7.06.2-1.94.39-3.5.59-4.69.2-1.12.85-1.78,1.97-1.97,1.12-.2,2.2-.3,3.26-.3.33,0,.77-.02,1.33-.05.56-.03,1.13-.15,1.73-.35.33,0,.67-.06,1.04-.2.36-.13.67-.2.94-.2,1.12,0,1.88.4,2.27,1.18Z" style="fill:#f63a76;"/><path d="m609.33,112.53c0-.26.08-1.33.25-3.21.16-1.88.41-4.26.74-7.15.33-2.89.71-6.15,1.13-9.77.43-3.62.9-7.37,1.43-11.25.66-4.01,1.33-7.98,2.02-11.89.69-3.91,1.33-7.42,1.92-10.51.59-3.09,1.09-5.62,1.48-7.6s.66-3.02.79-3.16c-.07-.39.02-.67.25-.84.23-.16.53-.26.89-.3.36-.03.79-.08,1.28-.15.49-.06.97-.2,1.43-.39.13-.2.59-.33,1.38-.39.79-.06,1.64-.16,2.57-.3.59-.13,1.28-.38,2.07-.74.79-.36,1.48-.38,2.07-.05.26.2.51,1.09.74,2.66.23,1.58.43,3.34.59,5.28.16,1.94.31,3.82.44,5.62.13,1.81.23,3.01.3,3.6,0,.33.08.99.25,1.97.16.99.35,2.19.54,3.6.2,1.42.43,2.98.69,4.69.26,1.71.53,3.42.79,5.13.66,4.08,1.38,8.58,2.17,13.52,0-.13.08-.9.25-2.32.16-1.41.44-3.27.84-5.58.33-3.95.82-8.06,1.48-12.33.66-4.28,1.35-8.19,2.07-11.74.79-4.14,1.68-8.22,2.66-12.24.13-.53.43-.74.89-.64.46.1.99.05,1.58-.15.13,0,.44-.03.94-.1.49-.06,1.04-.03,1.63.1.59,0,1.27-.06,2.02-.2.76-.13,1.53-.26,2.32-.39.33,0,.61.08.84.25.23.17.41.31.54.44.13.26.2.49.2.69-.2,1.12-.51,2.32-.94,3.6-.43,1.28-.84,2.88-1.23,4.79-.59,3.03-1.22,6.5-1.87,10.41-.66,3.91-1.3,7.93-1.92,12.04-.63,4.11-1.23,8.19-1.83,12.23-.59,4.05-1.1,7.73-1.53,11.05-.43,3.32-.77,6.1-1.04,8.34-.26,2.24-.39,3.65-.39,4.24-.13.59-.48.97-1.04,1.13-.56.16-1,.25-1.33.25-.33-.07-.89-.08-1.68-.05-.79.03-1.6.05-2.42.05s-1.6-.05-2.32-.15c-.72-.1-1.12-.28-1.18-.54-.07-.33-.39-.48-.99-.44-.59.03-1.05.05-1.38.05-.39,0-.68-.08-.84-.25-.17-.16-.41-.48-.74-.94-.13-.33-.33-1.13-.59-2.42-.26-1.28-.56-2.86-.89-4.74-.33-1.88-.67-3.95-1.04-6.22-.36-2.27-.74-4.55-1.13-6.86-.86-5.46-1.81-11.54-2.86-18.25-.13.46-.36,1.5-.69,3.11-.33,1.61-.69,3.52-1.08,5.72-.4,2.2-.79,4.62-1.18,7.25-.39,2.63-.76,5.17-1.08,7.6-.2,1.84-.35,3.59-.44,5.23s-.2,3.11-.3,4.39c-.1,1.28-.17,2.34-.2,3.16-.03.82-.05,1.3-.05,1.43-.07.13-.13.33-.2.59-.07.26-.15.49-.25.69s-.26.36-.49.49-.54.13-.94,0c-.26.13-.71.23-1.33.3-.63.07-1.27.1-1.92.1-.79.07-1.64.07-2.57,0-.72.13-1.27.13-1.63,0-.36-.13-.61-.33-.74-.59-.2-.26-.26-.59-.2-.99Z" style="fill:#f63a76;"/><path d="m696.46,63.69c.72,3.75,1.05,7.81.99,12.19-.07,4.38-.76,8.8-2.07,13.27-1.12,3.55-2.5,6.92-4.14,10.11-1.65,3.19-3.95,6.37-6.91,9.52-1.78,1.32-3.82,2.5-6.12,3.55-2.3,1.05-4.44,1.71-6.41,1.97-1.58,0-3.06.03-4.44.1-1.18.06-2.37.15-3.55.25-1.18.1-2.07.21-2.66.35-1.18.2-2.27.28-3.26.25-.99-.03-1.65-.25-1.97-.64-.13-.39-.41-.54-.84-.44-.43.1-.77.15-1.04.15-.13,0-.28-.1-.44-.3-.17-.2-.25-.36-.25-.49v-.49c-.2-.13-.25-.3-.15-.49.1-.2.15-.56.15-1.08.06-.07.13-.16.2-.3.13-.26.2-.56.2-.89,0-.13.38-1.71,1.13-4.74.76-3.02,1.86-6.94,3.31-11.74,1.18-3.88,2.27-7.79,3.26-11.74.99-3.95,1.86-7.78,2.62-11.49.76-3.72,1.35-7.25,1.78-10.61.43-3.35.67-6.41.74-9.18.06-.66.16-1.25.3-1.78.13-.46.28-.89.44-1.28.16-.39.35-.59.54-.59.13-.06.66-.11,1.58-.15.92-.03,1.91-.11,2.96-.25,1.18-.06,2.53-.16,4.05-.3,1.12-.06,2.17-.16,3.16-.3.85-.13,1.64-.23,2.37-.3.72-.06,1.25-.1,1.58-.1.39-.06.82-.1,1.28-.1.85,0,1.61.26,2.27.79.39.39.99,1.07,1.78,2.02.79.95,1.64,2.16,2.57,3.6.92,1.45,1.84,3.14,2.76,5.08.92,1.94,1.68,4.13,2.27,6.56Zm-13.42,18.45c.39-1.58.66-3.39.79-5.43.13-2.04.11-4.11-.05-6.22-.17-2.1-.53-4.11-1.08-6.02-.56-1.91-1.33-3.45-2.32-4.64-.13.39-.38,1.35-.74,2.86-.36,1.51-.81,3.4-1.33,5.67-.53,2.27-1.12,4.82-1.78,7.65-.66,2.83-1.32,5.76-1.97,8.78-.72,2.96-1.42,5.84-2.07,8.63-.66,2.8-1.25,5.28-1.78,7.45l-1.78,7.1c1.97-1.05,3.85-2.7,5.62-4.93,1.51-1.91,3.07-4.54,4.69-7.89,1.61-3.35,2.88-7.7,3.8-13.02Z" style="fill:#f63a76;"/><path d="m712.54,47.51c.39-.06.82-.13,1.28-.2.33-.06.71-.13,1.13-.2.43-.06.8-.16,1.13-.3.59-.26,1.73-.49,3.4-.69,1.68-.2,3.65-.35,5.92-.44s4.67-.16,7.2-.2c2.53-.03,4.98-.02,7.35.05,2.37.07,4.49.15,6.37.25,1.87.1,3.27.25,4.19.44.06.13.1.36.1.69s-.05.74-.15,1.23c-.1.49-.21,1.17-.34,2.02-.2.92-.35,1.6-.44,2.02-.1.43-.18.77-.25,1.04-.07.26-.13.48-.2.64-.07.17-.2.38-.39.64-.13,0-.18.12-.15.35.03.23.05.48.05.74s.03.59.1.99v.4c0,.13-.03.26-.1.39-.07.13-.13.26-.2.39-.33,0-.49.13-.49.4-.13.2-.25.36-.35.49-.1.13-.61.21-1.53.25-.92.03-2.42.03-4.49,0-2.07-.03-5.08-.15-9.03-.35h-2.57c-.99,0-1.94.02-2.86.05-.92.03-1.74.07-2.47.1-.72.03-1.12.08-1.18.15,0,.13-.1.84-.3,2.12-.2,1.28-.43,2.68-.69,4.19l-.99,5.92h9.87c1.25.26,2.5.41,3.75.44,1.25.03,1.97.05,2.17.05s.15.07-.15.2c-.3.13-.61.2-.94.2h-1.04c-.49,0-1-.02-1.53-.05-.53-.03-1.02-.06-1.48-.1-.46-.03-.72-.11-.79-.25-.2,0-.28.07-.25.2.03.13.25.2.64.2.26,0,.67.02,1.23.05.56.03,1.12.1,1.68.2.56.1,1.08.2,1.58.3.49.1.84.18,1.04.25.4.13.66.23.79.3.13.07.39.2.79.39.46,0,.72.1.79.3.07.2.1.39.1.59-.2.2-.31.74-.34,1.63-.03.89-.05,1.53-.05,1.92,0,.33-.1.61-.3.84-.2.23-.39.48-.59.74-.2,0-.31.17-.35.49-.03.33-.05.69-.05,1.08s-.15.97-.44,1.73c-.3.76-.94,1.2-1.92,1.33-.39.13-1.09.23-2.07.3-.99.07-2.12.1-3.4.1s-2.6-.01-3.95-.05c-1.35-.03-2.6-.03-3.75,0-1.15.03-2.12.08-2.91.15-.79.07-1.22.2-1.28.39-.13.33-.4,1.3-.79,2.91-.39,1.61-.79,3.31-1.18,5.08-.53,2.17-1.05,4.51-1.58,7.01.06,0,.46.02,1.18.05.72.04,1.56.08,2.52.15.95.07,1.96.12,3.01.15,1.05.03,1.97.05,2.76.05.66.13,1.68.23,3.06.3,1.38.07,2.78.15,4.19.25,1.41.1,2.68.17,3.8.2,1.12.03,1.78.05,1.97.05s.11.23-.25.69c-.36.46-.54.89-.54,1.28,0,.33-.07.99-.2,1.97-.13.99-.33,1.78-.59,2.37-.2.59-.33,1.05-.39,1.38-.07.33-.2.82-.4,1.48-.26.53-.41,1.02-.44,1.48-.03.46-.17.86-.39,1.18-.23.33-.68.58-1.33.74-.66.16-1.78.18-3.35.05-1.84,0-3.68-.03-5.53-.1-1.65-.07-3.42-.11-5.33-.15-1.91-.03-3.82-.05-5.72-.05-2.96-.26-5.46-.33-7.5-.2-2.04.13-3.22.2-3.55.2-.26,0-.53-.06-.79-.2-.46-.2-.69-.56-.69-1.08.13-.2.06-.38-.2-.54-.26-.16-.53-.25-.79-.25-.13,0-.26-.23-.39-.69-.13-.46-.1-1.02.1-1.68.2-.26.3-.53.3-.79v-.79c0-.2.08-.34.25-.44.16-.1.25-.34.25-.74.59-2.17,1.18-4.77,1.78-7.79.59-3.02,1.22-6.22,1.87-9.57.53-2.17,1.07-4.42,1.63-6.76.56-2.33,1.04-4.69,1.43-7.05.39-2.17.77-4.39,1.13-6.66.36-2.27.8-4.39,1.33-6.36.53-4.41,1.04-7.99,1.53-10.76s1.13-4.05,1.92-3.85Zm17.17-16.87c.13-.33.48-.74,1.04-1.23.56-.49,1.17-1.02,1.83-1.58.66-.56,1.3-1.09,1.92-1.58.62-.49,1.1-.9,1.43-1.23.2-.39.46-.41.79-.05.33.36.67.87,1.04,1.53.36.66.69,1.33.99,2.02.3.69.51,1.2.64,1.53.13.46.49.95,1.09,1.48.59.53,1.05,1.05,1.38,1.58.46.53.51.99.15,1.38-.36.39-.71.69-1.04.89-.26.07-.72.41-1.38,1.04-.66.63-1.35,1.32-2.07,2.07-.72.76-1.42,1.51-2.07,2.27-.66.76-1.12,1.33-1.38,1.73-.53.79-.92,1.2-1.18,1.23-.26.03-.46.05-.59.05-.33,0-.66-.4-.99-1.18-.33-.79-.66-1.32-.99-1.58-.46-.13-.86-.71-1.18-1.73-.33-1.02-.89-1.89-1.68-2.61-.46-.39-.71-.8-.74-1.23-.03-.43.03-.82.2-1.18.16-.36.38-.66.64-.89.26-.23.49-.38.69-.44.2-.06.38-.23.54-.49.16-.26.31-.53.44-.79.2-.26.36-.59.49-.99Z" style="fill:#f63a76;"/><path d="m748.26,93.09c0-.2.03-.39.1-.59.13-.39.43-.69.89-.89h2.66c1.84,0,3.4.02,4.69.05,1.28.03,2.62.12,4,.25.85,0,1.25.15,1.18.44-.07.29,0,.54.2.74,0,.13.18.91.54,2.32.36,1.42.84,3.04,1.43,4.88.59,1.84,1.27,3.67,2.02,5.48.76,1.81,1.53,3.14,2.32,4,.2.13.92-.15,2.17-.84,1.25-.69,2.71-1.73,4.39-3.11,1.68-1.38,3.37-3.11,5.08-5.18,1.71-2.07,3.14-4.42,4.29-7.06,1.15-2.63,1.83-5.49,2.02-8.58.2-3.09-.39-6.35-1.78-9.77-.07.07-.13.1-.2.1-.07.07-.15.1-.25.1s-.18.07-.25.2c-.2.13-.91.59-2.12,1.38-1.22.79-2.58,1.65-4.09,2.57-1.51.92-3.01,1.76-4.49,2.52-1.48.76-2.58,1.13-3.31,1.13-.53,0-1.28.07-2.27.2s-2.04.2-3.16.2c-.86-.2-1.68-.31-2.47-.35-.79-.03-1.58-.05-2.37-.05h-5.62c-.46,0-.86-.1-1.18-.3-.66-.2-1.32-.63-1.97-1.28-.79-1.25-1.25-2.48-1.38-3.7-.13-1.22.16-2.6.89-4.14.72-1.54,1.92-3.39,3.6-5.53,1.68-2.14,3.93-4.75,6.76-7.84.99-1.05,2.4-2.4,4.24-4.05,1.84-1.64,3.65-3.26,5.43-4.83,2.1-1.84,4.34-3.75,6.71-5.72.2-.2.46-.4.79-.59.33-.13.74-.26,1.23-.39.49-.13,1.17-.2,2.02-.2h10.75c1.18,0,2.4.44,3.65,1.33,1.25.89,2.27,1.92,3.06,3.11.13.72.21,1.48.25,2.27s.05,1.48.05,2.07c0,1.38-.18,2.76-.54,4.14-.36,1.38-.79,2.61-1.28,3.7s-.96,2.01-1.38,2.76c-.43.76-.67,1.17-.74,1.23-.07,0-.13.03-.2.1-.07.07-.1.3-.1.69,0,.2-.07.3-.2.3s-.2-.1-.2-.3c-.26-.39-.54-.48-.84-.25-.3.23-.44.44-.44.64h-.79c-.13,0-.3.08-.49.25-.2.17-.43.25-.69.25-.2,0-.46.05-.79.15s-.59.05-.79-.15c-.39-.26-1.05-.51-1.97-.74-.92-.23-1.88-.15-2.86.25-.53.26-1.02.3-1.48.1-.46-.2-.89-.49-1.28-.89-.33-.2-.51-.71-.54-1.53-.03-.82.02-1.5.15-2.02.59-.99,1.1-1.88,1.53-2.66.43-.79.74-1.88.94-3.26,0-.2-.41-.02-1.23.54-.82.56-1.88,1.37-3.16,2.42-1.28,1.05-2.71,2.32-4.29,3.8-1.58,1.48-3.08,3.01-4.49,4.59-1.42,1.58-2.7,3.19-3.85,4.83-1.15,1.65-1.96,3.16-2.42,4.54l.69-.39c.06-.13.59-.56,1.58-1.28.99-.72,2.19-1.5,3.6-2.32,1.41-.82,2.99-1.56,4.74-2.22,1.74-.66,3.47-.99,5.18-.99,3.62.2,6.51.36,8.68.49,2.17.13,3.95.49,5.33,1.08,2.17.79,3.88,2.35,5.13,4.69,1.25,2.34,1.78,5.81,1.58,10.41-.2,2.57-.84,5.3-1.92,8.19-1.09,2.9-2.63,5.66-4.64,8.29-2.01,2.63-4.46,5-7.35,7.1-2.9,2.11-6.22,3.65-9.97,4.64-.59.26-1.32.43-2.17.49-.79.13-1.79.16-3.01.1-1.22-.07-2.78-.26-4.69-.59-.53-.13-1.15-.21-1.88-.25-.72-.03-1.45-.08-2.17-.15-.79-.06-1.61-.1-2.47-.1-1.58-.07-3.12-.82-4.64-2.27-1.32-1.25-2.66-3.31-4.04-6.17-1.38-2.86-2.6-7.05-3.65-12.58Z" style="fill:#f63a76;"/><path d="m192.83,27.74c-.64-.57-1.13-1.33-1.45-2.28-.32-.95-.48-1.97-.48-3.05h.81c0,1.24.17,2.24.52,3.02.35.77.79,1.37,1.31,1.8.53.43,1.1.71,1.72.85.62.14,1.2.21,1.74.21.67,0,1.33-.1,1.99-.29.66-.19,1.25-.5,1.78-.93.53-.43.95-.99,1.28-1.68.32-.7.48-1.55.48-2.55,0-1.16-.17-2.17-.5-3.04-.33-.86-.78-1.63-1.33-2.3-.55-.67-1.18-1.27-1.88-1.8-.7-.53-1.41-1.05-2.13-1.57-.7-.49-1.36-.97-1.99-1.45-.63-.48-1.21-1.01-1.72-1.6-1.13-1.37-1.7-2.89-1.7-4.56v-.6c0-.32.04-.7.13-1.14.09-.44.23-.91.43-1.43.2-.52.52-.99.95-1.43,1.01-1.08,2.41-1.62,4.21-1.62s3.21.54,4.14,1.62c.39.46.66.97.83,1.53.17.55.28,1.08.33,1.59.05.5.07.93.06,1.28-.01.35-.02.54-.02.56h-.81c.03-.62.01-1.16-.04-1.62-.05-.46-.15-.95-.29-1.45-.14-.5-.38-.95-.72-1.33-.39-.44-.86-.77-1.43-1.01-.57-.23-1.25-.35-2.05-.35-1.57,0-2.77.45-3.6,1.35-.36.39-.63.81-.81,1.28-.18.46-.31.9-.39,1.3-.08.4-.12.88-.12,1.45,0,.85.14,1.6.43,2.26.28.66.66,1.26,1.13,1.82.47.55,1,1.06,1.61,1.53s1.23.93,1.88,1.39c.75.52,1.49,1.06,2.21,1.62.72.57,1.38,1.21,1.98,1.93,1.35,1.65,2.02,3.58,2.02,5.8,0,2.09-.7,3.71-2.09,4.87-1.13.93-2.55,1.39-4.25,1.39-.59,0-1.27-.08-2.03-.25-.76-.17-1.48-.53-2.15-1.1Z" style="fill:#fff;"/><path d="m197,29.35c-.61,0-1.31-.09-2.08-.26-.8-.18-1.56-.56-2.25-1.16h0c-.67-.6-1.19-1.4-1.52-2.39-.33-.97-.5-2.03-.5-3.13v-.25h1.31v.25c0,1.2.17,2.18.5,2.91.33.73.75,1.31,1.24,1.71.5.4,1.04.67,1.62.8,1.33.31,2.46.26,3.61-.07.62-.18,1.19-.48,1.69-.88.5-.4.9-.93,1.21-1.59.31-.66.46-1.48.46-2.45,0-1.12-.16-2.11-.49-2.95-.32-.83-.76-1.58-1.29-2.23-.54-.65-1.16-1.25-1.83-1.76-.69-.53-1.4-1.05-2.12-1.56-.69-.49-1.37-.98-2-1.45-.64-.49-1.24-1.04-1.76-1.64-1.17-1.41-1.76-3-1.76-4.73v-.6c0-.34.04-.74.13-1.19.09-.45.23-.94.44-1.47.21-.55.55-1.06,1.01-1.52,1.04-1.12,2.52-1.7,4.39-1.7s3.35.58,4.33,1.71c.41.49.7,1.03.88,1.62.17.57.28,1.12.34,1.63.05.51.07.95.06,1.31-.01.34-.02.52-.02.55v.25s-1.32,0-1.32,0v-.26c.04-.6.02-1.14-.03-1.59-.05-.45-.15-.92-.28-1.41-.13-.46-.35-.88-.66-1.24-.36-.41-.81-.72-1.34-.94-.53-.22-1.19-.33-1.95-.33-1.49,0-2.64.43-3.41,1.27-.34.36-.6.77-.76,1.2-.17.45-.3.87-.37,1.25-.07.38-.11.86-.11,1.4,0,.81.14,1.54.41,2.16.27.63.64,1.22,1.09,1.76.45.54.98,1.04,1.57,1.49.61.46,1.23.93,1.88,1.39.75.51,1.5,1.06,2.22,1.63.73.58,1.41,1.24,2.02,1.97,1.38,1.69,2.07,3.69,2.07,5.96s-.73,3.86-2.18,5.06c-1.18.96-2.66,1.45-4.41,1.45Zm-4.01-1.79c.63.54,1.32.89,2.04,1.05.74.16,1.4.25,1.98.25,1.63,0,3.01-.45,4.1-1.34,1.32-1.1,2-2.68,2-4.68,0-2.15-.66-4.05-1.96-5.64-.58-.7-1.23-1.34-1.94-1.9-.72-.56-1.46-1.1-2.2-1.61-.65-.47-1.28-.93-1.89-1.4-.62-.47-1.18-1-1.65-1.57-.48-.57-.87-1.2-1.16-1.88-.3-.69-.45-1.48-.45-2.36,0-.58.04-1.08.12-1.5.08-.41.21-.86.4-1.34.19-.49.48-.95.86-1.36.87-.95,2.14-1.43,3.78-1.43.83,0,1.55.12,2.14.37.6.25,1.11.61,1.52,1.07.36.42.62.9.77,1.43.14.51.24,1.01.3,1.49.04.41.06.88.05,1.4h.31c0-.09,0-.19.01-.32.01-.34,0-.75-.06-1.24-.05-.48-.16-1-.32-1.54-.16-.52-.42-1-.78-1.44-.87-1.02-2.2-1.53-3.95-1.53s-3.08.52-4.03,1.54c-.42.42-.72.87-.9,1.35-.19.5-.33.97-.41,1.39-.08.42-.12.79-.12,1.09v.6c0,1.61.55,3.09,1.64,4.4.5.57,1.06,1.1,1.68,1.56.63.47,1.29.96,1.98,1.44.73.52,1.44,1.04,2.13,1.57.71.54,1.35,1.15,1.92,1.84.57.69,1.03,1.49,1.37,2.37.35.89.52,1.94.52,3.13,0,1.04-.17,1.93-.51,2.66-.34.73-.79,1.32-1.35,1.77-.55.44-1.18.77-1.86.97-1.23.36-2.44.41-3.86.08-.65-.15-1.27-.45-1.82-.9-.56-.45-1.02-1.08-1.39-1.89-.34-.75-.52-1.71-.54-2.87h-.31c.02.96.18,1.88.47,2.72.31.91.77,1.64,1.38,2.17Z" style="fill:#f7f7f7;"/><path d="m220.74,28.01v.73h-10.9V.64h10.75v.73h-9.94v14.62h7.77v.73h-7.77v11.29h10.09Z" style="fill:#fff;"/><path d="m220.99,29h-11.4V.39h11.25v1.23h-9.94v14.12h7.77v1.23h-7.77v10.79h10.09v1.23Zm-10.9-.5h10.4v-.23h-10.09v-11.79h7.77v-.23h-7.77V1.12h9.94v-.23h-10.25v27.61Z" style="fill:#f7f7f7;"/><path d="m228.83,28.75V.64h.81v27.38h10.36v.73h-11.18Z" style="fill:#fff;"/><path d="m240.25,29h-11.68V.39h1.31v27.38h10.36v1.23Zm-11.18-.5h10.68v-.23h-10.36V.89h-.31v27.61Z" style="fill:#f7f7f7;"/><path d="m256.78,2.65c.95,1.42,1.42,3,1.39,4.76,0,.83-.1,1.59-.29,2.3s-.45,1.34-.77,1.89c-.32.55-.69,1.01-1.1,1.37-.41.36-.85.62-1.31.77.54.08,1.13.3,1.76.66.63.36,1.13.8,1.49,1.31.52.75.9,1.58,1.16,2.49.26.92.39,1.88.39,2.88,0,1.68-.24,3.02-.72,4.02s-1.07,1.78-1.78,2.32c-.71.54-1.48.9-2.32,1.08-.84.18-1.64.27-2.42.27h-4.45V.6h4.87c1.11,0,1.96.18,2.55.54.59.36,1.11.86,1.55,1.51Zm-8.16,10.75h4.37c.64,0,1.24-.16,1.78-.48.54-.32,1.01-.76,1.39-1.32s.68-1.2.89-1.92c.21-.72.31-1.49.31-2.29s-.11-1.56-.33-2.29c-.22-.72-.52-1.36-.91-1.9-.39-.54-.84-.98-1.35-1.3-.52-.32-1.08-.49-1.7-.49h-4.45v11.99Zm3.63,14.58c1.26,0,2.31-.19,3.15-.56.84-.37,1.5-.88,1.99-1.51.49-.63.83-1.37,1.02-2.2.19-.84.28-1.71.25-2.61-.05-2.37-.59-4.11-1.6-5.22-1.02-1.11-2.62-1.66-4.81-1.66h-3.63v13.77h3.63Z" style="fill:#fff;"/><path d="m252.26,29.04h-4.7V.35h5.12c1.15,0,2.05.19,2.68.58.62.38,1.17.91,1.62,1.58h0c.98,1.46,1.46,3.1,1.43,4.9,0,.84-.1,1.64-.3,2.36-.2.72-.47,1.38-.8,1.95-.33.58-.72,1.06-1.15,1.44-.23.2-.47.37-.72.51.36.12.73.29,1.12.51.66.38,1.19.85,1.57,1.39.53.77.93,1.63,1.2,2.57.26.93.4,1.93.4,2.95,0,1.71-.25,3.1-.74,4.13-.49,1.04-1.12,1.85-1.85,2.41-.74.56-1.55.94-2.42,1.13-.85.18-1.68.28-2.47.28Zm-4.2-.5h4.2c.75,0,1.55-.09,2.36-.27.8-.17,1.54-.52,2.22-1.04.67-.51,1.25-1.26,1.7-2.23.46-.97.69-2.28.69-3.92,0-.98-.13-1.92-.38-2.81-.25-.88-.63-1.7-1.12-2.42-.34-.48-.81-.9-1.41-1.24-.6-.34-1.16-.55-1.67-.63l-1.05-.15,1.01-.33c.43-.14.84-.39,1.23-.72.39-.34.74-.78,1.05-1.31.31-.53.56-1.15.75-1.83.19-.68.28-1.44.28-2.23.02-1.7-.43-3.25-1.35-4.62-.42-.61-.91-1.09-1.47-1.44-.55-.33-1.37-.5-2.42-.5h-4.62v27.69Zm4.2-.31h-3.88v-14.27h3.88c2.25,0,3.93.59,5,1.74,1.06,1.15,1.62,2.96,1.67,5.38.03.92-.06,1.82-.26,2.67-.2.87-.56,1.64-1.07,2.3-.51.66-1.22,1.19-2.09,1.58-.87.39-1.96.58-3.25.58Zm-3.38-.5h3.38c1.22,0,2.25-.18,3.05-.54.8-.35,1.43-.84,1.9-1.43.47-.6.79-1.31.98-2.11.19-.81.27-1.67.24-2.55-.05-2.3-.57-4-1.54-5.06-.97-1.05-2.52-1.58-4.63-1.58h-3.38v13.27Zm4.12-14.08h-4.62V1.16h4.7c.66,0,1.28.18,1.83.52.54.34,1.02.8,1.42,1.37.4.56.72,1.23.94,1.97.23.75.34,1.54.34,2.36s-.11,1.61-.32,2.36c-.21.75-.52,1.42-.92,2-.41.58-.9,1.05-1.47,1.39-.58.35-1.22.52-1.91.52Zm-4.12-.5h4.12c.6,0,1.15-.15,1.65-.45.51-.3.95-.72,1.31-1.25.37-.53.66-1.15.85-1.85.2-.7.3-1.45.3-2.22s-.11-1.52-.32-2.22c-.21-.7-.5-1.31-.87-1.83-.36-.51-.8-.93-1.28-1.23-.47-.3-1-.45-1.57-.45h-4.2v11.49Z" style="fill:#f7f7f7;"/><path d="m268,27.74c-.64-.57-1.13-1.33-1.45-2.28-.32-.95-.48-1.97-.48-3.05h.81c0,1.24.17,2.24.52,3.02.35.77.79,1.37,1.31,1.8.53.43,1.1.71,1.72.85.62.14,1.2.21,1.74.21.67,0,1.33-.1,1.99-.29.66-.19,1.25-.5,1.78-.93.53-.43.95-.99,1.28-1.68.32-.7.48-1.55.48-2.55,0-1.16-.17-2.17-.5-3.04-.33-.86-.78-1.63-1.33-2.3-.55-.67-1.18-1.27-1.88-1.8-.7-.53-1.41-1.05-2.13-1.57-.7-.49-1.36-.97-1.99-1.45-.63-.48-1.21-1.01-1.72-1.6-1.13-1.37-1.7-2.89-1.7-4.56v-.6c0-.32.04-.7.13-1.14.09-.44.23-.91.43-1.43.2-.52.52-.99.95-1.43,1.01-1.08,2.41-1.62,4.21-1.62s3.21.54,4.14,1.62c.39.46.66.97.83,1.53.17.55.28,1.08.33,1.59.05.5.07.93.06,1.28-.01.35-.02.54-.02.56h-.81c.03-.62.01-1.16-.04-1.62-.05-.46-.15-.95-.29-1.45-.14-.5-.38-.95-.72-1.33-.39-.44-.86-.77-1.43-1.01-.57-.23-1.25-.35-2.05-.35-1.57,0-2.77.45-3.6,1.35-.36.39-.63.81-.81,1.28-.18.46-.31.9-.39,1.3-.08.4-.12.88-.12,1.45,0,.85.14,1.6.43,2.26.28.66.66,1.26,1.13,1.82.47.55,1,1.06,1.61,1.53s1.23.93,1.88,1.39c.75.52,1.49,1.06,2.21,1.62.72.57,1.38,1.21,1.98,1.93,1.35,1.65,2.02,3.58,2.02,5.8,0,2.09-.7,3.71-2.09,4.87-1.13.93-2.55,1.39-4.25,1.39-.59,0-1.27-.08-2.03-.25-.76-.17-1.48-.53-2.15-1.1Z" style="fill:#fff;"/><path d="m272.17,29.35c-.61,0-1.31-.09-2.08-.26-.8-.18-1.56-.56-2.25-1.16h0c-.67-.6-1.19-1.4-1.52-2.39-.33-.97-.5-2.03-.5-3.13v-.25h1.31v.25c0,1.2.17,2.18.5,2.91.33.73.75,1.31,1.24,1.71.5.4,1.04.67,1.62.8,1.33.31,2.46.26,3.61-.07.62-.18,1.19-.48,1.69-.88.5-.4.9-.93,1.21-1.59.31-.66.46-1.48.46-2.45,0-1.12-.16-2.11-.49-2.95-.32-.83-.76-1.58-1.29-2.23-.54-.65-1.16-1.25-1.83-1.76-.69-.53-1.4-1.05-2.12-1.56-.69-.49-1.37-.98-2-1.45-.64-.49-1.24-1.04-1.76-1.64-1.17-1.41-1.76-3-1.76-4.73v-.6c0-.34.04-.74.13-1.19.09-.45.23-.94.44-1.47.21-.55.55-1.06,1.01-1.52,1.04-1.12,2.52-1.7,4.39-1.7s3.35.58,4.33,1.71c.41.49.7,1.03.88,1.62.17.57.28,1.12.34,1.63.05.51.07.95.06,1.31-.01.34-.02.52-.02.55v.25s-1.32,0-1.32,0v-.26c.04-.6.02-1.14-.03-1.59-.05-.45-.15-.92-.28-1.41-.13-.46-.35-.88-.66-1.24-.36-.41-.81-.72-1.34-.94-.53-.22-1.19-.33-1.95-.33-1.49,0-2.64.43-3.41,1.27-.34.36-.6.77-.76,1.2-.17.45-.3.87-.37,1.25-.07.38-.11.86-.11,1.4,0,.81.14,1.54.41,2.16.27.63.64,1.22,1.09,1.76.45.54.98,1.04,1.57,1.49.61.46,1.23.93,1.88,1.39.75.51,1.5,1.06,2.22,1.63.73.58,1.41,1.24,2.02,1.97,1.38,1.69,2.07,3.69,2.07,5.96s-.73,3.86-2.18,5.06c-1.18.96-2.66,1.45-4.41,1.45Zm-4.01-1.79c.63.54,1.32.89,2.04,1.05.74.16,1.4.25,1.98.25,1.63,0,3.01-.45,4.1-1.34,1.32-1.1,2-2.68,2-4.68,0-2.15-.66-4.05-1.96-5.64-.58-.7-1.23-1.34-1.94-1.9-.72-.56-1.46-1.1-2.2-1.61-.65-.47-1.28-.93-1.89-1.4-.62-.47-1.18-1-1.65-1.57-.48-.57-.87-1.2-1.16-1.88-.3-.69-.45-1.48-.45-2.36,0-.58.04-1.08.12-1.5.08-.41.21-.86.4-1.34.19-.49.48-.95.86-1.36.87-.95,2.14-1.43,3.78-1.43.83,0,1.55.12,2.14.37.6.25,1.11.61,1.52,1.07.36.42.62.9.77,1.43.14.51.24,1.01.3,1.49.04.41.06.88.05,1.4h.31c0-.09,0-.19.01-.32.01-.34,0-.75-.06-1.24-.05-.48-.16-1-.32-1.54-.16-.52-.42-1-.78-1.44-.87-1.02-2.2-1.53-3.95-1.53s-3.08.52-4.03,1.54c-.42.42-.72.87-.9,1.35-.19.5-.33.97-.41,1.39-.08.42-.12.79-.12,1.09v.6c0,1.61.55,3.09,1.64,4.4.5.57,1.06,1.1,1.68,1.56.63.47,1.29.96,1.98,1.44.73.52,1.44,1.04,2.13,1.57.71.54,1.35,1.15,1.92,1.84.57.69,1.03,1.49,1.37,2.37.35.89.52,1.94.52,3.13,0,1.04-.17,1.93-.51,2.66-.34.73-.79,1.32-1.35,1.77-.55.44-1.18.77-1.86.97-1.23.36-2.44.41-3.86.08-.65-.15-1.27-.45-1.82-.9-.56-.45-1.02-1.08-1.39-1.89-.34-.75-.52-1.71-.54-2.87h-.31c.02.96.18,1.88.47,2.72.31.91.77,1.64,1.38,2.17Z" style="fill:#f7f7f7;"/><path d="m289.19,1.41h-6.42v-.73h13.53v.77l.04-.04h-6.34v27.34h-.81V1.41Z" style="fill:#fff;"/><path d="m290.25,29h-1.31V1.66h-6.42V.42h14.03v.73h.39l-.85.85-.02-.35h-5.82v27.34Zm-.81-.5h.31V1.16h6.3v-.23h-13.03v.23h6.42v27.34Z" style="fill:#f7f7f7;"/><path d="m314.28.64v28.11h-.81v-12.03h-10.6v12.03h-.81V.64h.81v15.35h10.6V.64h.81Z" style="fill:#fff;"/><path d="m314.53,29h-1.31v-12.03h-10.1v12.03h-1.31V.39h1.31v15.35h10.1V.39h1.31v28.61Zm-.81-.5h.31V.89h-.31v15.35h-11.1V.89h-.31v27.61h.31v-12.03h11.1v12.03Z" style="fill:#f7f7f7;"/><path d="m322.6,28.75V.64h.81v28.11h-.81Z" style="fill:#fff;"/><path d="m323.66,29h-1.31V.39h1.31v28.61Zm-.81-.5h.31V.89h-.31v27.61Z" style="fill:#f7f7f7;"/><path d="m332.3,28.75V.64h.81v27.38h10.36v.73h-11.18Z" style="fill:#fff;"/><path d="m343.73,29h-11.68V.39h1.31v27.38h10.36v1.23Zm-11.18-.5h10.68v-.23h-10.36V.89h-.31v27.61Z" style="fill:#f7f7f7;"/><path d="m362.54.64v.73h-10.21v14.58h8v.81l-7.97-.04-.04,12.03h-.81V.64h11.02Z" style="fill:#fff;"/><path d="m352.58,29h-1.31V.39h11.52v1.23h-10.21v14.08h8v1.31l-7.97-.04-.04,12.02Zm-.81-.5h.31l.04-12.03,7.96.04v-.31h-8V1.12h10.21v-.23h-10.52v27.61Z" style="fill:#f7f7f7;"/><path d="m380.72,28.01v.73h-10.9V.64h10.75v.73h-9.94v14.62h7.77v.73h-7.77v11.29h10.09Z" style="fill:#fff;"/><path d="m380.97,29h-11.4V.39h11.25v1.23h-9.94v14.12h7.77v1.23h-7.77v10.79h10.09v1.23Zm-10.9-.5h10.4v-.23h-10.09v-11.79h7.77v-.23h-7.77V1.12h9.94v-.23h-10.25v27.61Z" style="fill:#f7f7f7;"/><path d="m394.13,16.45v-.81l5.07.04v6.98c0,.08,0,.29-.02.62-.01.34-.06.74-.15,1.2s-.25.97-.48,1.51c-.23.54-.55,1.05-.97,1.51-1.01,1.09-2.38,1.63-4.14,1.63s-3.13-.53-4.06-1.59c-.46-.49-.81-1.02-1.02-1.59-.22-.57-.37-1.1-.44-1.6-.08-.5-.11-.93-.1-1.3.01-.36.02-.58.02-.66V6.51c0-2.06.62-3.67,1.86-4.83.49-.44,1.06-.79,1.72-1.04s1.33-.39,2.03-.39c.64,0,1.3.12,1.95.37s1.26.65,1.8,1.2c.54.55.98,1.25,1.31,2.09.33.84.5,1.84.5,3h-.81c0-1.01-.14-1.88-.43-2.61-.28-.73-.65-1.34-1.1-1.82-.45-.48-.96-.83-1.53-1.06-.57-.23-1.13-.35-1.7-.35s-1.18.1-1.76.31c-.58.21-1.1.54-1.55.99-.45.45-.81,1.02-1.08,1.7-.27.68-.41,1.49-.41,2.42v15.99c0,.65.03,1.19.1,1.65.06.45.19.94.39,1.45.19.52.48.98.87,1.39.82.9,1.97,1.36,3.44,1.36s2.71-.45,3.56-1.35c.39-.41.68-.86.87-1.35.19-.49.33-.95.41-1.37.08-.43.12-.93.12-1.53v-.04l-.04-6.19-4.22-.04Z" style="fill:#fff;"/><path d="m393.44,29.38c-1.85,0-3.27-.56-4.25-1.67-.48-.5-.84-1.07-1.07-1.66-.22-.58-.38-1.14-.46-1.66-.08-.52-.11-.97-.1-1.34.01-.35.02-.57.02-.65V6.51c0-2.12.65-3.81,1.94-5.02.51-.46,1.12-.83,1.8-1.09,1.32-.52,2.74-.55,4.16-.02.69.26,1.32.68,1.89,1.26.56.57,1.02,1.3,1.37,2.17.35.86.52,1.9.52,3.09v.25h-1.31v-.25c0-.97-.14-1.82-.41-2.52-.27-.7-.62-1.28-1.05-1.74-.42-.45-.91-.79-1.44-1-1.1-.45-2.21-.41-3.28-.03-.54.19-1.03.51-1.45.93-.42.42-.77.97-1.03,1.62-.26.65-.39,1.43-.39,2.33v15.95c0,.67.03,1.21.09,1.65.06.43.19.9.37,1.4.18.48.46.92.82,1.31.77.85,1.87,1.28,3.26,1.28s2.58-.43,3.38-1.27c.36-.39.64-.82.82-1.27.19-.47.32-.92.39-1.33.07-.41.11-.91.11-1.48l-.04-5.98-4.22-.04v-1.31l5.57.04v7.23c0,.08,0,.29-.02.63-.01.35-.07.77-.16,1.24-.09.48-.26,1.01-.5,1.56-.24.56-.58,1.1-1.01,1.58-1.05,1.14-2.51,1.71-4.32,1.71Zm0-28.89c-.66,0-1.31.12-1.94.37-.63.25-1.18.58-1.65,1-1.18,1.1-1.77,2.67-1.77,4.65v15.89c0,.08,0,.3-.02.67-.01.34.02.76.09,1.25.07.48.22,1,.43,1.55.21.53.53,1.04.97,1.5.88,1,2.18,1.51,3.88,1.51s3-.52,3.95-1.55c.39-.44.7-.93.92-1.44.22-.52.38-1.01.47-1.46.09-.45.14-.84.15-1.16.01-.33.02-.53.02-.61v-6.73l-4.57-.03v.31l4.21.04.04,6.43c0,.65-.04,1.18-.12,1.61-.08.44-.22.92-.42,1.42-.2.52-.51,1-.92,1.43-.9.95-2.15,1.43-3.74,1.43s-2.76-.48-3.63-1.44c-.41-.43-.72-.93-.92-1.47-.2-.53-.33-1.04-.4-1.5-.07-.46-.1-1.02-.1-1.68V6.48c0-.96.14-1.8.42-2.51.28-.71.67-1.32,1.14-1.79.47-.47,1.03-.83,1.64-1.05,1.19-.42,2.43-.45,3.64.04.6.25,1.14.62,1.61,1.12.47.5.86,1.14,1.15,1.9.27.7.42,1.52.44,2.45h.31c-.02-1.02-.18-1.91-.48-2.65-.32-.8-.75-1.48-1.26-2-.51-.52-1.09-.91-1.71-1.14-.63-.23-1.25-.35-1.86-.35Z" style="fill:#f7f7f7;"/><path d="m413.12,16.61c-.28.05-.57.08-.87.1-.3.01-.61.02-.95.02h-3.63v12.03h-.81V.64h4.45c1.39,0,2.56.22,3.5.66.94.44,1.67,1.06,2.19,1.86.49.77.87,1.64,1.14,2.61.27.97.41,1.94.41,2.92s-.14,1.99-.41,2.96c-.27.97-.65,1.82-1.14,2.57-.36.57-.79,1.04-1.28,1.43-.49.39-1.11.66-1.86.81l-.73.15Zm3.17-2.83c.44-.7.79-1.49,1.04-2.38.26-.89.39-1.8.39-2.73s-.13-1.8-.39-2.69c-.26-.89-.61-1.69-1.04-2.38-.44-.67-1.07-1.19-1.89-1.57-.83-.38-1.86-.56-3.09-.56h-3.63v14.46h3.63c1.49,0,2.59-.19,3.29-.56.7-.38,1.26-.9,1.7-1.57Zm-2.44,2.67l5.38,12.26h-.85l-5.3-12.1.77-.15Z" style="fill:#fff;"/><path d="m407.92,29h-1.31V.39h4.7c1.42,0,2.63.23,3.6.68.98.46,1.75,1.11,2.29,1.95.5.79.9,1.69,1.17,2.68.28.98.42,1.99.42,2.99s-.14,2.04-.42,3.03c-.28.99-.67,1.88-1.17,2.64-.37.58-.82,1.09-1.33,1.49-.45.36-1.01.62-1.66.79l5.41,12.33h-1.4l-5.28-12.07c-.22.03-.45.05-.67.06-.3.01-.62.02-.96.02h-3.38v12.03Zm-.81-.5h.31v-12.03h3.88c.33,0,.64,0,.94-.02.21,0,.42-.03.62-.06l.94-.19c.71-.15,1.29-.4,1.75-.76.47-.37.88-.83,1.22-1.37.48-.73.85-1.57,1.11-2.5.26-.94.4-1.91.4-2.89s-.13-1.91-.4-2.85c-.26-.94-.64-1.79-1.11-2.54-.49-.75-1.19-1.35-2.08-1.76-.9-.42-2.05-.63-3.39-.63h-4.2v27.61Zm11.44-.04h.3l-5.14-11.72-.27.06,5.11,11.66Zm-7.24-12.3h-3.88V1.2h3.88c1.27,0,2.34.2,3.2.58.86.39,1.54.95,2,1.66.45.72.81,1.54,1.07,2.45.26.91.4,1.84.4,2.76s-.13,1.89-.4,2.8c-.26.91-.62,1.73-1.07,2.45h0c-.46.71-1.06,1.27-1.79,1.66-.74.4-1.85.59-3.41.59Zm-3.38-.5h3.38c1.45,0,2.51-.18,3.17-.53.65-.35,1.2-.85,1.61-1.49.42-.67.76-1.46,1.01-2.32.25-.87.38-1.76.38-2.66s-.13-1.76-.38-2.63c-.25-.86-.59-1.64-1.02-2.32-.41-.62-1.01-1.12-1.79-1.47-.79-.36-1.79-.54-2.99-.54h-3.38v13.96Z" style="fill:#f7f7f7;"/><path d="m437.21,22.48v.58c0,.34-.05.74-.15,1.22-.1.48-.26.99-.48,1.53s-.55,1.04-.98,1.51c-.98,1.06-2.35,1.59-4.12,1.59s-3.07-.53-4.05-1.59c-.44-.46-.76-.98-.98-1.55-.22-.57-.37-1.1-.44-1.6-.08-.5-.12-.93-.12-1.3V.48h.81v22.64c0,.27.03.54.08.79.05.46.17.95.37,1.45.19.5.49.97.87,1.41.8.88,1.95,1.31,3.46,1.31s2.72-.45,3.57-1.35c.36-.41.64-.86.83-1.33.19-.48.33-.93.41-1.37.05-.26.08-.51.1-.75.01-.24.02-.5.02-.75V.48h.81v22Z" style="fill:#fff;"/><path d="m431.47,29.15c-1.79,0-3.21-.56-4.23-1.67-.46-.48-.8-1.03-1.03-1.63-.22-.58-.38-1.13-.46-1.66-.08-.51-.12-.96-.12-1.33V.23h1.31v22.89c0,.25.02.5.07.74.05.46.17.93.36,1.41.18.47.46.92.83,1.34.75.82,1.85,1.23,3.27,1.23s2.59-.43,3.39-1.28c.33-.38.6-.81.78-1.26.19-.46.32-.9.39-1.32.05-.25.08-.49.09-.72.01-.24.02-.49.02-.74V.23h1.31v22.83c0,.35-.05.78-.16,1.27-.1.49-.27,1.02-.49,1.57-.23.57-.58,1.1-1.03,1.59-1.02,1.1-2.47,1.66-4.31,1.66Zm-5.34-28.42v22.14c0,.35.04.77.11,1.26.08.49.22,1.01.43,1.55.21.53.52,1.03.93,1.47.92,1,2.22,1.51,3.86,1.51s3.02-.51,3.94-1.5c.41-.44.73-.92.93-1.43.21-.53.37-1.03.47-1.49.1-.46.15-.85.15-1.17V.73h-.31v21.75c0,.3,0,.56-.02.81-.01.26-.05.52-.1.79-.08.45-.22.93-.42,1.42-.21.5-.5.97-.88,1.4-.91.96-2.17,1.44-3.76,1.44s-2.79-.47-3.64-1.4c-.41-.46-.72-.96-.92-1.49-.2-.52-.33-1.03-.38-1.51-.05-.25-.08-.53-.08-.82V.73h-.31Z" style="fill:#f7f7f7;"/><path d="m454.57,3.15c.49.77.87,1.64,1.14,2.61s.41,1.94.41,2.92-.14,1.99-.41,2.96-.65,1.82-1.14,2.57c-.54.83-1.24,1.45-2.09,1.88-.85.43-2.05.64-3.6.64h-3.63v12.03h-.81V.64h4.45c1.39,0,2.56.22,3.5.66.94.44,1.67,1.06,2.18,1.86Zm-.7,10.63c.44-.7.79-1.49,1.04-2.38.26-.89.39-1.8.39-2.73s-.13-1.8-.39-2.69c-.26-.89-.61-1.69-1.04-2.38-.44-.67-1.07-1.19-1.89-1.57-.83-.38-1.86-.56-3.09-.56h-3.63v14.46h3.63c1.5,0,2.59-.19,3.29-.56.7-.38,1.26-.9,1.7-1.57Z" style="fill:#fff;"/><path d="m445.5,29h-1.31V.39h4.7c1.42,0,2.63.23,3.61.68.98.46,1.75,1.11,2.29,1.95h0c.5.79.9,1.69,1.17,2.68.28.99.42,1.99.42,2.99s-.14,2.04-.42,3.03c-.28.99-.67,1.87-1.17,2.64-.56.86-1.3,1.52-2.18,1.96-.88.44-2.13.66-3.71.66h-3.38v12.03Zm-.81-.5h.31v-12.03h3.88c1.5,0,2.67-.21,3.49-.61.81-.4,1.48-1.01,1.99-1.79.47-.72.85-1.57,1.11-2.5.26-.94.4-1.91.4-2.89s-.13-1.91-.4-2.85c-.26-.94-.63-1.79-1.11-2.54-.49-.75-1.19-1.35-2.08-1.76-.9-.42-2.05-.63-3.39-.63h-4.2v27.61Zm4.2-12.34h-3.88V1.2h3.88c1.27,0,2.34.2,3.2.58.86.39,1.54.95,2,1.66.45.72.81,1.54,1.08,2.45.26.91.4,1.84.4,2.76s-.13,1.89-.4,2.8c-.26.91-.62,1.74-1.07,2.45h0c-.46.71-1.06,1.27-1.79,1.66-.74.4-1.85.59-3.41.59Zm-3.38-.5h3.38c1.45,0,2.51-.18,3.17-.53.65-.35,1.2-.85,1.61-1.49.42-.67.76-1.45,1.01-2.32.25-.86.38-1.76.38-2.66s-.13-1.76-.38-2.63-.59-1.65-1.02-2.32c-.41-.62-1.01-1.12-1.79-1.47-.79-.36-1.79-.54-2.99-.54h-3.38v13.96Z" style="fill:#f7f7f7;"/><path d="m472.9,3.15c.49.77.87,1.64,1.14,2.61s.41,1.94.41,2.92-.14,1.99-.41,2.96-.65,1.82-1.14,2.57c-.54.83-1.24,1.45-2.09,1.88-.85.43-2.05.64-3.6.64h-3.63v12.03h-.81V.64h4.45c1.39,0,2.56.22,3.5.66.94.44,1.67,1.06,2.18,1.86Zm-.7,10.63c.44-.7.79-1.49,1.04-2.38.26-.89.39-1.8.39-2.73s-.13-1.8-.39-2.69c-.26-.89-.61-1.69-1.04-2.38-.44-.67-1.07-1.19-1.89-1.57-.83-.38-1.86-.56-3.09-.56h-3.63v14.46h3.63c1.5,0,2.59-.19,3.29-.56.7-.38,1.26-.9,1.7-1.57Z" style="fill:#fff;"/><path d="m463.83,29h-1.31V.39h4.7c1.42,0,2.63.23,3.61.68.98.46,1.75,1.11,2.29,1.95h0c.5.79.9,1.69,1.17,2.68.28.99.42,1.99.42,2.99s-.14,2.04-.42,3.03c-.28.99-.67,1.87-1.17,2.64-.56.86-1.3,1.52-2.19,1.96-.88.44-2.13.66-3.71.66h-3.38v12.03Zm-.81-.5h.31v-12.03h3.88c1.5,0,2.67-.21,3.49-.61.81-.4,1.48-1,1.99-1.79.47-.72.85-1.57,1.11-2.5.26-.94.4-1.91.4-2.89s-.13-1.91-.4-2.85c-.26-.94-.63-1.79-1.11-2.54-.49-.75-1.19-1.35-2.08-1.76-.9-.42-2.05-.63-3.39-.63h-4.2v27.61Zm4.2-12.34h-3.88V1.2h3.88c1.27,0,2.34.2,3.2.58.87.39,1.54.95,2,1.66.45.72.81,1.54,1.08,2.45.26.91.4,1.84.4,2.76s-.13,1.89-.4,2.8c-.26.91-.62,1.74-1.07,2.45h0c-.46.71-1.06,1.27-1.79,1.66-.74.4-1.85.59-3.41.59Zm-3.38-.5h3.38c1.45,0,2.51-.18,3.17-.53.65-.35,1.2-.85,1.61-1.49.42-.67.76-1.45,1.01-2.32.25-.86.38-1.76.38-2.66s-.13-1.76-.38-2.63-.59-1.65-1.02-2.32c-.41-.62-1.01-1.12-1.79-1.47-.79-.36-1.79-.54-2.99-.54h-3.38v13.96Z" style="fill:#f7f7f7;"/><path d="m492.58,28.01v.73h-10.91V.64h10.75v.73h-9.94v14.62h7.77v.73h-7.77v11.29h10.09Z" style="fill:#fff;"/><path d="m492.83,29h-11.41V.39h11.25v1.23h-9.94v14.12h7.77v1.23h-7.77v10.79h10.09v1.23Zm-10.91-.5h10.41v-.23h-10.09v-11.79h7.77v-.23h-7.77V1.12h9.94v-.23h-10.25v27.61Z" style="fill:#f7f7f7;"/><path d="m519.07.64h5.8c.7,0,1.37.12,2.01.37.64.25,1.21.6,1.7,1.06,1.24,1.16,1.86,2.77,1.86,4.83v15.58c0,2.11-.62,3.73-1.86,4.83-.49.46-1.06.82-1.7,1.06-.65.25-1.32.37-2.01.37h-5.8V.64Zm10.56,6.26c0-.93-.14-1.74-.41-2.44-.27-.7-.63-1.26-1.08-1.7-.45-.44-.96-.77-1.53-.99-.57-.22-1.15-.33-1.74-.33h-4.99v26.49h4.99c.59,0,1.17-.1,1.74-.31.57-.21,1.08-.53,1.53-.99.45-.45.81-1.02,1.08-1.7.27-.68.41-1.5.41-2.46V6.9Z" style="fill:#fff;"/><path d="m524.87,29h-6.05V.39h6.05c.72,0,1.43.13,2.1.38.67.26,1.27.63,1.78,1.12,1.28,1.2,1.93,2.89,1.93,5.02v15.58c0,2.18-.65,3.87-1.94,5.02-.51.48-1.11.86-1.78,1.11-.67.25-1.38.38-2.1.38Zm-5.55-.5h5.55c.66,0,1.31-.12,1.92-.35.61-.23,1.15-.57,1.62-1.01,1.18-1.06,1.78-2.62,1.78-4.65V6.9c0-1.98-.6-3.55-1.78-4.65-.46-.44-1.01-.78-1.62-1.01-.61-.23-1.26-.35-1.92-.35h-5.55v27.61Zm5.55-.31h-5.24V1.2h5.24c.62,0,1.23.12,1.83.35.6.23,1.14.58,1.61,1.04.48.46.86,1.07,1.14,1.79.28.72.42,1.57.42,2.53v15.58c0,.98-.14,1.84-.42,2.55-.28.71-.67,1.31-1.14,1.79-.48.48-1.02.83-1.62,1.04-.59.22-1.21.32-1.82.32Zm-4.74-.5h4.74c.56,0,1.12-.1,1.65-.29.53-.19,1.01-.5,1.44-.93.42-.42.77-.97,1.03-1.62.26-.65.39-1.45.39-2.36V6.9c0-.89-.13-1.68-.39-2.35-.25-.66-.6-1.2-1.02-1.61s-.91-.73-1.44-.93c-.54-.21-1.09-.31-1.65-.31h-4.74v25.99Z" style="fill:#f7f7f7;"/><path d="m548.77,28.01v.73h-10.91V.64h10.75v.73h-9.94v14.62h7.77v.73h-7.77v11.29h10.09Z" style="fill:#fff;"/><path d="m549.02,29h-11.41V.39h11.25v1.23h-9.94v14.12h7.77v1.23h-7.77v10.79h10.09v1.23Zm-10.91-.5h10.41v-.23h-10.09v-11.79h7.77v-.23h-7.77V1.12h9.94v-.23h-10.25v27.61Z" style="fill:#f7f7f7;"/><path d="m562.73,16.61c-.28.05-.57.08-.87.1-.3.01-.61.02-.95.02h-3.63v12.03h-.81V.64h4.45c1.39,0,2.56.22,3.5.66.94.44,1.67,1.06,2.18,1.86.49.77.87,1.64,1.14,2.61s.41,1.94.41,2.92-.14,1.99-.41,2.96-.65,1.82-1.14,2.57c-.36.57-.79,1.04-1.28,1.43-.49.39-1.11.66-1.86.81l-.73.15Zm3.17-2.83c.44-.7.79-1.49,1.04-2.38.26-.89.39-1.8.39-2.73s-.13-1.8-.39-2.69c-.26-.89-.61-1.69-1.04-2.38-.44-.67-1.07-1.19-1.89-1.57-.83-.38-1.86-.56-3.09-.56h-3.63v14.46h3.63c1.5,0,2.59-.19,3.29-.56.7-.38,1.26-.9,1.7-1.57Zm-2.44,2.67l5.38,12.26h-.85l-5.3-12.1.77-.15Z" style="fill:#fff;"/><path d="m557.53,29h-1.31V.39h4.7c1.42,0,2.63.23,3.61.68.98.46,1.75,1.11,2.29,1.95.5.79.9,1.69,1.17,2.68.28.99.42,1.99.42,2.99s-.14,2.04-.42,3.03c-.28.99-.67,1.87-1.17,2.64-.37.58-.82,1.09-1.33,1.49-.45.36-1.01.62-1.66.79l5.41,12.33h-1.4l-.07-.15-5.22-11.92c-.22.03-.45.05-.67.06-.3.01-.62.02-.96.02h-3.38v12.03Zm-.81-.5h.31v-12.03h3.88c.33,0,.64,0,.94-.02.21,0,.42-.03.62-.06l.94-.19c.71-.15,1.29-.4,1.75-.76.47-.37.88-.83,1.22-1.37.48-.73.85-1.57,1.11-2.5.26-.94.4-1.91.4-2.89s-.13-1.91-.4-2.85c-.26-.94-.64-1.79-1.11-2.54-.49-.75-1.19-1.35-2.08-1.76-.9-.42-2.05-.63-3.39-.63h-4.2v27.61Zm11.44-.04h.3l-5.14-11.72-.27.06,5.11,11.66Zm-7.24-12.3h-3.88V1.2h3.88c1.27,0,2.34.2,3.2.58.87.39,1.54.95,2,1.66.45.72.81,1.54,1.08,2.45.26.91.4,1.84.4,2.76s-.13,1.89-.4,2.8c-.26.91-.62,1.74-1.07,2.45h0c-.46.71-1.06,1.26-1.79,1.66-.74.4-1.85.59-3.41.59Zm-3.38-.5h3.38c1.45,0,2.51-.18,3.17-.53.65-.35,1.2-.85,1.61-1.48.42-.67.76-1.45,1.01-2.32.25-.86.38-1.76.38-2.66s-.13-1.76-.38-2.63-.59-1.65-1.02-2.32c-.41-.62-1.01-1.12-1.79-1.47-.79-.36-1.79-.54-2.99-.54h-3.38v13.96Z" style="fill:#f7f7f7;"/><path d="m24.14,48.77l-9.42-14.59c-1.34-2.08.15-4.82,2.63-4.82h17.69c2.39,0,3.9,2.58,2.72,4.67l-8.26,14.59c-1.16,2.04-4.07,2.13-5.35.16Z" style="fill:#00a383;"/><path d="m43.38,39.01l-14.72,16.43c-1.32,1.47-3.63,1.47-4.95,0l-14.72-16.43c-1.75-1.95-4.96-1.21-5.67,1.32l-1.96,6.98c-.36,1.29.08,2.67,1.13,3.5l21.63,17.16c1.21.96,2.92.96,4.13,0l21.63-17.16c1.05-.83,1.5-2.21,1.13-3.5l-1.96-6.98c-.71-2.52-3.92-3.27-5.67-1.32Z" style="fill:#00a383;"/><path d="m.43,56.84c0-.33,7.79,4.96,12.42,8.13,2.05,1.41,3.13,3.85,2.8,6.32l-1.4,10.31c-.08.62-.75.97-1.3.68-3.34-1.72-12.87-8.14-12.52-25.44Z" style="fill:#00a383;"/><path d="m2.05,85.89s11.19-.26,12.95,7.79c1.76,8.05,2.61,17.47-6.52,22.73-9.13,5.26-10.21-30.78-6.43-30.52Z" style="fill:#00a383;"/><path d="m26.44,73.93h0c.68-.02,1.27.47,1.37,1.14,1.22,7.92,8.09,53.47,6,57.84-2.29,4.79-9.41,6.03-13.44.35-3.7-5.19,3.52-50.54,4.77-58.21.1-.64.65-1.11,1.3-1.13Z" style="fill:#00a383;"/><path d="m52.31,57.53c0-.33-7.79,4.96-12.42,8.13-2.05,1.41-3.13,3.85-2.8,6.32l1.4,10.31c.08.62.75.97,1.3.68,3.34-1.72,12.87-8.14,12.52-25.44Z" style="fill:#00a383;"/><path d="m50.68,86.71s-11.19-.26-12.95,7.79c-1.76,8.05-2.61,17.47,6.52,22.73s10.21-30.78,6.43-30.52Z" style="fill:#00a383;"/><path d="m38.91,136.36c-3.03,2.33-7.16,5.91-9.83,9.84-1.12,1.65-3.5,1.65-4.62,0-2.67-3.93-6.8-7.51-9.83-9.84-1.76-1.35-4.28-.17-4.43,2.05-1.51,22.13,12.81,25.5,16.21,25.99v.08s.13,0,.36-.03c.23.03.36.03.36.03v-.08c3.4-.49,17.72-3.86,16.21-25.99-.15-2.21-2.68-3.4-4.43-2.05Z" style="fill:#00a383;"/><path d="m9.17,22.5l-.82-3.08c-.36-1.34.65-2.65,2.04-2.65h31.6c1.36,0,2.36,1.26,2.05,2.59l-.71,3.08c-.22.96-1.07,1.63-2.05,1.63H11.21c-.95,0-1.79-.64-2.04-1.56Z" style="fill:#00a383;"/><path d="m12.12,6.88l-.68,2.98c-.3,1.3.54,2.57,1.68,2.57h26.12c1.12,0,1.95-1.22,1.7-2.5l-.59-2.98c-.18-.92-.89-1.58-1.7-1.58H13.81c-.79,0-1.48.62-1.68,1.51Z" style="fill:#00a383;"/><path d="m858.28,48.77l-9.42-14.59c-1.34-2.08.15-4.82,2.63-4.82h17.69c2.39,0,3.9,2.58,2.72,4.67l-8.26,14.59c-1.16,2.04-4.07,2.13-5.35.16Z" style="fill:#00a383;"/><path d="m877.52,39.01l-14.72,16.43c-1.32,1.47-3.63,1.47-4.95,0l-14.72-16.43c-1.75-1.95-4.96-1.21-5.67,1.32l-1.96,6.98c-.36,1.29.08,2.67,1.13,3.5l21.63,17.16c1.21.96,2.92.96,4.13,0l21.63-17.16c1.05-.83,1.5-2.21,1.13-3.5l-1.96-6.98c-.71-2.52-3.92-3.27-5.67-1.32Z" style="fill:#00a383;"/><path d="m834.57,56.84c0-.33,7.79,4.96,12.42,8.13,2.05,1.41,3.13,3.85,2.8,6.32l-1.4,10.31c-.08.62-.75.97-1.3.68-3.34-1.72-12.87-8.14-12.52-25.44Z" style="fill:#00a383;"/><path d="m836.2,85.89s11.19-.26,12.95,7.79c1.76,8.05,2.61,17.47-6.52,22.73-9.13,5.26-10.21-30.78-6.43-30.52Z" style="fill:#00a383;"/><path d="m860.59,73.93h0c.68-.02,1.27.47,1.37,1.14,1.22,7.92,8.09,53.47,6,57.84-2.29,4.79-9.41,6.03-13.44.35-3.7-5.19,3.52-50.54,4.77-58.21.1-.64.65-1.11,1.3-1.13Z" style="fill:#00a383;"/><path d="m886.45,57.53c0-.33-7.79,4.96-12.42,8.13-2.05,1.41-3.13,3.85-2.8,6.32l1.4,10.31c.08.62.75.97,1.3.68,3.34-1.72,12.87-8.14,12.52-25.44Z" style="fill:#00a383;"/><path d="m884.83,86.71s-11.19-.26-12.95,7.79c-1.76,8.05-2.61,17.47,6.52,22.73s10.21-30.78,6.43-30.52Z" style="fill:#00a383;"/><path d="m873.05,136.36c-3.03,2.33-7.16,5.91-9.83,9.84-1.12,1.65-3.5,1.65-4.62,0-2.67-3.93-6.8-7.51-9.83-9.84-1.76-1.35-4.28-.17-4.43,2.05-1.51,22.13,12.81,25.5,16.21,25.99v.08s.13,0,.36-.03c.23.03.36.03.36.03v-.08c3.4-.49,17.72-3.86,16.21-25.99-.15-2.21-2.68-3.4-4.43-2.05Z" style="fill:#00a383;"/><path d="m843.32,22.5l-.82-3.08c-.36-1.34.65-2.65,2.04-2.65h31.6c1.36,0,2.36,1.26,2.05,2.59l-.71,3.08c-.22.96-1.07,1.63-2.05,1.63h-30.06c-.95,0-1.79-.64-2.04-1.56Z" style="fill:#00a383;"/><path d="m846.27,6.88l-.68,2.98c-.3,1.3.54,2.57,1.68,2.57h26.12c1.12,0,1.95-1.22,1.7-2.5l-.59-2.98c-.18-.92-.89-1.58-1.7-1.58h-24.85c-.79,0-1.48.62-1.68,1.51Z" style="fill:#00a383;"/></svg>