<?xml version="1.0" encoding="UTF-8"?><svg id="uuid-6da84409-f5fb-494a-bd9b-92f0d751f9bc" xmlns="http://www.w3.org/2000/svg" viewBox="0 0 1920.01 94.41"><defs><style>.uuid-693d33c1-76d7-4b17-b185-e23a04fe6352{fill:#00a383;}.uuid-600451e9-db7b-4704-a222-a38fd46efb53{fill:#151515;}.uuid-f55de303-4c9c-479e-a1f3-fc6ebf6f0329{fill:#fb9f2c;}.uuid-6913aea7-6443-463d-b879-166ab3965ca8{fill:#f63a76;}</style></defs><path class="uuid-600451e9-db7b-4704-a222-a38fd46efb53" d="m330.12,60.41h-4.85c-1.9,0-3.72-1.7-3.63-3.7.09-2,1.6-3.7,3.63-3.7h4.85c1.9,0,3.72,1.7,3.63,3.7-.09,2-1.6,3.7-3.63,3.7Z"/><path class="uuid-600451e9-db7b-4704-a222-a38fd46efb53" d="m338.19,47.67c-7.9.4-15.79.79-23.69,1.19-4.68.24-4.66-7.16,0-7.39,7.9-.4,15.79-.79,23.69-1.19,4.68-.24,4.66,7.16,0,7.39Z"/><path class="uuid-600451e9-db7b-4704-a222-a38fd46efb53" d="m344.09,34.77c-11.83.24-23.65.47-35.48.71-5.61.11-5.6-7.02,0-7.13,11.83-.24,23.65-.47,35.48-.71,5.61-.11,5.6,7.02,0,7.13Z"/><path class="uuid-600451e9-db7b-4704-a222-a38fd46efb53" d="m351.38,25.43c-16.69.53-33.37,1.06-50.06,1.59-4.68.15-4.67-7.24,0-7.39,16.69-.53,33.37-1.06,50.06-1.59,4.68-.15,4.67,7.24,0,7.39Z"/><path class="uuid-600451e9-db7b-4704-a222-a38fd46efb53" d="m362.43,13.36c-23.51-.51-47.03-.61-70.54-.28-4.68.06-4.68-7.33,0-7.39,23.51-.33,47.03-.23,70.54.28,4.67.1,4.69,7.5,0,7.39Z"/><path class="uuid-600451e9-db7b-4704-a222-a38fd46efb53" d="m411.3,60.43l-2.47,4.24c-.97,1.66-3.33,2.4-4.98,1.3-1.65-1.1-2.32-3.28-1.28-5.06l2.47-4.24c.97-1.66,3.33-2.4,4.98-1.3,1.65,1.1,2.32,3.28,1.28,5.06Z"/><path class="uuid-600451e9-db7b-4704-a222-a38fd46efb53" d="m404.62,46.88c-3.68,7.12-7.36,14.23-11.04,21.35-2.18,4.21-8.43.44-6.26-3.76,3.68-7.12,7.36-14.23,11.04-21.35,2.18-4.21,8.43-.44,6.26,3.76Z"/><path class="uuid-600451e9-db7b-4704-a222-a38fd46efb53" d="m396.7,35.15c-5.82,10.48-11.63,20.96-17.45,31.43-2.76,4.97-8.79,1.34-6.03-3.63,5.82-10.48,11.63-20.96,17.45-31.43,2.76-4.97,8.79-1.34,6.03,3.63Z"/><path class="uuid-600451e9-db7b-4704-a222-a38fd46efb53" d="m389.06,21.95c-8.04,14.88-16.08,29.77-24.11,44.65-2.25,4.17-8.51.41-6.26-3.76,8.04-14.88,16.08-29.77,24.11-44.65,2.25-4.17,8.51-.41,6.26,3.76Z"/><path class="uuid-600451e9-db7b-4704-a222-a38fd46efb53" d="m384.46,6.13c-12.39,20.33-24.44,40.87-36.12,61.63-2.33,4.13-8.59.37-6.26-3.76,11.69-20.76,23.73-41.3,36.12-61.63,2.46-4.04,8.73-.29,6.26,3.76Z"/><path class="uuid-600451e9-db7b-4704-a222-a38fd46efb53" d="m434.58,64.48h-4.85c-1.9,0-3.72-1.7-3.63-3.7.09-2,1.6-3.7,3.63-3.7h4.85c1.9,0,3.72,1.7,3.63,3.7-.09,2-1.6,3.7-3.63,3.7Z"/><path class="uuid-600451e9-db7b-4704-a222-a38fd46efb53" d="m442.65,51.74c-7.9.4-15.79.79-23.69,1.19-4.68.24-4.66-7.16,0-7.39,7.9-.4,15.79-.79,23.69-1.19,4.68-.24,4.66,7.16,0,7.39Z"/><path class="uuid-600451e9-db7b-4704-a222-a38fd46efb53" d="m448.55,38.84c-11.83.24-23.65.47-35.48.71-5.61.11-5.6-7.02,0-7.13,11.83-.24,23.65-.47,35.48-.71,5.61-.11,5.6,7.02,0,7.13Z"/><path class="uuid-600451e9-db7b-4704-a222-a38fd46efb53" d="m455.84,25.43c-16.69.53-33.37,1.06-50.06,1.59-4.68.15-4.67-7.24,0-7.39,16.69-.53,33.37-1.06,50.06-1.59,4.68-.15,4.67,7.24,0,7.39Z"/><path class="uuid-600451e9-db7b-4704-a222-a38fd46efb53" d="m466.89,13.36c-23.51-.51-47.03-.61-70.54-.28-4.68.06-4.68-7.33,0-7.39,23.51-.33,47.03-.23,70.54.28,4.67.1,4.69,7.5,0,7.39Z"/><path class="uuid-600451e9-db7b-4704-a222-a38fd46efb53" d="m514.79,60.56l-2.47,4.24c-.97,1.66-3.33,2.4-4.98,1.3-1.65-1.1-2.32-3.28-1.28-5.06l2.47-4.24c.97-1.66,3.33-2.4,4.98-1.3,1.65,1.1,2.32,3.28,1.28,5.06Z"/><path class="uuid-600451e9-db7b-4704-a222-a38fd46efb53" d="m508.11,47.01c-3.68,7.12-7.36,14.23-11.04,21.35-2.18,4.21-8.43.44-6.26-3.76,3.68-7.12,7.36-14.23,11.04-21.35,2.18-4.21,8.43-.44,6.26,3.76Z"/><path class="uuid-600451e9-db7b-4704-a222-a38fd46efb53" d="m500.19,35.28c-5.82,10.48-11.63,20.96-17.45,31.43-2.76,4.97-8.79,1.34-6.03-3.63,5.82-10.48,11.63-20.96,17.45-31.43,2.76-4.97,8.79-1.34,6.03,3.63Z"/><path class="uuid-600451e9-db7b-4704-a222-a38fd46efb53" d="m492.55,22.08c-8.04,14.88-16.08,29.77-24.11,44.65-2.25,4.17-8.51.41-6.26-3.76,8.04-14.88,16.08-29.77,24.11-44.65,2.25-4.17,8.51-.41,6.26,3.76Z"/><path class="uuid-600451e9-db7b-4704-a222-a38fd46efb53" d="m487.95,6.26c-12.39,20.33-24.44,40.87-36.12,61.63-2.33,4.13-8.59.37-6.26-3.76,11.69-20.76,23.73-41.3,36.12-61.63,2.46-4.04,8.73-.29,6.26,3.76Z"/><path class="uuid-f55de303-4c9c-479e-a1f3-fc6ebf6f0329" d="m539.04,64.11h-4.85c-1.9,0-3.72-1.7-3.63-3.7.09-2,1.6-3.7,3.63-3.7h4.85c1.9,0,3.72,1.7,3.63,3.7-.09,2-1.6,3.7-3.63,3.7Z"/><path class="uuid-f55de303-4c9c-479e-a1f3-fc6ebf6f0329" d="m547.11,51.37c-7.9.4-15.79.79-23.69,1.19-4.68.24-4.66-7.16,0-7.39,7.9-.4,15.79-.79,23.69-1.19,4.68-.24,4.66,7.16,0,7.39Z"/><path class="uuid-f55de303-4c9c-479e-a1f3-fc6ebf6f0329" d="m553.01,38.47c-11.83.24-23.65.47-35.48.71-5.61.11-5.6-7.02,0-7.13,11.83-.24,23.65-.47,35.48-.71,5.61-.11,5.6,7.02,0,7.13Z"/><path class="uuid-f55de303-4c9c-479e-a1f3-fc6ebf6f0329" d="m560.3,25.06c-16.69.53-33.37,1.06-50.06,1.59-4.68.15-4.67-7.24,0-7.39,16.69-.53,33.37-1.06,50.06-1.59,4.68-.15,4.67,7.24,0,7.39Z"/><path class="uuid-f55de303-4c9c-479e-a1f3-fc6ebf6f0329" d="m571.35,12.98c-23.51-.51-47.03-.61-70.54-.28-4.68.06-4.68-7.33,0-7.39,23.51-.33,47.03-.23,70.54.28,4.67.1,4.69,7.5,0,7.39Z"/><path class="uuid-600451e9-db7b-4704-a222-a38fd46efb53" d="m620.86,61.2l-2.47,4.24c-.97,1.66-3.33,2.4-4.98,1.3-1.65-1.1-2.32-3.28-1.28-5.06l2.47-4.24c.97-1.66,3.33-2.4,4.98-1.3,1.65,1.1,2.32,3.28,1.28,5.06Z"/><path class="uuid-600451e9-db7b-4704-a222-a38fd46efb53" d="m614.18,47.65c-3.68,7.12-7.36,14.23-11.04,21.35-2.18,4.21-8.43.44-6.26-3.76,3.68-7.12,7.36-14.23,11.04-21.35,2.18-4.21,8.43-.44,6.26,3.76Z"/><path class="uuid-600451e9-db7b-4704-a222-a38fd46efb53" d="m606.26,35.93c-5.82,10.48-11.63,20.96-17.45,31.43-2.76,4.97-8.79,1.34-6.03-3.63,5.82-10.48,11.63-20.96,17.45-31.43,2.76-4.97,8.79-1.34,6.03,3.63Z"/><path class="uuid-600451e9-db7b-4704-a222-a38fd46efb53" d="m598.62,22.73c-8.04,14.88-16.08,29.77-24.11,44.65-2.25,4.17-8.51.41-6.26-3.76,8.04-14.88,16.08-29.77,24.11-44.65,2.25-4.17,8.51-.41,6.26,3.76Z"/><path class="uuid-600451e9-db7b-4704-a222-a38fd46efb53" d="m594.02,6.9c-12.39,20.33-24.44,40.87-36.12,61.63-2.33,4.13-8.59.37-6.26-3.76,11.69-20.76,23.73-41.3,36.12-61.63,2.46-4.04,8.73-.29,6.26,3.76Z"/><path class="uuid-600451e9-db7b-4704-a222-a38fd46efb53" d="m646.14,63.85h-4.85c-1.9,0-3.72-1.7-3.63-3.7.09-2,1.6-3.7,3.63-3.7h4.85c1.9,0,3.72,1.7,3.63,3.7-.09,2-1.6,3.7-3.63,3.7Z"/><path class="uuid-600451e9-db7b-4704-a222-a38fd46efb53" d="m654.21,51.11c-7.9.4-15.79.79-23.69,1.19-4.68.24-4.66-7.16,0-7.39,7.9-.4,15.79-.79,23.69-1.19,4.68-.24,4.66,7.16,0,7.39Z"/><path class="uuid-600451e9-db7b-4704-a222-a38fd46efb53" d="m660.1,38.21c-11.83.24-23.65.47-35.48.71-5.61.11-5.6-7.02,0-7.13,11.83-.24,23.65-.47,35.48-.71,5.61-.11,5.6,7.02,0,7.13Z"/><path class="uuid-600451e9-db7b-4704-a222-a38fd46efb53" d="m667.39,24.8c-16.69.53-33.37,1.06-50.06,1.59-4.68.15-4.67-7.24,0-7.39,16.69-.53,33.37-1.06,50.06-1.59,4.68-.15,4.67,7.24,0,7.39Z"/><path class="uuid-600451e9-db7b-4704-a222-a38fd46efb53" d="m678.45,12.73c-23.51-.51-47.03-.61-70.54-.28-4.68.06-4.68-7.33,0-7.39,23.51-.33,47.03-.23,70.54.28,4.67.1,4.69,7.5,0,7.39Z"/><path class="uuid-600451e9-db7b-4704-a222-a38fd46efb53" d="m727.31,59.8l-2.47,4.24c-.97,1.66-3.33,2.4-4.98,1.3-1.65-1.1-2.32-3.28-1.28-5.06l2.47-4.24c.97-1.66,3.33-2.4,4.98-1.3,1.65,1.1,2.32,3.28,1.28,5.06Z"/><path class="uuid-600451e9-db7b-4704-a222-a38fd46efb53" d="m720.63,46.25c-3.68,7.12-7.36,14.23-11.04,21.35-2.18,4.21-8.43.44-6.26-3.76,3.68-7.12,7.36-14.23,11.04-21.35,2.18-4.21,8.43-.44,6.26,3.76Z"/><path class="uuid-600451e9-db7b-4704-a222-a38fd46efb53" d="m712.71,34.52c-5.82,10.48-11.63,20.96-17.45,31.43-2.76,4.97-8.79,1.34-6.03-3.63,5.82-10.48,11.63-20.96,17.45-31.43,2.76-4.97,8.79-1.34,6.03,3.63Z"/><path class="uuid-600451e9-db7b-4704-a222-a38fd46efb53" d="m705.08,21.32c-8.04,14.88-16.08,29.77-24.11,44.65-2.25,4.17-8.51.41-6.26-3.76,8.04-14.88,16.08-29.77,24.11-44.65,2.25-4.17,8.51-.41,6.26,3.76Z"/><path class="uuid-600451e9-db7b-4704-a222-a38fd46efb53" d="m700.48,5.5c-12.39,20.33-24.44,40.87-36.12,61.63-2.33,4.13-8.59.37-6.26-3.76,11.69-20.76,23.73-41.3,36.12-61.63,2.46-4.04,8.73-.29,6.26,3.76Z"/><path class="uuid-600451e9-db7b-4704-a222-a38fd46efb53" d="m750.59,63.85h-4.85c-1.9,0-3.72-1.7-3.63-3.7.09-2,1.6-3.7,3.63-3.7h4.85c1.9,0,3.72,1.7,3.63,3.7-.09,2-1.6,3.7-3.63,3.7Z"/><path class="uuid-600451e9-db7b-4704-a222-a38fd46efb53" d="m758.66,51.11c-7.9.4-15.79.79-23.69,1.19-4.68.24-4.66-7.16,0-7.39,7.9-.4,15.79-.79,23.69-1.19,4.68-.24,4.66,7.16,0,7.39Z"/><path class="uuid-600451e9-db7b-4704-a222-a38fd46efb53" d="m764.56,38.21c-11.83.24-23.65.47-35.48.71-5.61.11-5.6-7.02,0-7.13,11.83-.24,23.65-.47,35.48-.71,5.61-.11,5.6,7.02,0,7.13Z"/><path class="uuid-600451e9-db7b-4704-a222-a38fd46efb53" d="m771.85,24.8c-16.69.53-33.37,1.06-50.06,1.59-4.68.15-4.67-7.24,0-7.39,16.69-.53,33.37-1.06,50.06-1.59,4.68-.15,4.67,7.24,0,7.39Z"/><path class="uuid-600451e9-db7b-4704-a222-a38fd46efb53" d="m782.91,12.73c-23.51-.51-47.03-.61-70.54-.28-4.68.06-4.68-7.33,0-7.39,23.51-.33,47.03-.23,70.54.28,4.67.1,4.69,7.5,0,7.39Z"/><path class="uuid-600451e9-db7b-4704-a222-a38fd46efb53" d="m830.81,61.96l-2.47,4.24c-.97,1.66-3.33,2.4-4.98,1.3-1.65-1.1-2.32-3.28-1.28-5.06l2.47-4.24c.97-1.66,3.33-2.4,4.98-1.3,1.65,1.1,2.32,3.28,1.28,5.06Z"/><path class="uuid-600451e9-db7b-4704-a222-a38fd46efb53" d="m824.13,48.41c-3.68,7.12-7.36,14.23-11.04,21.35-2.18,4.21-8.43.44-6.26-3.76,3.68-7.12,7.36-14.23,11.04-21.35,2.18-4.21,8.43-.44,6.26,3.76Z"/><path class="uuid-600451e9-db7b-4704-a222-a38fd46efb53" d="m816.21,36.69c-5.82,10.48-11.63,20.96-17.45,31.43-2.76,4.97-8.79,1.34-6.03-3.63,5.82-10.48,11.63-20.96,17.45-31.43,2.76-4.97,8.79-1.34,6.03,3.63Z"/><path class="uuid-600451e9-db7b-4704-a222-a38fd46efb53" d="m808.57,23.49c-8.04,14.88-16.08,29.77-24.11,44.65-2.25,4.17-8.51.41-6.26-3.76,8.04-14.88,16.08-29.77,24.11-44.65,2.25-4.17,8.51-.41,6.26,3.76Z"/><path class="uuid-600451e9-db7b-4704-a222-a38fd46efb53" d="m803.97,7.66c-12.39,20.33-24.44,40.87-36.12,61.63-2.33,4.13-8.59.37-6.26-3.76,11.69-20.76,23.73-41.3,36.12-61.63,2.46-4.04,8.73-.29,6.26,3.76Z"/><path class="uuid-600451e9-db7b-4704-a222-a38fd46efb53" d="m855.06,63.48h-4.85c-1.9,0-3.72-1.7-3.63-3.7.09-2,1.6-3.7,3.63-3.7h4.85c1.9,0,3.72,1.7,3.63,3.7-.09,2-1.6,3.7-3.63,3.7Z"/><path class="uuid-600451e9-db7b-4704-a222-a38fd46efb53" d="m863.13,50.74c-7.9.4-15.79.79-23.69,1.19-4.68.24-4.66-7.16,0-7.39,7.9-.4,15.79-.79,23.69-1.19,4.68-.24,4.66,7.16,0,7.39Z"/><path class="uuid-600451e9-db7b-4704-a222-a38fd46efb53" d="m869.02,37.84c-11.83.24-23.65.47-35.48.71-5.61.11-5.6-7.02,0-7.13,11.83-.24,23.65-.47,35.48-.71,5.61-.11,5.6,7.02,0,7.13Z"/><path class="uuid-600451e9-db7b-4704-a222-a38fd46efb53" d="m876.31,24.43c-16.69.53-33.37,1.06-50.06,1.59-4.68.15-4.67-7.24,0-7.39,16.69-.53,33.37-1.06,50.06-1.59,4.68-.15,4.67,7.24,0,7.39Z"/><path class="uuid-600451e9-db7b-4704-a222-a38fd46efb53" d="m887.37,12.35c-23.51-.51-47.03-.61-70.54-.28-4.68.06-4.68-7.33,0-7.39,23.51-.33,47.03-.23,70.54.28,4.67.1,4.69,7.5,0,7.39Z"/><path class="uuid-600451e9-db7b-4704-a222-a38fd46efb53" d="m936.87,61.59l-2.47,4.24c-.97,1.66-3.33,2.4-4.98,1.3-1.65-1.1-2.32-3.28-1.28-5.06l2.47-4.24c.97-1.66,3.33-2.4,4.98-1.3,1.65,1.1,2.32,3.28,1.28,5.06Z"/><path class="uuid-600451e9-db7b-4704-a222-a38fd46efb53" d="m930.19,48.04c-3.68,7.12-7.36,14.23-11.04,21.35-2.18,4.21-8.43.44-6.26-3.76,3.68-7.12,7.36-14.23,11.04-21.35,2.18-4.21,8.43-.44,6.26,3.76Z"/><path class="uuid-600451e9-db7b-4704-a222-a38fd46efb53" d="m922.27,36.32c-5.82,10.48-11.63,20.96-17.45,31.43-2.76,4.97-8.79,1.34-6.03-3.63,5.82-10.48,11.63-20.96,17.45-31.43,2.76-4.97,8.79-1.34,6.03,3.63Z"/><path class="uuid-600451e9-db7b-4704-a222-a38fd46efb53" d="m914.64,23.11c-8.04,14.88-16.08,29.77-24.11,44.65-2.25,4.17-8.51.41-6.26-3.76,8.04-14.88,16.08-29.77,24.11-44.65,2.25-4.17,8.51-.41,6.26,3.76Z"/><path class="uuid-600451e9-db7b-4704-a222-a38fd46efb53" d="m910.04,7.29c-12.39,20.33-24.44,40.87-36.12,61.63-2.33,4.13-8.59.37-6.26-3.76,11.69-20.76,23.73-41.3,36.12-61.63,2.46-4.04,8.73-.29,6.26,3.76Z"/><path class="uuid-6913aea7-6443-463d-b879-166ab3965ca8" d="m965.23,63.59h-4.85c-1.9,0-3.72-1.7-3.63-3.7.09-2,1.6-3.7,3.63-3.7h4.85c1.9,0,3.72,1.7,3.63,3.7-.09,2-1.6,3.7-3.63,3.7Z"/><path class="uuid-6913aea7-6443-463d-b879-166ab3965ca8" d="m973.3,50.85c-7.9.4-15.79.79-23.69,1.19-4.68.24-4.66-7.16,0-7.39,7.9-.4,15.79-.79,23.69-1.19,4.68-.24,4.66,7.16,0,7.39Z"/><path class="uuid-6913aea7-6443-463d-b879-166ab3965ca8" d="m979.2,37.95c-11.83.24-23.65.47-35.48.71-5.61.11-5.6-7.02,0-7.13,11.83-.24,23.65-.47,35.48-.71,5.61-.11,5.6,7.02,0,7.13Z"/><path class="uuid-6913aea7-6443-463d-b879-166ab3965ca8" d="m986.49,24.55c-16.69.53-33.37,1.06-50.06,1.59-4.68.15-4.67-7.24,0-7.39,16.69-.53,33.37-1.06,50.06-1.59,4.68-.15,4.67,7.24,0,7.39Z"/><path class="uuid-6913aea7-6443-463d-b879-166ab3965ca8" d="m997.54,12.47c-23.51-.51-47.03-.61-70.54-.28-4.68.06-4.68-7.33,0-7.39,23.51-.33,47.03-.23,70.54.28,4.67.1,4.69,7.5,0,7.39Z"/><path class="uuid-600451e9-db7b-4704-a222-a38fd46efb53" d="m1046.41,60.56l-2.47,4.24c-.97,1.66-3.33,2.4-4.98,1.3-1.65-1.1-2.32-3.28-1.28-5.06l2.47-4.24c.97-1.66,3.33-2.4,4.98-1.3,1.65,1.1,2.32,3.28,1.28,5.06Z"/><path class="uuid-600451e9-db7b-4704-a222-a38fd46efb53" d="m1039.73,47.01c-3.68,7.12-7.36,14.23-11.04,21.35-2.18,4.21-8.43.44-6.26-3.76,3.68-7.12,7.36-14.23,11.04-21.35,2.18-4.21,8.43-.44,6.26,3.76Z"/><path class="uuid-600451e9-db7b-4704-a222-a38fd46efb53" d="m1031.81,35.28c-5.82,10.48-11.63,20.96-17.45,31.43-2.76,4.97-8.79,1.34-6.03-3.63,5.82-10.48,11.63-20.96,17.45-31.43,2.76-4.97,8.79-1.34,6.03,3.63Z"/><path class="uuid-600451e9-db7b-4704-a222-a38fd46efb53" d="m1024.17,22.08c-8.04,14.88-16.08,29.77-24.11,44.65-2.25,4.17-8.51.41-6.26-3.76,8.04-14.88,16.08-29.77,24.11-44.65,2.25-4.17,8.51-.41,6.26,3.76Z"/><path class="uuid-600451e9-db7b-4704-a222-a38fd46efb53" d="m1019.57,6.26c-12.39,20.33-24.44,40.87-36.12,61.63-2.33,4.13-8.59.37-6.26-3.76,11.69-20.76,23.73-41.3,36.12-61.63,2.46-4.04,8.73-.29,6.26,3.76Z"/><path class="uuid-600451e9-db7b-4704-a222-a38fd46efb53" d="m1068.87,63.48h-4.85c-1.9,0-3.72-1.7-3.63-3.7.09-2,1.6-3.7,3.63-3.7h4.85c1.9,0,3.72,1.7,3.63,3.7-.09,2-1.6,3.7-3.63,3.7Z"/><path class="uuid-600451e9-db7b-4704-a222-a38fd46efb53" d="m1076.94,50.74c-7.9.4-15.79.79-23.69,1.19-4.68.24-4.66-7.16,0-7.39,7.9-.4,15.79-.79,23.69-1.19,4.68-.24,4.66,7.16,0,7.39Z"/><path class="uuid-600451e9-db7b-4704-a222-a38fd46efb53" d="m1082.84,37.84c-11.83.24-23.65.47-35.48.71-5.61.11-5.6-7.02,0-7.13,11.83-.24,23.65-.47,35.48-.71,5.61-.11,5.6,7.02,0,7.13Z"/><path class="uuid-600451e9-db7b-4704-a222-a38fd46efb53" d="m1090.13,24.43c-16.69.53-33.37,1.06-50.06,1.59-4.68.15-4.67-7.24,0-7.39,16.69-.53,33.37-1.06,50.06-1.59,4.68-.15,4.67,7.24,0,7.39Z"/><path class="uuid-600451e9-db7b-4704-a222-a38fd46efb53" d="m1101.19,12.35c-23.51-.51-47.03-.61-70.54-.28-4.68.06-4.68-7.33,0-7.39,23.51-.33,47.03-.23,70.54.28,4.67.1,4.69,7.5,0,7.39Z"/><path class="uuid-600451e9-db7b-4704-a222-a38fd46efb53" d="m1150.17,60.46l-2.47,4.24c-.97,1.66-3.33,2.4-4.98,1.3-1.65-1.1-2.32-3.28-1.28-5.06l2.47-4.24c.97-1.66,3.33-2.4,4.98-1.3,1.65,1.1,2.32,3.28,1.28,5.06Z"/><path class="uuid-600451e9-db7b-4704-a222-a38fd46efb53" d="m1143.49,46.92c-3.68,7.12-7.36,14.23-11.04,21.35-2.18,4.21-8.43.44-6.26-3.76,3.68-7.12,7.36-14.23,11.04-21.35,2.18-4.21,8.43-.44,6.26,3.76Z"/><path class="uuid-600451e9-db7b-4704-a222-a38fd46efb53" d="m1135.57,35.19c-5.82,10.48-11.63,20.96-17.45,31.43-2.76,4.97-8.79,1.34-6.03-3.63,5.82-10.48,11.63-20.96,17.45-31.43,2.76-4.97,8.79-1.34,6.03,3.63Z"/><path class="uuid-600451e9-db7b-4704-a222-a38fd46efb53" d="m1127.94,21.99c-8.04,14.88-16.08,29.77-24.11,44.65-2.25,4.17-8.51.41-6.26-3.76,8.04-14.88,16.08-29.77,24.11-44.65,2.25-4.17,8.51-.41,6.26,3.76Z"/><path class="uuid-600451e9-db7b-4704-a222-a38fd46efb53" d="m1123.34,6.16c-12.39,20.33-24.44,40.87-36.12,61.63-2.33,4.13-8.59.37-6.26-3.76,11.69-20.76,23.73-41.3,36.12-61.63,2.46-4.04,8.73-.29,6.26,3.76Z"/><path class="uuid-600451e9-db7b-4704-a222-a38fd46efb53" d="m1174.15,64.24h-4.85c-1.9,0-3.72-1.7-3.63-3.7.09-2,1.6-3.7,3.63-3.7h4.85c1.9,0,3.72,1.7,3.63,3.7-.09,2-1.6,3.7-3.63,3.7Z"/><path class="uuid-600451e9-db7b-4704-a222-a38fd46efb53" d="m1182.22,51.5c-7.9.4-15.79.79-23.69,1.19-4.68.24-4.66-7.16,0-7.39,7.9-.4,15.79-.79,23.69-1.19,4.68-.24,4.66,7.16,0,7.39Z"/><path class="uuid-600451e9-db7b-4704-a222-a38fd46efb53" d="m1188.12,38.6c-11.83.24-23.65.47-35.48.71-5.61.11-5.6-7.02,0-7.13,11.83-.24,23.65-.47,35.48-.71,5.61-.11,5.6,7.02,0,7.13Z"/><path class="uuid-600451e9-db7b-4704-a222-a38fd46efb53" d="m1195.41,25.19c-16.69.53-33.37,1.06-50.06,1.59-4.68.15-4.67-7.24,0-7.39,16.69-.53,33.37-1.06,50.06-1.59,4.68-.15,4.67,7.24,0,7.39Z"/><path class="uuid-600451e9-db7b-4704-a222-a38fd46efb53" d="m1206.46,13.12c-23.51-.51-47.03-.61-70.54-.28-4.68.06-4.68-7.33,0-7.39,23.51-.33,47.03-.23,70.54.28,4.67.1,4.69,7.5,0,7.39Z"/><path class="uuid-600451e9-db7b-4704-a222-a38fd46efb53" d="m1257.97,61.33l-2.47,4.24c-.97,1.66-3.33,2.4-4.98,1.3-1.65-1.1-2.32-3.28-1.28-5.06l2.47-4.24c.97-1.66,3.33-2.4,4.98-1.3,1.65,1.1,2.32,3.28,1.28,5.06Z"/><path class="uuid-600451e9-db7b-4704-a222-a38fd46efb53" d="m1251.29,47.78c-3.68,7.12-7.36,14.23-11.04,21.35-2.18,4.21-8.43.44-6.26-3.76,3.68-7.12,7.36-14.23,11.04-21.35,2.18-4.21,8.43-.44,6.26,3.76Z"/><path class="uuid-600451e9-db7b-4704-a222-a38fd46efb53" d="m1243.37,36.06c-5.82,10.48-11.63,20.96-17.45,31.43-2.76,4.97-8.79,1.34-6.03-3.63,5.82-10.48,11.63-20.96,17.45-31.43,2.76-4.97,8.79-1.34,6.03,3.63Z"/><path class="uuid-600451e9-db7b-4704-a222-a38fd46efb53" d="m1235.73,22.86c-8.04,14.88-16.08,29.77-24.11,44.65-2.25,4.17-8.51.41-6.26-3.76,8.04-14.88,16.08-29.77,24.11-44.65,2.25-4.17,8.51-.41,6.26,3.76Z"/><path class="uuid-600451e9-db7b-4704-a222-a38fd46efb53" d="m1231.13,7.03c-12.39,20.33-24.44,40.87-36.12,61.63-2.33,4.13-8.59.37-6.26-3.76,11.69-20.76,23.73-41.3,36.12-61.63,2.46-4.04,8.73-.29,6.26,3.76Z"/><path class="uuid-600451e9-db7b-4704-a222-a38fd46efb53" d="m304.97,60.68l-2.47,4.24c-.97,1.66-3.33,2.4-4.98,1.3-1.65-1.1-2.32-3.28-1.28-5.06l2.47-4.24c.97-1.66,3.33-2.4,4.98-1.3,1.65,1.1,2.32,3.28,1.28,5.06Z"/><path class="uuid-600451e9-db7b-4704-a222-a38fd46efb53" d="m298.29,47.14c-3.68,7.12-7.36,14.23-11.04,21.35-2.18,4.21-8.43.44-6.26-3.76,3.68-7.12,7.36-14.23,11.04-21.35,2.18-4.21,8.43-.44,6.26,3.76Z"/><path class="uuid-600451e9-db7b-4704-a222-a38fd46efb53" d="m290.38,35.41c-5.82,10.48-11.63,20.96-17.45,31.43-2.76,4.97-8.79,1.34-6.03-3.63,5.82-10.48,11.63-20.96,17.45-31.43,2.76-4.97,8.79-1.34,6.03,3.63Z"/><path class="uuid-600451e9-db7b-4704-a222-a38fd46efb53" d="m282.74,22.21c-8.04,14.88-16.08,29.77-24.11,44.65-2.25,4.17-8.51.41-6.26-3.76,8.04-14.88,16.08-29.77,24.11-44.65,2.25-4.17,8.51-.41,6.26,3.76Z"/><path class="uuid-600451e9-db7b-4704-a222-a38fd46efb53" d="m278.14,6.38c-12.39,20.33-24.44,40.87-36.12,61.63-2.33,4.13-8.59.37-6.26-3.76,11.69-20.76,23.73-41.3,36.12-61.63,2.46-4.04,8.73-.29,6.26,3.76Z"/><path class="uuid-600451e9-db7b-4704-a222-a38fd46efb53" d="m87.83,60.67l-2.47,4.24c-.97,1.66-3.33,2.4-4.98,1.3-1.65-1.1-2.32-3.28-1.28-5.06l2.47-4.24c.97-1.66,3.33-2.4,4.98-1.3,1.65,1.1,2.32,3.28,1.28,5.06Z"/><path class="uuid-600451e9-db7b-4704-a222-a38fd46efb53" d="m81.15,47.12c-3.68,7.12-7.36,14.23-11.04,21.35-2.18,4.21-8.43.44-6.26-3.76,3.68-7.12,7.36-14.23,11.04-21.35,2.18-4.21,8.43-.44,6.26,3.76Z"/><path class="uuid-600451e9-db7b-4704-a222-a38fd46efb53" d="m73.23,35.4c-5.82,10.48-11.63,20.96-17.45,31.43-2.76,4.97-8.79,1.34-6.03-3.63,5.82-10.48,11.63-20.96,17.45-31.43,2.76-4.97,8.79-1.34,6.03,3.63Z"/><path class="uuid-600451e9-db7b-4704-a222-a38fd46efb53" d="m65.59,22.19c-8.04,14.88-16.08,29.77-24.11,44.65-2.25,4.17-8.51.41-6.26-3.76,8.04-14.88,16.08-29.77,24.11-44.65,2.25-4.17,8.51-.41,6.26,3.76Z"/><path class="uuid-600451e9-db7b-4704-a222-a38fd46efb53" d="m60.99,6.37c-12.39,20.33-24.44,40.87-36.12,61.63-2.33,4.13-8.59.37-6.26-3.76C30.3,43.48,42.34,22.94,54.73,2.61c2.46-4.04,8.73-.29,6.26,3.76Z"/><path class="uuid-693d33c1-76d7-4b17-b185-e23a04fe6352" d="m110.67,63.46h-4.85c-1.9,0-3.72-1.7-3.63-3.7.09-2,1.6-3.7,3.63-3.7h4.85c1.9,0,3.72,1.7,3.63,3.7-.09,2-1.6,3.7-3.63,3.7Z"/><path class="uuid-693d33c1-76d7-4b17-b185-e23a04fe6352" d="m118.74,50.72c-7.9.4-15.79.79-23.69,1.19-4.68.24-4.66-7.16,0-7.39,7.9-.4,15.79-.79,23.69-1.19,4.68-.24,4.66,7.16,0,7.39Z"/><path class="uuid-693d33c1-76d7-4b17-b185-e23a04fe6352" d="m124.64,37.82c-11.83.24-23.65.47-35.48.71-5.61.11-5.6-7.02,0-7.13,11.83-.24,23.65-.47,35.48-.71,5.61-.11,5.6,7.02,0,7.13Z"/><path class="uuid-693d33c1-76d7-4b17-b185-e23a04fe6352" d="m131.93,24.42c-16.69.53-33.37,1.06-50.06,1.59-4.68.15-4.67-7.24,0-7.39,16.69-.53,33.37-1.06,50.06-1.59,4.68-.15,4.67,7.24,0,7.39Z"/><path class="uuid-693d33c1-76d7-4b17-b185-e23a04fe6352" d="m142.99,12.34c-23.51-.51-47.03-.61-70.54-.28-4.68.06-4.68-7.33,0-7.39,23.51-.33,47.03-.23,70.54.28,4.67.1,4.69,7.5,0,7.39Z"/><path class="uuid-600451e9-db7b-4704-a222-a38fd46efb53" d="m195.7,60.93l-2.47,4.24c-.97,1.66-3.33,2.4-4.98,1.3-1.65-1.1-2.32-3.28-1.28-5.06l2.47-4.24c.97-1.66,3.33-2.4,4.98-1.3,1.65,1.1,2.32,3.28,1.28,5.06Z"/><path class="uuid-600451e9-db7b-4704-a222-a38fd46efb53" d="m189.02,47.38c-3.68,7.12-7.36,14.23-11.04,21.35-2.18,4.21-8.43.44-6.26-3.76,3.68-7.12,7.36-14.23,11.04-21.35,2.18-4.21,8.43-.44,6.26,3.76Z"/><path class="uuid-600451e9-db7b-4704-a222-a38fd46efb53" d="m181.1,35.66c-5.82,10.48-11.63,20.96-17.45,31.43-2.76,4.97-8.79,1.34-6.03-3.63,5.82-10.48,11.63-20.96,17.45-31.43,2.76-4.97,8.79-1.34,6.03,3.63Z"/><path class="uuid-600451e9-db7b-4704-a222-a38fd46efb53" d="m173.46,22.46c-8.04,14.88-16.08,29.77-24.11,44.65-2.25,4.17-8.51.41-6.26-3.76,8.04-14.88,16.08-29.77,24.11-44.65,2.25-4.17,8.51-.41,6.26,3.76Z"/><path class="uuid-600451e9-db7b-4704-a222-a38fd46efb53" d="m168.86,6.63c-12.39,20.33-24.44,40.87-36.12,61.63-2.33,4.13-8.59.37-6.26-3.76,11.69-20.76,23.73-41.3,36.12-61.63,2.46-4.04,8.73-.29,6.26,3.76Z"/><path class="uuid-600451e9-db7b-4704-a222-a38fd46efb53" d="m220.34,63.94h-4.85c-1.9,0-3.72-1.7-3.63-3.7.09-2,1.6-3.7,3.63-3.7h4.85c1.9,0,3.72,1.7,3.63,3.7-.09,2-1.6,3.7-3.63,3.7Z"/><path class="uuid-600451e9-db7b-4704-a222-a38fd46efb53" d="m228.41,51.2c-7.9.4-15.79.79-23.69,1.19-4.68.24-4.66-7.16,0-7.39,7.9-.4,15.79-.79,23.69-1.19,4.68-.24,4.66,7.16,0,7.39Z"/><path class="uuid-600451e9-db7b-4704-a222-a38fd46efb53" d="m234.3,38.3c-11.83.24-23.65.47-35.48.71-5.61.11-5.6-7.02,0-7.13,11.83-.24,23.65-.47,35.48-.71,5.61-.11,5.6,7.02,0,7.13Z"/><path class="uuid-600451e9-db7b-4704-a222-a38fd46efb53" d="m241.59,24.9c-16.69.53-33.37,1.06-50.06,1.59-4.68.15-4.67-7.24,0-7.39,16.69-.53,33.37-1.06,50.06-1.59,4.68-.15,4.67,7.24,0,7.39Z"/><path class="uuid-600451e9-db7b-4704-a222-a38fd46efb53" d="m252.65,12.82c-23.51-.51-47.03-.61-70.54-.28-4.68.06-4.68-7.33,0-7.39,23.51-.33,47.03-.23,70.54.28,4.67.1,4.69,7.5,0,7.39Z"/><path class="uuid-693d33c1-76d7-4b17-b185-e23a04fe6352" d="m1394.08,64.28h-4.85c-1.9,0-3.72-1.7-3.63-3.7.09-2,1.6-3.7,3.63-3.7h4.85c1.9,0,3.72,1.7,3.63,3.7-.09,2-1.6,3.7-3.63,3.7Z"/><path class="uuid-693d33c1-76d7-4b17-b185-e23a04fe6352" d="m1402.15,51.54c-7.9.4-15.79.79-23.69,1.19-4.68.24-4.66-7.16,0-7.39,7.9-.4,15.79-.79,23.69-1.19,4.68-.24,4.66,7.16,0,7.39Z"/><path class="uuid-693d33c1-76d7-4b17-b185-e23a04fe6352" d="m1408.04,38.64c-11.83.24-23.65.47-35.48.71-5.61.11-5.6-7.02,0-7.13,11.83-.24,23.65-.47,35.48-.71,5.61-.11,5.6,7.02,0,7.13Z"/><path class="uuid-693d33c1-76d7-4b17-b185-e23a04fe6352" d="m1415.34,25.23c-16.69.53-33.37,1.06-50.06,1.59-4.68.15-4.67-7.24,0-7.39,16.69-.53,33.37-1.06,50.06-1.59,4.68-.15,4.67,7.24,0,7.39Z"/><path class="uuid-693d33c1-76d7-4b17-b185-e23a04fe6352" d="m1426.39,13.16c-23.51-.51-47.03-.61-70.54-.28-4.68.06-4.68-7.33,0-7.39,23.51-.33,47.03-.23,70.54.28,4.67.1,4.69,7.5,0,7.39Z"/><path class="uuid-600451e9-db7b-4704-a222-a38fd46efb53" d="m1475.25,61.24l-2.47,4.24c-.97,1.66-3.33,2.4-4.98,1.3-1.65-1.1-2.32-3.28-1.28-5.06l2.47-4.24c.97-1.66,3.33-2.4,4.98-1.3,1.65,1.1,2.32,3.28,1.28,5.06Z"/><path class="uuid-600451e9-db7b-4704-a222-a38fd46efb53" d="m1468.57,47.7c-3.68,7.12-7.36,14.23-11.04,21.35-2.18,4.21-8.43.44-6.26-3.76,3.68-7.12,7.36-14.23,11.04-21.35,2.18-4.21,8.43-.44,6.26,3.76Z"/><path class="uuid-600451e9-db7b-4704-a222-a38fd46efb53" d="m1460.66,35.97c-5.82,10.48-11.63,20.96-17.45,31.43-2.76,4.97-8.79,1.34-6.03-3.63,5.82-10.48,11.63-20.96,17.45-31.43,2.76-4.97,8.79-1.34,6.03,3.63Z"/><path class="uuid-600451e9-db7b-4704-a222-a38fd46efb53" d="m1453.02,22.77c-8.04,14.88-16.08,29.77-24.11,44.65-2.25,4.17-8.51.41-6.26-3.76,8.04-14.88,16.08-29.77,24.11-44.65,2.25-4.17,8.51-.41,6.26,3.76Z"/><path class="uuid-600451e9-db7b-4704-a222-a38fd46efb53" d="m1448.42,6.94c-12.39,20.33-24.44,40.87-36.12,61.63-2.33,4.13-8.59.37-6.26-3.76,11.69-20.76,23.73-41.3,36.12-61.63,2.46-4.04,8.73-.29,6.26,3.76Z"/><path class="uuid-600451e9-db7b-4704-a222-a38fd46efb53" d="m1498.54,64.28h-4.85c-1.9,0-3.72-1.7-3.63-3.7.09-2,1.6-3.7,3.63-3.7h4.85c1.9,0,3.72,1.7,3.63,3.7-.09,2-1.6,3.7-3.63,3.7Z"/><path class="uuid-600451e9-db7b-4704-a222-a38fd46efb53" d="m1506.61,51.54c-7.9.4-15.79.79-23.69,1.19-4.68.24-4.66-7.16,0-7.39,7.9-.4,15.79-.79,23.69-1.19,4.68-.24,4.66,7.16,0,7.39Z"/><path class="uuid-600451e9-db7b-4704-a222-a38fd46efb53" d="m1512.5,38.64c-11.83.24-23.65.47-35.48.71-5.61.11-5.6-7.02,0-7.13,11.83-.24,23.65-.47,35.48-.71,5.61-.11,5.6,7.02,0,7.13Z"/><path class="uuid-600451e9-db7b-4704-a222-a38fd46efb53" d="m1519.79,25.23c-16.69.53-33.37,1.06-50.06,1.59-4.68.15-4.67-7.24,0-7.39,16.69-.53,33.37-1.06,50.06-1.59,4.68-.15,4.67,7.24,0,7.39Z"/><path class="uuid-600451e9-db7b-4704-a222-a38fd46efb53" d="m1530.85,13.16c-23.51-.51-47.03-.61-70.54-.28-4.68.06-4.68-7.33,0-7.39,23.51-.33,47.03-.23,70.54.28,4.67.1,4.69,7.5,0,7.39Z"/><path class="uuid-600451e9-db7b-4704-a222-a38fd46efb53" d="m1580.03,60.98l-2.47,4.24c-.97,1.66-3.33,2.4-4.98,1.3-1.65-1.1-2.32-3.28-1.28-5.06l2.47-4.24c.97-1.66,3.33-2.4,4.98-1.3,1.65,1.1,2.32,3.28,1.28,5.06Z"/><path class="uuid-600451e9-db7b-4704-a222-a38fd46efb53" d="m1573.35,47.43c-3.68,7.12-7.36,14.23-11.04,21.35-2.18,4.21-8.43.44-6.26-3.76,3.68-7.12,7.36-14.23,11.04-21.35,2.18-4.21,8.43-.44,6.26,3.76Z"/><path class="uuid-600451e9-db7b-4704-a222-a38fd46efb53" d="m1565.44,35.71c-5.82,10.48-11.63,20.96-17.45,31.43-2.76,4.97-8.79,1.34-6.03-3.63,5.82-10.48,11.63-20.96,17.45-31.43,2.76-4.97,8.79-1.34,6.03,3.63Z"/><path class="uuid-600451e9-db7b-4704-a222-a38fd46efb53" d="m1557.8,22.51c-8.04,14.88-16.08,29.77-24.11,44.65-2.25,4.17-8.51.41-6.26-3.76,8.04-14.88,16.08-29.77,24.11-44.65,2.25-4.17,8.51-.41,6.26,3.76Z"/><path class="uuid-600451e9-db7b-4704-a222-a38fd46efb53" d="m1553.2,6.68c-12.39,20.33-24.44,40.87-36.12,61.63-2.33,4.13-8.59.37-6.26-3.76,11.69-20.76,23.73-41.3,36.12-61.63,2.46-4.04,8.73-.29,6.26,3.76Z"/><path class="uuid-600451e9-db7b-4704-a222-a38fd46efb53" d="m1603,63.91h-4.85c-1.9,0-3.72-1.7-3.63-3.7.09-2,1.6-3.7,3.63-3.7h4.85c1.9,0,3.72,1.7,3.63,3.7-.09,2-1.6,3.7-3.63,3.7Z"/><path class="uuid-600451e9-db7b-4704-a222-a38fd46efb53" d="m1611.07,51.17c-7.9.4-15.79.79-23.69,1.19-4.68.24-4.66-7.16,0-7.39,7.9-.4,15.79-.79,23.69-1.19,4.68-.24,4.66,7.16,0,7.39Z"/><path class="uuid-600451e9-db7b-4704-a222-a38fd46efb53" d="m1616.96,38.27c-11.83.24-23.65.47-35.48.71-5.61.11-5.6-7.02,0-7.13,11.83-.24,23.65-.47,35.48-.71,5.61-.11,5.6,7.02,0,7.13Z"/><path class="uuid-600451e9-db7b-4704-a222-a38fd46efb53" d="m1624.26,24.86c-16.69.53-33.37,1.06-50.06,1.59-4.68.15-4.67-7.24,0-7.39,16.69-.53,33.37-1.06,50.06-1.59,4.68-.15,4.67,7.24,0,7.39Z"/><path class="uuid-600451e9-db7b-4704-a222-a38fd46efb53" d="m1635.31,12.78c-23.51-.51-47.03-.61-70.54-.28-4.68.06-4.68-7.33,0-7.39,23.51-.33,47.03-.23,70.54.28,4.67.1,4.69,7.5,0,7.39Z"/><path class="uuid-600451e9-db7b-4704-a222-a38fd46efb53" d="m1686.15,60.58l-2.47,4.24c-.97,1.66-3.33,2.4-4.98,1.3-1.65-1.1-2.32-3.28-1.28-5.06l2.47-4.24c.97-1.66,3.33-2.4,4.98-1.3,1.65,1.1,2.32,3.28,1.28,5.06Z"/><path class="uuid-600451e9-db7b-4704-a222-a38fd46efb53" d="m1679.47,47.03c-3.68,7.12-7.36,14.23-11.04,21.35-2.18,4.21-8.43.44-6.26-3.76,3.68-7.12,7.36-14.23,11.04-21.35,2.18-4.21,8.43-.44,6.26,3.76Z"/><path class="uuid-600451e9-db7b-4704-a222-a38fd46efb53" d="m1671.55,35.31c-5.82,10.48-11.63,20.96-17.45,31.43-2.76,4.97-8.79,1.34-6.03-3.63,5.82-10.48,11.63-20.96,17.45-31.43,2.76-4.97,8.79-1.34,6.03,3.63Z"/><path class="uuid-600451e9-db7b-4704-a222-a38fd46efb53" d="m1663.91,22.1c-8.04,14.88-16.08,29.77-24.11,44.65-2.25,4.17-8.51.41-6.26-3.76,8.04-14.88,16.08-29.77,24.11-44.65,2.25-4.17,8.51-.41,6.26,3.76Z"/><path class="uuid-600451e9-db7b-4704-a222-a38fd46efb53" d="m1659.31,6.28c-12.39,20.33-24.44,40.87-36.12,61.63-2.33,4.13-8.59.37-6.26-3.76,11.69-20.76,23.73-41.3,36.12-61.63,2.46-4.04,8.73-.29,6.26,3.76Z"/><path class="uuid-600451e9-db7b-4704-a222-a38fd46efb53" d="m1710.09,64.67h-4.85c-1.9,0-3.72-1.7-3.63-3.7.09-2,1.6-3.7,3.63-3.7h4.85c1.9,0,3.72,1.7,3.63,3.7-.09,2-1.6,3.7-3.63,3.7Z"/><path class="uuid-600451e9-db7b-4704-a222-a38fd46efb53" d="m1718.16,51.93c-7.9.4-15.79.79-23.69,1.19-4.68.24-4.66-7.16,0-7.39,7.9-.4,15.79-.79,23.69-1.19,4.68-.24,4.66,7.16,0,7.39Z"/><path class="uuid-600451e9-db7b-4704-a222-a38fd46efb53" d="m1724.06,39.03c-11.83.24-23.65.47-35.48.71-5.61.11-5.6-7.02,0-7.13,11.83-.24,23.65-.47,35.48-.71,5.61-.11,5.6,7.02,0,7.13Z"/><path class="uuid-600451e9-db7b-4704-a222-a38fd46efb53" d="m1731.35,25.62c-16.69.53-33.37,1.06-50.06,1.59-4.68.15-4.67-7.24,0-7.39,16.69-.53,33.37-1.06,50.06-1.59,4.68-.15,4.67,7.24,0,7.39Z"/><path class="uuid-600451e9-db7b-4704-a222-a38fd46efb53" d="m1742.41,13.55c-23.51-.51-47.03-.61-70.54-.28-4.68.06-4.68-7.33,0-7.39,23.51-.33,47.03-.23,70.54.28,4.67.1,4.69,7.5,0,7.39Z"/><path class="uuid-600451e9-db7b-4704-a222-a38fd46efb53" d="m1792.49,60.89l-2.47,4.24c-.97,1.66-3.33,2.4-4.98,1.3-1.65-1.1-2.32-3.28-1.28-5.06l2.47-4.24c.97-1.66,3.33-2.4,4.98-1.3,1.65,1.1,2.32,3.28,1.28,5.06Z"/><path class="uuid-600451e9-db7b-4704-a222-a38fd46efb53" d="m1785.81,47.35c-3.68,7.12-7.36,14.23-11.04,21.35-2.18,4.21-8.43.44-6.26-3.76,3.68-7.12,7.36-14.23,11.04-21.35,2.18-4.21,8.43-.44,6.26,3.76Z"/><path class="uuid-600451e9-db7b-4704-a222-a38fd46efb53" d="m1777.89,35.62c-5.82,10.48-11.63,20.96-17.45,31.43-2.76,4.97-8.79,1.34-6.03-3.63,5.82-10.48,11.63-20.96,17.45-31.43,2.76-4.97,8.79-1.34,6.03,3.63Z"/><path class="uuid-600451e9-db7b-4704-a222-a38fd46efb53" d="m1770.25,22.42c-8.04,14.88-16.08,29.77-24.11,44.65-2.25,4.17-8.51.41-6.26-3.76,8.04-14.88,16.08-29.77,24.11-44.65,2.25-4.17,8.51-.41,6.26,3.76Z"/><path class="uuid-600451e9-db7b-4704-a222-a38fd46efb53" d="m1765.66,6.59c-12.39,20.33-24.44,40.87-36.12,61.63-2.33,4.13-8.59.37-6.26-3.76,11.69-20.76,23.73-41.3,36.12-61.63,2.46-4.04,8.73-.29,6.26,3.76Z"/><path class="uuid-f55de303-4c9c-479e-a1f3-fc6ebf6f0329" d="m1814.55,64.29h-4.85c-1.9,0-3.72-1.7-3.63-3.7.09-2,1.6-3.7,3.63-3.7h4.85c1.9,0,3.72,1.7,3.63,3.7-.09,2-1.6,3.7-3.63,3.7Z"/><path class="uuid-f55de303-4c9c-479e-a1f3-fc6ebf6f0329" d="m1822.62,51.55c-7.9.4-15.79.79-23.69,1.19-4.68.24-4.66-7.16,0-7.39,7.9-.4,15.79-.79,23.69-1.19,4.68-.24,4.66,7.16,0,7.39Z"/><path class="uuid-f55de303-4c9c-479e-a1f3-fc6ebf6f0329" d="m1828.52,38.65c-11.83.24-23.65.47-35.48.71-5.61.11-5.6-7.02,0-7.13,11.83-.24,23.65-.47,35.48-.71,5.61-.11,5.6,7.02,0,7.13Z"/><path class="uuid-f55de303-4c9c-479e-a1f3-fc6ebf6f0329" d="m1835.81,25.25c-16.69.53-33.37,1.06-50.06,1.59-4.68.15-4.67-7.24,0-7.39,16.69-.53,33.37-1.06,50.06-1.59,4.68-.15,4.67,7.24,0,7.39Z"/><path class="uuid-f55de303-4c9c-479e-a1f3-fc6ebf6f0329" d="m1846.86,13.17c-23.51-.51-47.03-.61-70.54-.28-4.68.06-4.68-7.33,0-7.39,23.51-.33,47.03-.23,70.54.28,4.67.1,4.69,7.5,0,7.39Z"/><path class="uuid-600451e9-db7b-4704-a222-a38fd46efb53" d="m1897.43,60.63l-2.47,4.24c-.97,1.66-3.33,2.4-4.98,1.3-1.65-1.1-2.32-3.28-1.28-5.06l2.47-4.24c.97-1.66,3.33-2.4,4.98-1.3,1.65,1.1,2.32,3.28,1.28,5.06Z"/><path class="uuid-600451e9-db7b-4704-a222-a38fd46efb53" d="m1890.75,47.09c-3.68,7.12-7.36,14.23-11.04,21.35-2.18,4.21-8.43.44-6.26-3.76,3.68-7.12,7.36-14.23,11.04-21.35,2.18-4.21,8.43-.44,6.26,3.76Z"/><path class="uuid-600451e9-db7b-4704-a222-a38fd46efb53" d="m1882.83,35.36c-5.82,10.48-11.63,20.96-17.45,31.43-2.76,4.97-8.79,1.34-6.03-3.63,5.82-10.48,11.63-20.96,17.45-31.43,2.76-4.97,8.79-1.34,6.03,3.63Z"/><path class="uuid-600451e9-db7b-4704-a222-a38fd46efb53" d="m1875.19,22.16c-8.04,14.88-16.08,29.77-24.11,44.65-2.25,4.17-8.51.41-6.26-3.76,8.04-14.88,16.08-29.77,24.11-44.65,2.25-4.17,8.51-.41,6.26,3.76Z"/><path class="uuid-600451e9-db7b-4704-a222-a38fd46efb53" d="m1870.59,6.33c-12.39,20.33-24.44,40.87-36.12,61.63-2.33,4.13-8.59.37-6.26-3.76,11.69-20.76,23.73-41.3,36.12-61.63,2.46-4.04,8.73-.29,6.26,3.76Z"/><path class="uuid-600451e9-db7b-4704-a222-a38fd46efb53" d="m1368.65,61.24l-2.47,4.24c-.97,1.66-3.33,2.4-4.98,1.3-1.65-1.1-2.32-3.28-1.28-5.06l2.47-4.24c.97-1.66,3.33-2.4,4.98-1.3,1.65,1.1,2.32,3.28,1.28,5.06Z"/><path class="uuid-600451e9-db7b-4704-a222-a38fd46efb53" d="m1361.97,47.69c-3.68,7.12-7.36,14.23-11.04,21.35-2.18,4.21-8.43.44-6.26-3.76,3.68-7.12,7.36-14.23,11.04-21.35,2.18-4.21,8.43-.44,6.26,3.76Z"/><path class="uuid-600451e9-db7b-4704-a222-a38fd46efb53" d="m1354.05,35.97c-5.82,10.48-11.63,20.96-17.45,31.43-2.76,4.97-8.79,1.34-6.03-3.63,5.82-10.48,11.63-20.96,17.45-31.43,2.76-4.97,8.79-1.34,6.03,3.63Z"/><path class="uuid-600451e9-db7b-4704-a222-a38fd46efb53" d="m1346.42,22.76c-8.04,14.88-16.08,29.77-24.11,44.65-2.25,4.17-8.51.41-6.26-3.76,8.04-14.88,16.08-29.77,24.11-44.65,2.25-4.17,8.51-.41,6.26,3.76Z"/><path class="uuid-600451e9-db7b-4704-a222-a38fd46efb53" d="m1341.82,6.94c-12.39,20.33-24.44,40.87-36.12,61.63-2.33,4.13-8.59.37-6.26-3.76,11.69-20.76,23.73-41.3,36.12-61.63,2.46-4.04,8.73-.29,6.26,3.76Z"/><path class="uuid-600451e9-db7b-4704-a222-a38fd46efb53" d="m1284.29,63.74h-4.85c-1.9,0-3.72-1.7-3.63-3.7.09-2,1.6-3.7,3.63-3.7h4.85c1.9,0,3.72,1.7,3.63,3.7-.09,2-1.6,3.7-3.63,3.7Z"/><path class="uuid-600451e9-db7b-4704-a222-a38fd46efb53" d="m1292.36,51c-7.9.4-15.79.79-23.69,1.19-4.68.24-4.66-7.16,0-7.39,7.9-.4,15.79-.79,23.69-1.19,4.68-.24,4.66,7.16,0,7.39Z"/><path class="uuid-600451e9-db7b-4704-a222-a38fd46efb53" d="m1298.26,38.1c-11.83.24-23.65.47-35.48.71-5.61.11-5.6-7.02,0-7.13,11.83-.24,23.65-.47,35.48-.71,5.61-.11,5.6,7.02,0,7.13Z"/><path class="uuid-600451e9-db7b-4704-a222-a38fd46efb53" d="m1305.55,24.7c-16.69.53-33.37,1.06-50.06,1.59-4.68.15-4.67-7.24,0-7.39,16.69-.53,33.37-1.06,50.06-1.59,4.68-.15,4.67,7.24,0,7.39Z"/><path class="uuid-600451e9-db7b-4704-a222-a38fd46efb53" d="m1316.6,12.62c-23.51-.51-47.03-.61-70.54-.28-4.68.06-4.68-7.33,0-7.39,23.51-.33,47.03-.23,70.54.28,4.67.1,4.69,7.5,0,7.39Z"/><path class="uuid-600451e9-db7b-4704-a222-a38fd46efb53" d="m37.76,5.32C25.18,4.85,12.59,4.75,0,4.98v7.39c12.59-.23,25.17-.12,37.76.34,2.76.1,2.75-7.29,0-7.39Z"/><path class="uuid-600451e9-db7b-4704-a222-a38fd46efb53" d="m25.47,17.4c-8.49.47-16.98.95-25.46,1.42v7.39c8.49-.47,16.98-.95,25.46-1.42,2.66-.15,2.67-7.54,0-7.39Z"/><path class="uuid-600451e9-db7b-4704-a222-a38fd46efb53" d="m17.69,31.07c-5.89.21-11.79.41-17.68.62v7.13c5.89-.21,11.79-.41,17.68-.62,3.21-.11,3.22-7.24,0-7.13Z"/><path class="uuid-600451e9-db7b-4704-a222-a38fd46efb53" d="m10.69,43.7c-3.56.31-7.12.62-10.68.93v7.39c3.56-.31,7.12-.62,10.68-.93,2.7-.23,2.71-7.63,0-7.39Z"/><path class="uuid-600451e9-db7b-4704-a222-a38fd46efb53" d="m1.17,56.44H0v7.39h1.16c1.5,0,2.61-1.69,2.67-3.7.06-2-1.28-3.7-2.67-3.7Z"/><path class="uuid-600451e9-db7b-4704-a222-a38fd46efb53" d="m1920.01,5.33c-12.47-.35-24.95-.4-37.42-.12-2.87.06-2.87,7.46,0,7.39,12.47-.28,24.95-.23,37.42.12v-7.39Z"/><path class="uuid-600451e9-db7b-4704-a222-a38fd46efb53" d="m1919.98,17.86c-8.8.44-17.6.87-26.41,1.31-3,.15-3.01,7.54,0,7.39,8.8-.44,17.6-.87,26.41-1.31v-7.39Z"/><path class="uuid-600451e9-db7b-4704-a222-a38fd46efb53" d="m1920.01,31.4c-6.1.18-12.19.37-18.29.55-3.71.11-3.71,7.24,0,7.13,6.1-.18,12.19-.37,18.29-.55v-7.13Z"/><path class="uuid-600451e9-db7b-4704-a222-a38fd46efb53" d="m1920.01,44.28l-11.01.79c-3.26.23-3.27,7.63,0,7.39l11.01-.79v-7.39Z"/><path class="uuid-600451e9-db7b-4704-a222-a38fd46efb53" d="m1920.01,56.62h-2.42c-1.54,0-2.68,1.69-2.75,3.7-.07,2,1.31,3.7,2.75,3.7h2.42v-7.39Z"/><path class="uuid-600451e9-db7b-4704-a222-a38fd46efb53" d="m1919.97,85.98c-250.58.14-501.17.27-751.75.41-249.42.13-498.84.27-748.26.4-139.99.08-279.98.15-419.96.23v7.39c249.96-.13,499.91-.27,749.86-.4l748.57-.4c140.52-.08,281.04-.15,421.55-.23v-7.39Z"/></svg>