<?xml version="1.0" encoding="UTF-8"?><svg id="uuid-4a9ea730-eb43-47ea-9d97-805d9a7f295f" xmlns="http://www.w3.org/2000/svg" viewBox="0 0 1365.98 91.51"><path d="m996.67,28.29h4.88c1.91,0,3.75,1.68,3.66,3.66-.09,1.98-1.61,3.66-3.66,3.66h-4.88c-1.91,0-3.75-1.68-3.66-3.66.09-1.98,1.61-3.66,3.66-3.66Z" style="fill:#151515;"/><path d="m988.54,40.91c7.95-.39,15.91-.79,23.86-1.18,4.71-.23,4.7,7.09,0,7.32-7.95.39-15.91.79-23.86,1.18-4.71.23-4.7-7.09,0-7.32Z" style="fill:#151515;"/><path d="m982.6,53.68c11.91-.23,23.82-.47,35.74-.7,5.65-.11,5.65,6.95,0,7.06-11.91.23-23.82.47-35.74.7-5.65.11-5.65-6.95,0-7.06Z" style="fill:#151515;"/><path d="m975.26,66.96c16.81-.53,33.62-1.05,50.42-1.58,4.71-.15,4.71,7.17,0,7.32-16.81.53-33.62,1.05-50.42,1.58-4.71.15-4.71-7.17,0-7.32Z" style="fill:#151515;"/><path d="m964.12,78.92c23.68.51,47.37.6,71.05.28,4.71-.06,4.72,7.26,0,7.32-23.68.32-47.37.23-71.05-.28-4.7-.1-4.72-7.42,0-7.32Z" style="fill:#151515;"/><path d="m914.9,32.29l2.48-4.2c.97-1.65,3.36-2.37,5.01-1.29,1.66,1.09,2.33,3.25,1.29,5.01l-2.48,4.2c-.97,1.65-3.36,2.37-5.01,1.29-1.66-1.09-2.33-3.25-1.29-5.01Z" style="fill:#151515;"/><path d="m921.63,45.71c3.71-7.05,7.41-14.09,11.12-21.14,2.2-4.17,8.49-.44,6.3,3.72-3.71,7.05-7.41,14.09-11.12,21.14-2.2,4.17-8.49.44-6.3-3.72Z" style="fill:#151515;"/><path d="m929.61,57.32c5.86-10.38,11.72-20.75,17.57-31.13,2.78-4.92,8.85-1.33,6.08,3.59-5.86,10.38-11.72,20.75-17.57,31.13-2.78,4.92-8.85,1.33-6.08-3.59Z" style="fill:#151515;"/><path d="m937.3,70.4c8.1-14.74,16.19-29.48,24.29-44.22,2.27-4.13,8.57-.4,6.3,3.72-8.1,14.74-16.19,29.48-24.29,44.22-2.27,4.13-8.57.4-6.3-3.72Z" style="fill:#151515;"/><path d="m941.93,86.07c12.48-20.13,24.61-40.48,36.38-61.03,2.34-4.09,8.65-.37,6.3,3.72-11.77,20.56-23.9,40.9-36.38,61.03-2.48,4-8.79.29-6.3-3.72Z" style="fill:#151515;"/><path d="m891.45,28.29h4.88c1.91,0,3.75,1.68,3.66,3.66-.09,1.98-1.61,3.66-3.66,3.66h-4.88c-1.91,0-3.75-1.68-3.66-3.66.09-1.98,1.61-3.66,3.66-3.66Z" style="fill:#151515;"/><path d="m883.33,40.91c7.95-.39,15.91-.79,23.86-1.18,4.71-.23,4.7,7.09,0,7.32-7.95.39-15.91.79-23.86,1.18-4.71.23-4.7-7.09,0-7.32Z" style="fill:#151515;"/><path d="m877.39,53.68c11.91-.23,23.82-.47,35.74-.7,5.65-.11,5.65,6.95,0,7.06-11.91.23-23.82.47-35.74.7-5.65.11-5.65-6.95,0-7.06Z" style="fill:#151515;"/><path d="m870.04,66.96c16.81-.53,33.62-1.05,50.42-1.58,4.71-.15,4.71,7.17,0,7.32-16.81.53-33.62,1.05-50.42,1.58-4.71.15-4.71-7.17,0-7.32Z" style="fill:#151515;"/><path d="m858.91,78.92c23.68.51,47.37.6,71.05.28,4.71-.06,4.72,7.26,0,7.32-23.68.32-47.37.23-71.05-.28-4.7-.1-4.72-7.42,0-7.32Z" style="fill:#151515;"/><path d="m810.66,30.15l2.48-4.2c.97-1.65,3.36-2.37,5.01-1.29,1.66,1.09,2.33,3.25,1.29,5.01l-2.48,4.2c-.97,1.65-3.36,2.37-5.01,1.29-1.66-1.09-2.33-3.25-1.29-5.01Z" style="fill:#151515;"/><path d="m817.39,43.57c3.71-7.05,7.41-14.09,11.12-21.14,2.2-4.17,8.49-.44,6.3,3.72-3.71,7.05-7.41,14.09-11.12,21.14-2.2,4.17-8.49.44-6.3-3.72Z" style="fill:#151515;"/><path d="m825.37,55.18c5.86-10.38,11.72-20.75,17.57-31.13,2.78-4.92,8.85-1.33,6.08,3.59-5.86,10.38-11.72,20.75-17.57,31.13-2.78,4.92-8.85,1.33-6.08-3.59Z" style="fill:#151515;"/><path d="m833.06,68.25c8.1-14.74,16.19-29.48,24.29-44.22,2.27-4.13,8.57-.4,6.3,3.72-8.1,14.74-16.19,29.48-24.29,44.22-2.27,4.13-8.57.4-6.3-3.72Z" style="fill:#151515;"/><path d="m837.69,83.92c12.48-20.13,24.61-40.48,36.38-61.03,2.34-4.09,8.65-.37,6.3,3.72-11.77,20.56-23.9,40.9-36.38,61.03-2.48,4-8.79.29-6.3-3.72Z" style="fill:#151515;"/><path d="m786.24,28.66h4.88c1.91,0,3.75,1.68,3.66,3.66-.09,1.98-1.61,3.66-3.66,3.66h-4.88c-1.91,0-3.75-1.68-3.66-3.66.09-1.98,1.61-3.66,3.66-3.66Z" style="fill:#00a383;"/><path d="m778.11,41.27c7.95-.39,15.91-.79,23.86-1.18,4.71-.23,4.7,7.09,0,7.32-7.95.39-15.91.79-23.86,1.18-4.71.23-4.7-7.09,0-7.32Z" style="fill:#00a383;"/><path d="m772.17,54.05c11.91-.23,23.82-.47,35.74-.7,5.65-.11,5.65,6.95,0,7.06-11.91.23-23.82.47-35.74.7-5.65.11-5.65-6.95,0-7.06Z" style="fill:#00a383;"/><path d="m764.83,67.32c16.81-.53,33.62-1.05,50.42-1.58,4.71-.15,4.71,7.17,0,7.32-16.81.53-33.62,1.05-50.42,1.58-4.71.15-4.71-7.17,0-7.32Z" style="fill:#00a383;"/><path d="m753.69,79.28c23.68.51,47.37.6,71.05.28,4.71-.06,4.72,7.26,0,7.32-23.68.32-47.37.23-71.05-.28-4.7-.1-4.72-7.42,0-7.32Z" style="fill:#00a383;"/><path d="m703.83,29.51l2.48-4.2c.97-1.65,3.36-2.37,5.01-1.29,1.66,1.09,2.33,3.25,1.29,5.01l-2.48,4.2c-.97,1.65-3.36,2.37-5.01,1.29-1.66-1.09-2.33-3.25-1.29-5.01Z" style="fill:#151515;"/><path d="m710.56,42.93c3.71-7.05,7.41-14.09,11.12-21.14,2.2-4.17,8.49-.44,6.3,3.72-3.71,7.05-7.41,14.09-11.12,21.14-2.2,4.17-8.49.44-6.3-3.72Z" style="fill:#151515;"/><path d="m718.53,54.54c5.86-10.38,11.72-20.75,17.57-31.13,2.78-4.92,8.85-1.33,6.08,3.59-5.86,10.38-11.72,20.75-17.57,31.13-2.78,4.92-8.85,1.33-6.08-3.59Z" style="fill:#151515;"/><path d="m726.23,67.61c8.1-14.74,16.19-29.48,24.29-44.22,2.27-4.13,8.57-.4,6.3,3.72-8.1,14.74-16.19,29.48-24.29,44.22-2.27,4.13-8.57.4-6.3-3.72Z" style="fill:#151515;"/><path d="m730.86,83.28c12.48-20.13,24.61-40.48,36.38-61.03,2.34-4.09,8.65-.37,6.3,3.72-11.77,20.56-23.9,40.9-36.38,61.03-2.48,4-8.79.29-6.3-3.72Z" style="fill:#151515;"/><path d="m678.37,28.9h4.88c1.91,0,3.75,1.68,3.66,3.66-.09,1.98-1.61,3.66-3.66,3.66h-4.88c-1.91,0-3.75-1.68-3.66-3.66.09-1.98,1.61-3.66,3.66-3.66Z" style="fill:#151515;"/><path d="m670.24,41.52c7.95-.39,15.91-.79,23.86-1.18,4.71-.23,4.7,7.09,0,7.32-7.95.39-15.91.79-23.86,1.18-4.71.23-4.7-7.09,0-7.32Z" style="fill:#151515;"/><path d="m664.3,54.29c11.91-.23,23.82-.47,35.74-.7,5.65-.11,5.65,6.95,0,7.06-11.91.23-23.82.47-35.74.7-5.65.11-5.65-6.95,0-7.06Z" style="fill:#151515;"/><path d="m656.96,67.57c16.81-.53,33.62-1.05,50.42-1.58,4.71-.15,4.71,7.17,0,7.32-16.81.53-33.62,1.05-50.42,1.58-4.71.15-4.71-7.17,0-7.32Z" style="fill:#151515;"/><path d="m645.82,79.53c23.68.51,47.37.6,71.05.28,4.71-.06,4.72,7.26,0,7.32-23.68.32-47.37.23-71.05-.28-4.7-.1-4.72-7.42,0-7.32Z" style="fill:#151515;"/><path d="m596.6,30.9l2.48-4.2c.97-1.65,3.36-2.37,5.01-1.29,1.66,1.09,2.33,3.25,1.29,5.01l-2.48,4.2c-.97,1.65-3.36,2.37-5.01,1.29-1.66-1.09-2.33-3.25-1.29-5.01Z" style="fill:#151515;"/><path d="m603.33,44.32c3.71-7.05,7.41-14.09,11.12-21.14,2.2-4.17,8.49-.44,6.3,3.72-3.71,7.05-7.41,14.09-11.12,21.14-2.2,4.17-8.49.44-6.3-3.72Z" style="fill:#151515;"/><path d="m611.31,55.93c5.86-10.38,11.72-20.75,17.57-31.13,2.78-4.92,8.85-1.33,6.08,3.59-5.86,10.38-11.72,20.75-17.57,31.13-2.78,4.92-8.85,1.33-6.08-3.59Z" style="fill:#151515;"/><path d="m619,69c8.1-14.74,16.19-29.48,24.29-44.22,2.27-4.13,8.57-.4,6.3,3.72-8.1,14.74-16.19,29.48-24.29,44.22-2.27,4.13-8.57.4-6.3-3.72Z" style="fill:#151515;"/><path d="m623.63,84.67c12.48-20.13,24.61-40.48,36.38-61.03,2.34-4.09,8.65-.37,6.3,3.72-11.77,20.56-23.9,40.9-36.38,61.03-2.48,4-8.79.29-6.3-3.72Z" style="fill:#151515;"/><path d="m573.15,27.9h4.88c1.91,0,3.75,1.68,3.66,3.66-.09,1.98-1.61,3.66-3.66,3.66h-4.88c-1.91,0-3.75-1.68-3.66-3.66.09-1.98,1.61-3.66,3.66-3.66Z" style="fill:#151515;"/><path d="m565.03,40.52c7.95-.39,15.91-.79,23.86-1.18,4.71-.23,4.7,7.09,0,7.32-7.95.39-15.91.79-23.86,1.18-4.71.23-4.7-7.09,0-7.32Z" style="fill:#151515;"/><path d="m559.09,53.29c11.91-.23,23.82-.47,35.74-.7,5.65-.11,5.65,6.95,0,7.06-11.91.23-23.82.47-35.74.7-5.65.11-5.65-6.95,0-7.06Z" style="fill:#151515;"/><path d="m551.74,66.57c16.81-.53,33.62-1.05,50.42-1.58,4.71-.15,4.71,7.17,0,7.32-16.81.53-33.62,1.05-50.42,1.58-4.71.15-4.71-7.17,0-7.32Z" style="fill:#151515;"/><path d="m540.61,78.53c23.68.51,47.37.6,71.05.28,4.71-.06,4.72,7.26,0,7.32-23.68.32-47.37.23-71.05-.28-4.7-.1-4.72-7.42,0-7.32Z" style="fill:#151515;"/><path d="m492.36,28.76l2.48-4.2c.97-1.65,3.36-2.37,5.01-1.29,1.66,1.09,2.33,3.25,1.29,5.01l-2.48,4.2c-.97,1.65-3.36,2.37-5.01,1.29-1.66-1.09-2.33-3.25-1.29-5.01Z" style="fill:#151515;"/><path d="m499.09,42.17c3.71-7.05,7.41-14.09,11.12-21.14,2.2-4.17,8.49-.44,6.3,3.72-3.71,7.05-7.41,14.09-11.12,21.14-2.2,4.17-8.49.44-6.3-3.72Z" style="fill:#151515;"/><path d="m507.07,53.78c5.86-10.38,11.72-20.75,17.57-31.13,2.78-4.92,8.85-1.33,6.08,3.59-5.86,10.38-11.72,20.75-17.57,31.13-2.78,4.92-8.85,1.33-6.08-3.59Z" style="fill:#151515;"/><path d="m514.76,66.86c8.1-14.74,16.19-29.48,24.29-44.22,2.27-4.13,8.57-.4,6.3,3.72-8.1,14.74-16.19,29.48-24.29,44.22-2.27,4.13-8.57.4-6.3-3.72Z" style="fill:#151515;"/><path d="m519.39,82.53c12.48-20.13,24.61-40.48,36.38-61.03,2.34-4.09,8.65-.37,6.3,3.72-11.77,20.56-23.9,40.9-36.38,61.03-2.48,4-8.79.29-6.3-3.72Z" style="fill:#151515;"/><path d="m467.94,28.26h4.88c1.91,0,3.75,1.68,3.66,3.66-.09,1.98-1.61,3.66-3.66,3.66h-4.88c-1.91,0-3.75-1.68-3.66-3.66.09-1.98,1.61-3.66,3.66-3.66Z" style="fill:#151515;"/><path d="m459.81,40.88c7.95-.39,15.91-.79,23.86-1.18,4.71-.23,4.7,7.09,0,7.32-7.95.39-15.91.79-23.86,1.18-4.71.23-4.7-7.09,0-7.32Z" style="fill:#151515;"/><path d="m453.87,53.66c11.91-.23,23.82-.47,35.74-.7,5.65-.11,5.65,6.95,0,7.06-11.91.23-23.82.47-35.74.7-5.65.11-5.65-6.95,0-7.06Z" style="fill:#151515;"/><path d="m446.53,66.93c16.81-.53,33.62-1.05,50.42-1.58,4.71-.15,4.71,7.17,0,7.32-16.81.53-33.62,1.05-50.42,1.58-4.71.15-4.71-7.17,0-7.32Z" style="fill:#151515;"/><path d="m435.39,78.89c23.68.51,47.37.6,71.05.28,4.71-.06,4.72,7.26,0,7.32-23.68.32-47.37.23-71.05-.28-4.7-.1-4.72-7.42,0-7.32Z" style="fill:#151515;"/><path d="m385.53,28.12l2.48-4.2c.97-1.65,3.36-2.37,5.01-1.29,1.66,1.09,2.33,3.25,1.29,5.01l-2.48,4.2c-.97,1.65-3.36,2.37-5.01,1.29-1.66-1.09-2.33-3.25-1.29-5.01Z" style="fill:#151515;"/><path d="m392.26,41.53c3.71-7.05,7.41-14.09,11.12-21.14,2.2-4.17,8.49-.44,6.3,3.72-3.71,7.05-7.41,14.09-11.12,21.14-2.2,4.17-8.49.44-6.3-3.72Z" style="fill:#151515;"/><path d="m400.23,53.15c5.86-10.38,11.72-20.75,17.57-31.13,2.78-4.92,8.85-1.33,6.08,3.59-5.86,10.38-11.72,20.75-17.57,31.13-2.78,4.92-8.85,1.33-6.08-3.59Z" style="fill:#151515;"/><path d="m407.93,66.22c8.1-14.74,16.19-29.48,24.29-44.22,2.27-4.13,8.57-.4,6.3,3.72-8.1,14.74-16.19,29.48-24.29,44.22-2.27,4.13-8.57.4-6.3-3.72Z" style="fill:#151515;"/><path d="m412.56,81.89c12.48-20.13,24.61-40.48,36.38-61.03,2.34-4.09,8.65-.37,6.3,3.72-11.77,20.56-23.9,40.9-36.38,61.03-2.48,4-8.79.29-6.3-3.72Z" style="fill:#151515;"/><path d="m356.97,28.15h4.88c1.91,0,3.75,1.68,3.66,3.66-.09,1.98-1.61,3.66-3.66,3.66h-4.88c-1.91,0-3.75-1.68-3.66-3.66.09-1.98,1.61-3.66,3.66-3.66Z" style="fill:#151515;"/><path d="m348.84,40.77c7.95-.39,15.91-.79,23.86-1.18,4.71-.23,4.7,7.09,0,7.32-7.95.39-15.91.79-23.86,1.18-4.71.23-4.7-7.09,0-7.32Z" style="fill:#151515;"/><path d="m342.9,53.54c11.91-.23,23.82-.47,35.74-.7,5.65-.11,5.65,6.95,0,7.06-11.91.23-23.82.47-35.74.7-5.65.11-5.65-6.95,0-7.06Z" style="fill:#151515;"/><path d="m335.56,66.82c16.81-.53,33.62-1.05,50.42-1.58,4.71-.15,4.71,7.17,0,7.32-16.81.53-33.62,1.05-50.42,1.58-4.71.15-4.71-7.17,0-7.32Z" style="fill:#151515;"/><path d="m324.42,78.77c23.68.51,47.37.6,71.05.28,4.71-.06,4.72,7.26,0,7.32-23.68.32-47.37.23-71.05-.28-4.7-.1-4.72-7.42,0-7.32Z" style="fill:#151515;"/><path d="m275.2,30.15l2.48-4.2c.97-1.65,3.36-2.37,5.01-1.29,1.66,1.09,2.33,3.25,1.29,5.01l-2.48,4.2c-.97,1.65-3.36,2.37-5.01,1.29-1.66-1.09-2.33-3.25-1.29-5.01Z" style="fill:#151515;"/><path d="m281.93,43.57c3.71-7.05,7.41-14.09,11.12-21.14,2.2-4.17,8.49-.44,6.3,3.72-3.71,7.05-7.41,14.09-11.12,21.14-2.2,4.17-8.49.44-6.3-3.72Z" style="fill:#151515;"/><path d="m289.91,55.18c5.86-10.38,11.72-20.75,17.57-31.13,2.78-4.92,8.85-1.33,6.08,3.59-5.86,10.38-11.72,20.75-17.57,31.13-2.78,4.92-8.85,1.33-6.08-3.59Z" style="fill:#151515;"/><path d="m297.6,68.25c8.1-14.74,16.19-29.48,24.29-44.22,2.27-4.13,8.57-.4,6.3,3.72-8.1,14.74-16.19,29.48-24.29,44.22-2.27,4.13-8.57.4-6.3-3.72Z" style="fill:#151515;"/><path d="m302.23,83.92c12.48-20.13,24.61-40.48,36.38-61.03,2.34-4.09,8.65-.37,6.3,3.72-11.77,20.56-23.9,40.9-36.38,61.03-2.48,4-8.79.29-6.3-3.72Z" style="fill:#151515;"/><path d="m251.75,28.15h4.88c1.91,0,3.75,1.68,3.66,3.66-.09,1.98-1.61,3.66-3.66,3.66h-4.88c-1.91,0-3.75-1.68-3.66-3.66.09-1.98,1.61-3.66,3.66-3.66Z" style="fill:#f63a76;"/><path d="m243.63,40.77c7.95-.39,15.91-.79,23.86-1.18,4.71-.23,4.7,7.09,0,7.32-7.95.39-15.91.79-23.86,1.18-4.71.23-4.7-7.09,0-7.32Z" style="fill:#f63a76;"/><path d="m237.69,53.54c11.91-.23,23.82-.47,35.74-.7,5.65-.11,5.65,6.95,0,7.06-11.91.23-23.82.47-35.74.7-5.65.11-5.65-6.95,0-7.06Z" style="fill:#f63a76;"/><path d="m230.34,66.82c16.81-.53,33.62-1.05,50.42-1.58,4.71-.15,4.71,7.17,0,7.32-16.81.53-33.62,1.05-50.42,1.58-4.71.15-4.71-7.17,0-7.32Z" style="fill:#f63a76;"/><path d="m219.21,78.77c23.68.51,47.37.6,71.05.28,4.71-.06,4.72,7.26,0,7.32-23.68.32-47.37.23-71.05-.28-4.7-.1-4.72-7.42,0-7.32Z" style="fill:#f63a76;"/><path d="m170.96,28l2.48-4.2c.97-1.65,3.36-2.37,5.01-1.29,1.66,1.09,2.33,3.25,1.29,5.01l-2.48,4.2c-.97,1.65-3.36,2.37-5.01,1.29-1.66-1.09-2.33-3.25-1.29-5.01Z" style="fill:#151515;"/><path d="m177.69,41.42c3.71-7.05,7.41-14.09,11.12-21.14,2.2-4.17,8.49-.44,6.3,3.72-3.71,7.05-7.41,14.09-11.12,21.14-2.2,4.17-8.49.44-6.3-3.72Z" style="fill:#151515;"/><path d="m185.67,53.03c5.86-10.38,11.72-20.75,17.57-31.13,2.78-4.92,8.85-1.33,6.08,3.59-5.86,10.38-11.72,20.75-17.57,31.13-2.78,4.92-8.85,1.33-6.08-3.59Z" style="fill:#151515;"/><path d="m193.36,66.11c8.1-14.74,16.19-29.48,24.29-44.22,2.27-4.13,8.57-.4,6.3,3.72-8.1,14.74-16.19,29.48-24.29,44.22-2.27,4.13-8.57.4-6.3-3.72Z" style="fill:#151515;"/><path d="m197.99,81.78c12.48-20.13,24.61-40.48,36.38-61.03,2.34-4.09,8.65-.37,6.3,3.72-11.77,20.56-23.9,40.9-36.38,61.03-2.48,4-8.79.29-6.3-3.72Z" style="fill:#151515;"/><path d="m146,28.15h4.88c1.91,0,3.75,1.68,3.66,3.66-.09,1.98-1.61,3.66-3.66,3.66h-4.88c-1.91,0-3.75-1.68-3.66-3.66.09-1.98,1.61-3.66,3.66-3.66Z" style="fill:#151515;"/><path d="m137.87,40.77c7.95-.39,15.91-.79,23.86-1.18,4.71-.23,4.7,7.09,0,7.32-7.95.39-15.91.79-23.86,1.18-4.71.23-4.7-7.09,0-7.32Z" style="fill:#151515;"/><path d="m131.93,53.54c11.91-.23,23.82-.47,35.74-.7,5.65-.11,5.65,6.95,0,7.06-11.91.23-23.82.47-35.74.7-5.65.11-5.65-6.95,0-7.06Z" style="fill:#151515;"/><path d="m124.58,66.82c16.81-.53,33.62-1.05,50.42-1.58,4.71-.15,4.71,7.17,0,7.32-16.81.53-33.62,1.05-50.42,1.58-4.71.15-4.71-7.17,0-7.32Z" style="fill:#151515;"/><path d="m113.45,78.77c23.68.51,47.37.6,71.05.28,4.71-.06,4.72,7.26,0,7.32-23.68.32-47.37.23-71.05-.28-4.7-.1-4.72-7.42,0-7.32Z" style="fill:#151515;"/><path d="m64.13,27.37l2.48-4.2c.97-1.65,3.36-2.37,5.01-1.29,1.66,1.09,2.33,3.25,1.29,5.01l-2.48,4.2c-.97,1.65-3.36,2.37-5.01,1.29-1.66-1.09-2.33-3.25-1.29-5.01Z" style="fill:#151515;"/><path d="m70.86,40.78c3.71-7.05,7.41-14.09,11.12-21.14,2.2-4.17,8.49-.44,6.3,3.72-3.71,7.05-7.41,14.09-11.12,21.14-2.2,4.17-8.49.44-6.3-3.72Z" style="fill:#151515;"/><path d="m78.83,52.39c5.86-10.38,11.72-20.75,17.57-31.13,2.78-4.92,8.85-1.33,6.08,3.59-5.86,10.38-11.72,20.75-17.57,31.13-2.78,4.92-8.85,1.33-6.08-3.59Z" style="fill:#151515;"/><path d="m86.53,65.47c8.1-14.74,16.19-29.48,24.29-44.22,2.27-4.13,8.57-.4,6.3,3.72-8.1,14.74-16.19,29.48-24.29,44.22-2.27,4.13-8.57.4-6.3-3.72Z" style="fill:#151515;"/><path d="m91.16,81.14c12.48-20.13,24.61-40.48,36.38-61.03,2.34-4.09,8.65-.37,6.3,3.72-11.77,20.56-23.9,40.9-36.38,61.03-2.48,4-8.79.29-6.3-3.72Z" style="fill:#151515;"/><path d="m36.08,28.03h4.88c1.91,0,3.75,1.68,3.66,3.66-.09,1.98-1.61,3.66-3.66,3.66h-4.88c-1.91,0-3.75-1.68-3.66-3.66.09-1.98,1.61-3.66,3.66-3.66Z" style="fill:#151515;"/><path d="m27.95,40.65c7.95-.39,15.91-.79,23.86-1.18,4.71-.23,4.7,7.09,0,7.32-7.95.39-15.91.79-23.86,1.18-4.71.23-4.7-7.09,0-7.32Z" style="fill:#151515;"/><path d="m22.01,53.42c11.91-.23,23.82-.47,35.74-.7,5.65-.11,5.65,6.95,0,7.06-11.91.23-23.82.47-35.74.7-5.65.11-5.65-6.95,0-7.06Z" style="fill:#151515;"/><path d="m14.67,66.7c16.81-.53,33.62-1.05,50.42-1.58,4.71-.15,4.71,7.17,0,7.32-16.81.53-33.62,1.05-50.42,1.58-4.71.15-4.71-7.17,0-7.32Z" style="fill:#151515;"/><path d="m3.54,78.66c23.68.51,47.37.6,71.05.28,4.71-.06,4.72,7.26,0,7.32-23.68.32-47.37.23-71.05-.28-4.7-.1-4.72-7.42,0-7.32Z" style="fill:#151515;"/><path d="m1022,29.02l2.48-4.2c.97-1.65,3.36-2.37,5.01-1.29,1.66,1.09,2.33,3.25,1.29,5.01l-2.48,4.2c-.97,1.65-3.36,2.37-5.01,1.29-1.66-1.09-2.33-3.25-1.29-5.01Z" style="fill:#151515;"/><path d="m1028.72,42.43c3.71-7.05,7.41-14.09,11.12-21.14,2.2-4.17,8.49-.44,6.3,3.72-3.71,7.05-7.41,14.09-11.12,21.14-2.2,4.17-8.49.44-6.3-3.72Z" style="fill:#151515;"/><path d="m1036.7,54.04c5.86-10.38,11.72-20.75,17.57-31.13,2.78-4.92,8.85-1.33,6.08,3.59-5.86,10.38-11.72,20.75-17.57,31.13-2.78,4.92-8.85,1.33-6.08-3.59Z" style="fill:#151515;"/><path d="m1044.39,67.12c8.1-14.74,16.19-29.48,24.29-44.22,2.27-4.13,8.57-.4,6.3,3.72-8.1,14.74-16.19,29.48-24.29,44.22-2.27,4.13-8.57.4-6.3-3.72Z" style="fill:#151515;"/><path d="m1049.03,82.79c12.48-20.13,24.61-40.48,36.38-61.03,2.34-4.09,8.65-.37,6.3,3.72-11.77,20.56-23.9,40.9-36.38,61.03-2.48,4-8.79.29-6.3-3.72Z" style="fill:#151515;"/><path d="m1361.42.27c-176.85-.04-353.71-.07-530.56-.11L302.6.06C203.25.04,103.9.02,4.55,0c-6.07,0-6.07,7.32.01,7.32,177.02.04,354.05.07,531.07.11,176.01.04,352.03.07,528.04.11,99.25.02,198.51.04,297.76.06,6.07,0,6.07-7.32-.01-7.32Z" style="fill:#151515;"/><path d="m1322.92,27.94h4.88c1.91,0,3.75,1.68,3.66,3.66-.09,1.98-1.61,3.66-3.66,3.66h-4.88c-1.91,0-3.75-1.68-3.66-3.66.09-1.98,1.61-3.66,3.66-3.66Z" style="fill:#151515;"/><path d="m1314.79,40.55c7.95-.39,15.91-.79,23.86-1.18,4.71-.23,4.7,7.09,0,7.32-7.95.39-15.91.79-23.86,1.18-4.71.23-4.7-7.09,0-7.32Z" style="fill:#151515;"/><path d="m1308.85,53.33c11.91-.23,23.82-.47,35.74-.7,5.65-.11,5.65,6.95,0,7.06-11.91.23-23.82.47-35.74.7-5.65.11-5.65-6.95,0-7.06Z" style="fill:#151515;"/><path d="m1301.51,66.6c16.81-.53,33.62-1.05,50.42-1.58,4.71-.15,4.71,7.17,0,7.32-16.81.53-33.62,1.05-50.42,1.58-4.71.15-4.71-7.17,0-7.32Z" style="fill:#151515;"/><path d="m1290.37,78.56c23.68.51,47.37.6,71.05.28,4.71-.06,4.72,7.26,0,7.32-23.68.32-47.37.23-71.05-.28-4.7-.1-4.72-7.42,0-7.32Z" style="fill:#151515;"/><path d="m1242.13,31.79l2.48-4.2c.97-1.65,3.36-2.37,5.01-1.29,1.66,1.09,2.33,3.25,1.29,5.01l-2.48,4.2c-.97,1.65-3.36,2.37-5.01,1.29-1.66-1.09-2.33-3.25-1.29-5.01Z" style="fill:#151515;"/><path d="m1248.86,45.21c3.71-7.05,7.41-14.09,11.12-21.14,2.2-4.17,8.49-.44,6.3,3.72-3.71,7.05-7.41,14.09-11.12,21.14-2.2,4.17-8.49.44-6.3-3.72Z" style="fill:#151515;"/><path d="m1256.83,56.82c5.86-10.38,11.72-20.75,17.57-31.13,2.78-4.92,8.85-1.33,6.08,3.59-5.86,10.38-11.72,20.75-17.57,31.13-2.78,4.92-8.85,1.33-6.08-3.59Z" style="fill:#151515;"/><path d="m1264.53,69.89c8.1-14.74,16.19-29.48,24.29-44.22,2.27-4.13,8.57-.4,6.3,3.72-8.1,14.74-16.19,29.48-24.29,44.22-2.27,4.13-8.57.4-6.3-3.72Z" style="fill:#151515;"/><path d="m1269.16,85.56c12.48-20.13,24.61-40.48,36.38-61.03,2.34-4.09,8.65-.37,6.3,3.72-11.77,20.56-23.9,40.9-36.38,61.03-2.48,4-8.79.29-6.3-3.72Z" style="fill:#151515;"/><path d="m1217.7,28.3h4.88c1.91,0,3.75,1.68,3.66,3.66-.09,1.98-1.61,3.66-3.66,3.66h-4.88c-1.91,0-3.75-1.68-3.66-3.66.09-1.98,1.61-3.66,3.66-3.66Z" style="fill:#fb9f2c;"/><path d="m1209.57,40.92c7.95-.39,15.91-.79,23.86-1.18,4.71-.23,4.7,7.09,0,7.32-7.95.39-15.91.79-23.86,1.18-4.71.23-4.7-7.09,0-7.32Z" style="fill:#fb9f2c;"/><path d="m1203.63,53.69c11.91-.23,23.82-.47,35.74-.7,5.65-.11,5.65,6.95,0,7.06-11.91.23-23.82.47-35.74.7-5.65.11-5.65-6.95,0-7.06Z" style="fill:#fb9f2c;"/><path d="m1196.29,66.96c16.81-.53,33.62-1.05,50.42-1.58,4.71-.15,4.71,7.17,0,7.32-16.81.53-33.62,1.05-50.42,1.58-4.71.15-4.71-7.17,0-7.32Z" style="fill:#fb9f2c;"/><path d="m1185.15,78.92c23.68.51,47.37.6,71.05.28,4.71-.06,4.72,7.26,0,7.32-23.68.32-47.37.23-71.05-.28-4.7-.1-4.72-7.42,0-7.32Z" style="fill:#fb9f2c;"/><path d="m1135.29,31.15l2.48-4.2c.97-1.65,3.36-2.37,5.01-1.29,1.66,1.09,2.33,3.25,1.29,5.01l-2.48,4.2c-.97,1.65-3.36,2.37-5.01,1.29-1.66-1.09-2.33-3.25-1.29-5.01Z" style="fill:#151515;"/><path d="m1142.02,44.57c3.71-7.05,7.41-14.09,11.12-21.14,2.2-4.17,8.49-.44,6.3,3.72-3.71,7.05-7.41,14.09-11.12,21.14-2.2,4.17-8.49.44-6.3-3.72Z" style="fill:#151515;"/><path d="m1150,56.18c5.86-10.38,11.72-20.75,17.57-31.13,2.78-4.92,8.85-1.33,6.08,3.59-5.86,10.38-11.72,20.75-17.57,31.13-2.78,4.92-8.85,1.33-6.08-3.59Z" style="fill:#151515;"/><path d="m1157.69,69.26c8.1-14.74,16.19-29.48,24.29-44.22,2.27-4.13,8.57-.4,6.3,3.72-8.1,14.74-16.19,29.48-24.29,44.22-2.27,4.13-8.57.4-6.3-3.72Z" style="fill:#151515;"/><path d="m1162.32,84.93c12.48-20.13,24.61-40.48,36.38-61.03,2.34-4.09,8.65-.37,6.3,3.72-11.77,20.56-23.9,40.9-36.38,61.03-2.48,4-8.79.29-6.3-3.72Z" style="fill:#151515;"/><path d="m1107.25,27.82h4.88c1.91,0,3.75,1.68,3.66,3.66-.09,1.98-1.61,3.66-3.66,3.66h-4.88c-1.91,0-3.75-1.68-3.66-3.66.09-1.98,1.61-3.66,3.66-3.66Z" style="fill:#151515;"/><path d="m1099.12,40.44c7.95-.39,15.91-.79,23.86-1.18,4.71-.23,4.7,7.09,0,7.32-7.95.39-15.91.79-23.86,1.18-4.71.23-4.7-7.09,0-7.32Z" style="fill:#151515;"/><path d="m1093.18,53.21c11.91-.23,23.82-.47,35.74-.7,5.65-.11,5.65,6.95,0,7.06-11.91.23-23.82.47-35.74.7-5.65.11-5.65-6.95,0-7.06Z" style="fill:#151515;"/><path d="m1085.83,66.49c16.81-.53,33.62-1.05,50.42-1.58,4.71-.15,4.71,7.17,0,7.32-16.81.53-33.62,1.05-50.42,1.58-4.71.15-4.71-7.17,0-7.32Z" style="fill:#151515;"/><path d="m1074.7,78.44c23.68.51,47.37.6,71.05.28,4.71-.06,4.72,7.26,0,7.32-23.68.32-47.37.23-71.05-.28-4.7-.1-4.72-7.42,0-7.32Z" style="fill:#151515;"/></svg>