<?xml version="1.0" encoding="UTF-8"?><svg id="uuid-770bcb87-4796-487c-8c8f-a53e0702851a" xmlns="http://www.w3.org/2000/svg" viewBox="0 0 23.85 23.06"><defs><style>.uuid-91907695-4bac-4707-be68-2019dd30c346{fill:#fff;}</style></defs><path class="uuid-91907695-4bac-4707-be68-2019dd30c346" d="m20.96,1.86h-1.66V.5c0-.28-.22-.5-.5-.5s-.5.22-.5.5v1.36h-3.52V.5c0-.28-.22-.5-.5-.5s-.5.22-.5.5v1.36h-3.52V.5c0-.28-.22-.5-.5-.5s-.5.22-.5.5v1.36h-3.52V.5c0-.28-.22-.5-.5-.5s-.5.22-.5.5v1.36h-1.84C1.3,1.86,0,3.16,0,4.75v15.42c0,1.59,1.3,2.89,2.89,2.89h18.07c1.59,0,2.89-1.3,2.89-2.89V4.75c0-1.59-1.3-2.89-2.89-2.89ZM2.89,2.86h1.84v1.36c0,.28.22.5.5.5s.5-.22.5-.5v-1.36h3.52v1.36c0,.28.22.5.5.5s.5-.22.5-.5v-1.36h3.52v1.36c0,.28.22.5.5.5s.5-.22.5-.5v-1.36h3.52v1.36c0,.28.22.5.5.5s.5-.22.5-.5v-1.36h1.66c1.04,0,1.89.85,1.89,1.89v2.08H1v-2.08c0-1.04.85-1.89,1.89-1.89Zm18.07,19.2H2.89c-1.04,0-1.89-.85-1.89-1.89V7.83h21.85v12.34c0,1.04-.85,1.89-1.89,1.89Z"/><path class="uuid-91907695-4bac-4707-be68-2019dd30c346" d="m12.65,10.68c-.26-.13-.58-.09-.8.08l-3.28,2.6c-.22.17-.25.49-.08.7s.49.25.7.08l2.84-2.26v7.42c0,.28.22.5.5.5s.5-.22.5-.5v-8.03c0-.25-.15-.48-.39-.6Z"/></svg>