<?xml version="1.0" encoding="UTF-8"?><svg id="uuid-1357e93a-c75d-4ccf-9754-5059e58c7b2a" xmlns="http://www.w3.org/2000/svg" viewBox="0 0 1076.97 354.13"><defs><style>.uuid-0e70b46e-d3a9-4c84-955f-1c62ec018af2{fill:#fff;}.uuid-395ba975-7455-44c1-a946-b8ac9bc084d1{fill:#00a383;}.uuid-8b236361-f9e3-46fa-a094-af1a209f0872{fill:#151515;}.uuid-6aa64e03-fab7-4ec0-be7e-6661ba6dc7d5{opacity:.78;}.uuid-805ed41d-6366-498b-9966-8334950efe3e{fill:#fb9f2c;}.uuid-dbb922d8-49da-49bd-bc75-e1e9e40b87b2{fill:#1a1a1a;}.uuid-805f41bb-f348-40fb-a4e2-948c7912e065{fill:#f63a76;}</style></defs><rect class="uuid-8b236361-f9e3-46fa-a094-af1a209f0872" x=".04" y="61.9" width="1075.52" height="228.25"/><rect class="uuid-dbb922d8-49da-49bd-bc75-e1e9e40b87b2" x="856.3" y="128.87" width="173.26" height="98.88"/><rect class="uuid-dbb922d8-49da-49bd-bc75-e1e9e40b87b2" x="280.23" y="128.87" width="396.47" height="98.88"/><rect class="uuid-dbb922d8-49da-49bd-bc75-e1e9e40b87b2" x="688.56" y="128.87" width="157" height="98.88"/><path class="uuid-395ba975-7455-44c1-a946-b8ac9bc084d1" d="m1003.17,167.06l-2.74-3.99c-.39-.57.04-1.32.76-1.32h5.14c.7,0,1.13.71.79,1.28l-2.4,3.99c-.34.56-1.18.58-1.55.04Z"/><path class="uuid-805f41bb-f348-40fb-a4e2-948c7912e065" d="m1008.88,164.39l-4.28,4.5c-.38.4-1.05.4-1.44,0l-4.28-4.5c-.51-.53-1.44-.33-1.65.36l-.57,1.91c-.11.35.02.73.33.96l6.29,4.7c.35.26.85.26,1.2,0l6.29-4.7c.3-.23.43-.61.33-.96l-.57-1.91c-.21-.69-1.14-.89-1.65-.36Z"/><path class="uuid-805ed41d-6366-498b-9966-8334950efe3e" d="m996.54,169.19c0-.09,2.68,1.81,4.26,2.95.7.51,1.04,1.23.88,1.89l-.7,2.72c-.04.16-.29.22-.48.11-1.16-.67-4.42-2.98-3.97-7.67Z"/><path class="uuid-805f41bb-f348-40fb-a4e2-948c7912e065" d="m1003.9,173.95h0c.2,0,.37.1.4.24.34,1.67,2.26,11.25,1.65,12.17-.67,1.01-2.74,1.29-3.91.1-1.07-1.09,1.11-10.65,1.48-12.27.03-.14.19-.24.38-.24Z"/><path class="uuid-395ba975-7455-44c1-a946-b8ac9bc084d1" d="m1010.96,176.98s-3.26.08-3.82,2.37-.86,4.94,1.78,6.29,3.14-8.78,2.04-8.65Z"/><path class="uuid-805ed41d-6366-498b-9966-8334950efe3e" d="m1007.47,187.2c-.11.05-.21.12-.28.17-.61.46-1.19,1.03-1.75,1.62-.46.48-.98,1.24-1.58,1.19-.4-.04-.73-.46-1.04-.81-.63-.71-1.23-1.51-1.95-2-.4-.27-1.67-.79-1.75.36-.44,6.06,4.75,7.13,4.82,7.13.07,0,.1,0,.1,0,0,0,5.15-1.08,4.71-7.14-.06-.89-.8-.76-1.28-.53Z"/><path class="uuid-395ba975-7455-44c1-a946-b8ac9bc084d1" d="m996.82,176.98s3.26.08,3.82,2.37c.56,2.28.86,4.94-1.78,6.29s-3.14-8.78-2.04-8.65Z"/><path class="uuid-805ed41d-6366-498b-9966-8334950efe3e" d="m1011.09,169.19c0-.09-2.68,1.81-4.26,2.95-.7.51-1.04,1.23-.88,1.89l.7,2.72c.04.16.29.22.48.11,1.16-.67,4.42-2.98,3.97-7.67Z"/><path class="uuid-0e70b46e-d3a9-4c84-955f-1c62ec018af2" d="m124.55,138.4h1.51l6.77,13.71,6.79-13.71h1.51v16.8h-1.56v-13.39h-.07l-5.95,12.02h-1.42l-5.98-12.02h-.07v13.39h-1.54v-16.8Z"/><path class="uuid-0e70b46e-d3a9-4c84-955f-1c62ec018af2" d="m144.07,149.08c0-4.1,2.06-6.36,5.83-6.36s5.83,2.26,5.83,6.36-2.06,6.36-5.83,6.36-5.83-2.26-5.83-6.36Zm5.83,4.97c2.95,0,4.44-1.66,4.44-4.97s-1.49-4.99-4.44-4.99-4.44,1.68-4.44,4.99,1.51,4.97,4.44,4.97Z"/><path class="uuid-0e70b46e-d3a9-4c84-955f-1c62ec018af2" d="m158.58,155.2v-12.24h1.39l.05,2.4c.94-1.7,2.57-2.64,4.63-2.64,2.83,0,4.37,1.75,4.37,5.06v7.42h-1.44v-7.42c0-2.47-.96-3.65-3.12-3.65-2.66,0-4.44,1.78-4.44,4.32v6.74h-1.44Z"/><path class="uuid-0e70b46e-d3a9-4c84-955f-1c62ec018af2" d="m176.06,148h4.9v-1.27c0-1.63-1.3-2.57-3.55-2.57s-3.62.94-3.62,2.57h-1.46c0-2.5,1.92-4.01,5.09-4.01s4.99,1.49,4.99,4.01v6.02c0,.86.24,1.18.98,1.18.31,0,.7-.07,1.08-.19v1.3c-.46.19-.91.29-1.42.29-.77,0-1.27-.22-1.56-.67s-.36-1.22-.43-1.73c-.89,1.46-2.76,2.52-4.99,2.52-2.59,0-4.22-1.44-4.22-3.84s1.54-3.6,4.22-3.6Zm.29,6.07c2.62,0,4.61-1.56,4.61-3.58v-1.18h-4.9c-1.82,0-2.78.82-2.78,2.28,0,1.56,1.06,2.47,3.07,2.47Z"/><path class="uuid-0e70b46e-d3a9-4c84-955f-1c62ec018af2" d="m184.91,144.33v-1.2l2.42-.17.36-3.43h1.08v3.43h3.55v1.37h-3.55v7.63c0,1.44.5,2.09,1.97,2.09.55,0,1.13-.1,1.58-.22v1.32c-.5.17-1.22.29-1.92.29-2.14,0-3.07-1.03-3.07-3.48v-7.63h-2.42Z"/><path class="uuid-0e70b46e-d3a9-4c84-955f-1c62ec018af2" d="m196.5,137.68v14.43c0,1.39.41,1.94,1.54,1.94.43,0,.89-.07,1.39-.24v1.32c-.5.19-1.2.31-1.82.31-1.75,0-2.57-1.03-2.57-3.31v-14.45h1.46Z"/><path class="uuid-0e70b46e-d3a9-4c84-955f-1c62ec018af2" d="m202.34,137.44c.72,0,1.1.38,1.1,1.1s-.38,1.08-1.1,1.08-1.08-.36-1.08-1.08.36-1.1,1.08-1.1Zm-.72,17.76v-12.24h1.44v12.24h-1.44Z"/><path class="uuid-0e70b46e-d3a9-4c84-955f-1c62ec018af2" d="m212.01,142.72c3.34,0,5.28,1.58,5.54,4.3h-1.46c-.29-1.82-1.58-2.88-4.06-2.88-3.12,0-4.71,1.7-4.71,4.94s1.58,4.94,4.71,4.94c2.47,0,3.77-1.06,4.06-2.88h1.46c-.26,2.71-2.21,4.3-5.54,4.3-4.25,0-6.12-2.59-6.12-6.36s1.87-6.36,6.12-6.36Z"/><path class="uuid-0e70b46e-d3a9-4c84-955f-1c62ec018af2" d="m220.24,155.2v-17.52h1.44v7.7c.94-1.73,2.59-2.66,4.66-2.66,2.81,0,4.34,1.75,4.34,5.06v7.42h-1.44v-7.42c0-2.47-.96-3.65-3.12-3.65-2.66,0-4.44,1.78-4.44,4.32v6.74h-1.44Z"/><circle class="uuid-0e70b46e-d3a9-4c84-955f-1c62ec018af2" cx="55.72" cy="208.09" r="17.06"/><circle class="uuid-0e70b46e-d3a9-4c84-955f-1c62ec018af2" cx="55.72" cy="148.53" r="17.06"/><path class="uuid-0e70b46e-d3a9-4c84-955f-1c62ec018af2" d="m124.55,218.28v-16.8h11.64v1.51h-10.08v5.64h9.26v1.44h-9.26v6.7h10.32v1.51h-11.88Z"/><path class="uuid-0e70b46e-d3a9-4c84-955f-1c62ec018af2" d="m140.2,200.52c.72,0,1.1.38,1.1,1.1s-.38,1.08-1.1,1.08-1.08-.36-1.08-1.08.36-1.1,1.08-1.1Zm-.72,17.76v-12.24h1.44v12.24h-1.44Z"/><path class="uuid-0e70b46e-d3a9-4c84-955f-1c62ec018af2" d="m144.76,218.28v-12.24h1.39l.05,2.4c.94-1.7,2.57-2.64,4.63-2.64,2.83,0,4.37,1.75,4.37,5.06v7.42h-1.44v-7.42c0-2.47-.96-3.65-3.12-3.65-2.66,0-4.44,1.78-4.44,4.32v6.74h-1.44Z"/><path class="uuid-0e70b46e-d3a9-4c84-955f-1c62ec018af2" d="m158.92,206.04h1.39l.05,2.35c.86-1.63,2.45-2.59,4.42-2.59s3.19.94,3.72,2.81c.86-1.87,2.47-2.81,4.54-2.81,2.81,0,4.18,1.68,4.18,5.06v7.42h-1.44v-7.42c0-2.52-.91-3.65-2.95-3.65-2.5,0-4.01,1.66-4.01,4.32v6.74h-1.44v-7.42c0-2.54-.91-3.65-2.95-3.65-2.52,0-4.06,1.66-4.06,4.32v6.74h-1.44v-12.24Z"/><path class="uuid-0e70b46e-d3a9-4c84-955f-1c62ec018af2" d="m184.24,211.08h4.9v-1.27c0-1.63-1.3-2.57-3.55-2.57s-3.62.94-3.62,2.57h-1.46c0-2.5,1.92-4.01,5.09-4.01s4.99,1.49,4.99,4.01v6.02c0,.86.24,1.18.98,1.18.31,0,.7-.07,1.08-.19v1.3c-.46.19-.91.29-1.42.29-.77,0-1.27-.22-1.56-.67s-.36-1.22-.43-1.73c-.89,1.46-2.76,2.52-4.99,2.52-2.59,0-4.22-1.44-4.22-3.84s1.54-3.6,4.22-3.6Zm.29,6.07c2.62,0,4.61-1.56,4.61-3.58v-1.18h-4.9c-1.82,0-2.78.82-2.78,2.28,0,1.56,1.06,2.47,3.07,2.47Z"/><path class="uuid-0e70b46e-d3a9-4c84-955f-1c62ec018af2" d="m196.05,200.76v14.43c0,1.39.41,1.94,1.54,1.94.43,0,.89-.07,1.39-.24v1.32c-.5.19-1.2.31-1.82.31-1.75,0-2.57-1.03-2.57-3.31v-14.45h1.46Z"/><path class="uuid-0e70b46e-d3a9-4c84-955f-1c62ec018af2" d="m201.88,200.52c.72,0,1.1.38,1.1,1.1s-.38,1.08-1.1,1.08-1.08-.36-1.08-1.08.36-1.1,1.08-1.1Zm-.72,17.76v-12.24h1.44v12.24h-1.44Z"/><path class="uuid-0e70b46e-d3a9-4c84-955f-1c62ec018af2" d="m205.43,212.16c0-4.01,2.06-6.36,5.59-6.36,2.21,0,3.79.89,4.66,2.59v-2.35h1.44v12.17c0,3.65-1.97,5.59-5.71,5.59-3.24,0-5.16-1.46-5.5-4.18h1.46c.29,1.78,1.68,2.74,4.03,2.74,2.83,0,4.27-1.39,4.27-4.15v-2.26c-.86,1.68-2.45,2.59-4.66,2.59-3.53,0-5.59-2.35-5.59-6.38Zm5.81,4.94c2.9,0,4.44-1.7,4.44-4.92s-1.54-4.97-4.44-4.97-4.34,1.68-4.34,4.94,1.46,4.94,4.34,4.94Z"/><circle class="uuid-805f41bb-f348-40fb-a4e2-948c7912e065" cx="55.72" cy="148.53" r="10.16"/><path class="uuid-0e70b46e-d3a9-4c84-955f-1c62ec018af2" d="m319.15,183.29h2.27c0,3.82,2.2,5.83,6.05,5.83,4.21,0,6.52-2.38,6.52-6.66,0-4-2.02-5.97-6.05-5.97-2.56,0-4.36.76-6.19,2.66h-2.27l2.02-13.32h13.46v2.27h-11.55l-1.33,8.64c1.66-1.66,3.78-2.45,6.37-2.45,4.97,0,7.81,2.95,7.81,8.17,0,5.58-3.24,8.93-8.67,8.93s-8.42-3.02-8.42-8.1Z"/><path class="uuid-0e70b46e-d3a9-4c84-955f-1c62ec018af2" d="m348.45,165.47c6.05,0,8.75,4,8.75,12.96s-2.7,12.96-8.75,12.96-8.78-4-8.78-12.96,2.7-12.96,8.78-12.96Zm0,23.65c4.57,0,6.48-3.13,6.48-10.69s-1.91-10.69-6.48-10.69-6.51,3.13-6.51,10.69,1.94,10.69,6.51,10.69Z"/><path class="uuid-0e70b46e-d3a9-4c84-955f-1c62ec018af2" d="m369.62,174.43h3.74c1.04-5.83,4.57-8.96,10.26-8.96,1.98,0,3.82.4,5.4,1.12l-.79,1.94c-1.37-.58-2.81-.86-4.36-.86-4.5,0-7.23,2.3-8.13,6.77h10.22v2.16h-10.55c-.04.58-.07,1.19-.07,1.84,0,.61.04,1.22.07,1.8h10.55v2.16h-10.22c.9,4.5,3.64,6.8,8.13,6.8,1.58,0,2.99-.29,4.36-.86l.79,1.94c-1.58.72-3.38,1.12-5.4,1.12-5.69,0-9.21-3.13-10.26-9h-3.74v-2.16h3.49c-.04-.58-.07-1.19-.07-1.8s.04-1.22.07-1.84h-3.49v-2.16Z"/><path class="uuid-0e70b46e-d3a9-4c84-955f-1c62ec018af2" d="m439.28,165.83h2.05v25.2h-2.3v-22.64l-7.27,3.71v-2.41l7.52-3.85Z"/><path class="uuid-0e70b46e-d3a9-4c84-955f-1c62ec018af2" d="m459,165.47c6.05,0,8.75,4,8.75,12.96s-2.7,12.96-8.75,12.96-8.78-4-8.78-12.96,2.7-12.96,8.78-12.96Zm0,23.65c4.57,0,6.48-3.13,6.48-10.69s-1.91-10.69-6.48-10.69-6.51,3.13-6.51,10.69,1.94,10.69,6.51,10.69Z"/><path class="uuid-0e70b46e-d3a9-4c84-955f-1c62ec018af2" d="m479.74,165.47c6.05,0,8.75,4,8.75,12.96s-2.7,12.96-8.75,12.96-8.78-4-8.78-12.96,2.7-12.96,8.78-12.96Zm0,23.65c4.57,0,6.48-3.13,6.48-10.69s-1.91-10.69-6.48-10.69-6.52,3.13-6.52,10.69,1.94,10.69,6.52,10.69Z"/><path class="uuid-0e70b46e-d3a9-4c84-955f-1c62ec018af2" d="m500.91,174.43h3.74c1.04-5.83,4.57-8.96,10.26-8.96,1.98,0,3.82.4,5.4,1.12l-.79,1.94c-1.37-.58-2.81-.86-4.36-.86-4.5,0-7.23,2.3-8.13,6.77h10.22v2.16h-10.55c-.04.58-.07,1.19-.07,1.83,0,.61.04,1.22.07,1.8h10.55v2.16h-10.22c.9,4.5,3.64,6.8,8.13,6.8,1.58,0,2.99-.29,4.36-.86l.79,1.94c-1.58.72-3.38,1.12-5.4,1.12-5.69,0-9.21-3.13-10.26-9h-3.74v-2.16h3.49c-.04-.58-.07-1.19-.07-1.8s.04-1.22.07-1.83h-3.49v-2.16Z"/><path class="uuid-0e70b46e-d3a9-4c84-955f-1c62ec018af2" d="m563.25,179.65c2.56-2.23,3.71-4.32,3.71-6.77,0-3.35-2.12-5.15-5.83-5.15-3.96,0-5.94,2.02-5.94,6.01h-2.27c0-5.29,2.95-8.28,8.24-8.28s8.06,2.74,8.06,7.49c0,3.2-1.33,5.65-4.61,8.5l-8.5,7.31h13.82v2.27h-17.42v-1.98l10.73-9.39Z"/><path class="uuid-0e70b46e-d3a9-4c84-955f-1c62ec018af2" d="m581.97,165.47c6.05,0,8.75,4,8.75,12.96s-2.7,12.96-8.75,12.96-8.78-4-8.78-12.96,2.7-12.96,8.78-12.96Zm0,23.65c4.57,0,6.48-3.13,6.48-10.69s-1.91-10.69-6.48-10.69-6.51,3.13-6.51,10.69,1.94,10.69,6.51,10.69Z"/><path class="uuid-0e70b46e-d3a9-4c84-955f-1c62ec018af2" d="m602.71,165.47c6.05,0,8.75,4,8.75,12.96s-2.7,12.96-8.75,12.96-8.78-4-8.78-12.96,2.7-12.96,8.78-12.96Zm0,23.65c4.57,0,6.48-3.13,6.48-10.69s-1.91-10.69-6.48-10.69-6.52,3.13-6.52,10.69,1.94,10.69,6.52,10.69Z"/><path class="uuid-0e70b46e-d3a9-4c84-955f-1c62ec018af2" d="m623.88,174.43h3.74c1.04-5.83,4.57-8.96,10.26-8.96,1.98,0,3.82.4,5.4,1.12l-.79,1.94c-1.37-.58-2.81-.86-4.36-.86-4.5,0-7.23,2.3-8.13,6.77h10.22v2.16h-10.55c-.04.58-.07,1.19-.07,1.83,0,.61.04,1.22.07,1.8h10.55v2.16h-10.22c.9,4.5,3.64,6.8,8.13,6.8,1.58,0,2.99-.29,4.36-.86l.79,1.94c-1.58.72-3.38,1.12-5.4,1.12-5.69,0-9.21-3.13-10.26-9h-3.74v-2.16h3.49c-.04-.58-.07-1.19-.07-1.8s.04-1.22.07-1.83h-3.49v-2.16Z"/><path class="uuid-0e70b46e-d3a9-4c84-955f-1c62ec018af2" d="m803.88,175.84h3.74c1.04-5.83,4.57-8.96,10.26-8.96,1.98,0,3.82.4,5.4,1.12l-.79,1.94c-1.37-.58-2.81-.86-4.36-.86-4.5,0-7.23,2.3-8.13,6.77h10.22v2.16h-10.55c-.04.58-.07,1.19-.07,1.83,0,.61.04,1.22.07,1.8h10.55v2.16h-10.22c.9,4.5,3.64,6.8,8.13,6.8,1.58,0,2.99-.29,4.36-.86l.79,1.94c-1.58.72-3.38,1.12-5.4,1.12-5.69,0-9.21-3.13-10.26-9h-3.74v-2.16h3.49c-.04-.58-.07-1.19-.07-1.8s.04-1.22.07-1.83h-3.49v-2.16Z"/><g class="uuid-6aa64e03-fab7-4ec0-be7e-6661ba6dc7d5"><path class="uuid-0e70b46e-d3a9-4c84-955f-1c62ec018af2" d="m704.61,143.06h2.86v-.74c0-.95-.76-1.5-2.07-1.5s-2.12.55-2.12,1.5h-.85c0-1.46,1.12-2.34,2.97-2.34s2.91.87,2.91,2.34v3.52c0,.5.14.69.57.69.18,0,.41-.04.63-.11v.76c-.27.11-.53.17-.83.17-.45,0-.74-.13-.91-.39s-.21-.71-.25-1.01c-.52.85-1.61,1.47-2.91,1.47-1.51,0-2.47-.84-2.47-2.24s.9-2.1,2.47-2.1Zm.17,3.54c1.53,0,2.69-.91,2.69-2.09v-.69h-2.86c-1.06,0-1.62.48-1.62,1.33,0,.91.62,1.44,1.79,1.44Z"/><path class="uuid-0e70b46e-d3a9-4c84-955f-1c62ec018af2" d="m710.64,147.27v-7.14h.81l.03,1.4c.55-.99,1.5-1.54,2.7-1.54,1.65,0,2.55,1.02,2.55,2.96v4.33h-.84v-4.33c0-1.44-.56-2.13-1.82-2.13-1.55,0-2.59,1.04-2.59,2.52v3.94h-.84Z"/><path class="uuid-0e70b46e-d3a9-4c84-955f-1c62ec018af2" d="m721.58,139.97c1.27,0,2.21.52,2.72,1.51v-4.44h.84v10.23h-.81l-.03-1.37c-.5.99-1.44,1.51-2.72,1.51-2.06,0-3.26-1.37-3.26-3.71s1.2-3.73,3.26-3.73Zm-2.41,3.73c0,1.9.85,2.89,2.54,2.89s2.59-1.01,2.59-2.9-.9-2.87-2.59-2.87-2.54.98-2.54,2.89Z"/><path class="uuid-0e70b46e-d3a9-4c84-955f-1c62ec018af2" d="m730.26,139.98c2.12,0,3.35,1.23,3.36,3.4,0,.21-.01.46-.03.71h-5.91c.06,1.57,1.04,2.47,2.66,2.47,1.23,0,2.04-.5,2.35-1.44h.88c-.32,1.44-1.47,2.28-3.24,2.28-2.24,0-3.56-1.34-3.56-3.74s1.26-3.68,3.47-3.68Zm2.51,3.32c.03-1.58-.92-2.48-2.52-2.48s-2.48.85-2.58,2.48h5.1Z"/><path class="uuid-0e70b46e-d3a9-4c84-955f-1c62ec018af2" d="m735.31,140.12h.81l.03,1.44c.59-1.22,1.65-1.58,2.94-1.58v.85c-.11-.01-.24-.03-.38-.03-1.55,0-2.56,1.02-2.56,2.52v3.94h-.84v-7.14Z"/><path class="uuid-0e70b46e-d3a9-4c84-955f-1c62ec018af2" d="m743.45,139.98c2.12,0,3.35,1.23,3.36,3.4,0,.21-.01.46-.03.71h-5.91c.06,1.57,1.04,2.47,2.66,2.47,1.23,0,2.04-.5,2.35-1.44h.88c-.32,1.44-1.47,2.28-3.24,2.28-2.24,0-3.56-1.34-3.56-3.74s1.26-3.68,3.47-3.68Zm2.51,3.32c.03-1.58-.92-2.48-2.52-2.48s-2.48.85-2.58,2.48h5.1Z"/><path class="uuid-0e70b46e-d3a9-4c84-955f-1c62ec018af2" d="m748.5,140.12h.81l.03,1.44c.59-1.22,1.65-1.58,2.94-1.58v.85c-.11-.01-.24-.03-.38-.03-1.55,0-2.56,1.02-2.56,2.52v3.94h-.84v-7.14Z"/><path class="uuid-0e70b46e-d3a9-4c84-955f-1c62ec018af2" d="m761.77,137.46c2.06,0,3.12.87,3.12,2.51,0,1.08-.46,1.74-1.46,2.1v.04c1.13.38,1.65,1.11,1.65,2.38,0,1.86-1.11,2.77-3.38,2.77h-4.4v-9.81h4.46Zm-3.54.87v3.33h3.53c1.58,0,2.26-.52,2.26-1.65s-.69-1.68-2.24-1.68h-3.54Zm0,4.2v3.87h3.49c1.75,0,2.49-.57,2.49-1.92s-.74-1.95-2.45-1.95h-3.53Z"/><path class="uuid-0e70b46e-d3a9-4c84-955f-1c62ec018af2" d="m769.98,139.98c2.12,0,3.35,1.23,3.36,3.4,0,.21-.01.46-.03.71h-5.91c.06,1.57,1.04,2.47,2.66,2.47,1.23,0,2.04-.5,2.35-1.44h.88c-.32,1.44-1.47,2.28-3.24,2.28-2.24,0-3.56-1.34-3.56-3.74s1.26-3.68,3.47-3.68Zm2.51,3.32c.03-1.58-.92-2.48-2.52-2.48s-2.48.85-2.58,2.48h5.1Z"/><path class="uuid-0e70b46e-d3a9-4c84-955f-1c62ec018af2" d="m774.3,140.92v-.7l1.41-.1.21-2h.63v2h2.07v.8h-2.07v4.45c0,.84.29,1.22,1.15,1.22.32,0,.66-.06.92-.13v.77c-.29.1-.71.17-1.12.17-1.25,0-1.79-.6-1.79-2.03v-4.45h-1.41Z"/><path class="uuid-0e70b46e-d3a9-4c84-955f-1c62ec018af2" d="m780.21,140.12h.81l.03,1.44c.59-1.22,1.65-1.58,2.94-1.58v.85c-.11-.01-.24-.03-.38-.03-1.55,0-2.56,1.02-2.56,2.52v3.94h-.84v-7.14Z"/><path class="uuid-0e70b46e-d3a9-4c84-955f-1c62ec018af2" d="m787.39,143.06h2.86v-.74c0-.95-.76-1.5-2.07-1.5s-2.12.55-2.12,1.5h-.85c0-1.46,1.12-2.34,2.97-2.34s2.91.87,2.91,2.34v3.52c0,.5.14.69.57.69.18,0,.41-.04.63-.11v.76c-.27.11-.53.17-.83.17-.45,0-.74-.13-.91-.39s-.21-.71-.25-1.01c-.52.85-1.61,1.47-2.91,1.47-1.51,0-2.47-.84-2.47-2.24s.9-2.1,2.47-2.1Zm.17,3.54c1.53,0,2.69-.91,2.69-2.09v-.69h-2.86c-1.06,0-1.62.48-1.62,1.33,0,.91.62,1.44,1.79,1.44Z"/><path class="uuid-0e70b46e-d3a9-4c84-955f-1c62ec018af2" d="m792.97,143.69c0-2.34,1.21-3.71,3.26-3.71,1.29,0,2.21.52,2.72,1.51v-1.37h.84v7.1c0,2.13-1.15,3.26-3.33,3.26-1.89,0-3.01-.85-3.21-2.44h.85c.17,1.04.98,1.6,2.35,1.6,1.65,0,2.49-.81,2.49-2.42v-1.32c-.5.98-1.43,1.51-2.72,1.51-2.06,0-3.26-1.37-3.26-3.73Zm3.39,2.89c1.69,0,2.59-.99,2.59-2.87s-.9-2.9-2.59-2.9-2.54.98-2.54,2.89.85,2.89,2.54,2.89Z"/></g><path class="uuid-805f41bb-f348-40fb-a4e2-948c7912e065" d="m876.87,181.24c.1,2.67,1.92,4.06,5.18,4.06s5.09-1.3,5.09-3.41c0-5.16-11.33-1.42-11.33-7.73,0-2.86,2.33-4.66,6.12-4.66s6.41,1.99,6.41,5.4h-1.49c0-2.52-1.85-3.91-4.92-3.91-2.86,0-4.61,1.22-4.61,3.1,0,4.78,11.33,1.06,11.33,7.73,0,3.1-2.47,4.97-6.58,4.97s-6.65-1.99-6.7-5.54h1.49Z"/><path class="uuid-805f41bb-f348-40fb-a4e2-948c7912e065" d="m898.26,169.74c3.91,0,5.95,1.85,5.95,5.35s-2.04,5.35-5.95,5.35h-4.94v6.1h-1.56v-16.8h6.5Zm-4.94,9.19h4.94c3,0,4.42-1.25,4.42-3.84s-1.42-3.84-4.42-3.84h-4.94v7.68Z"/><path class="uuid-805f41bb-f348-40fb-a4e2-948c7912e065" d="m907.28,186.54v-16.8h11.64v1.51h-10.08v5.64h9.26v1.44h-9.26v6.7h10.32v1.51h-11.88Z"/><path class="uuid-805f41bb-f348-40fb-a4e2-948c7912e065" d="m922.57,169.74h1.46l10.27,14.16h.07v-14.16h1.54v16.8h-1.46l-10.25-14.16h-.07v14.16h-1.56v-16.8Z"/><path class="uuid-805f41bb-f348-40fb-a4e2-948c7912e065" d="m939.99,186.54v-16.8h6.65c4.94,0,7.56,2.88,7.56,8.4s-2.62,8.4-7.56,8.4h-6.65Zm6.65-1.51c4.03,0,6.02-2.28,6.02-6.89s-1.99-6.89-6.02-6.89h-5.09v13.78h5.09Z"/><path class="uuid-805f41bb-f348-40fb-a4e2-948c7912e065" d="m957.49,186.54v-16.8h11.64v1.51h-10.08v5.64h9.26v1.44h-9.26v6.7h10.32v1.51h-11.88Z"/><path class="uuid-805f41bb-f348-40fb-a4e2-948c7912e065" d="m972.77,169.74h1.46l10.27,14.16h.07v-14.16h1.54v16.8h-1.46l-10.25-14.16h-.07v14.16h-1.56v-16.8Z"/><path class="uuid-8b236361-f9e3-46fa-a094-af1a209f0872" d="m187.37,19.36h-2.71c-1.06,0-2.08.95-2.03,2.07.05,1.12.89,2.07,2.03,2.07h2.71c1.06,0,2.08-.95,2.03-2.07-.05-1.12-.89-2.07-2.03-2.07Z"/><path class="uuid-8b236361-f9e3-46fa-a094-af1a209f0872" d="m191.89,26.48c-4.42-.22-8.84-.44-13.25-.67-2.62-.13-2.61,4.01,0,4.14,4.42.22,8.84.44,13.25.67,2.62.13,2.61-4.01,0-4.14Z"/><path class="uuid-8b236361-f9e3-46fa-a094-af1a209f0872" d="m195.19,33.7c-6.62-.13-13.24-.26-19.85-.4-3.14-.06-3.14,3.93,0,3.99,6.62.13,13.24.26,19.85.4,3.14.06,3.14-3.93,0-3.99Z"/><path class="uuid-8b236361-f9e3-46fa-a094-af1a209f0872" d="m199.27,38.92c-9.34-.3-18.67-.59-28.01-.89-2.62-.08-2.62,4.05,0,4.14,9.34.3,18.67.59,28.01.89,2.62.08,2.62-4.05,0-4.14Z"/><path class="uuid-8b236361-f9e3-46fa-a094-af1a209f0872" d="m205.45,45.68c-13.16.29-26.31.34-39.47.16-2.62-.04-2.62,4.1,0,4.14,13.16.18,26.32.13,39.47-.16,2.61-.06,2.62-4.19,0-4.14Z"/><path class="uuid-8b236361-f9e3-46fa-a094-af1a209f0872" d="m232.8,19.35l-1.38-2.37c-.54-.93-1.86-1.34-2.79-.73-.92.61-1.3,1.83-.72,2.83l1.38,2.37c.54.93,1.86,1.34,2.79.73.92-.61,1.3-1.83.72-2.83Z"/><path class="uuid-8b236361-f9e3-46fa-a094-af1a209f0872" d="m229.06,26.93c-2.06-3.98-4.12-7.96-6.18-11.95-1.22-2.36-4.72-.25-3.5,2.1,2.06,3.98,4.12,7.96,6.18,11.95,1.22,2.36,4.72.25,3.5-2.1Z"/><path class="uuid-8b236361-f9e3-46fa-a094-af1a209f0872" d="m224.63,33.49c-3.25-5.86-6.51-11.73-9.76-17.59-1.54-2.78-4.92-.75-3.38,2.03,3.25,5.86,6.51,11.73,9.76,17.59,1.54,2.78,4.92.75,3.38-2.03Z"/><path class="uuid-8b236361-f9e3-46fa-a094-af1a209f0872" d="m220.35,40.87c-4.5-8.33-9-16.66-13.49-24.98-1.26-2.34-4.76-.23-3.5,2.1,4.5,8.33,9,16.66,13.49,24.98,1.26,2.34,4.76.23,3.5-2.1Z"/><path class="uuid-8b236361-f9e3-46fa-a094-af1a209f0872" d="m217.78,49.73c-6.93-11.37-13.67-22.87-20.21-34.49-1.3-2.31-4.8-.21-3.5,2.1,6.54,11.61,13.28,23.11,20.21,34.49,1.38,2.26,4.88.16,3.5-2.1Z"/><path class="uuid-8b236361-f9e3-46fa-a094-af1a209f0872" d="m245.82,17.08h-2.71c-1.06,0-2.08.95-2.03,2.07.05,1.12.89,2.07,2.03,2.07h2.71c1.06,0,2.08-.95,2.03-2.07-.05-1.12-.89-2.07-2.03-2.07Z"/><path class="uuid-8b236361-f9e3-46fa-a094-af1a209f0872" d="m250.34,24.21c-4.42-.22-8.84-.44-13.25-.67-2.62-.13-2.61,4.01,0,4.14,4.42.22,8.84.44,13.25.67,2.62.13,2.61-4.01,0-4.14Z"/><path class="uuid-8b236361-f9e3-46fa-a094-af1a209f0872" d="m253.64,31.42c-6.62-.13-13.24-.26-19.85-.4-3.14-.06-3.14,3.93,0,3.99,6.62.13,13.24.26,19.85.4,3.14.06,3.14-3.93,0-3.99Z"/><path class="uuid-8b236361-f9e3-46fa-a094-af1a209f0872" d="m257.72,38.92c-9.34-.3-18.67-.59-28.01-.89-2.62-.08-2.62,4.05,0,4.14,9.34.3,18.67.59,28.01.89,2.62.08,2.62-4.05,0-4.14Z"/><path class="uuid-8b236361-f9e3-46fa-a094-af1a209f0872" d="m263.9,45.68c-13.16.29-26.31.34-39.47.16-2.62-.04-2.62,4.1,0,4.14,13.16.18,26.32.13,39.47-.16,2.61-.06,2.62-4.19,0-4.14Z"/><path class="uuid-8b236361-f9e3-46fa-a094-af1a209f0872" d="m290.7,19.27l-1.38-2.37c-.54-.93-1.86-1.34-2.79-.73-.92.61-1.3,1.83-.72,2.83l1.38,2.37c.54.93,1.86,1.34,2.79.73.92-.61,1.3-1.83.72-2.83Z"/><path class="uuid-8b236361-f9e3-46fa-a094-af1a209f0872" d="m286.96,26.85c-2.06-3.98-4.12-7.96-6.18-11.95-1.22-2.36-4.72-.25-3.5,2.1,2.06,3.98,4.12,7.96,6.18,11.95,1.22,2.36,4.72.25,3.5-2.1Z"/><path class="uuid-8b236361-f9e3-46fa-a094-af1a209f0872" d="m282.53,33.41c-3.25-5.86-6.51-11.73-9.76-17.59-1.54-2.78-4.92-.75-3.38,2.03,3.25,5.86,6.51,11.73,9.76,17.59,1.54,2.78,4.92.75,3.38-2.03Z"/><path class="uuid-8b236361-f9e3-46fa-a094-af1a209f0872" d="m278.26,40.8c-4.5-8.33-9-16.66-13.49-24.98-1.26-2.34-4.76-.23-3.5,2.1,4.5,8.33,9,16.66,13.49,24.98,1.26,2.34,4.76.23,3.5-2.1Z"/><path class="uuid-8b236361-f9e3-46fa-a094-af1a209f0872" d="m275.69,49.66c-6.93-11.37-13.67-22.87-20.21-34.49-1.3-2.31-4.8-.21-3.5,2.1,6.54,11.61,13.28,23.11,20.21,34.49,1.38,2.26,4.88.16,3.5-2.1Z"/><path class="uuid-805ed41d-6366-498b-9966-8334950efe3e" d="m304.27,17.29h-2.71c-1.06,0-2.08.95-2.03,2.07.05,1.12.89,2.07,2.03,2.07h2.71c1.06,0,2.08-.95,2.03-2.07-.05-1.12-.89-2.07-2.03-2.07Z"/><path class="uuid-805ed41d-6366-498b-9966-8334950efe3e" d="m308.79,24.42c-4.42-.22-8.84-.44-13.25-.67-2.62-.13-2.61,4.01,0,4.14,4.42.22,8.84.44,13.25.67,2.62.13,2.61-4.01,0-4.14Z"/><path class="uuid-805ed41d-6366-498b-9966-8334950efe3e" d="m312.09,31.63c-6.62-.13-13.24-.26-19.85-.4-3.14-.06-3.14,3.93,0,3.99,6.62.13,13.24.26,19.85.4,3.14.06,3.14-3.93,0-3.99Z"/><path class="uuid-805ed41d-6366-498b-9966-8334950efe3e" d="m316.17,39.13c-9.34-.3-18.67-.59-28.01-.89-2.62-.08-2.62,4.05,0,4.14,9.34.3,18.67.59,28.01.89,2.62.08,2.62-4.05,0-4.14Z"/><path class="uuid-805ed41d-6366-498b-9966-8334950efe3e" d="m322.35,45.89c-13.16.29-26.31.34-39.47.16-2.62-.04-2.62,4.1,0,4.14,13.16.18,26.32.13,39.47-.16,2.61-.06,2.62-4.19,0-4.14Z"/><path class="uuid-8b236361-f9e3-46fa-a094-af1a209f0872" d="m350.05,18.91l-1.38-2.37c-.54-.93-1.86-1.34-2.79-.73-.92.61-1.3,1.83-.72,2.83l1.38,2.37c.54.93,1.86,1.34,2.79.73.92-.61,1.3-1.83.72-2.83Z"/><path class="uuid-8b236361-f9e3-46fa-a094-af1a209f0872" d="m346.31,26.49c-2.06-3.98-4.12-7.96-6.18-11.95-1.22-2.36-4.72-.25-3.5,2.1,2.06,3.98,4.12,7.96,6.18,11.95,1.22,2.36,4.72.25,3.5-2.1Z"/><path class="uuid-8b236361-f9e3-46fa-a094-af1a209f0872" d="m341.88,33.05c-3.25-5.86-6.51-11.73-9.76-17.59-1.54-2.78-4.92-.75-3.38,2.03,3.25,5.86,6.51,11.73,9.76,17.59,1.54,2.78,4.92.75,3.38-2.03Z"/><path class="uuid-8b236361-f9e3-46fa-a094-af1a209f0872" d="m337.61,40.44c-4.5-8.33-9-16.66-13.49-24.98-1.26-2.34-4.76-.23-3.5,2.1,4.5,8.33,9,16.66,13.49,24.98,1.26,2.34,4.76.23,3.5-2.1Z"/><path class="uuid-8b236361-f9e3-46fa-a094-af1a209f0872" d="m335.03,49.29c-6.93-11.37-13.67-22.87-20.21-34.49-1.3-2.31-4.8-.21-3.5,2.1,6.54,11.61,13.28,23.11,20.21,34.49,1.38,2.26,4.88.16,3.5-2.1Z"/><path class="uuid-8b236361-f9e3-46fa-a094-af1a209f0872" d="m364.2,17.43h-2.71c-1.06,0-2.08.95-2.03,2.07.05,1.12.89,2.07,2.03,2.07h2.71c1.06,0,2.08-.95,2.03-2.07-.05-1.12-.89-2.07-2.03-2.07Z"/><path class="uuid-8b236361-f9e3-46fa-a094-af1a209f0872" d="m368.71,24.56c-4.42-.22-8.84-.44-13.25-.67-2.62-.13-2.61,4.01,0,4.14,4.42.22,8.84.44,13.25.67,2.62.13,2.61-4.01,0-4.14Z"/><path class="uuid-8b236361-f9e3-46fa-a094-af1a209f0872" d="m372.01,31.78c-6.62-.13-13.24-.26-19.85-.4-3.14-.06-3.14,3.93,0,3.99,6.62.13,13.24.26,19.85.4,3.14.06,3.14-3.93,0-3.99Z"/><path class="uuid-8b236361-f9e3-46fa-a094-af1a209f0872" d="m376.09,39.28c-9.34-.3-18.67-.59-28.01-.89-2.62-.08-2.62,4.05,0,4.14,9.34.3,18.67.59,28.01.89,2.62.08,2.62-4.05,0-4.14Z"/><path class="uuid-8b236361-f9e3-46fa-a094-af1a209f0872" d="m382.28,46.03c-13.16.29-26.31.34-39.47.16-2.62-.04-2.62,4.1,0,4.14,13.16.18,26.32.13,39.47-.16,2.61-.06,2.62-4.19,0-4.14Z"/><path class="uuid-8b236361-f9e3-46fa-a094-af1a209f0872" d="m409.62,19.7l-1.38-2.37c-.54-.93-1.86-1.34-2.79-.73-.92.61-1.3,1.83-.72,2.83l1.38,2.37c.54.93,1.86,1.34,2.79.73.92-.61,1.3-1.83.72-2.83Z"/><path class="uuid-8b236361-f9e3-46fa-a094-af1a209f0872" d="m405.88,27.28c-2.06-3.98-4.12-7.96-6.18-11.95-1.22-2.36-4.72-.25-3.5,2.1,2.06,3.98,4.12,7.96,6.18,11.95,1.22,2.36,4.72.25,3.5-2.1Z"/><path class="uuid-8b236361-f9e3-46fa-a094-af1a209f0872" d="m401.45,33.84c-3.25-5.86-6.51-11.73-9.76-17.59-1.54-2.78-4.92-.75-3.38,2.03,3.25,5.86,6.51,11.73,9.76,17.59,1.54,2.78,4.92.75,3.38-2.03Z"/><path class="uuid-8b236361-f9e3-46fa-a094-af1a209f0872" d="m397.17,41.23c-4.5-8.33-9-16.66-13.49-24.98-1.26-2.34-4.76-.23-3.5,2.1,4.5,8.33,9,16.66,13.49,24.98,1.26,2.34,4.76.23,3.5-2.1Z"/><path class="uuid-8b236361-f9e3-46fa-a094-af1a209f0872" d="m394.6,50.08c-6.93-11.37-13.67-22.87-20.21-34.49-1.3-2.31-4.8-.21-3.5,2.1,6.54,11.61,13.28,23.11,20.21,34.49,1.38,2.26,4.88.16,3.5-2.1Z"/><path class="uuid-8b236361-f9e3-46fa-a094-af1a209f0872" d="m422.64,17.43h-2.71c-1.06,0-2.08.95-2.03,2.07.05,1.12.89,2.07,2.03,2.07h2.71c1.06,0,2.08-.95,2.03-2.07-.05-1.12-.89-2.07-2.03-2.07Z"/><path class="uuid-8b236361-f9e3-46fa-a094-af1a209f0872" d="m427.16,24.56c-4.42-.22-8.84-.44-13.25-.67-2.62-.13-2.61,4.01,0,4.14,4.42.22,8.84.44,13.25.67,2.62.13,2.61-4.01,0-4.14Z"/><path class="uuid-8b236361-f9e3-46fa-a094-af1a209f0872" d="m430.46,31.78c-6.62-.13-13.24-.26-19.85-.4-3.14-.06-3.14,3.93,0,3.99,6.62.13,13.24.26,19.85.4,3.14.06,3.14-3.93,0-3.99Z"/><path class="uuid-8b236361-f9e3-46fa-a094-af1a209f0872" d="m434.54,39.28c-9.34-.3-18.67-.59-28.01-.89-2.62-.08-2.62,4.05,0,4.14,9.34.3,18.67.59,28.01.89,2.62.08,2.62-4.05,0-4.14Z"/><path class="uuid-8b236361-f9e3-46fa-a094-af1a209f0872" d="m440.72,46.03c-13.16.29-26.31.34-39.47.16-2.62-.04-2.62,4.1,0,4.14,13.16.18,26.32.13,39.47-.16,2.61-.06,2.62-4.19,0-4.14Z"/><path class="uuid-8b236361-f9e3-46fa-a094-af1a209f0872" d="m467.52,18.49l-1.38-2.37c-.54-.93-1.86-1.34-2.79-.73-.92.61-1.3,1.83-.72,2.83l1.38,2.37c.54.93,1.86,1.34,2.79.73.92-.61,1.3-1.83.72-2.83Z"/><path class="uuid-8b236361-f9e3-46fa-a094-af1a209f0872" d="m463.79,26.07c-2.06-3.98-4.12-7.96-6.18-11.95-1.22-2.36-4.72-.25-3.5,2.1,2.06,3.98,4.12,7.96,6.18,11.95,1.22,2.36,4.72.25,3.5-2.1Z"/><path class="uuid-8b236361-f9e3-46fa-a094-af1a209f0872" d="m459.36,32.63c-3.25-5.86-6.51-11.73-9.76-17.59-1.54-2.78-4.92-.75-3.38,2.03,3.25,5.86,6.51,11.73,9.76,17.59,1.54,2.78,4.92.75,3.38-2.03Z"/><path class="uuid-8b236361-f9e3-46fa-a094-af1a209f0872" d="m455.08,40.01c-4.5-8.33-9-16.66-13.49-24.98-1.26-2.34-4.76-.23-3.5,2.1,4.5,8.33,9,16.66,13.49,24.98,1.26,2.34,4.76.23,3.5-2.1Z"/><path class="uuid-8b236361-f9e3-46fa-a094-af1a209f0872" d="m452.51,48.87c-6.93-11.37-13.67-22.87-20.21-34.49-1.3-2.31-4.8-.21-3.5,2.1,6.54,11.61,13.28,23.11,20.21,34.49,1.38,2.26,4.88.16,3.5-2.1Z"/><path class="uuid-8b236361-f9e3-46fa-a094-af1a209f0872" d="m481.09,17.64h-2.71c-1.06,0-2.08.95-2.03,2.07.05,1.12.89,2.07,2.03,2.07h2.71c1.06,0,2.08-.95,2.03-2.07-.05-1.12-.89-2.07-2.03-2.07Z"/><path class="uuid-8b236361-f9e3-46fa-a094-af1a209f0872" d="m485.61,24.77c-4.42-.22-8.84-.44-13.25-.67-2.62-.13-2.61,4.01,0,4.14,4.42.22,8.84.44,13.25.67,2.62.13,2.61-4.01,0-4.14Z"/><path class="uuid-8b236361-f9e3-46fa-a094-af1a209f0872" d="m488.91,31.98c-6.62-.13-13.24-.26-19.85-.4-3.14-.06-3.14,3.93,0,3.99,6.62.13,13.24.26,19.85.4,3.14.06,3.14-3.93,0-3.99Z"/><path class="uuid-8b236361-f9e3-46fa-a094-af1a209f0872" d="m492.99,39.49c-9.34-.3-18.67-.59-28.01-.89-2.62-.08-2.62,4.05,0,4.14,9.34.3,18.67.59,28.01.89,2.62.08,2.62-4.05,0-4.14Z"/><path class="uuid-8b236361-f9e3-46fa-a094-af1a209f0872" d="m499.17,46.24c-13.16.29-26.31.34-39.47.16-2.62-.04-2.62,4.1,0,4.14,13.16.18,26.32.13,39.47-.16,2.61-.06,2.62-4.19,0-4.14Z"/><path class="uuid-8b236361-f9e3-46fa-a094-af1a209f0872" d="m526.87,18.69l-1.38-2.37c-.54-.93-1.86-1.34-2.79-.73-.92.61-1.3,1.83-.72,2.83l1.38,2.37c.54.93,1.86,1.34,2.79.73.92-.61,1.3-1.83.72-2.83Z"/><path class="uuid-8b236361-f9e3-46fa-a094-af1a209f0872" d="m523.14,26.28c-2.06-3.98-4.12-7.96-6.18-11.95-1.22-2.36-4.72-.25-3.5,2.1,2.06,3.98,4.12,7.96,6.18,11.95,1.22,2.36,4.72.25,3.5-2.1Z"/><path class="uuid-8b236361-f9e3-46fa-a094-af1a209f0872" d="m518.7,32.84c-3.25-5.86-6.51-11.73-9.76-17.59-1.54-2.78-4.92-.75-3.38,2.03,3.25,5.86,6.51,11.73,9.76,17.59,1.54,2.78,4.92.75,3.38-2.03Z"/><path class="uuid-8b236361-f9e3-46fa-a094-af1a209f0872" d="m514.43,40.22c-4.5-8.33-9-16.66-13.49-24.98-1.26-2.34-4.76-.23-3.5,2.1,4.5,8.33,9,16.66,13.49,24.98,1.26,2.34,4.76.23,3.5-2.1Z"/><path class="uuid-8b236361-f9e3-46fa-a094-af1a209f0872" d="m511.86,49.08c-6.93-11.37-13.67-22.87-20.21-34.49-1.3-2.31-4.8-.21-3.5,2.1,6.54,11.61,13.28,23.11,20.21,34.49,1.38,2.26,4.88.16,3.5-2.1Z"/><path class="uuid-805f41bb-f348-40fb-a4e2-948c7912e065" d="m542.74,17.57h-2.71c-1.06,0-2.08.95-2.03,2.07.05,1.12.89,2.07,2.03,2.07h2.71c1.06,0,2.08-.95,2.03-2.07-.05-1.12-.89-2.07-2.03-2.07Z"/><path class="uuid-805f41bb-f348-40fb-a4e2-948c7912e065" d="m547.26,24.7c-4.42-.22-8.84-.44-13.25-.67-2.62-.13-2.61,4.01,0,4.14,4.42.22,8.84.44,13.25.67,2.62.13,2.61-4.01,0-4.14Z"/><path class="uuid-805f41bb-f348-40fb-a4e2-948c7912e065" d="m550.55,31.92c-6.62-.13-13.24-.26-19.85-.4-3.14-.06-3.14,3.93,0,3.99,6.62.13,13.24.26,19.85.4,3.14.06,3.14-3.93,0-3.99Z"/><path class="uuid-805f41bb-f348-40fb-a4e2-948c7912e065" d="m554.63,39.42c-9.34-.3-18.67-.59-28.01-.89-2.62-.08-2.62,4.05,0,4.14,9.34.3,18.67.59,28.01.89,2.62.08,2.62-4.05,0-4.14Z"/><path class="uuid-805f41bb-f348-40fb-a4e2-948c7912e065" d="m560.82,46.18c-13.16.29-26.31.34-39.47.16-2.62-.04-2.62,4.1,0,4.14,13.16.18,26.32.13,39.47-.16,2.61-.06,2.62-4.19,0-4.14Z"/><path class="uuid-8b236361-f9e3-46fa-a094-af1a209f0872" d="m588.16,19.27l-1.38-2.37c-.54-.93-1.86-1.34-2.79-.73-.92.61-1.3,1.83-.72,2.83l1.38,2.37c.54.93,1.86,1.34,2.79.73.92-.61,1.3-1.83.72-2.83Z"/><path class="uuid-8b236361-f9e3-46fa-a094-af1a209f0872" d="m584.42,26.85c-2.06-3.98-4.12-7.96-6.18-11.95-1.22-2.36-4.72-.25-3.5,2.1,2.06,3.98,4.12,7.96,6.18,11.95,1.22,2.36,4.72.25,3.5-2.1Z"/><path class="uuid-8b236361-f9e3-46fa-a094-af1a209f0872" d="m579.99,33.41c-3.25-5.86-6.51-11.73-9.76-17.59-1.54-2.78-4.92-.75-3.38,2.03,3.25,5.86,6.51,11.73,9.76,17.59,1.54,2.78,4.92.75,3.38-2.03Z"/><path class="uuid-8b236361-f9e3-46fa-a094-af1a209f0872" d="m575.72,40.8c-4.5-8.33-9-16.66-13.49-24.98-1.26-2.34-4.76-.23-3.5,2.1,4.5,8.33,9,16.66,13.49,24.98,1.26,2.34,4.76.23,3.5-2.1Z"/><path class="uuid-8b236361-f9e3-46fa-a094-af1a209f0872" d="m573.15,49.66c-6.93-11.37-13.67-22.87-20.21-34.49-1.3-2.31-4.8-.21-3.5,2.1,6.54,11.61,13.28,23.11,20.21,34.49,1.38,2.26,4.88.16,3.5-2.1Z"/><path class="uuid-8b236361-f9e3-46fa-a094-af1a209f0872" d="m600.73,17.64h-2.71c-1.06,0-2.08.95-2.03,2.07.05,1.12.89,2.07,2.03,2.07h2.71c1.06,0,2.08-.95,2.03-2.07-.05-1.12-.89-2.07-2.03-2.07Z"/><path class="uuid-8b236361-f9e3-46fa-a094-af1a209f0872" d="m605.25,24.77c-4.42-.22-8.84-.44-13.25-.67-2.62-.13-2.61,4.01,0,4.14,4.42.22,8.84.44,13.25.67,2.62.13,2.61-4.01,0-4.14Z"/><path class="uuid-8b236361-f9e3-46fa-a094-af1a209f0872" d="m608.55,31.98c-6.62-.13-13.24-.26-19.85-.4-3.14-.06-3.14,3.93,0,3.99,6.62.13,13.24.26,19.85.4,3.14.06,3.14-3.93,0-3.99Z"/><path class="uuid-8b236361-f9e3-46fa-a094-af1a209f0872" d="m612.63,39.49c-9.34-.3-18.67-.59-28.01-.89-2.62-.08-2.62,4.05,0,4.14,9.34.3,18.67.59,28.01.89,2.62.08,2.62-4.05,0-4.14Z"/><path class="uuid-8b236361-f9e3-46fa-a094-af1a209f0872" d="m618.81,46.24c-13.16.29-26.31.34-39.47.16-2.62-.04-2.62,4.1,0,4.14,13.16.18,26.32.13,39.47-.16,2.61-.06,2.62-4.19,0-4.14Z"/><path class="uuid-8b236361-f9e3-46fa-a094-af1a209f0872" d="m646.22,19.32l-1.38-2.37c-.54-.93-1.86-1.34-2.79-.73-.92.61-1.3,1.83-.72,2.83l1.38,2.37c.54.93,1.86,1.34,2.79.73.92-.61,1.3-1.83.72-2.83Z"/><path class="uuid-8b236361-f9e3-46fa-a094-af1a209f0872" d="m642.48,26.9c-2.06-3.98-4.12-7.96-6.18-11.95-1.22-2.36-4.72-.25-3.5,2.1,2.06,3.98,4.12,7.96,6.18,11.95,1.22,2.36,4.72.25,3.5-2.1Z"/><path class="uuid-8b236361-f9e3-46fa-a094-af1a209f0872" d="m638.05,33.46c-3.25-5.86-6.51-11.73-9.76-17.59-1.54-2.78-4.92-.75-3.38,2.03,3.25,5.86,6.51,11.73,9.76,17.59,1.54,2.78,4.92.75,3.38-2.03Z"/><path class="uuid-8b236361-f9e3-46fa-a094-af1a209f0872" d="m633.78,40.85c-4.5-8.33-9-16.66-13.49-24.98-1.26-2.34-4.76-.23-3.5,2.1,4.5,8.33,9,16.66,13.49,24.98,1.26,2.34,4.76.23,3.5-2.1Z"/><path class="uuid-8b236361-f9e3-46fa-a094-af1a209f0872" d="m631.21,49.71c-6.93-11.37-13.67-22.87-20.21-34.49-1.3-2.31-4.8-.21-3.5,2.1,6.54,11.61,13.28,23.11,20.21,34.49,1.38,2.26,4.88.16,3.5-2.1Z"/><path class="uuid-8b236361-f9e3-46fa-a094-af1a209f0872" d="m659.64,17.21h-2.71c-1.06,0-2.08.95-2.03,2.07.05,1.12.89,2.07,2.03,2.07h2.71c1.06,0,2.08-.95,2.03-2.07-.05-1.12-.89-2.07-2.03-2.07Z"/><path class="uuid-8b236361-f9e3-46fa-a094-af1a209f0872" d="m664.15,24.34c-4.42-.22-8.84-.44-13.25-.67-2.62-.13-2.61,4.01,0,4.14,4.42.22,8.84.44,13.25.67,2.62.13,2.61-4.01,0-4.14Z"/><path class="uuid-8b236361-f9e3-46fa-a094-af1a209f0872" d="m667.45,31.56c-6.62-.13-13.24-.26-19.85-.4-3.14-.06-3.14,3.93,0,3.99,6.62.13,13.24.26,19.85.4,3.14.06,3.14-3.93,0-3.99Z"/><path class="uuid-8b236361-f9e3-46fa-a094-af1a209f0872" d="m671.53,39.06c-9.34-.3-18.67-.59-28.01-.89-2.62-.08-2.62,4.05,0,4.14,9.34.3,18.67.59,28.01.89,2.62.08,2.62-4.05,0-4.14Z"/><path class="uuid-8b236361-f9e3-46fa-a094-af1a209f0872" d="m677.72,45.82c-13.16.29-26.31.34-39.47.16-2.62-.04-2.62,4.1,0,4.14,13.16.18,26.32.13,39.47-.16,2.61-.06,2.62-4.19,0-4.14Z"/><path class="uuid-8b236361-f9e3-46fa-a094-af1a209f0872" d="m706.54,18.84l-1.38-2.37c-.54-.93-1.86-1.34-2.79-.73-.92.61-1.3,1.83-.72,2.83l1.38,2.37c.54.93,1.86,1.34,2.79.73.92-.61,1.3-1.83.72-2.83Z"/><path class="uuid-8b236361-f9e3-46fa-a094-af1a209f0872" d="m702.8,26.42c-2.06-3.98-4.12-7.96-6.18-11.95-1.22-2.36-4.72-.25-3.5,2.1,2.06,3.98,4.12,7.96,6.18,11.95,1.22,2.36,4.72.25,3.5-2.1Z"/><path class="uuid-8b236361-f9e3-46fa-a094-af1a209f0872" d="m698.37,32.98c-3.25-5.86-6.51-11.73-9.76-17.59-1.54-2.78-4.92-.75-3.38,2.03,3.25,5.86,6.51,11.73,9.76,17.59,1.54,2.78,4.92.75,3.38-2.03Z"/><path class="uuid-8b236361-f9e3-46fa-a094-af1a209f0872" d="m694.09,40.37c-4.5-8.33-9-16.66-13.49-24.98-1.26-2.34-4.76-.23-3.5,2.1,4.5,8.33,9,16.66,13.49,24.98,1.26,2.34,4.76.23,3.5-2.1Z"/><path class="uuid-8b236361-f9e3-46fa-a094-af1a209f0872" d="m691.52,49.22c-6.93-11.37-13.67-22.87-20.21-34.49-1.3-2.31-4.8-.21-3.5,2.1,6.54,11.61,13.28,23.11,20.21,34.49,1.38,2.26,4.88.16,3.5-2.1Z"/><path class="uuid-8b236361-f9e3-46fa-a094-af1a209f0872" d="m173.3,19.2l-1.38-2.37c-.54-.93-1.86-1.34-2.79-.73-.92.61-1.3,1.83-.72,2.83l1.38,2.37c.54.93,1.86,1.34,2.79.73.92-.61,1.3-1.83.72-2.83Z"/><path class="uuid-8b236361-f9e3-46fa-a094-af1a209f0872" d="m169.57,26.78c-2.06-3.98-4.12-7.96-6.18-11.95-1.22-2.36-4.72-.25-3.5,2.1,2.06,3.98,4.12,7.96,6.18,11.95,1.22,2.36,4.72.25,3.5-2.1Z"/><path class="uuid-8b236361-f9e3-46fa-a094-af1a209f0872" d="m165.13,33.34c-3.25-5.86-6.51-11.73-9.76-17.59-1.54-2.78-4.92-.75-3.38,2.03,3.25,5.86,6.51,11.73,9.76,17.59,1.54,2.78,4.92.75,3.38-2.03Z"/><path class="uuid-8b236361-f9e3-46fa-a094-af1a209f0872" d="m160.86,40.73c-4.5-8.33-9-16.66-13.49-24.98-1.26-2.34-4.76-.23-3.5,2.1,4.5,8.33,9,16.66,13.49,24.98,1.26,2.34,4.76.23,3.5-2.1Z"/><path class="uuid-8b236361-f9e3-46fa-a094-af1a209f0872" d="m158.29,49.58c-6.93-11.37-13.67-22.87-20.21-34.49-1.3-2.31-4.8-.21-3.5,2.1,6.54,11.61,13.28,23.11,20.21,34.49,1.38,2.26,4.88.16,3.5-2.1Z"/><path class="uuid-8b236361-f9e3-46fa-a094-af1a209f0872" d="m51.8,19.21l-1.38-2.37c-.54-.93-1.86-1.34-2.79-.73-.92.61-1.3,1.83-.72,2.83l1.38,2.37c.54.93,1.86,1.34,2.79.73.92-.61,1.3-1.83.72-2.83Z"/><path class="uuid-8b236361-f9e3-46fa-a094-af1a209f0872" d="m48.07,26.79c-2.06-3.98-4.12-7.96-6.18-11.95-1.22-2.36-4.72-.25-3.5,2.1,2.06,3.98,4.12,7.96,6.18,11.95,1.22,2.36,4.72.25,3.5-2.1Z"/><path class="uuid-8b236361-f9e3-46fa-a094-af1a209f0872" d="m43.63,33.35c-3.25-5.86-6.51-11.73-9.76-17.59-1.54-2.78-4.92-.75-3.38,2.03,3.25,5.86,6.51,11.73,9.76,17.59,1.54,2.78,4.92.75,3.38-2.03Z"/><path class="uuid-8b236361-f9e3-46fa-a094-af1a209f0872" d="m39.36,40.74c-4.5-8.33-9-16.66-13.49-24.98-1.26-2.34-4.76-.23-3.5,2.1,4.5,8.33,9,16.66,13.49,24.98,1.26,2.34,4.76.23,3.5-2.1Z"/><path class="uuid-8b236361-f9e3-46fa-a094-af1a209f0872" d="m36.79,49.59c-6.93-11.37-13.67-22.87-20.21-34.49-1.3-2.31-4.8-.21-3.5,2.1,6.54,11.61,13.28,23.11,20.21,34.49,1.38,2.26,4.88.16,3.5-2.1Z"/><path class="uuid-395ba975-7455-44c1-a946-b8ac9bc084d1" d="m64.59,17.65h-2.71c-1.06,0-2.08.95-2.03,2.07.05,1.12.89,2.07,2.03,2.07h2.71c1.06,0,2.08-.95,2.03-2.07-.05-1.12-.89-2.07-2.03-2.07Z"/><path class="uuid-395ba975-7455-44c1-a946-b8ac9bc084d1" d="m69.1,24.77c-4.42-.22-8.84-.44-13.25-.67-2.62-.13-2.61,4.01,0,4.14,4.42.22,8.84.44,13.25.67,2.62.13,2.61-4.01,0-4.14Z"/><path class="uuid-395ba975-7455-44c1-a946-b8ac9bc084d1" d="m72.4,31.99c-6.62-.13-13.24-.26-19.85-.4-3.14-.06-3.14,3.93,0,3.99,6.62.13,13.24.26,19.85.4,3.14.06,3.14-3.93,0-3.99Z"/><path class="uuid-395ba975-7455-44c1-a946-b8ac9bc084d1" d="m76.48,39.49c-9.34-.3-18.67-.59-28.01-.89-2.62-.08-2.62,4.05,0,4.14,9.34.3,18.67.59,28.01.89,2.62.08,2.62-4.05,0-4.14Z"/><path class="uuid-395ba975-7455-44c1-a946-b8ac9bc084d1" d="m82.66,46.25c-13.16.29-26.31.34-39.47.16-2.62-.04-2.62,4.1,0,4.14,13.16.18,26.32.13,39.47-.16,2.61-.06,2.62-4.19,0-4.14Z"/><path class="uuid-8b236361-f9e3-46fa-a094-af1a209f0872" d="m112.16,19.06l-1.38-2.37c-.54-.93-1.86-1.34-2.79-.73-.92.61-1.3,1.83-.72,2.83l1.38,2.37c.54.93,1.86,1.34,2.79.73.92-.61,1.3-1.83.72-2.83Z"/><path class="uuid-8b236361-f9e3-46fa-a094-af1a209f0872" d="m108.42,26.64c-2.06-3.98-4.12-7.96-6.18-11.95-1.22-2.36-4.72-.25-3.5,2.1,2.06,3.98,4.12,7.96,6.18,11.95,1.22,2.36,4.72.25,3.5-2.1Z"/><path class="uuid-8b236361-f9e3-46fa-a094-af1a209f0872" d="m103.99,33.2c-3.25-5.86-6.51-11.73-9.76-17.59-1.54-2.78-4.92-.75-3.38,2.03,3.25,5.86,6.51,11.73,9.76,17.59,1.54,2.78,4.92.75,3.38-2.03Z"/><path class="uuid-8b236361-f9e3-46fa-a094-af1a209f0872" d="m99.72,40.59c-4.5-8.33-9-16.66-13.49-24.98-1.26-2.34-4.76-.23-3.5,2.1,4.5,8.33,9,16.66,13.49,24.98,1.26,2.34,4.76.23,3.5-2.1Z"/><path class="uuid-8b236361-f9e3-46fa-a094-af1a209f0872" d="m97.14,49.45c-6.93-11.37-13.67-22.87-20.21-34.49-1.3-2.31-4.8-.21-3.5,2.1,6.54,11.61,13.28,23.11,20.21,34.49,1.38,2.26,4.88.16,3.5-2.1Z"/><path class="uuid-8b236361-f9e3-46fa-a094-af1a209f0872" d="m125.94,17.38h-2.71c-1.06,0-2.08.95-2.03,2.07.05,1.12.89,2.07,2.03,2.07h2.71c1.06,0,2.08-.95,2.03-2.07-.05-1.12-.89-2.07-2.03-2.07Z"/><path class="uuid-8b236361-f9e3-46fa-a094-af1a209f0872" d="m130.46,24.51c-4.42-.22-8.84-.44-13.25-.67-2.62-.13-2.61,4.01,0,4.14,4.42.22,8.84.44,13.25.67,2.62.13,2.61-4.01,0-4.14Z"/><path class="uuid-8b236361-f9e3-46fa-a094-af1a209f0872" d="m133.76,31.73c-6.62-.13-13.24-.26-19.85-.4-3.14-.06-3.14,3.93,0,3.99,6.62.13,13.24.26,19.85.4,3.14.06,3.14-3.93,0-3.99Z"/><path class="uuid-8b236361-f9e3-46fa-a094-af1a209f0872" d="m137.84,39.23c-9.34-.3-18.67-.59-28.01-.89-2.62-.08-2.62,4.05,0,4.14,9.34.3,18.67.59,28.01.89,2.62.08,2.62-4.05,0-4.14Z"/><path class="uuid-8b236361-f9e3-46fa-a094-af1a209f0872" d="m144.02,45.98c-13.16.29-26.31.34-39.47.16-2.62-.04-2.62,4.1,0,4.14,13.16.18,26.32.13,39.47-.16,2.61-.06,2.62-4.19,0-4.14Z"/><path class="uuid-395ba975-7455-44c1-a946-b8ac9bc084d1" d="m782.7,17.19h-2.71c-1.06,0-2.08.95-2.03,2.07.05,1.12.89,2.07,2.03,2.07h2.71c1.06,0,2.08-.95,2.03-2.07-.05-1.12-.89-2.07-2.03-2.07Z"/><path class="uuid-395ba975-7455-44c1-a946-b8ac9bc084d1" d="m787.21,24.32c-4.42-.22-8.84-.44-13.25-.67-2.62-.13-2.61,4.01,0,4.14,4.42.22,8.84.44,13.25.67,2.62.13,2.61-4.01,0-4.14Z"/><path class="uuid-395ba975-7455-44c1-a946-b8ac9bc084d1" d="m790.51,31.54c-6.62-.13-13.24-.26-19.85-.4-3.14-.06-3.14,3.93,0,3.99,6.62.13,13.24.26,19.85.4,3.14.06,3.14-3.93,0-3.99Z"/><path class="uuid-395ba975-7455-44c1-a946-b8ac9bc084d1" d="m794.59,39.04c-9.34-.3-18.67-.59-28.01-.89-2.62-.08-2.62,4.05,0,4.14,9.34.3,18.67.59,28.01.89,2.62.08,2.62-4.05,0-4.14Z"/><path class="uuid-395ba975-7455-44c1-a946-b8ac9bc084d1" d="m800.78,45.79c-13.16.29-26.31.34-39.47.16-2.62-.04-2.62,4.1,0,4.14,13.16.18,26.32.13,39.47-.16,2.61-.06,2.62-4.19,0-4.14Z"/><path class="uuid-8b236361-f9e3-46fa-a094-af1a209f0872" d="m828.12,18.89l-1.38-2.37c-.54-.93-1.86-1.34-2.79-.73-.92.61-1.3,1.83-.72,2.83l1.38,2.37c.54.93,1.86,1.34,2.79.73.92-.61,1.3-1.83.72-2.83Z"/><path class="uuid-8b236361-f9e3-46fa-a094-af1a209f0872" d="m824.38,26.47c-2.06-3.98-4.12-7.96-6.18-11.95-1.22-2.36-4.72-.25-3.5,2.1,2.06,3.98,4.12,7.96,6.18,11.95,1.22,2.36,4.72.25,3.5-2.1Z"/><path class="uuid-8b236361-f9e3-46fa-a094-af1a209f0872" d="m819.95,33.03c-3.25-5.86-6.51-11.73-9.76-17.59-1.54-2.78-4.92-.75-3.38,2.03,3.25,5.86,6.51,11.73,9.76,17.59,1.54,2.78,4.92.75,3.38-2.03Z"/><path class="uuid-8b236361-f9e3-46fa-a094-af1a209f0872" d="m815.67,40.42c-4.5-8.33-9-16.66-13.49-24.98-1.26-2.34-4.76-.23-3.5,2.1,4.5,8.33,9,16.66,13.49,24.98,1.26,2.34,4.76.23,3.5-2.1Z"/><path class="uuid-8b236361-f9e3-46fa-a094-af1a209f0872" d="m813.1,49.27c-6.93-11.37-13.67-22.87-20.21-34.49-1.3-2.31-4.8-.21-3.5,2.1,6.54,11.61,13.28,23.11,20.21,34.49,1.38,2.26,4.88.16,3.5-2.1Z"/><path class="uuid-8b236361-f9e3-46fa-a094-af1a209f0872" d="m841.14,17.19h-2.71c-1.06,0-2.08.95-2.03,2.07.05,1.12.89,2.07,2.03,2.07h2.71c1.06,0,2.08-.95,2.03-2.07-.05-1.12-.89-2.07-2.03-2.07Z"/><path class="uuid-8b236361-f9e3-46fa-a094-af1a209f0872" d="m845.66,24.32c-4.42-.22-8.84-.44-13.25-.67-2.62-.13-2.61,4.01,0,4.14,4.42.22,8.84.44,13.25.67,2.62.13,2.61-4.01,0-4.14Z"/><path class="uuid-8b236361-f9e3-46fa-a094-af1a209f0872" d="m848.96,31.54c-6.62-.13-13.24-.26-19.85-.4-3.14-.06-3.14,3.93,0,3.99,6.62.13,13.24.26,19.85.4,3.14.06,3.14-3.93,0-3.99Z"/><path class="uuid-8b236361-f9e3-46fa-a094-af1a209f0872" d="m853.04,39.04c-9.34-.3-18.67-.59-28.01-.89-2.62-.08-2.62,4.05,0,4.14,9.34.3,18.67.59,28.01.89,2.62.08,2.62-4.05,0-4.14Z"/><path class="uuid-8b236361-f9e3-46fa-a094-af1a209f0872" d="m859.22,45.79c-13.16.29-26.31.34-39.47.16-2.62-.04-2.62,4.1,0,4.14,13.16.18,26.32.13,39.47-.16,2.61-.06,2.62-4.19,0-4.14Z"/><path class="uuid-8b236361-f9e3-46fa-a094-af1a209f0872" d="m886.74,19.03l-1.38-2.37c-.54-.93-1.86-1.34-2.79-.73-.92.61-1.3,1.83-.72,2.83l1.38,2.37c.54.93,1.86,1.34,2.79.73.92-.61,1.3-1.83.72-2.83Z"/><path class="uuid-8b236361-f9e3-46fa-a094-af1a209f0872" d="m883.01,26.61c-2.06-3.98-4.12-7.96-6.18-11.95-1.22-2.36-4.72-.25-3.5,2.1,2.06,3.98,4.12,7.96,6.18,11.95,1.22,2.36,4.72.25,3.5-2.1Z"/><path class="uuid-8b236361-f9e3-46fa-a094-af1a209f0872" d="m878.58,33.17c-3.25-5.86-6.51-11.73-9.76-17.59-1.54-2.78-4.92-.75-3.38,2.03,3.25,5.86,6.51,11.73,9.76,17.59,1.54,2.78,4.92.75,3.38-2.03Z"/><path class="uuid-8b236361-f9e3-46fa-a094-af1a209f0872" d="m874.3,40.56c-4.5-8.33-9-16.66-13.49-24.98-1.26-2.34-4.76-.23-3.5,2.1,4.5,8.33,9,16.66,13.49,24.98,1.26,2.34,4.76.23,3.5-2.1Z"/><path class="uuid-8b236361-f9e3-46fa-a094-af1a209f0872" d="m871.73,49.42c-6.93-11.37-13.67-22.87-20.21-34.49-1.3-2.31-4.8-.21-3.5,2.1,6.54,11.61,13.28,23.11,20.21,34.49,1.38,2.26,4.88.16,3.5-2.1Z"/><path class="uuid-8b236361-f9e3-46fa-a094-af1a209f0872" d="m899.59,17.4h-2.71c-1.06,0-2.08.95-2.03,2.07.05,1.12.89,2.07,2.03,2.07h2.71c1.06,0,2.08-.95,2.03-2.07-.05-1.12-.89-2.07-2.03-2.07Z"/><path class="uuid-8b236361-f9e3-46fa-a094-af1a209f0872" d="m904.11,24.53c-4.42-.22-8.84-.44-13.25-.67-2.62-.13-2.61,4.01,0,4.14,4.42.22,8.84.44,13.25.67,2.62.13,2.61-4.01,0-4.14Z"/><path class="uuid-8b236361-f9e3-46fa-a094-af1a209f0872" d="m907.41,31.74c-6.62-.13-13.24-.26-19.85-.4-3.14-.06-3.14,3.93,0,3.99,6.62.13,13.24.26,19.85.4,3.14.06,3.14-3.93,0-3.99Z"/><path class="uuid-8b236361-f9e3-46fa-a094-af1a209f0872" d="m911.49,39.25c-9.34-.3-18.67-.59-28.01-.89-2.62-.08-2.62,4.05,0,4.14,9.34.3,18.67.59,28.01.89,2.62.08,2.62-4.05,0-4.14Z"/><path class="uuid-8b236361-f9e3-46fa-a094-af1a209f0872" d="m917.67,46c-13.16.29-26.31.34-39.47.16-2.62-.04-2.62,4.1,0,4.14,13.16.18,26.32.13,39.47-.16,2.61-.06,2.62-4.19,0-4.14Z"/><path class="uuid-8b236361-f9e3-46fa-a094-af1a209f0872" d="m946.12,19.26l-1.38-2.37c-.54-.93-1.86-1.34-2.79-.73-.92.61-1.3,1.83-.72,2.83l1.38,2.37c.54.93,1.86,1.34,2.79.73.92-.61,1.3-1.83.72-2.83Z"/><path class="uuid-8b236361-f9e3-46fa-a094-af1a209f0872" d="m942.38,26.84c-2.06-3.98-4.12-7.96-6.18-11.95-1.22-2.36-4.72-.25-3.5,2.1,2.06,3.98,4.12,7.96,6.18,11.95,1.22,2.36,4.72.25,3.5-2.1Z"/><path class="uuid-8b236361-f9e3-46fa-a094-af1a209f0872" d="m937.95,33.4c-3.25-5.86-6.51-11.73-9.76-17.59-1.54-2.78-4.92-.75-3.38,2.03,3.25,5.86,6.51,11.73,9.76,17.59,1.54,2.78,4.92.75,3.38-2.03Z"/><path class="uuid-8b236361-f9e3-46fa-a094-af1a209f0872" d="m933.68,40.79c-4.5-8.33-9-16.66-13.49-24.98-1.26-2.34-4.76-.23-3.5,2.1,4.5,8.33,9,16.66,13.49,24.98,1.26,2.34,4.76.23,3.5-2.1Z"/><path class="uuid-8b236361-f9e3-46fa-a094-af1a209f0872" d="m931.1,49.64c-6.93-11.37-13.67-22.87-20.21-34.49-1.3-2.31-4.8-.21-3.5,2.1,6.54,11.61,13.28,23.11,20.21,34.49,1.38,2.26,4.88.16,3.5-2.1Z"/><path class="uuid-8b236361-f9e3-46fa-a094-af1a209f0872" d="m959.52,16.97h-2.71c-1.06,0-2.08.95-2.03,2.07.05,1.12.89,2.07,2.03,2.07h2.71c1.06,0,2.08-.95,2.03-2.07-.05-1.12-.89-2.07-2.03-2.07Z"/><path class="uuid-8b236361-f9e3-46fa-a094-af1a209f0872" d="m964.03,24.1c-4.42-.22-8.84-.44-13.25-.67-2.62-.13-2.61,4.01,0,4.14,4.42.22,8.84.44,13.25.67,2.62.13,2.61-4.01,0-4.14Z"/><path class="uuid-8b236361-f9e3-46fa-a094-af1a209f0872" d="m967.33,31.32c-6.62-.13-13.24-.26-19.85-.4-3.14-.06-3.14,3.93,0,3.99,6.62.13,13.24.26,19.85.4,3.14.06,3.14-3.93,0-3.99Z"/><path class="uuid-8b236361-f9e3-46fa-a094-af1a209f0872" d="m971.41,38.82c-9.34-.3-18.67-.59-28.01-.89-2.62-.08-2.62,4.05,0,4.14,9.34.3,18.67.59,28.01.89,2.62.08,2.62-4.05,0-4.14Z"/><path class="uuid-8b236361-f9e3-46fa-a094-af1a209f0872" d="m977.6,45.58c-13.16.29-26.31.34-39.47.16-2.62-.04-2.62,4.1,0,4.14,13.16.18,26.32.13,39.47-.16,2.61-.06,2.62-4.19,0-4.14Z"/><path class="uuid-8b236361-f9e3-46fa-a094-af1a209f0872" d="m1005.62,19.08l-1.38-2.37c-.54-.93-1.86-1.34-2.79-.73-.92.61-1.3,1.83-.72,2.83l1.38,2.37c.54.93,1.86,1.34,2.79.73.92-.61,1.3-1.83.72-2.83Z"/><path class="uuid-8b236361-f9e3-46fa-a094-af1a209f0872" d="m1001.88,26.66c-2.06-3.98-4.12-7.96-6.18-11.95-1.22-2.36-4.72-.25-3.5,2.1,2.06,3.98,4.12,7.96,6.18,11.95,1.22,2.36,4.72.25,3.5-2.1Z"/><path class="uuid-8b236361-f9e3-46fa-a094-af1a209f0872" d="m997.45,33.22c-3.25-5.86-6.51-11.73-9.76-17.59-1.54-2.78-4.92-.75-3.38,2.03,3.25,5.86,6.51,11.73,9.76,17.59,1.54,2.78,4.92.75,3.38-2.03Z"/><path class="uuid-8b236361-f9e3-46fa-a094-af1a209f0872" d="m993.18,40.61c-4.5-8.33-9-16.66-13.49-24.98-1.26-2.34-4.76-.23-3.5,2.1,4.5,8.33,9,16.66,13.49,24.98,1.26,2.34,4.76.23,3.5-2.1Z"/><path class="uuid-8b236361-f9e3-46fa-a094-af1a209f0872" d="m990.61,49.47c-6.93-11.37-13.67-22.87-20.21-34.49-1.3-2.31-4.8-.21-3.5,2.1,6.54,11.61,13.28,23.11,20.21,34.49,1.38,2.26,4.88.16,3.5-2.1Z"/><path class="uuid-805ed41d-6366-498b-9966-8334950efe3e" d="m1017.96,17.18h-2.71c-1.06,0-2.08.95-2.03,2.07.05,1.12.89,2.07,2.03,2.07h2.71c1.06,0,2.08-.95,2.03-2.07-.05-1.12-.89-2.07-2.03-2.07Z"/><path class="uuid-805ed41d-6366-498b-9966-8334950efe3e" d="m1022.48,24.31c-4.42-.22-8.84-.44-13.25-.67-2.62-.13-2.61,4.01,0,4.14,4.42.22,8.84.44,13.25.67,2.62.13,2.61-4.01,0-4.14Z"/><path class="uuid-805ed41d-6366-498b-9966-8334950efe3e" d="m1025.78,31.53c-6.62-.13-13.24-.26-19.85-.4-3.14-.06-3.14,3.93,0,3.99,6.62.13,13.24.26,19.85.4,3.14.06,3.14-3.93,0-3.99Z"/><path class="uuid-805ed41d-6366-498b-9966-8334950efe3e" d="m1029.86,39.03c-9.34-.3-18.67-.59-28.01-.89-2.62-.08-2.62,4.05,0,4.14,9.34.3,18.67.59,28.01.89,2.62.08,2.62-4.05,0-4.14Z"/><path class="uuid-805ed41d-6366-498b-9966-8334950efe3e" d="m1036.04,45.79c-13.16.29-26.31.34-39.47.16-2.62-.04-2.62,4.1,0,4.14,13.16.18,26.32.13,39.47-.16,2.61-.06,2.62-4.19,0-4.14Z"/><path class="uuid-8b236361-f9e3-46fa-a094-af1a209f0872" d="m1064.34,19.23l-1.38-2.37c-.54-.93-1.86-1.34-2.79-.73-.92.61-1.3,1.83-.72,2.83l1.38,2.37c.54.93,1.86,1.34,2.79.73.92-.61,1.3-1.83.72-2.83Z"/><path class="uuid-8b236361-f9e3-46fa-a094-af1a209f0872" d="m1060.6,26.81c-2.06-3.98-4.12-7.96-6.18-11.95-1.22-2.36-4.72-.25-3.5,2.1,2.06,3.98,4.12,7.96,6.18,11.95,1.22,2.36,4.72.25,3.5-2.1Z"/><path class="uuid-8b236361-f9e3-46fa-a094-af1a209f0872" d="m1056.17,33.37c-3.25-5.86-6.51-11.73-9.76-17.59-1.54-2.78-4.92-.75-3.38,2.03,3.25,5.86,6.51,11.73,9.76,17.59,1.54,2.78,4.92.75,3.38-2.03Z"/><path class="uuid-8b236361-f9e3-46fa-a094-af1a209f0872" d="m1051.89,40.76c-4.5-8.33-9-16.66-13.49-24.98-1.26-2.34-4.76-.23-3.5,2.1,4.5,8.33,9,16.66,13.49,24.98,1.26,2.34,4.76.23,3.5-2.1Z"/><path class="uuid-8b236361-f9e3-46fa-a094-af1a209f0872" d="m1049.32,49.61c-6.93-11.37-13.67-22.87-20.21-34.49-1.3-2.31-4.8-.21-3.5,2.1,6.54,11.61,13.28,23.11,20.21,34.49,1.38,2.26,4.88.16,3.5-2.1Z"/><path class="uuid-8b236361-f9e3-46fa-a094-af1a209f0872" d="m768.47,18.89l-1.38-2.37c-.54-.93-1.86-1.34-2.79-.73-.92.61-1.3,1.83-.72,2.83l1.38,2.37c.54.93,1.86,1.34,2.79.73.92-.61,1.3-1.83.72-2.83Z"/><path class="uuid-8b236361-f9e3-46fa-a094-af1a209f0872" d="m764.73,26.47c-2.06-3.98-4.12-7.96-6.18-11.95-1.22-2.36-4.72-.25-3.5,2.1,2.06,3.98,4.12,7.96,6.18,11.95,1.22,2.36,4.72.25,3.5-2.1Z"/><path class="uuid-8b236361-f9e3-46fa-a094-af1a209f0872" d="m760.3,33.03c-3.25-5.86-6.51-11.73-9.76-17.59-1.54-2.78-4.92-.75-3.38,2.03,3.25,5.86,6.51,11.73,9.76,17.59,1.54,2.78,4.92.75,3.38-2.03Z"/><path class="uuid-8b236361-f9e3-46fa-a094-af1a209f0872" d="m756.03,40.42c-4.5-8.33-9-16.66-13.49-24.98-1.26-2.34-4.76-.23-3.5,2.1,4.5,8.33,9,16.66,13.49,24.98,1.26,2.34,4.76.23,3.5-2.1Z"/><path class="uuid-8b236361-f9e3-46fa-a094-af1a209f0872" d="m753.45,49.27c-6.93-11.37-13.67-22.87-20.21-34.49-1.3-2.31-4.8-.21-3.5,2.1,6.54,11.61,13.28,23.11,20.21,34.49,1.38,2.26,4.88.16,3.5-2.1Z"/><path class="uuid-8b236361-f9e3-46fa-a094-af1a209f0872" d="m721.27,17.49h-2.71c-1.06,0-2.08.95-2.03,2.07.05,1.12.89,2.07,2.03,2.07h2.71c1.06,0,2.08-.95,2.03-2.07-.05-1.12-.89-2.07-2.03-2.07Z"/><path class="uuid-8b236361-f9e3-46fa-a094-af1a209f0872" d="m725.78,24.62c-4.42-.22-8.84-.44-13.25-.67-2.62-.13-2.61,4.01,0,4.14,4.42.22,8.84.44,13.25.67,2.62.13,2.61-4.01,0-4.14Z"/><path class="uuid-8b236361-f9e3-46fa-a094-af1a209f0872" d="m729.08,31.84c-6.62-.13-13.24-.26-19.85-.4-3.14-.06-3.14,3.93,0,3.99,6.62.13,13.24.26,19.85.4,3.14.06,3.14-3.93,0-3.99Z"/><path class="uuid-8b236361-f9e3-46fa-a094-af1a209f0872" d="m733.16,39.34c-9.34-.3-18.67-.59-28.01-.89-2.62-.08-2.62,4.05,0,4.14,9.34.3,18.67.59,28.01.89,2.62.08,2.62-4.05,0-4.14Z"/><path class="uuid-8b236361-f9e3-46fa-a094-af1a209f0872" d="m739.35,46.1c-13.16.29-26.31.34-39.47.16-2.62-.04-2.62,4.1,0,4.14,13.16.18,26.32.13,39.47-.16,2.61-.06,2.62-4.19,0-4.14Z"/><path class="uuid-8b236361-f9e3-46fa-a094-af1a209f0872" d="m23.79,50.18c-7.04.26-14.08.32-21.13.19v-4.14c7.04.13,14.09.07,21.13-.19,1.55-.06,1.54,4.08,0,4.14Z"/><path class="uuid-8b236361-f9e3-46fa-a094-af1a209f0872" d="m16.91,43.42c-4.75-.27-9.5-.53-14.25-.8v-4.14c4.75.27,9.5.53,14.25.8,1.49.08,1.49,4.22,0,4.14Z"/><path class="uuid-8b236361-f9e3-46fa-a094-af1a209f0872" d="m12.55,35.77c-3.3-.12-6.59-.23-9.89-.35v-3.99c3.3.12,6.59.23,9.89.35,1.8.06,1.8,4.05,0,3.99Z"/><path class="uuid-8b236361-f9e3-46fa-a094-af1a209f0872" d="m8.64,28.7c-1.99-.17-3.98-.35-5.98-.52v-4.14c1.99.17,3.98.35,5.98.52,1.51.13,1.52,4.27,0,4.14Z"/><path class="uuid-8b236361-f9e3-46fa-a094-af1a209f0872" d="m3.31,21.57h-.65v-4.14h.65c.84,0,1.46.95,1.5,2.07.04,1.12-.71,2.07-1.5,2.07Z"/><path class="uuid-8b236361-f9e3-46fa-a094-af1a209f0872" d="m1076.97,50.17c-6.98.19-13.96.22-20.94.07-1.61-.04-1.61-4.17,0-4.14,6.98.16,13.96.13,20.94-.07v4.14Z"/><path class="uuid-8b236361-f9e3-46fa-a094-af1a209f0872" d="m1076.95,43.16c-4.93-.24-9.85-.49-14.78-.73-1.68-.08-1.68-4.22,0-4.14,4.93.24,9.85.49,14.78.73v4.14Z"/><path class="uuid-8b236361-f9e3-46fa-a094-af1a209f0872" d="m1076.97,35.58c-3.41-.1-6.82-.21-10.23-.31-2.08-.06-2.08-4.05,0-3.99,3.41.1,6.82.21,10.23.31v3.99Z"/><path class="uuid-8b236361-f9e3-46fa-a094-af1a209f0872" d="m1076.97,28.38l-6.16-.44c-1.82-.13-1.83-4.27,0-4.14l6.16.44v4.14Z"/><path class="uuid-8b236361-f9e3-46fa-a094-af1a209f0872" d="m1076.97,21.48h-1.36c-.86,0-1.5-.95-1.54-2.07-.04-1.12.73-2.07,1.54-2.07h1.36v4.14Z"/><path class="uuid-8b236361-f9e3-46fa-a094-af1a209f0872" d="m1076.95,4.14c-140.21.16-280.42.32-420.63.48-139.56.16-279.12.32-418.68.48-78.33.09-156.66.18-234.98.27V1.24c139.85-.16,279.71-.32,419.56-.48l418.85-.48c78.62-.09,157.25-.18,235.87-.27v4.14Z"/><path class="uuid-8b236361-f9e3-46fa-a094-af1a209f0872" d="m184.71,334.78h-2.71c-1.06,0-2.08-.95-2.03-2.07.05-1.12.89-2.07,2.03-2.07h2.71c1.06,0,2.08.95,2.03,2.07-.05,1.12-.89,2.07-2.03,2.07Z"/><path class="uuid-8b236361-f9e3-46fa-a094-af1a209f0872" d="m189.23,327.65c-4.42.22-8.84.44-13.25.67-2.62.13-2.61-4.01,0-4.14,4.42-.22,8.84-.44,13.25-.67,2.62-.13,2.61,4.01,0,4.14Z"/><path class="uuid-8b236361-f9e3-46fa-a094-af1a209f0872" d="m192.53,320.43c-6.62.13-13.24.26-19.85.4-3.14.06-3.14-3.93,0-3.99,6.62-.13,13.24-.26,19.85-.4,3.14-.06,3.14,3.93,0,3.99Z"/><path class="uuid-8b236361-f9e3-46fa-a094-af1a209f0872" d="m196.61,315.21c-9.34.3-18.67.59-28.01.89-2.62.08-2.62-4.05,0-4.14,9.34-.3,18.67-.59,28.01-.89,2.62-.08,2.62,4.05,0,4.14Z"/><path class="uuid-8b236361-f9e3-46fa-a094-af1a209f0872" d="m202.79,308.45c-13.16-.29-26.31-.34-39.47-.16-2.62.04-2.62-4.1,0-4.14,13.16-.18,26.32-.13,39.47.16,2.61.06,2.62,4.19,0,4.14Z"/><path class="uuid-8b236361-f9e3-46fa-a094-af1a209f0872" d="m230.13,334.79l-1.38,2.37c-.54.93-1.86,1.34-2.79.73-.92-.61-1.3-1.83-.72-2.83l1.38-2.37c.54-.93,1.86-1.34,2.79-.73.92.61,1.3,1.83.72,2.83Z"/><path class="uuid-8b236361-f9e3-46fa-a094-af1a209f0872" d="m226.39,327.2c-2.06,3.98-4.12,7.96-6.18,11.95-1.22,2.36-4.72.25-3.5-2.1,2.06-3.98,4.12-7.96,6.18-11.95,1.22-2.36,4.72-.25,3.5,2.1Z"/><path class="uuid-8b236361-f9e3-46fa-a094-af1a209f0872" d="m221.96,320.64c-3.25,5.86-6.51,11.73-9.76,17.59-1.54,2.78-4.92.75-3.38-2.03,3.25-5.86,6.51-11.73,9.76-17.59,1.54-2.78,4.92-.75,3.38,2.03Z"/><path class="uuid-8b236361-f9e3-46fa-a094-af1a209f0872" d="m217.69,313.26c-4.5,8.33-9,16.66-13.49,24.98-1.26,2.34-4.76.23-3.5-2.1,4.5-8.33,9-16.66,13.49-24.98,1.26-2.34,4.76-.23,3.5,2.1Z"/><path class="uuid-8b236361-f9e3-46fa-a094-af1a209f0872" d="m215.12,304.4c-6.93,11.37-13.67,22.87-20.21,34.49-1.3,2.31-4.8.21-3.5-2.1,6.54-11.61,13.28-23.11,20.21-34.49,1.38-2.26,4.88-.16,3.5,2.1Z"/><path class="uuid-8b236361-f9e3-46fa-a094-af1a209f0872" d="m243.16,337.05h-2.71c-1.06,0-2.08-.95-2.03-2.07.05-1.12.89-2.07,2.03-2.07h2.71c1.06,0,2.08.95,2.03,2.07-.05,1.12-.89,2.07-2.03,2.07Z"/><path class="uuid-8b236361-f9e3-46fa-a094-af1a209f0872" d="m247.67,329.92c-4.42.22-8.84.44-13.25.67-2.62.13-2.61-4.01,0-4.14,4.42-.22,8.84-.44,13.25-.67,2.62-.13,2.61,4.01,0,4.14Z"/><path class="uuid-8b236361-f9e3-46fa-a094-af1a209f0872" d="m250.97,322.71c-6.62.13-13.24.26-19.85.4-3.14.06-3.14-3.93,0-3.99,6.62-.13,13.24-.26,19.85-.4,3.14-.06,3.14,3.93,0,3.99Z"/><path class="uuid-8b236361-f9e3-46fa-a094-af1a209f0872" d="m255.05,315.21c-9.34.3-18.67.59-28.01.89-2.62.08-2.62-4.05,0-4.14,9.34-.3,18.67-.59,28.01-.89,2.62-.08,2.62,4.05,0,4.14Z"/><path class="uuid-8b236361-f9e3-46fa-a094-af1a209f0872" d="m261.24,308.45c-13.16-.29-26.31-.34-39.47-.16-2.62.04-2.62-4.1,0-4.14,13.16-.18,26.32-.13,39.47.16,2.61.06,2.62,4.19,0,4.14Z"/><path class="uuid-8b236361-f9e3-46fa-a094-af1a209f0872" d="m288.04,334.86l-1.38,2.37c-.54.93-1.86,1.34-2.79.73-.92-.61-1.3-1.83-.72-2.83l1.38-2.37c.54-.93,1.86-1.34,2.79-.73.92.61,1.3,1.83.72,2.83Z"/><path class="uuid-8b236361-f9e3-46fa-a094-af1a209f0872" d="m284.3,327.28c-2.06,3.98-4.12,7.96-6.18,11.95-1.22,2.36-4.72.25-3.5-2.1,2.06-3.98,4.12-7.96,6.18-11.95,1.22-2.36,4.72-.25,3.5,2.1Z"/><path class="uuid-8b236361-f9e3-46fa-a094-af1a209f0872" d="m279.87,320.72c-3.25,5.86-6.51,11.73-9.76,17.59-1.54,2.78-4.92.75-3.38-2.03,3.25-5.86,6.51-11.73,9.76-17.59,1.54-2.78,4.92-.75,3.38,2.03Z"/><path class="uuid-8b236361-f9e3-46fa-a094-af1a209f0872" d="m275.6,313.33c-4.5,8.33-9,16.66-13.49,24.98-1.26,2.34-4.76.23-3.5-2.1,4.5-8.33,9-16.66,13.49-24.98,1.26-2.34,4.76-.23,3.5,2.1Z"/><path class="uuid-8b236361-f9e3-46fa-a094-af1a209f0872" d="m273.02,304.48c-6.93,11.37-13.67,22.87-20.21,34.49-1.3,2.31-4.8.21-3.5-2.1,6.54-11.61,13.28-23.11,20.21-34.49,1.38-2.26,4.88-.16,3.5,2.1Z"/><path class="uuid-805ed41d-6366-498b-9966-8334950efe3e" d="m301.61,336.84h-2.71c-1.06,0-2.08-.95-2.03-2.07.05-1.12.89-2.07,2.03-2.07h2.71c1.06,0,2.08.95,2.03,2.07-.05,1.12-.89,2.07-2.03,2.07Z"/><path class="uuid-805ed41d-6366-498b-9966-8334950efe3e" d="m306.12,329.72c-4.42.22-8.84.44-13.25.67-2.62.13-2.61-4.01,0-4.14,4.42-.22,8.84-.44,13.25-.67,2.62-.13,2.61,4.01,0,4.14Z"/><path class="uuid-805ed41d-6366-498b-9966-8334950efe3e" d="m309.42,322.5c-6.62.13-13.24.26-19.85.4-3.14.06-3.14-3.93,0-3.99,6.62-.13,13.24-.26,19.85-.4,3.14-.06,3.14,3.93,0,3.99Z"/><path class="uuid-805ed41d-6366-498b-9966-8334950efe3e" d="m313.5,315c-9.34.3-18.67.59-28.01.89-2.62.08-2.62-4.05,0-4.14,9.34-.3,18.67-.59,28.01-.89,2.62-.08,2.62,4.05,0,4.14Z"/><path class="uuid-805ed41d-6366-498b-9966-8334950efe3e" d="m319.69,308.24c-13.16-.29-26.31-.34-39.47-.16-2.62.04-2.62-4.1,0-4.14,13.16-.18,26.32-.13,39.47.16,2.61.06,2.62,4.19,0,4.14Z"/><path class="uuid-8b236361-f9e3-46fa-a094-af1a209f0872" d="m347.39,335.22l-1.38,2.37c-.54.93-1.86,1.34-2.79.73-.92-.61-1.3-1.83-.72-2.83l1.38-2.37c.54-.93,1.86-1.34,2.79-.73.92.61,1.3,1.83.72,2.83Z"/><path class="uuid-8b236361-f9e3-46fa-a094-af1a209f0872" d="m343.65,327.64c-2.06,3.98-4.12,7.96-6.18,11.95-1.22,2.36-4.72.25-3.5-2.1,2.06-3.98,4.12-7.96,6.18-11.95,1.22-2.36,4.72-.25,3.5,2.1Z"/><path class="uuid-8b236361-f9e3-46fa-a094-af1a209f0872" d="m339.22,321.08c-3.25,5.86-6.51,11.73-9.76,17.59-1.54,2.78-4.92.75-3.38-2.03,3.25-5.86,6.51-11.73,9.76-17.59,1.54-2.78,4.92-.75,3.38,2.03Z"/><path class="uuid-8b236361-f9e3-46fa-a094-af1a209f0872" d="m334.95,313.69c-4.5,8.33-9,16.66-13.49,24.98-1.26,2.34-4.76.23-3.5-2.1,4.5-8.33,9-16.66,13.49-24.98,1.26-2.34,4.76-.23,3.5,2.1Z"/><path class="uuid-8b236361-f9e3-46fa-a094-af1a209f0872" d="m332.37,304.84c-6.93,11.37-13.67,22.87-20.21,34.49-1.3,2.31-4.8.21-3.5-2.1,6.54-11.61,13.28-23.11,20.21-34.49,1.38-2.26,4.88-.16,3.5,2.1Z"/><path class="uuid-8b236361-f9e3-46fa-a094-af1a209f0872" d="m361.53,336.7h-2.71c-1.06,0-2.08-.95-2.03-2.07.05-1.12.89-2.07,2.03-2.07h2.71c1.06,0,2.08.95,2.03,2.07-.05,1.12-.89,2.07-2.03,2.07Z"/><path class="uuid-8b236361-f9e3-46fa-a094-af1a209f0872" d="m366.05,329.57c-4.42.22-8.84.44-13.25.67-2.62.13-2.61-4.01,0-4.14,4.42-.22,8.84-.44,13.25-.67,2.62-.13,2.61,4.01,0,4.14Z"/><path class="uuid-8b236361-f9e3-46fa-a094-af1a209f0872" d="m369.35,322.35c-6.62.13-13.24.26-19.85.4-3.14.06-3.14-3.93,0-3.99,6.62-.13,13.24-.26,19.85-.4,3.14-.06,3.14,3.93,0,3.99Z"/><path class="uuid-8b236361-f9e3-46fa-a094-af1a209f0872" d="m373.43,314.85c-9.34.3-18.67.59-28.01.89-2.62.08-2.62-4.05,0-4.14,9.34-.3,18.67-.59,28.01-.89,2.62-.08,2.62,4.05,0,4.14Z"/><path class="uuid-8b236361-f9e3-46fa-a094-af1a209f0872" d="m379.61,308.1c-13.16-.29-26.31-.34-39.47-.16-2.62.04-2.62-4.1,0-4.14,13.16-.18,26.32-.13,39.47.16,2.61.06,2.62,4.19,0,4.14Z"/><path class="uuid-8b236361-f9e3-46fa-a094-af1a209f0872" d="m406.95,334.43l-1.38,2.37c-.54.93-1.86,1.34-2.79.73-.92-.61-1.3-1.83-.72-2.83l1.38-2.37c.54-.93,1.86-1.34,2.79-.73.92.61,1.3,1.83.72,2.83Z"/><path class="uuid-8b236361-f9e3-46fa-a094-af1a209f0872" d="m403.22,326.85c-2.06,3.98-4.12,7.96-6.18,11.95-1.22,2.36-4.72.25-3.5-2.1,2.06-3.98,4.12-7.96,6.18-11.95,1.22-2.36,4.72-.25,3.5,2.1Z"/><path class="uuid-8b236361-f9e3-46fa-a094-af1a209f0872" d="m398.79,320.29c-3.25,5.86-6.51,11.73-9.76,17.59-1.54,2.78-4.92.75-3.38-2.03,3.25-5.86,6.51-11.73,9.76-17.59,1.54-2.78,4.92-.75,3.38,2.03Z"/><path class="uuid-8b236361-f9e3-46fa-a094-af1a209f0872" d="m394.51,312.9c-4.5,8.33-9,16.66-13.49,24.98-1.26,2.34-4.76.23-3.5-2.1,4.5-8.33,9-16.66,13.49-24.98,1.26-2.34,4.76-.23,3.5,2.1Z"/><path class="uuid-8b236361-f9e3-46fa-a094-af1a209f0872" d="m391.94,304.05c-6.93,11.37-13.67,22.87-20.21,34.49-1.3,2.31-4.8.21-3.5-2.1,6.54-11.61,13.28-23.11,20.21-34.49,1.38-2.26,4.88-.16,3.5,2.1Z"/><path class="uuid-8b236361-f9e3-46fa-a094-af1a209f0872" d="m419.98,336.7h-2.71c-1.06,0-2.08-.95-2.03-2.07.05-1.12.89-2.07,2.03-2.07h2.71c1.06,0,2.08.95,2.03,2.07-.05,1.12-.89,2.07-2.03,2.07Z"/><path class="uuid-8b236361-f9e3-46fa-a094-af1a209f0872" d="m424.5,329.57c-4.42.22-8.84.44-13.25.67-2.62.13-2.61-4.01,0-4.14,4.42-.22,8.84-.44,13.25-.67,2.62-.13,2.61,4.01,0,4.14Z"/><path class="uuid-8b236361-f9e3-46fa-a094-af1a209f0872" d="m427.8,322.35c-6.62.13-13.24.26-19.85.4-3.14.06-3.14-3.93,0-3.99,6.62-.13,13.24-.26,19.85-.4,3.14-.06,3.14,3.93,0,3.99Z"/><path class="uuid-8b236361-f9e3-46fa-a094-af1a209f0872" d="m431.87,314.85c-9.34.3-18.67.59-28.01.89-2.62.08-2.62-4.05,0-4.14,9.34-.3,18.67-.59,28.01-.89,2.62-.08,2.62,4.05,0,4.14Z"/><path class="uuid-8b236361-f9e3-46fa-a094-af1a209f0872" d="m438.06,308.1c-13.16-.29-26.31-.34-39.47-.16-2.62.04-2.62-4.1,0-4.14,13.16-.18,26.32-.13,39.47.16,2.61.06,2.62,4.19,0,4.14Z"/><path class="uuid-8b236361-f9e3-46fa-a094-af1a209f0872" d="m464.86,335.64l-1.38,2.37c-.54.93-1.86,1.34-2.79.73-.92-.61-1.3-1.83-.72-2.83l1.38-2.37c.54-.93,1.86-1.34,2.79-.73.92.61,1.3,1.83.72,2.83Z"/><path class="uuid-8b236361-f9e3-46fa-a094-af1a209f0872" d="m461.12,328.06c-2.06,3.98-4.12,7.96-6.18,11.95-1.22,2.36-4.72.25-3.5-2.1,2.06-3.98,4.12-7.96,6.18-11.95,1.22-2.36,4.72-.25,3.5,2.1Z"/><path class="uuid-8b236361-f9e3-46fa-a094-af1a209f0872" d="m456.69,321.5c-3.25,5.86-6.51,11.73-9.76,17.59-1.54,2.78-4.92.75-3.38-2.03,3.25-5.86,6.51-11.73,9.76-17.59,1.54-2.78,4.92-.75,3.38,2.03Z"/><path class="uuid-8b236361-f9e3-46fa-a094-af1a209f0872" d="m452.42,314.12c-4.5,8.33-9,16.66-13.49,24.98-1.26,2.34-4.76.23-3.5-2.1,4.5-8.33,9-16.66,13.49-24.98,1.26-2.34,4.76-.23,3.5,2.1Z"/><path class="uuid-8b236361-f9e3-46fa-a094-af1a209f0872" d="m449.85,305.26c-6.93,11.37-13.67,22.87-20.21,34.49-1.3,2.31-4.8.21-3.5-2.1,6.54-11.61,13.28-23.11,20.21-34.49,1.38-2.26,4.88-.16,3.5,2.1Z"/><path class="uuid-8b236361-f9e3-46fa-a094-af1a209f0872" d="m478.43,336.49h-2.71c-1.06,0-2.08-.95-2.03-2.07.05-1.12.89-2.07,2.03-2.07h2.71c1.06,0,2.08.95,2.03,2.07-.05,1.12-.89,2.07-2.03,2.07Z"/><path class="uuid-8b236361-f9e3-46fa-a094-af1a209f0872" d="m482.95,329.36c-4.42.22-8.84.44-13.25.67-2.62.13-2.61-4.01,0-4.14,4.42-.22,8.84-.44,13.25-.67,2.62-.13,2.61,4.01,0,4.14Z"/><path class="uuid-8b236361-f9e3-46fa-a094-af1a209f0872" d="m486.25,322.15c-6.62.13-13.24.26-19.85.4-3.14.06-3.14-3.93,0-3.99,6.62-.13,13.24-.26,19.85-.4,3.14-.06,3.14,3.93,0,3.99Z"/><path class="uuid-8b236361-f9e3-46fa-a094-af1a209f0872" d="m490.33,314.64c-9.34.3-18.67.59-28.01.89-2.62.08-2.62-4.05,0-4.14,9.34-.3,18.67-.59,28.01-.89,2.62-.08,2.62,4.05,0,4.14Z"/><path class="uuid-8b236361-f9e3-46fa-a094-af1a209f0872" d="m496.51,307.89c-13.16-.29-26.31-.34-39.47-.16-2.62.04-2.62-4.1,0-4.14,13.16-.18,26.32-.13,39.47.16,2.61.06,2.62,4.19,0,4.14Z"/><path class="uuid-8b236361-f9e3-46fa-a094-af1a209f0872" d="m524.21,335.44l-1.38,2.37c-.54.93-1.86,1.34-2.79.73-.92-.61-1.3-1.83-.72-2.83l1.38-2.37c.54-.93,1.86-1.34,2.79-.73.92.61,1.3,1.83.72,2.83Z"/><path class="uuid-8b236361-f9e3-46fa-a094-af1a209f0872" d="m520.47,327.86c-2.06,3.98-4.12,7.96-6.18,11.95-1.22,2.36-4.72.25-3.5-2.1,2.06-3.98,4.12-7.96,6.18-11.95,1.22-2.36,4.72-.25,3.5,2.1Z"/><path class="uuid-8b236361-f9e3-46fa-a094-af1a209f0872" d="m516.04,321.29c-3.25,5.86-6.51,11.73-9.76,17.59-1.54,2.78-4.92.75-3.38-2.03,3.25-5.86,6.51-11.73,9.76-17.59,1.54-2.78,4.92-.75,3.38,2.03Z"/><path class="uuid-8b236361-f9e3-46fa-a094-af1a209f0872" d="m511.77,313.91c-4.5,8.33-9,16.66-13.49,24.98-1.26,2.34-4.76.23-3.5-2.1,4.5-8.33,9-16.66,13.49-24.98,1.26-2.34,4.76-.23,3.5,2.1Z"/><path class="uuid-8b236361-f9e3-46fa-a094-af1a209f0872" d="m509.19,305.05c-6.93,11.37-13.67,22.87-20.21,34.49-1.3,2.31-4.8.21-3.5-2.1,6.54-11.61,13.28-23.11,20.21-34.49,1.38-2.26,4.88-.16,3.5,2.1Z"/><path class="uuid-805f41bb-f348-40fb-a4e2-948c7912e065" d="m540.08,336.56h-2.71c-1.06,0-2.08-.95-2.03-2.07.05-1.12.89-2.07,2.03-2.07h2.71c1.06,0,2.08.95,2.03,2.07-.05,1.12-.89,2.07-2.03,2.07Z"/><path class="uuid-805f41bb-f348-40fb-a4e2-948c7912e065" d="m544.59,329.43c-4.42.22-8.84.44-13.25.67-2.62.13-2.61-4.01,0-4.14,4.42-.22,8.84-.44,13.25-.67,2.62-.13,2.61,4.01,0,4.14Z"/><path class="uuid-805f41bb-f348-40fb-a4e2-948c7912e065" d="m547.89,322.21c-6.62.13-13.24.26-19.85.4-3.14.06-3.14-3.93,0-3.99,6.62-.13,13.24-.26,19.85-.4,3.14-.06,3.14,3.93,0,3.99Z"/><path class="uuid-805f41bb-f348-40fb-a4e2-948c7912e065" d="m551.97,314.71c-9.34.3-18.67.59-28.01.89-2.62.08-2.62-4.05,0-4.14,9.34-.3,18.67-.59,28.01-.89,2.62-.08,2.62,4.05,0,4.14Z"/><path class="uuid-805f41bb-f348-40fb-a4e2-948c7912e065" d="m558.16,307.95c-13.16-.29-26.31-.34-39.47-.16-2.62.04-2.62-4.1,0-4.14,13.16-.18,26.32-.13,39.47.16,2.61.06,2.62,4.19,0,4.14Z"/><path class="uuid-8b236361-f9e3-46fa-a094-af1a209f0872" d="m585.5,334.86l-1.38,2.37c-.54.93-1.86,1.34-2.79.73-.92-.61-1.3-1.83-.72-2.83l1.38-2.37c.54-.93,1.86-1.34,2.79-.73.92.61,1.3,1.83.72,2.83Z"/><path class="uuid-8b236361-f9e3-46fa-a094-af1a209f0872" d="m581.76,327.28c-2.06,3.98-4.12,7.96-6.18,11.95-1.22,2.36-4.72.25-3.5-2.1,2.06-3.98,4.12-7.96,6.18-11.95,1.22-2.36,4.72-.25,3.5,2.1Z"/><path class="uuid-8b236361-f9e3-46fa-a094-af1a209f0872" d="m577.33,320.72c-3.25,5.86-6.51,11.73-9.76,17.59-1.54,2.78-4.92.75-3.38-2.03,3.25-5.86,6.51-11.73,9.76-17.59,1.54-2.78,4.92-.75,3.38,2.03Z"/><path class="uuid-8b236361-f9e3-46fa-a094-af1a209f0872" d="m573.06,313.33c-4.5,8.33-9,16.66-13.49,24.98-1.26,2.34-4.76.23-3.5-2.1,4.5-8.33,9-16.66,13.49-24.98,1.26-2.34,4.76-.23,3.5,2.1Z"/><path class="uuid-8b236361-f9e3-46fa-a094-af1a209f0872" d="m570.48,304.48c-6.93,11.37-13.67,22.87-20.21,34.49-1.3,2.31-4.8.21-3.5-2.1,6.54-11.61,13.28-23.11,20.21-34.49,1.38-2.26,4.88-.16,3.5,2.1Z"/><path class="uuid-8b236361-f9e3-46fa-a094-af1a209f0872" d="m598.07,336.49h-2.71c-1.06,0-2.08-.95-2.03-2.07.05-1.12.89-2.07,2.03-2.07h2.71c1.06,0,2.08.95,2.03,2.07-.05,1.12-.89,2.07-2.03,2.07Z"/><path class="uuid-8b236361-f9e3-46fa-a094-af1a209f0872" d="m602.58,329.36c-4.42.22-8.84.44-13.25.67-2.62.13-2.61-4.01,0-4.14,4.42-.22,8.84-.44,13.25-.67,2.62-.13,2.61,4.01,0,4.14Z"/><path class="uuid-8b236361-f9e3-46fa-a094-af1a209f0872" d="m605.88,322.15c-6.62.13-13.24.26-19.85.4-3.14.06-3.14-3.93,0-3.99,6.62-.13,13.24-.26,19.85-.4,3.14-.06,3.14,3.93,0,3.99Z"/><path class="uuid-8b236361-f9e3-46fa-a094-af1a209f0872" d="m609.96,314.64c-9.34.3-18.67.59-28.01.89-2.62.08-2.62-4.05,0-4.14,9.34-.3,18.67-.59,28.01-.89,2.62-.08,2.62,4.05,0,4.14Z"/><path class="uuid-8b236361-f9e3-46fa-a094-af1a209f0872" d="m616.15,307.89c-13.16-.29-26.31-.34-39.47-.16-2.62.04-2.62-4.1,0-4.14,13.16-.18,26.32-.13,39.47.16,2.61.06,2.62,4.19,0,4.14Z"/><path class="uuid-8b236361-f9e3-46fa-a094-af1a209f0872" d="m643.56,334.81l-1.38,2.37c-.54.93-1.86,1.34-2.79.73-.92-.61-1.3-1.83-.72-2.83l1.38-2.37c.54-.93,1.86-1.34,2.79-.73.92.61,1.3,1.83.72,2.83Z"/><path class="uuid-8b236361-f9e3-46fa-a094-af1a209f0872" d="m639.82,327.23c-2.06,3.98-4.12,7.96-6.18,11.95-1.22,2.36-4.72.25-3.5-2.1,2.06-3.98,4.12-7.96,6.18-11.95,1.22-2.36,4.72-.25,3.5,2.1Z"/><path class="uuid-8b236361-f9e3-46fa-a094-af1a209f0872" d="m635.39,320.67c-3.25,5.86-6.51,11.73-9.76,17.59-1.54,2.78-4.92.75-3.38-2.03,3.25-5.86,6.51-11.73,9.76-17.59,1.54-2.78,4.92-.75,3.38,2.03Z"/><path class="uuid-8b236361-f9e3-46fa-a094-af1a209f0872" d="m631.12,313.28c-4.5,8.33-9,16.66-13.49,24.98-1.26,2.34-4.76.23-3.5-2.1,4.5-8.33,9-16.66,13.49-24.98,1.26-2.34,4.76-.23,3.5,2.1Z"/><path class="uuid-8b236361-f9e3-46fa-a094-af1a209f0872" d="m628.54,304.42c-6.93,11.37-13.67,22.87-20.21,34.49-1.3,2.31-4.8.21-3.5-2.1,6.54-11.61,13.28-23.11,20.21-34.49,1.38-2.26,4.88-.16,3.5,2.1Z"/><path class="uuid-8b236361-f9e3-46fa-a094-af1a209f0872" d="m656.98,336.92h-2.71c-1.06,0-2.08-.95-2.03-2.07.05-1.12.89-2.07,2.03-2.07h2.71c1.06,0,2.08.95,2.03,2.07-.05,1.12-.89,2.07-2.03,2.07Z"/><path class="uuid-8b236361-f9e3-46fa-a094-af1a209f0872" d="m661.49,329.79c-4.42.22-8.84.44-13.25.67-2.62.13-2.61-4.01,0-4.14,4.42-.22,8.84-.44,13.25-.67,2.62-.13,2.61,4.01,0,4.14Z"/><path class="uuid-8b236361-f9e3-46fa-a094-af1a209f0872" d="m664.79,322.57c-6.62.13-13.24.26-19.85.4-3.14.06-3.14-3.93,0-3.99,6.62-.13,13.24-.26,19.85-.4,3.14-.06,3.14,3.93,0,3.99Z"/><path class="uuid-8b236361-f9e3-46fa-a094-af1a209f0872" d="m668.87,315.07c-9.34.3-18.67.59-28.01.89-2.62.08-2.62-4.05,0-4.14,9.34-.3,18.67-.59,28.01-.89,2.62-.08,2.62,4.05,0,4.14Z"/><path class="uuid-8b236361-f9e3-46fa-a094-af1a209f0872" d="m675.06,308.31c-13.16-.29-26.31-.34-39.47-.16-2.62.04-2.62-4.1,0-4.14,13.16-.18,26.32-.13,39.47.16,2.61.06,2.62,4.19,0,4.14Z"/><path class="uuid-8b236361-f9e3-46fa-a094-af1a209f0872" d="m703.87,335.29l-1.38,2.37c-.54.93-1.86,1.34-2.79.73-.92-.61-1.3-1.83-.72-2.83l1.38-2.37c.54-.93,1.86-1.34,2.79-.73.92.61,1.3,1.83.72,2.83Z"/><path class="uuid-8b236361-f9e3-46fa-a094-af1a209f0872" d="m700.14,327.71c-2.06,3.98-4.12,7.96-6.18,11.95-1.22,2.36-4.72.25-3.5-2.1,2.06-3.98,4.12-7.96,6.18-11.95,1.22-2.36,4.72-.25,3.5,2.1Z"/><path class="uuid-8b236361-f9e3-46fa-a094-af1a209f0872" d="m695.71,321.15c-3.25,5.86-6.51,11.73-9.76,17.59-1.54,2.78-4.92.75-3.38-2.03,3.25-5.86,6.51-11.73,9.76-17.59,1.54-2.78,4.92-.75,3.38,2.03Z"/><path class="uuid-8b236361-f9e3-46fa-a094-af1a209f0872" d="m691.43,313.76c-4.5,8.33-9,16.66-13.49,24.98-1.26,2.34-4.76.23-3.5-2.1,4.5-8.33,9-16.66,13.49-24.98,1.26-2.34,4.76-.23,3.5,2.1Z"/><path class="uuid-8b236361-f9e3-46fa-a094-af1a209f0872" d="m688.86,304.91c-6.93,11.37-13.67,22.87-20.21,34.49-1.3,2.31-4.8.21-3.5-2.1,6.54-11.61,13.28-23.11,20.21-34.49,1.38-2.26,4.88-.16,3.5,2.1Z"/><path class="uuid-8b236361-f9e3-46fa-a094-af1a209f0872" d="m170.64,334.93l-1.38,2.37c-.54.93-1.86,1.34-2.79.73-.92-.61-1.3-1.83-.72-2.83l1.38-2.37c.54-.93,1.86-1.34,2.79-.73.92.61,1.3,1.83.72,2.83Z"/><path class="uuid-8b236361-f9e3-46fa-a094-af1a209f0872" d="m166.9,327.35c-2.06,3.98-4.12,7.96-6.18,11.95-1.22,2.36-4.72.25-3.5-2.1,2.06-3.98,4.12-7.96,6.18-11.95,1.22-2.36,4.72-.25,3.5,2.1Z"/><path class="uuid-8b236361-f9e3-46fa-a094-af1a209f0872" d="m162.47,320.79c-3.25,5.86-6.51,11.73-9.76,17.59-1.54,2.78-4.92.75-3.38-2.03,3.25-5.86,6.51-11.73,9.76-17.59,1.54-2.78,4.92-.75,3.38,2.03Z"/><path class="uuid-8b236361-f9e3-46fa-a094-af1a209f0872" d="m158.2,313.4c-4.5,8.33-9,16.66-13.49,24.98-1.26,2.34-4.76.23-3.5-2.1,4.5-8.33,9-16.66,13.49-24.98,1.26-2.34,4.76-.23,3.5,2.1Z"/><path class="uuid-8b236361-f9e3-46fa-a094-af1a209f0872" d="m155.62,304.55c-6.93,11.37-13.67,22.87-20.21,34.49-1.3,2.31-4.8.21-3.5-2.1,6.54-11.61,13.28-23.11,20.21-34.49,1.38-2.26,4.88-.16,3.5,2.1Z"/><path class="uuid-8b236361-f9e3-46fa-a094-af1a209f0872" d="m49.14,334.92l-1.38,2.37c-.54.93-1.86,1.34-2.79.73-.92-.61-1.3-1.83-.72-2.83l1.38-2.37c.54-.93,1.86-1.34,2.79-.73.92.61,1.3,1.83.72,2.83Z"/><path class="uuid-8b236361-f9e3-46fa-a094-af1a209f0872" d="m45.4,327.34c-2.06,3.98-4.12,7.96-6.18,11.95-1.22,2.36-4.72.25-3.5-2.1,2.06-3.98,4.12-7.96,6.18-11.95,1.22-2.36,4.72-.25,3.5,2.1Z"/><path class="uuid-8b236361-f9e3-46fa-a094-af1a209f0872" d="m40.97,320.78c-3.25,5.86-6.51,11.73-9.76,17.59-1.54,2.78-4.92.75-3.38-2.03,3.25-5.86,6.51-11.73,9.76-17.59,1.54-2.78,4.92-.75,3.38,2.03Z"/><path class="uuid-8b236361-f9e3-46fa-a094-af1a209f0872" d="m36.7,313.39c-4.5,8.33-9,16.66-13.49,24.98-1.26,2.34-4.76.23-3.5-2.1,4.5-8.33,9-16.66,13.49-24.98,1.26-2.34,4.76-.23,3.5,2.1Z"/><path class="uuid-8b236361-f9e3-46fa-a094-af1a209f0872" d="m34.12,304.54c-6.93,11.37-13.67,22.87-20.21,34.49-1.3,2.31-4.8.21-3.5-2.1,6.54-11.61,13.28-23.11,20.21-34.49,1.38-2.26,4.88-.16,3.5,2.1Z"/><path class="uuid-395ba975-7455-44c1-a946-b8ac9bc084d1" d="m61.92,336.49h-2.71c-1.06,0-2.08-.95-2.03-2.07.05-1.12.89-2.07,2.03-2.07h2.71c1.06,0,2.08.95,2.03,2.07-.05,1.12-.89,2.07-2.03,2.07Z"/><path class="uuid-395ba975-7455-44c1-a946-b8ac9bc084d1" d="m66.44,329.36c-4.42.22-8.84.44-13.25.67-2.62.13-2.61-4.01,0-4.14,4.42-.22,8.84-.44,13.25-.67,2.62-.13,2.61,4.01,0,4.14Z"/><path class="uuid-395ba975-7455-44c1-a946-b8ac9bc084d1" d="m69.74,322.14c-6.62.13-13.24.26-19.85.4-3.14.06-3.14-3.93,0-3.99,6.62-.13,13.24-.26,19.85-.4,3.14-.06,3.14,3.93,0,3.99Z"/><path class="uuid-395ba975-7455-44c1-a946-b8ac9bc084d1" d="m73.82,314.64c-9.34.3-18.67.59-28.01.89-2.62.08-2.62-4.05,0-4.14,9.34-.3,18.67-.59,28.01-.89,2.62-.08,2.62,4.05,0,4.14Z"/><path class="uuid-395ba975-7455-44c1-a946-b8ac9bc084d1" d="m80,307.88c-13.16-.29-26.31-.34-39.47-.16-2.62.04-2.62-4.1,0-4.14,13.16-.18,26.32-.13,39.47.16,2.61.06,2.62,4.19,0,4.14Z"/><path class="uuid-8b236361-f9e3-46fa-a094-af1a209f0872" d="m109.5,335.07l-1.38,2.37c-.54.93-1.86,1.34-2.79.73-.92-.61-1.3-1.83-.72-2.83l1.38-2.37c.54-.93,1.86-1.34,2.79-.73.92.61,1.3,1.83.72,2.83Z"/><path class="uuid-8b236361-f9e3-46fa-a094-af1a209f0872" d="m105.76,327.49c-2.06,3.98-4.12,7.96-6.18,11.95-1.22,2.36-4.72.25-3.5-2.1,2.06-3.98,4.12-7.96,6.18-11.95,1.22-2.36,4.72-.25,3.5,2.1Z"/><path class="uuid-8b236361-f9e3-46fa-a094-af1a209f0872" d="m101.33,320.93c-3.25,5.86-6.51,11.73-9.76,17.59-1.54,2.78-4.92.75-3.38-2.03,3.25-5.86,6.51-11.73,9.76-17.59,1.54-2.78,4.92-.75,3.38,2.03Z"/><path class="uuid-8b236361-f9e3-46fa-a094-af1a209f0872" d="m97.05,313.54c-4.5,8.33-9,16.66-13.49,24.98-1.26,2.34-4.76.23-3.5-2.1,4.5-8.33,9-16.66,13.49-24.98,1.26-2.34,4.76-.23,3.5,2.1Z"/><path class="uuid-8b236361-f9e3-46fa-a094-af1a209f0872" d="m94.48,304.69c-6.93,11.37-13.67,22.87-20.21,34.49-1.3,2.31-4.8.21-3.5-2.1,6.54-11.61,13.28-23.11,20.21-34.49,1.38-2.26,4.88-.16,3.5,2.1Z"/><path class="uuid-8b236361-f9e3-46fa-a094-af1a209f0872" d="m123.28,336.75h-2.71c-1.06,0-2.08-.95-2.03-2.07.05-1.12.89-2.07,2.03-2.07h2.71c1.06,0,2.08.95,2.03,2.07-.05,1.12-.89,2.07-2.03,2.07Z"/><path class="uuid-8b236361-f9e3-46fa-a094-af1a209f0872" d="m127.8,329.62c-4.42.22-8.84.44-13.25.67-2.62.13-2.61-4.01,0-4.14,4.42-.22,8.84-.44,13.25-.67,2.62-.13,2.61,4.01,0,4.14Z"/><path class="uuid-8b236361-f9e3-46fa-a094-af1a209f0872" d="m131.1,322.41c-6.62.13-13.24.26-19.85.4-3.14.06-3.14-3.93,0-3.99,6.62-.13,13.24-.26,19.85-.4,3.14-.06,3.14,3.93,0,3.99Z"/><path class="uuid-8b236361-f9e3-46fa-a094-af1a209f0872" d="m135.18,314.9c-9.34.3-18.67.59-28.01.89-2.62.08-2.62-4.05,0-4.14,9.34-.3,18.67-.59,28.01-.89,2.62-.08,2.62,4.05,0,4.14Z"/><path class="uuid-8b236361-f9e3-46fa-a094-af1a209f0872" d="m141.36,308.15c-13.16-.29-26.31-.34-39.47-.16-2.62.04-2.62-4.1,0-4.14,13.16-.18,26.32-.13,39.47.16,2.61.06,2.62,4.19,0,4.14Z"/><path class="uuid-395ba975-7455-44c1-a946-b8ac9bc084d1" d="m780.03,336.94h-2.71c-1.06,0-2.08-.95-2.03-2.07.05-1.12.89-2.07,2.03-2.07h2.71c1.06,0,2.08.95,2.03,2.07-.05,1.12-.89,2.07-2.03,2.07Z"/><path class="uuid-395ba975-7455-44c1-a946-b8ac9bc084d1" d="m784.55,329.81c-4.42.22-8.84.44-13.25.67-2.62.13-2.61-4.01,0-4.14,4.42-.22,8.84-.44,13.25-.67,2.62-.13,2.61,4.01,0,4.14Z"/><path class="uuid-395ba975-7455-44c1-a946-b8ac9bc084d1" d="m787.85,322.59c-6.62.13-13.24.26-19.85.4-3.14.06-3.14-3.93,0-3.99,6.62-.13,13.24-.26,19.85-.4,3.14-.06,3.14,3.93,0,3.99Z"/><path class="uuid-395ba975-7455-44c1-a946-b8ac9bc084d1" d="m791.93,315.09c-9.34.3-18.67.59-28.01.89-2.62.08-2.62-4.05,0-4.14,9.34-.3,18.67-.59,28.01-.89,2.62-.08,2.62,4.05,0,4.14Z"/><path class="uuid-395ba975-7455-44c1-a946-b8ac9bc084d1" d="m798.11,308.34c-13.16-.29-26.31-.34-39.47-.16-2.62.04-2.62-4.1,0-4.14,13.16-.18,26.32-.13,39.47.16,2.61.06,2.62,4.19,0,4.14Z"/><path class="uuid-8b236361-f9e3-46fa-a094-af1a209f0872" d="m825.45,335.24l-1.38,2.37c-.54.93-1.86,1.34-2.79.73-.92-.61-1.3-1.83-.72-2.83l1.38-2.37c.54-.93,1.86-1.34,2.79-.73.92.61,1.3,1.83.72,2.83Z"/><path class="uuid-8b236361-f9e3-46fa-a094-af1a209f0872" d="m821.72,327.66c-2.06,3.98-4.12,7.96-6.18,11.95-1.22,2.36-4.72.25-3.5-2.1,2.06-3.98,4.12-7.96,6.18-11.95,1.22-2.36,4.72-.25,3.5,2.1Z"/><path class="uuid-8b236361-f9e3-46fa-a094-af1a209f0872" d="m817.29,321.1c-3.25,5.86-6.51,11.73-9.76,17.59-1.54,2.78-4.92.75-3.38-2.03,3.25-5.86,6.51-11.73,9.76-17.59,1.54-2.78,4.92-.75,3.38,2.03Z"/><path class="uuid-8b236361-f9e3-46fa-a094-af1a209f0872" d="m813.01,313.71c-4.5,8.33-9,16.66-13.49,24.98-1.26,2.34-4.76.23-3.5-2.1,4.5-8.33,9-16.66,13.49-24.98,1.26-2.34,4.76-.23,3.5,2.1Z"/><path class="uuid-8b236361-f9e3-46fa-a094-af1a209f0872" d="m810.44,304.86c-6.93,11.37-13.67,22.87-20.21,34.49-1.3,2.31-4.8.21-3.5-2.1,6.54-11.61,13.28-23.11,20.21-34.49,1.38-2.26,4.88-.16,3.5,2.1Z"/><path class="uuid-8b236361-f9e3-46fa-a094-af1a209f0872" d="m838.48,336.94h-2.71c-1.06,0-2.08-.95-2.03-2.07.05-1.12.89-2.07,2.03-2.07h2.71c1.06,0,2.08.95,2.03,2.07-.05,1.12-.89,2.07-2.03,2.07Z"/><path class="uuid-8b236361-f9e3-46fa-a094-af1a209f0872" d="m843,329.81c-4.42.22-8.84.44-13.25.67-2.62.13-2.61-4.01,0-4.14,4.42-.22,8.84-.44,13.25-.67,2.62-.13,2.61,4.01,0,4.14Z"/><path class="uuid-8b236361-f9e3-46fa-a094-af1a209f0872" d="m846.29,322.59c-6.62.13-13.24.26-19.85.4-3.14.06-3.14-3.93,0-3.99,6.62-.13,13.24-.26,19.85-.4,3.14-.06,3.14,3.93,0,3.99Z"/><path class="uuid-8b236361-f9e3-46fa-a094-af1a209f0872" d="m850.37,315.09c-9.34.3-18.67.59-28.01.89-2.62.08-2.62-4.05,0-4.14,9.34-.3,18.67-.59,28.01-.89,2.62-.08,2.62,4.05,0,4.14Z"/><path class="uuid-8b236361-f9e3-46fa-a094-af1a209f0872" d="m856.56,308.34c-13.16-.29-26.31-.34-39.47-.16-2.62.04-2.62-4.1,0-4.14,13.16-.18,26.32-.13,39.47.16,2.61.06,2.62,4.19,0,4.14Z"/><path class="uuid-8b236361-f9e3-46fa-a094-af1a209f0872" d="m884.08,335.1l-1.38,2.37c-.54.93-1.86,1.34-2.79.73-.92-.61-1.3-1.83-.72-2.83l1.38-2.37c.54-.93,1.86-1.34,2.79-.73.92.61,1.3,1.83.72,2.83Z"/><path class="uuid-8b236361-f9e3-46fa-a094-af1a209f0872" d="m880.34,327.52c-2.06,3.98-4.12,7.96-6.18,11.95-1.22,2.36-4.72.25-3.5-2.1,2.06-3.98,4.12-7.96,6.18-11.95,1.22-2.36,4.72-.25,3.5,2.1Z"/><path class="uuid-8b236361-f9e3-46fa-a094-af1a209f0872" d="m875.91,320.96c-3.25,5.86-6.51,11.73-9.76,17.59-1.54,2.78-4.92.75-3.38-2.03,3.25-5.86,6.51-11.73,9.76-17.59,1.54-2.78,4.92-.75,3.38,2.03Z"/><path class="uuid-8b236361-f9e3-46fa-a094-af1a209f0872" d="m871.64,313.57c-4.5,8.33-9,16.66-13.49,24.98-1.26,2.34-4.76.23-3.5-2.1,4.5-8.33,9-16.66,13.49-24.98,1.26-2.34,4.76-.23,3.5,2.1Z"/><path class="uuid-8b236361-f9e3-46fa-a094-af1a209f0872" d="m869.07,304.71c-6.93,11.37-13.67,22.87-20.21,34.49-1.3,2.31-4.8.21-3.5-2.1,6.54-11.61,13.28-23.11,20.21-34.49,1.38-2.26,4.88-.16,3.5,2.1Z"/><path class="uuid-8b236361-f9e3-46fa-a094-af1a209f0872" d="m896.93,336.73h-2.71c-1.06,0-2.08-.95-2.03-2.07.05-1.12.89-2.07,2.03-2.07h2.71c1.06,0,2.08.95,2.03,2.07-.05,1.12-.89,2.07-2.03,2.07Z"/><path class="uuid-8b236361-f9e3-46fa-a094-af1a209f0872" d="m901.45,329.6c-4.42.22-8.84.44-13.25.67-2.62.13-2.61-4.01,0-4.14,4.42-.22,8.84-.44,13.25-.67,2.62-.13,2.61,4.01,0,4.14Z"/><path class="uuid-8b236361-f9e3-46fa-a094-af1a209f0872" d="m904.75,322.39c-6.62.13-13.24.26-19.85.4-3.14.06-3.14-3.93,0-3.99,6.62-.13,13.24-.26,19.85-.4,3.14-.06,3.14,3.93,0,3.99Z"/><path class="uuid-8b236361-f9e3-46fa-a094-af1a209f0872" d="m908.82,314.89c-9.34.3-18.67.59-28.01.89-2.62.08-2.62-4.05,0-4.14,9.34-.3,18.67-.59,28.01-.89,2.62-.08,2.62,4.05,0,4.14Z"/><path class="uuid-8b236361-f9e3-46fa-a094-af1a209f0872" d="m915.01,308.13c-13.16-.29-26.31-.34-39.47-.16-2.62.04-2.62-4.1,0-4.14,13.16-.18,26.32-.13,39.47.16,2.61.06,2.62,4.19,0,4.14Z"/><path class="uuid-8b236361-f9e3-46fa-a094-af1a209f0872" d="m943.46,334.87l-1.38,2.37c-.54.93-1.86,1.34-2.79.73-.92-.61-1.3-1.83-.72-2.83l1.38-2.37c.54-.93,1.86-1.34,2.79-.73.92.61,1.3,1.83.72,2.83Z"/><path class="uuid-8b236361-f9e3-46fa-a094-af1a209f0872" d="m939.72,327.29c-2.06,3.98-4.12,7.96-6.18,11.95-1.22,2.36-4.72.25-3.5-2.1,2.06-3.98,4.12-7.96,6.18-11.95,1.22-2.36,4.72-.25,3.5,2.1Z"/><path class="uuid-8b236361-f9e3-46fa-a094-af1a209f0872" d="m935.29,320.73c-3.25,5.86-6.51,11.73-9.76,17.59-1.54,2.78-4.92.75-3.38-2.03,3.25-5.86,6.51-11.73,9.76-17.59,1.54-2.78,4.92-.75,3.38,2.03Z"/><path class="uuid-8b236361-f9e3-46fa-a094-af1a209f0872" d="m931.01,313.34c-4.5,8.33-9,16.66-13.49,24.98-1.26,2.34-4.76.23-3.5-2.1,4.5-8.33,9-16.66,13.49-24.98,1.26-2.34,4.76-.23,3.5,2.1Z"/><path class="uuid-8b236361-f9e3-46fa-a094-af1a209f0872" d="m928.44,304.49c-6.93,11.37-13.67,22.87-20.21,34.49-1.3,2.31-4.8.21-3.5-2.1,6.54-11.61,13.28-23.11,20.21-34.49,1.38-2.26,4.88-.16,3.5,2.1Z"/><path class="uuid-8b236361-f9e3-46fa-a094-af1a209f0872" d="m956.85,337.16h-2.71c-1.06,0-2.08-.95-2.03-2.07.05-1.12.89-2.07,2.03-2.07h2.71c1.06,0,2.08.95,2.03,2.07-.05,1.12-.89,2.07-2.03,2.07Z"/><path class="uuid-8b236361-f9e3-46fa-a094-af1a209f0872" d="m961.37,330.03c-4.42.22-8.84.44-13.25.67-2.62.13-2.61-4.01,0-4.14,4.42-.22,8.84-.44,13.25-.67,2.62-.13,2.61,4.01,0,4.14Z"/><path class="uuid-8b236361-f9e3-46fa-a094-af1a209f0872" d="m964.67,322.81c-6.62.13-13.24.26-19.85.4-3.14.06-3.14-3.93,0-3.99,6.62-.13,13.24-.26,19.85-.4,3.14-.06,3.14,3.93,0,3.99Z"/><path class="uuid-8b236361-f9e3-46fa-a094-af1a209f0872" d="m968.75,315.31c-9.34.3-18.67.59-28.01.89-2.62.08-2.62-4.05,0-4.14,9.34-.3,18.67-.59,28.01-.89,2.62-.08,2.62,4.05,0,4.14Z"/><path class="uuid-8b236361-f9e3-46fa-a094-af1a209f0872" d="m974.93,308.55c-13.16-.29-26.31-.34-39.47-.16-2.62.04-2.62-4.1,0-4.14,13.16-.18,26.32-.13,39.47.16,2.61.06,2.62,4.19,0,4.14Z"/><path class="uuid-8b236361-f9e3-46fa-a094-af1a209f0872" d="m1002.96,335.05l-1.38,2.37c-.54.93-1.86,1.34-2.79.73-.92-.61-1.3-1.83-.72-2.83l1.38-2.37c.54-.93,1.86-1.34,2.79-.73.92.61,1.3,1.83.72,2.83Z"/><path class="uuid-8b236361-f9e3-46fa-a094-af1a209f0872" d="m999.22,327.47c-2.06,3.98-4.12,7.96-6.18,11.95-1.22,2.36-4.72.25-3.5-2.1,2.06-3.98,4.12-7.96,6.18-11.95,1.22-2.36,4.72-.25,3.5,2.1Z"/><path class="uuid-8b236361-f9e3-46fa-a094-af1a209f0872" d="m994.79,320.91c-3.25,5.86-6.51,11.73-9.76,17.59-1.54,2.78-4.92.75-3.38-2.03,3.25-5.86,6.51-11.73,9.76-17.59,1.54-2.78,4.92-.75,3.38,2.03Z"/><path class="uuid-8b236361-f9e3-46fa-a094-af1a209f0872" d="m990.52,313.52c-4.5,8.33-9,16.66-13.49,24.98-1.26,2.34-4.76.23-3.5-2.1,4.5-8.33,9-16.66,13.49-24.98,1.26-2.34,4.76-.23,3.5,2.1Z"/><path class="uuid-8b236361-f9e3-46fa-a094-af1a209f0872" d="m987.94,304.66c-6.93,11.37-13.67,22.87-20.21,34.49-1.3,2.31-4.8.21-3.5-2.1,6.54-11.61,13.28-23.11,20.21-34.49,1.38-2.26,4.88-.16,3.5,2.1Z"/><path class="uuid-805ed41d-6366-498b-9966-8334950efe3e" d="m1015.3,336.95h-2.71c-1.06,0-2.08-.95-2.03-2.07.05-1.12.89-2.07,2.03-2.07h2.71c1.06,0,2.08.95,2.03,2.07-.05,1.12-.89,2.07-2.03,2.07Z"/><path class="uuid-805ed41d-6366-498b-9966-8334950efe3e" d="m1019.82,329.82c-4.42.22-8.84.44-13.25.67-2.62.13-2.61-4.01,0-4.14,4.42-.22,8.84-.44,13.25-.67,2.62-.13,2.61,4.01,0,4.14Z"/><path class="uuid-805ed41d-6366-498b-9966-8334950efe3e" d="m1023.12,322.6c-6.62.13-13.24.26-19.85.4-3.14.06-3.14-3.93,0-3.99,6.62-.13,13.24-.26,19.85-.4,3.14-.06,3.14,3.93,0,3.99Z"/><path class="uuid-805ed41d-6366-498b-9966-8334950efe3e" d="m1027.2,315.1c-9.34.3-18.67.59-28.01.89-2.62.08-2.62-4.05,0-4.14,9.34-.3,18.67-.59,28.01-.89,2.62-.08,2.62,4.05,0,4.14Z"/><path class="uuid-805ed41d-6366-498b-9966-8334950efe3e" d="m1033.38,308.35c-13.16-.29-26.31-.34-39.47-.16-2.62.04-2.62-4.1,0-4.14,13.16-.18,26.32-.13,39.47.16,2.61.06,2.62,4.19,0,4.14Z"/><path class="uuid-8b236361-f9e3-46fa-a094-af1a209f0872" d="m1061.68,334.9l-1.38,2.37c-.54.93-1.86,1.34-2.79.73-.92-.61-1.3-1.83-.72-2.83l1.38-2.37c.54-.93,1.86-1.34,2.79-.73.92.61,1.3,1.83.72,2.83Z"/><path class="uuid-8b236361-f9e3-46fa-a094-af1a209f0872" d="m1057.94,327.32c-2.06,3.98-4.12,7.96-6.18,11.95-1.22,2.36-4.72.25-3.5-2.1,2.06-3.98,4.12-7.96,6.18-11.95,1.22-2.36,4.72-.25,3.5,2.1Z"/><path class="uuid-8b236361-f9e3-46fa-a094-af1a209f0872" d="m1053.51,320.76c-3.25,5.86-6.51,11.73-9.76,17.59-1.54,2.78-4.92.75-3.38-2.03,3.25-5.86,6.51-11.73,9.76-17.59,1.54-2.78,4.92-.75,3.38,2.03Z"/><path class="uuid-8b236361-f9e3-46fa-a094-af1a209f0872" d="m1049.23,313.37c-4.5,8.33-9,16.66-13.49,24.98-1.26,2.34-4.76.23-3.5-2.1,4.5-8.33,9-16.66,13.49-24.98,1.26-2.34,4.76-.23,3.5,2.1Z"/><path class="uuid-8b236361-f9e3-46fa-a094-af1a209f0872" d="m1046.66,304.52c-6.93,11.37-13.67,22.87-20.21,34.49-1.3,2.31-4.8.21-3.5-2.1,6.54-11.61,13.28-23.11,20.21-34.49,1.38-2.26,4.88-.16,3.5,2.1Z"/><path class="uuid-8b236361-f9e3-46fa-a094-af1a209f0872" d="m765.81,335.24l-1.38,2.37c-.54.93-1.86,1.34-2.79.73-.92-.61-1.3-1.83-.72-2.83l1.38-2.37c.54-.93,1.86-1.34,2.79-.73.92.61,1.3,1.83.72,2.83Z"/><path class="uuid-8b236361-f9e3-46fa-a094-af1a209f0872" d="m762.07,327.66c-2.06,3.98-4.12,7.96-6.18,11.95-1.22,2.36-4.72.25-3.5-2.1,2.06-3.98,4.12-7.96,6.18-11.95,1.22-2.36,4.72-.25,3.5,2.1Z"/><path class="uuid-8b236361-f9e3-46fa-a094-af1a209f0872" d="m757.64,321.1c-3.25,5.86-6.51,11.73-9.76,17.59-1.54,2.78-4.92.75-3.38-2.03,3.25-5.86,6.51-11.73,9.76-17.59,1.54-2.78,4.92-.75,3.38,2.03Z"/><path class="uuid-8b236361-f9e3-46fa-a094-af1a209f0872" d="m753.36,313.71c-4.5,8.33-9,16.66-13.49,24.98-1.26,2.34-4.76.23-3.5-2.1,4.5-8.33,9-16.66,13.49-24.98,1.26-2.34,4.76-.23,3.5,2.1Z"/><path class="uuid-8b236361-f9e3-46fa-a094-af1a209f0872" d="m750.79,304.86c-6.93,11.37-13.67,22.87-20.21,34.49-1.3,2.31-4.8.21-3.5-2.1,6.54-11.61,13.28-23.11,20.21-34.49,1.38-2.26,4.88-.16,3.5,2.1Z"/><path class="uuid-8b236361-f9e3-46fa-a094-af1a209f0872" d="m718.6,336.64h-2.71c-1.06,0-2.08-.95-2.03-2.07.05-1.12.89-2.07,2.03-2.07h2.71c1.06,0,2.08.95,2.03,2.07-.05,1.12-.89,2.07-2.03,2.07Z"/><path class="uuid-8b236361-f9e3-46fa-a094-af1a209f0872" d="m723.12,329.51c-4.42.22-8.84.44-13.25.67-2.62.13-2.61-4.01,0-4.14,4.42-.22,8.84-.44,13.25-.67,2.62-.13,2.61,4.01,0,4.14Z"/><path class="uuid-8b236361-f9e3-46fa-a094-af1a209f0872" d="m726.42,322.29c-6.62.13-13.24.26-19.85.4-3.14.06-3.14-3.93,0-3.99,6.62-.13,13.24-.26,19.85-.4,3.14-.06,3.14,3.93,0,3.99Z"/><path class="uuid-8b236361-f9e3-46fa-a094-af1a209f0872" d="m730.5,314.79c-9.34.3-18.67.59-28.01.89-2.62.08-2.62-4.05,0-4.14,9.34-.3,18.67-.59,28.01-.89,2.62-.08,2.62,4.05,0,4.14Z"/><path class="uuid-8b236361-f9e3-46fa-a094-af1a209f0872" d="m736.68,308.04c-13.16-.29-26.31-.34-39.47-.16-2.62.04-2.62-4.1,0-4.14,13.16-.18,26.32-.13,39.47.16,2.61.06,2.62,4.19,0,4.14Z"/><path class="uuid-8b236361-f9e3-46fa-a094-af1a209f0872" d="m21.13,303.95c-7.04-.26-14.08-.32-21.13-.19v4.14c7.04-.13,14.09-.07,21.13.19,1.55.06,1.54-4.08,0-4.14Z"/><path class="uuid-8b236361-f9e3-46fa-a094-af1a209f0872" d="m14.25,310.71C9.5,310.97,4.75,311.24,0,311.51v4.14c4.75-.27,9.5-.53,14.25-.8,1.49-.08,1.49-4.22,0-4.14Z"/><path class="uuid-8b236361-f9e3-46fa-a094-af1a209f0872" d="m9.89,318.36c-3.3.12-6.59.23-9.89.35v3.99c3.3-.12,6.59-.23,9.89-.35,1.8-.06,1.8-4.05,0-3.99Z"/><path class="uuid-8b236361-f9e3-46fa-a094-af1a209f0872" d="m5.98,325.43C3.98,325.6,1.99,325.77,0,325.95v4.14c1.99-.17,3.98-.35,5.98-.52,1.51-.13,1.52-4.27,0-4.14Z"/><path class="uuid-8b236361-f9e3-46fa-a094-af1a209f0872" d="m.65,332.56H0v4.14h.65c.84,0,1.46-.95,1.5-2.07.04-1.12-.71-2.07-1.5-2.07Z"/><path class="uuid-8b236361-f9e3-46fa-a094-af1a209f0872" d="m1074.31,303.96c-6.98-.19-13.96-.22-20.94-.07-1.61.04-1.61,4.17,0,4.14,6.98-.16,13.96-.13,20.94.07v-4.14Z"/><path class="uuid-8b236361-f9e3-46fa-a094-af1a209f0872" d="m1074.29,310.97c-4.93.24-9.85.49-14.78.73-1.68.08-1.68,4.22,0,4.14,4.93-.24,9.85-.49,14.78-.73v-4.14Z"/><path class="uuid-8b236361-f9e3-46fa-a094-af1a209f0872" d="m1074.31,318.55c-3.41.1-6.82.21-10.23.31-2.08.06-2.08,4.05,0,3.99,3.41-.1,6.82-.21,10.23-.31v-3.99Z"/><path class="uuid-8b236361-f9e3-46fa-a094-af1a209f0872" d="m1074.31,325.75c-2.05.15-4.11.3-6.16.44-1.82.13-1.83,4.27,0,4.14l6.16-.44v-4.14Z"/><path class="uuid-8b236361-f9e3-46fa-a094-af1a209f0872" d="m1074.31,332.66h-1.36c-.86,0-1.5.95-1.54,2.07-.04,1.12.73,2.07,1.54,2.07h1.36v-4.14Z"/><path class="uuid-8b236361-f9e3-46fa-a094-af1a209f0872" d="m1074.29,349.99c-140.21-.16-280.42-.32-420.63-.48-139.56-.16-279.12-.32-418.68-.48C156.66,348.94,78.33,348.85,0,348.76v4.14c139.85.16,279.71.32,419.56.48l418.85.48c78.62.09,157.25.18,235.87.27v-4.14Z"/></svg>