<?xml version="1.0" encoding="UTF-8"?><svg id="uuid-9bd31ca6-35fd-4864-a950-96b02e13ee68" xmlns="http://www.w3.org/2000/svg" viewBox="0 0 23.7 23.69"><defs><style>.uuid-28a23d7e-6ed1-4e0c-9b29-a71bb14fdf4c{fill:#fff;}</style></defs><circle class="uuid-28a23d7e-6ed1-4e0c-9b29-a71bb14fdf4c" cx="8.25" cy="7.63" r="1.96"/><circle class="uuid-28a23d7e-6ed1-4e0c-9b29-a71bb14fdf4c" cx="7.18" cy="13.53" r="1.4"/><circle class="uuid-28a23d7e-6ed1-4e0c-9b29-a71bb14fdf4c" cx="11.72" cy="19.07" r="2.34"/><circle class="uuid-28a23d7e-6ed1-4e0c-9b29-a71bb14fdf4c" cx="4.26" cy="10.27" r="1.1"/><circle class="uuid-28a23d7e-6ed1-4e0c-9b29-a71bb14fdf4c" cx="18.93" cy="14.92" r="1.16"/><circle class="uuid-28a23d7e-6ed1-4e0c-9b29-a71bb14fdf4c" cx="15.8" cy="10.97" r="1.16"/><path class="uuid-28a23d7e-6ed1-4e0c-9b29-a71bb14fdf4c" d="m11.85,23.69C5.31,23.69,0,18.38,0,11.85S5.31,0,11.85,0c.46,0,.94.03,1.52.11.26.03.45.26.44.53-.07,1.22.31,2.38,1.06,3.18.68.72,1.64,1.11,2.76,1.11.53,0,1.03-.09,1.49-.27.14-.06.3-.04.43.03.13.07.22.2.25.35.28,1.7,1.42,2.88,3.03,3.15.19.03.34.17.4.35.32,1.08.48,2.2.48,3.32,0,6.53-5.31,11.85-11.85,11.85Zm0-22.69C5.87,1,1,5.87,1,11.85s4.87,10.85,10.85,10.85,10.85-4.87,10.85-10.85c0-.92-.12-1.85-.36-2.75-1.68-.4-2.94-1.63-3.42-3.34-.42.11-.85.16-1.3.16-1.41,0-2.62-.49-3.49-1.42-.84-.89-1.31-2.13-1.34-3.45-.34-.03-.65-.05-.94-.05Z"/></svg>