<?xml version="1.0" encoding="UTF-8"?><svg id="uuid-92fdee86-a680-4806-bc14-795e083c7171" xmlns="http://www.w3.org/2000/svg" viewBox="0 0 23.61 18.07"><defs><style>.uuid-8413b5d2-0778-4ff9-945e-38f12672e014{fill:#fff;}</style></defs><path class="uuid-8413b5d2-0778-4ff9-945e-38f12672e014" d="m19.9,0H3.71C1.66,0,0,1.76,0,3.92v10.24c0,2.16,1.66,3.92,3.71,3.92h16.19c2.04,0,3.71-1.76,3.71-3.92V3.92c0-2.16-1.66-3.92-3.71-3.92Zm0,1.06c.63,0,1.21.24,1.67.62l-9.54,8.56L2.25,1.51c.42-.29.92-.46,1.46-.46h16.19ZM1,14.15V3.92c0-.63.2-1.2.52-1.67l7.69,6.86-7.49,6.97c-.44-.51-.72-1.18-.72-1.93Zm2.71,2.86c-.42,0-.81-.11-1.17-.29l7.44-6.93,1.72,1.53c.09.08.21.12.32.12s.23-.04.32-.13l1.61-1.44,7.19,6.79c-.38.21-.79.34-1.25.34H3.71Zm18.9-2.86c0,.71-.26,1.36-.67,1.86l-7.22-6.81,7.5-6.72c.24.42.38.91.38,1.44v10.24Z"/></svg>