<?xml version="1.0" encoding="UTF-8"?><svg id="uuid-702e438d-c3db-4ba7-a56a-d2fd5b8e465b" xmlns="http://www.w3.org/2000/svg" viewBox="0 0 23.89 23.89"><defs><style>.uuid-a58d7088-3d8c-447d-bbc2-f5e3961755c0{fill:#fff;}</style></defs><path class="uuid-a58d7088-3d8c-447d-bbc2-f5e3961755c0" d="m23.88,12.18c0-.36,0-.72-.02-1.08-.06-.89-.23-1.78-.49-2.64s-.6-1.64-1.04-2.4-.94-1.45-1.51-2.09-1.22-1.22-1.92-1.72-1.46-.93-2.26-1.28-1.66-.6-2.53-.76c-.31-.06-.62-.1-.94-.13-.16-.02-.32-.03-.48-.04s-.33,0-.48-.02c-.04,0-.07,0-.1,0-.06,0-.11,0-.16,0-1.19,0-2.38.18-3.51.53s-2.15.84-3.11,1.48-1.81,1.4-2.54,2.28-1.35,1.86-1.8,2.92S.2,9.43.07,10.6c-.16,1.38-.06,2.8.27,4.15.27,1.14.72,2.23,1.31,3.24s1.31,1.9,2.15,2.69,1.8,1.45,2.83,1.97,2.18.89,3.34,1.09c.65.11,1.32.16,1.98.16.05,0,.1,0,.18,0,.02,0,.03,0,.05-.01.45-.05.91-.04,1.36-.1s.89-.15,1.33-.26c.86-.22,1.69-.53,2.48-.93s1.51-.88,2.18-1.44,1.28-1.18,1.82-1.87,1-1.44,1.38-2.23.67-1.65.86-2.52c.17-.78.27-1.57.29-2.36Zm-1.04-.46h-4.17c-.13-2.02-.76-3.87-1.59-5.48.91-.44,1.83-1.04,2.75-1.81,1.81,1.91,2.95,4.46,3,7.29ZM12.46,1.71c.82.82,2.08,2.23,3.16,4.05-1.09.4-2.16.58-3.16.61V1.71Zm.89-.58c2.18.28,4.16,1.21,5.75,2.59-.84.69-1.68,1.22-2.5,1.62-1.09-1.85-2.36-3.31-3.25-4.21Zm-1.92.76v4.45c-1.07-.08-2.07-.32-2.95-.64,1-1.66,2.14-2.98,2.95-3.81Zm-3.94,3.42c-1.23-.55-2.17-1.19-2.7-1.59,1.63-1.42,3.69-2.37,5.95-2.62-.88.89-2.16,2.35-3.26,4.21Zm3.94,2.03v4.39h-5.01c.14-1.88.76-3.63,1.57-5.15,1.02.37,2.18.67,3.44.76Zm0,5.42v3.85c-1.44.05-2.72.36-3.81.78-.77-1.5-1.19-3.04-1.22-4.63h5.04Zm0,4.85v4.51c-1.4-1.24-2.52-2.52-3.33-3.85.96-.36,2.08-.62,3.33-.65Zm-.8,5.18c-2.22-.27-4.24-1.21-5.84-2.61.45-.38,1.26-.98,2.35-1.51.86,1.43,2.02,2.8,3.49,4.11Zm1.83-.51v-4.64c1.06.08,2.2.32,3.4.8-.84,1.32-1.98,2.6-3.4,3.84Zm4.35-3.41c.73.36,1.48.81,2.24,1.36-1.54,1.33-3.46,2.23-5.57,2.53,1.39-1.25,2.49-2.54,3.33-3.89Zm-4.35-2.24v-3.86h5.22c-.04,1.64-.49,3.24-1.3,4.78-1.39-.57-2.7-.85-3.92-.92Zm0-4.89v-4.36c1.17-.02,2.4-.22,3.67-.7.78,1.5,1.38,3.21,1.52,5.06h-5.19ZM4.05,4.43c.53.4,1.57,1.12,2.97,1.74-.84,1.62-1.49,3.5-1.63,5.55H1.04c.06-2.82,1.19-5.38,3.01-7.29ZM1.07,12.75h4.29c.04,1.74.49,3.42,1.31,5.04-1.23.59-2.14,1.26-2.62,1.67-1.69-1.78-2.78-4.12-2.97-6.71Zm18.74,6.74c-.85-.62-1.68-1.13-2.5-1.53.88-1.67,1.35-3.41,1.39-5.21h4.11c-.19,2.61-1.3,4.96-3.01,6.74Z"/></svg>